<?xml version='1.0' encoding='utf-8'?>
<svg width="161.49027mm" height="492.604367mm" viewBox="-86.99456 -282.648479 161.49027 492.604367" version="1.1" xmlns="http://www.w3.org/2000/svg">
  <g transform="scale(1,-1)" stroke-linecap="round">
    <g fill="none" stroke="rgb(0,0,0)" stroke-width="0.09" id="visible">
      <line x1="74.45071" y1="256.781924" x2="69.500644" y2="282.603479" />
      <line x1="69.500644" y1="282.603479" x2="-81.180746" y2="280.431438" />
      <line x1="-86.94956" y1="254.514252" x2="-81.180746" y2="280.431438" />
      <line x1="74.45071" y1="256.781924" x2="-86.94956" y2="254.514252" />
      <line x1="62.868461" y1="64.216566" x2="-67.40143" y2="62.739463" />
      <line x1="74.45071" y1="256.781924" x2="62.868461" y2="64.216566" />
      <line x1="-86.94956" y1="254.514252" x2="-67.40143" y2="62.739463" />
      <line x1="73.116673" y1="55.79664" x2="65.873562" y2="114.179087" />
      <line x1="-77.253636" y1="54.109707" x2="-71.223984" y2="100.240216" />
      <line x1="73.116673" y1="55.79664" x2="-77.253636" y2="54.109707" />
      <line x1="66.490047" y1="-34.173316" x2="-66.909044" y2="-35.500883" />
      <line x1="73.116673" y1="55.79664" x2="66.490047" y2="-34.173316" />
      <line x1="-77.253636" y1="54.109707" x2="-66.909044" y2="-35.500883" />
      <line x1="52.601045" y1="-106.488505" x2="48.637084" y2="-49.84603" />
      <line x1="48.637084" y1="-49.84603" x2="-46.290787" y2="-50.770007" />
      <line x1="-50.058064" y1="-107.405727" x2="-46.290787" y2="-50.770007" />
      <line x1="52.601045" y1="-106.488505" x2="-50.058064" y2="-107.405727" />
      <line x1="52.029632" y1="-115.988753" x2="-49.092457" y2="-116.87871" />
      <line x1="52.601045" y1="-106.488505" x2="52.029632" y2="-115.988753" />
      <line x1="-50.058064" y1="-107.405727" x2="-49.092457" y2="-116.87871" />
      <line x1="46.452585" y1="-141.457019" x2="45.29006" y2="-121.771421" />
      <line x1="45.29006" y1="-121.771421" x2="-41.408894" y2="-122.527449" />
      <line x1="-42.470463" y1="-142.207755" x2="-41.408894" y2="-122.527449" />
      <line x1="46.452585" y1="-141.457019" x2="-42.470463" y2="-142.207755" />
      <line x1="42.829095" y1="-209.320542" x2="-36.026519" y2="-209.910888" />
      <line x1="46.452585" y1="-141.457019" x2="42.829095" y2="-209.320542" />
      <line x1="-42.470463" y1="-142.207755" x2="-36.026519" y2="-209.910888" />
    </g>
    <g fill="none" stroke="rgb(0,0,0)" stroke-width="0.09" id="hidden" stroke-dasharray="0.5715 0.28575">
      <line x1="62.868461" y1="64.216566" x2="59.451761" y2="95.788281" />
      <line x1="59.451761" y1="95.788281" x2="-63.744737" y2="94.336503" />
      <line x1="-67.40143" y1="62.739463" x2="-63.744737" y2="94.336503" />
      <line x1="69.500644" y1="282.603479" x2="59.451761" y2="95.788281" />
      <line x1="-81.180746" y1="280.431438" x2="-63.744737" y2="94.336503" />
      <line x1="65.873562" y1="114.179087" x2="62.460516" y2="141.689639" />
      <line x1="62.460516" y1="141.689639" x2="-66.014934" y2="140.092617" />
      <line x1="-71.223984" y1="100.240216" x2="-66.014934" y2="140.092617" />
      <line x1="66.490047" y1="-34.173316" x2="57.750689" y2="55.115599" />
      <line x1="57.750689" y1="55.115599" x2="-58.128975" y2="53.816431" />
      <line x1="-66.909044" y1="-35.500883" x2="-58.128975" y2="53.816431" />
      <line x1="62.460516" y1="141.689639" x2="57.750689" y2="55.115599" />
      <line x1="-66.014934" y1="140.092617" x2="-58.128975" y2="53.816431" />
      <line x1="52.029632" y1="-115.988753" x2="48.163123" y2="-59.426018" />
      <line x1="48.163123" y1="-59.426018" x2="-45.449033" y2="-60.324554" />
      <line x1="-49.092457" y1="-116.87871" x2="-45.449033" y2="-60.324554" />
      <line x1="48.637084" y1="-49.84603" x2="48.163123" y2="-59.426018" />
      <line x1="-46.290787" y1="-50.770007" x2="-45.449033" y2="-60.324554" />
      <line x1="42.829095" y1="-209.320542" x2="41.875984" y2="-190.305385" />
      <line x1="41.875984" y1="-190.305385" x2="-35.225663" y2="-190.903274" />
      <line x1="-36.026519" y1="-209.910888" x2="-35.225663" y2="-190.903274" />
      <line x1="45.29006" y1="-121.771421" x2="41.875984" y2="-190.305385" />
      <line x1="-41.408894" y1="-122.527449" x2="-35.225663" y2="-190.903274" />
    </g>
  </g>
</svg>