  0
SECTION
  2
HEADER
  9
$ACADVER
  1
AC1027
  9
$ACADMAINTVER
 70
105
  9
$DWGCODEPAGE
  3
ANSI_1252
  9
$LASTSAVEDBY
  1
ezdxf
  9
$REQUIREDVERSIONS
160
0
  9
$INSBASE
 10
0.0
 20
0.0
 30
0.0
  9
$EXTMIN
 10
1e+20
 20
1e+20
 30
1e+20
  9
$EXTMAX
 10
-1e+20
 20
-1e+20
 30
-1e+20
  9
$LIMMIN
 10
0.0
 20
0.0
  9
$LIMMAX
 10
420.0
 20
297.0
  9
$ORTHOMODE
 70
0
  9
$REGENMODE
 70
1
  9
$FILLMODE
 70
1
  9
$QTEXTMODE
 70
0
  9
$MIRRTEXT
 70
1
  9
$LTSCALE
 40
1.0
  9
$ATTMODE
 70
1
  9
$TEXTSIZE
 40
2.5
  9
$TRACEWID
 40
1.0
  9
$TEXTSTYLE
  7
Standard
  9
$CLAYER
  8
0
  9
$CELTYPE
  6
ByLayer
  9
$CECOLOR
 62
256
  9
$CELTSCALE
 40
1.0
  9
$DISPSILH
 70
0
  9
$DIMSCALE
 40
1.0
  9
$DIMASZ
 40
2.5
  9
$DIMEXO
 40
0.625
  9
$DIMDLI
 40
3.75
  9
$DIMRND
 40
0.0
  9
$DIMDLE
 40
0.0
  9
$DIMEXE
 40
1.25
  9
$DIMTP
 40
0.0
  9
$DIMTM
 40
0.0
  9
$DIMTXT
 40
2.5
  9
$DIMCEN
 40
2.5
  9
$DIMTSZ
 40
0.0
  9
$DIMTOL
 70
0
  9
$DIMLIM
 70
0
  9
$DIMTIH
 70
0
  9
$DIMTOH
 70
0
  9
$DIMSE1
 70
0
  9
$DIMSE2
 70
0
  9
$DIMTAD
 70
1
  9
$DIMZIN
 70
8
  9
$DIMBLK
  1

  9
$DIMASO
 70
1
  9
$DIMSHO
 70
1
  9
$DIMPOST
  1

  9
$DIMAPOST
  1

  9
$DIMALT
 70
0
  9
$DIMALTD
 70
3
  9
$DIMALTF
 40
0.03937007874
  9
$DIMLFAC
 40
1.0
  9
$DIMTOFL
 70
1
  9
$DIMTVP
 40
0.0
  9
$DIMTIX
 70
0
  9
$DIMSOXD
 70
0
  9
$DIMSAH
 70
0
  9
$DIMBLK1
  1

  9
$DIMBLK2
  1

  9
$DIMSTYLE
  2
ISO-25
  9
$DIMCLRD
 70
0
  9
$DIMCLRE
 70
0
  9
$DIMCLRT
 70
0
  9
$DIMTFAC
 40
1.0
  9
$DIMGAP
 40
0.625
  9
$DIMJUST
 70
0
  9
$DIMSD1
 70
0
  9
$DIMSD2
 70
0
  9
$DIMTOLJ
 70
0
  9
$DIMTZIN
 70
8
  9
$DIMALTZ
 70
0
  9
$DIMALTTZ
 70
0
  9
$DIMUPT
 70
0
  9
$DIMDEC
 70
2
  9
$DIMTDEC
 70
2
  9
$DIMALTU
 70
2
  9
$DIMALTTD
 70
3
  9
$DIMTXSTY
  7
Standard
  9
$DIMAUNIT
 70
0
  9
$DIMADEC
 70
0
  9
$DIMALTRND
 40
0.0
  9
$DIMAZIN
 70
0
  9
$DIMDSEP
 70
44
  9
$DIMATFIT
 70
3
  9
$DIMFRAC
 70
0
  9
$DIMLDRBLK
  1

  9
$DIMLUNIT
 70
2
  9
$DIMLWD
 70
-2
  9
$DIMLWE
 70
-2
  9
$DIMTMOVE
 70
0
  9
$DIMFXL
 40
1.0
  9
$DIMFXLON
 70
0
  9
$DIMJOGANG
 40
0.785398163397
  9
$DIMTFILL
 70
0
  9
$DIMTFILLCLR
 70
0
  9
$DIMARCSYM
 70
0
  9
$DIMLTYPE
  6

  9
$DIMLTEX1
  6

  9
$DIMLTEX2
  6

  9
$DIMTXTDIRECTION
 70
0
  9
$LUNITS
 70
2
  9
$LUPREC
 70
4
  9
$SKETCHINC
 40
1.0
  9
$FILLETRAD
 40
10.0
  9
$AUNITS
 70
0
  9
$AUPREC
 70
2
  9
$MENU
  1
.
  9
$ELEVATION
 40
0.0
  9
$PELEVATION
 40
0.0
  9
$THICKNESS
 40
0.0
  9
$LIMCHECK
 70
0
  9
$CHAMFERA
 40
0.0
  9
$CHAMFERB
 40
0.0
  9
$CHAMFERC
 40
0.0
  9
$CHAMFERD
 40
0.0
  9
$SKPOLY
 70
0
  9
$TDCREATE
 40
2461134.441863426
  9
$TDUCREATE
 40
2458532.153996898
  9
$TDUPDATE
 40
2461134.441863426
  9
$TDUUPDATE
 40
2458532.1544311
  9
$TDINDWG
 40
0.0
  9
$TDUSRTIMER
 40
0.0
  9
$USRTIMER
 70
1
  9
$ANGBASE
 50
0.0
  9
$ANGDIR
 70
0
  9
$PDMODE
 70
0
  9
$PDSIZE
 40
0.0
  9
$PLINEWID
 40
0.0
  9
$SPLFRAME
 70
0
  9
$SPLINETYPE
 70
6
  9
$SPLINESEGS
 70
8
  9
$HANDSEED
  5
BE
  9
$SURFTAB1
 70
6
  9
$SURFTAB2
 70
6
  9
$SURFTYPE
 70
6
  9
$SURFU
 70
6
  9
$SURFV
 70
6
  9
$UCSBASE
  2

  9
$UCSNAME
  2

  9
$UCSORG
 10
0.0
 20
0.0
 30
0.0
  9
$UCSXDIR
 10
1.0
 20
0.0
 30
0.0
  9
$UCSYDIR
 10
0.0
 20
1.0
 30
0.0
  9
$UCSORTHOREF
  2

  9
$UCSORTHOVIEW
 70
0
  9
$UCSORGTOP
 10
0.0
 20
0.0
 30
0.0
  9
$UCSORGBOTTOM
 10
0.0
 20
0.0
 30
0.0
  9
$UCSORGLEFT
 10
0.0
 20
0.0
 30
0.0
  9
$UCSORGRIGHT
 10
0.0
 20
0.0
 30
0.0
  9
$UCSORGFRONT
 10
0.0
 20
0.0
 30
0.0
  9
$UCSORGBACK
 10
0.0
 20
0.0
 30
0.0
  9
$PUCSBASE
  2

  9
$PUCSNAME
  2

  9
$PUCSORG
 10
0.0
 20
0.0
 30
0.0
  9
$PUCSXDIR
 10
1.0
 20
0.0
 30
0.0
  9
$PUCSYDIR
 10
0.0
 20
1.0
 30
0.0
  9
$PUCSORTHOREF
  2

  9
$PUCSORTHOVIEW
 70
0
  9
$PUCSORGTOP
 10
0.0
 20
0.0
 30
0.0
  9
$PUCSORGBOTTOM
 10
0.0
 20
0.0
 30
0.0
  9
$PUCSORGLEFT
 10
0.0
 20
0.0
 30
0.0
  9
$PUCSORGRIGHT
 10
0.0
 20
0.0
 30
0.0
  9
$PUCSORGFRONT
 10
0.0
 20
0.0
 30
0.0
  9
$PUCSORGBACK
 10
0.0
 20
0.0
 30
0.0
  9
$USERI1
 70
0
  9
$USERI2
 70
0
  9
$USERI3
 70
0
  9
$USERI4
 70
0
  9
$USERI5
 70
0
  9
$USERR1
 40
0.0
  9
$USERR2
 40
0.0
  9
$USERR3
 40
0.0
  9
$USERR4
 40
0.0
  9
$USERR5
 40
0.0
  9
$WORLDVIEW
 70
1
  9
$SHADEDGE
 70
3
  9
$SHADEDIF
 70
70
  9
$TILEMODE
 70
1
  9
$MAXACTVP
 70
64
  9
$PINSBASE
 10
0.0
 20
0.0
 30
0.0
  9
$PLIMCHECK
 70
0
  9
$PEXTMIN
 10
1e+20
 20
1e+20
 30
1e+20
  9
$PEXTMAX
 10
-1e+20
 20
-1e+20
 30
-1e+20
  9
$PLIMMIN
 10
0.0
 20
0.0
  9
$PLIMMAX
 10
420.0
 20
297.0
  9
$UNITMODE
 70
0
  9
$VISRETAIN
 70
1
  9
$PLINEGEN
 70
0
  9
$PSLTSCALE
 70
1
  9
$TREEDEPTH
 70
3020
  9
$CMLSTYLE
  2
Standard
  9
$CMLJUST
 70
0
  9
$CMLSCALE
 40
20.0
  9
$PROXYGRAPHICS
 70
1
  9
$MEASUREMENT
 70
1
  9
$CELWEIGHT
370
-1
  9
$ENDCAPS
280
0
  9
$JOINSTYLE
280
0
  9
$LWDISPLAY
290
0
  9
$INSUNITS
 70
4
  9
$HYPERLINKBASE
  1

  9
$STYLESHEET
  1

  9
$XEDIT
290
1
  9
$CEPSNTYPE
380
0
  9
$PSTYLEMODE
290
1
  9
$FINGERPRINTGUID
  2
{020D6E99-6F8E-479A-877A-E5D6E53D9818}
  9
$VERSIONGUID
  2
{80E5D058-1B38-4A62-B663-B5AD83A78661}
  9
$EXTNAMES
290
1
  9
$PSVPSCALE
 40
0.0
  9
$OLESTARTUP
290
0
  9
$SORTENTS
280
127
  9
$INDEXCTL
280
0
  9
$HIDETEXT
280
1
  9
$XCLIPFRAME
280
1
  9
$HALOGAP
280
0
  9
$OBSCOLOR
 70
257
  9
$OBSLTYPE
280
0
  9
$INTERSECTIONDISPLAY
280
0
  9
$INTERSECTIONCOLOR
 70
257
  9
$DIMASSOC
280
2
  9
$PROJECTNAME
  1

  9
$CAMERADISPLAY
290
0
  9
$LENSLENGTH
 40
50.0
  9
$CAMERAHEIGHT
 40
0.0
  9
$STEPSPERSEC
 40
24.0
  9
$STEPSIZE
 40
100.0
  9
$3DDWFPREC
 40
2.0
  9
$PSOLWIDTH
 40
0.005
  9
$PSOLHEIGHT
 40
0.08
  9
$LOFTANG1
 40
1.570796326795
  9
$LOFTANG2
 40
1.570796326795
  9
$LOFTMAG1
 40
0.0
  9
$LOFTMAG2
 40
0.0
  9
$LOFTPARAM
 70
7
  9
$LOFTNORMALS
280
1
  9
$LATITUDE
 40
37.795
  9
$LONGITUDE
 40
-122.394
  9
$NORTHDIRECTION
 40
0.0
  9
$TIMEZONE
 70
-8000
  9
$LIGHTGLYPHDISPLAY
280
1
  9
$TILEMODELIGHTSYNCH
280
1
  9
$CMATERIAL
347
20
  9
$SOLIDHIST
280
0
  9
$SHOWHIST
280
1
  9
$DWFFRAME
280
2
  9
$DGNFRAME
280
2
  9
$REALWORLDSCALE
290
1
  9
$INTERFERECOLOR
 62
256
  9
$CSHADOW
280
0
  9
$SHADOWPLANELOCATION
 40
0.0
  0
ENDSEC
  0
SECTION
  2
CLASSES
  0
CLASS
  1
ACDBDICTIONARYWDFLT
  2
AcDbDictionaryWithDefault
  3
ObjectDBX Classes
 90
0
 91
0
280
0
281
0
  0
CLASS
  1
SUN
  2
AcDbSun
  3
SCENEOE
 90
1153
 91
0
280
0
281
0
  0
CLASS
  1
VISUALSTYLE
  2
AcDbVisualStyle
  3
ObjectDBX Classes
 90
4095
 91
0
280
0
281
0
  0
CLASS
  1
MATERIAL
  2
AcDbMaterial
  3
ObjectDBX Classes
 90
1153
 91
0
280
0
281
0
  0
CLASS
  1
SCALE
  2
AcDbScale
  3
ObjectDBX Classes
 90
1153
 91
0
280
0
281
0
  0
CLASS
  1
TABLESTYLE
  2
AcDbTableStyle
  3
ObjectDBX Classes
 90
4095
 91
0
280
0
281
0
  0
CLASS
  1
MLEADERSTYLE
  2
AcDbMLeaderStyle
  3
ACDB_MLEADERSTYLE_CLASS
 90
4095
 91
0
280
0
281
0
  0
CLASS
  1
DICTIONARYVAR
  2
AcDbDictionaryVar
  3
ObjectDBX Classes
 90
0
 91
0
280
0
281
0
  0
CLASS
  1
CELLSTYLEMAP
  2
AcDbCellStyleMap
  3
ObjectDBX Classes
 90
1152
 91
0
280
0
281
0
  0
CLASS
  1
MENTALRAYRENDERSETTINGS
  2
AcDbMentalRayRenderSettings
  3
SCENEOE
 90
1024
 91
0
280
0
281
0
  0
CLASS
  1
ACDBDETAILVIEWSTYLE
  2
AcDbDetailViewStyle
  3
ObjectDBX Classes
 90
1025
 91
0
280
0
281
0
  0
CLASS
  1
ACDBSECTIONVIEWSTYLE
  2
AcDbSectionViewStyle
  3
ObjectDBX Classes
 90
1025
 91
0
280
0
281
0
  0
CLASS
  1
RASTERVARIABLES
  2
AcDbRasterVariables
  3
ISM
 90
0
 91
0
280
0
281
0
  0
CLASS
  1
ACDBPLACEHOLDER
  2
AcDbPlaceHolder
  3
ObjectDBX Classes
 90
0
 91
0
280
0
281
0
  0
CLASS
  1
LAYOUT
  2
AcDbLayout
  3
ObjectDBX Classes
 90
0
 91
0
280
0
281
0
  0
ENDSEC
  0
SECTION
  2
TABLES
  0
TABLE
  2
VPORT
  5
8
330
0
100
AcDbSymbolTable
 70
1
  0
VPORT
  5
BA
330
8
100
AcDbSymbolTableRecord
100
AcDbViewportTableRecord
  2
*Active
 70
0
 10
0.0
 20
0.0
 11
1.0
 21
1.0
 12
-58.44277604785859
 22
54.92345311668211
 13
0.0
 23
0.0
 14
0.5
 24
0.5
 15
0.5
 25
0.5
 16
0.0
 26
0.0
 36
1.0
 17
0.0
 27
0.0
 37
0.0
 40
328.4728050396071
 41
1.34
 42
50.0
 43
0.0
 44
0.0
 50
0.0
 51
0.0
 71
0
 72
1000
 73
1
 74
3
 75
0
 76
0
 77
0
 78
0
281
0
 65
1
110
0.0
120
0.0
130
0.0
111
1.0
121
0.0
131
0.0
112
0.0
122
1.0
132
0.0
 79
0
146
0.0
  0
ENDTAB
  0
TABLE
  2
LTYPE
  5
2
330
0
100
AcDbSymbolTable
 70
4
  0
LTYPE
  5
24
330
2
100
AcDbSymbolTableRecord
100
AcDbLinetypeTableRecord
  2
ByBlock
 70
0
  3

 72
65
 73
0
 40
0.0
  0
LTYPE
  5
25
330
2
100
AcDbSymbolTableRecord
100
AcDbLinetypeTableRecord
  2
ByLayer
 70
0
  3

 72
65
 73
0
 40
0.0
  0
LTYPE
  5
26
330
2
100
AcDbSymbolTableRecord
100
AcDbLinetypeTableRecord
  2
Continuous
 70
0
  3

 72
65
 73
0
 40
0.0
  0
LTYPE
  5
30
330
2
100
AcDbSymbolTableRecord
100
AcDbLinetypeTableRecord
  2
HIDDEN
 70
0
  3
Hidden __ __ __ __ __ __ __ __ __ __ __ __ __ __
 72
65
 73
2
 40
9.525
 49
6.35
 74
0
 49
-3.175
 74
0
  0
ENDTAB
  0
TABLE
  2
LAYER
  5
1
330
0
100
AcDbSymbolTable
 70
4
  0
LAYER
  5
27
330
1
100
AcDbSymbolTableRecord
100
AcDbLayerTableRecord
  2
0
 70
0
 62
7
  6
CONTINUOUS
370
-3
390
13
347
21
  0
LAYER
  5
28
330
1
100
AcDbSymbolTableRecord
100
AcDbLayerTableRecord
  2
Defpoints
 70
0
 62
7
  6
Continuous
290
0
370
-3
390
13
347
21
  0
LAYER
  5
2F
330
1
100
AcDbSymbolTableRecord
100
AcDbLayerTableRecord
  2
visible
 70
0
 62
7
  6
CONTINUOUS
370
-3
390
13
347
21
  0
LAYER
  5
31
330
1
100
AcDbSymbolTableRecord
100
AcDbLayerTableRecord
  2
hidden
 70
0
 62
7
  6
HIDDEN
370
-3
390
13
347
21
  0
ENDTAB
  0
TABLE
  2
STYLE
  5
5
330
0
100
AcDbSymbolTable
 70
1
  0
STYLE
  5
29
330
5
100
AcDbSymbolTableRecord
100
AcDbTextStyleTableRecord
  2
Standard
 70
0
 40
0.0
 41
1.0
 50
0.0
 71
0
 42
2.5
  3
txt
  4

  0
ENDTAB
  0
TABLE
  2
VIEW
  5
7
330
0
100
AcDbSymbolTable
 70
0
  0
ENDTAB
  0
TABLE
  2
UCS
  5
6
330
0
100
AcDbSymbolTable
 70
0
  0
ENDTAB
  0
TABLE
  2
APPID
  5
3
330
0
100
AcDbSymbolTable
 70
3
  0
APPID
  5
2A
330
3
100
AcDbSymbolTableRecord
100
AcDbRegAppTableRecord
  2
ACAD
 70
0
  0
APPID
  5
BB
330
3
100
AcDbSymbolTableRecord
100
AcDbRegAppTableRecord
  2
HATCHBACKGROUNDCOLOR
 70
0
  0
APPID
  5
BC
330
3
100
AcDbSymbolTableRecord
100
AcDbRegAppTableRecord
  2
EZDXF
 70
0
  0
ENDTAB
  0
TABLE
  2
DIMSTYLE
  5
4
330
0
100
AcDbSymbolTable
 70
1
100
AcDbDimStyleTable
  0
DIMSTYLE
105
2B
330
4
100
AcDbSymbolTableRecord
100
AcDbDimStyleTableRecord
  2
Standard
 70
0
 40
1.0
 41
2.5
 42
0.625
 43
3.75
 44
1.25
 45
0.0
 46
0.0
 47
0.0
 48
0.0
 49
2.5
140
2.5
141
2.5
142
0.0
143
0.03937007874
144
1.0
145
0.0
146
1.0
147
0.625
148
0.0
 69
0
 70
0
 71
0
 72
0
 73
0
 74
0
 75
0
 76
0
 77
1
 78
8
 79
3
170
0
171
3
172
1
173
0
174
0
175
0
176
0
177
0
178
0
179
2
271
2
272
2
273
2
274
3
275
0
276
0
277
2
278
44
279
0
280
0
281
0
282
0
283
0
284
8
285
0
286
0
288
0
289
3
290
0
371
-2
372
-2
  0
ENDTAB
  0
TABLE
  2
BLOCK_RECORD
  5
9
330
0
100
AcDbSymbolTable
 70
2
  0
BLOCK_RECORD
  5
17
330
9
100
AcDbSymbolTableRecord
100
AcDbBlockTableRecord
  2
*Model_Space
340
1A
 70
0
280
1
281
0
  0
BLOCK_RECORD
  5
1B
330
9
100
AcDbSymbolTableRecord
100
AcDbBlockTableRecord
  2
*Paper_Space
340
1E
 70
0
280
1
281
0
  0
ENDTAB
  0
ENDSEC
  0
SECTION
  2
BLOCKS
  0
BLOCK
  5
18
330
17
100
AcDbEntity
  8
0
100
AcDbBlockBegin
  2
*Model_Space
 70
0
 10
0.0
 20
0.0
 30
0.0
  3
*Model_Space
  1

  0
ENDBLK
  5
19
330
17
100
AcDbEntity
  8
0
100
AcDbBlockEnd
  0
BLOCK
  5
1C
330
1B
100
AcDbEntity
  8
0
100
AcDbBlockBegin
  2
*Paper_Space
 70
0
 10
0.0
 20
0.0
 30
0.0
  3
*Paper_Space
  1

  0
ENDBLK
  5
1D
330
1B
100
AcDbEntity
  8
0
100
AcDbBlockEnd
  0
ENDSEC
  0
SECTION
  2
ENTITIES
  0
LINE
  5
32
330
17
100
AcDbEntity
  8
visible
100
AcDbLine
 10
-24.3134191062159
 20
209.24529413550252
 30
0.0
 11
-24.050787961119042
 21
219.1598556364857
 31
0.0
  0
LINE
  5
33
330
17
100
AcDbEntity
  8
visible
100
AcDbLine
 10
-24.050787961119042
 20
219.15985563648567
 30
0.0
 11
-190.4829432701764
 21
177.34921407533233
 31
0.0
  0
LINE
  5
34
330
17
100
AcDbEntity
  8
visible
100
AcDbLine
 10
-192.43288863113503
 20
167.62677091262177
 30
0.0
 11
-190.48294327017638
 21
177.34921407533236
 31
0.0
  0
LINE
  5
35
330
17
100
AcDbEntity
  8
visible
100
AcDbLine
 10
-24.3134191062159
 20
209.24529413550252
 30
0.0
 11
-192.432888631135
 21
167.62677091262177
 31
0.0
  0
LINE
  5
36
330
17
100
AcDbEntity
  8
visible
100
AcDbLine
 10
-24.3134191062159
 20
209.24529413550252
 30
0.0
 11
73.5489705818606
 21
-14.839777526018594
 31
0.0
  0
LINE
  5
37
330
17
100
AcDbEntity
  8
visible
100
AcDbLine
 10
73.02013157958001
 20
-6.6288998435022926
 30
0.0
 11
73.54897058186059
 21
-14.83977752601856
 31
0.0
  0
LINE
  5
38
330
17
100
AcDbEntity
  8
visible
100
AcDbLine
 10
-24.050787961119042
 20
219.15985563648567
 30
0.0
 11
73.02013157958001
 21
-6.628899843502268
 31
0.0
  0
LINE
  5
39
330
17
100
AcDbEntity
  8
visible
100
AcDbLine
 10
-192.43288863113503
 20
167.62677091262177
 30
0.0
 11
-44.499054978585946
 21
-33.54058132898186
 31
0.0
  0
LINE
  5
3A
330
17
100
AcDbEntity
  8
visible
100
AcDbLine
 10
73.5489705818606
 20
-14.83977752601856
 30
0.0
 11
-44.49905497858596
 21
-33.54058132898179
 31
0.0
  0
LINE
  5
3B
330
17
100
AcDbEntity
  8
visible
100
AcDbLine
 10
97.39904093662273
 20
-69.45161299839882
 30
0.0
 11
109.34965671228584
 21
-96.81610512887303
 31
0.0
  0
LINE
  5
3C
330
17
100
AcDbEntity
  8
visible
100
AcDbLine
 10
109.34965671228578
 20
-96.81610512887293
 30
0.0
 11
108.70859662300288
 21
-89.64093007122662
 31
0.0
  0
LINE
  5
3D
330
17
100
AcDbEntity
  8
visible
100
AcDbLine
 10
96.78483161105864
 20
-61.90603196351955
 30
0.0
 11
108.70859662300289
 21
-89.64093007122662
 31
0.0
  0
LINE
  5
3E
330
17
100
AcDbEntity
  8
visible
100
AcDbLine
 10
96.78483161105865
 20
-61.906031963519595
 30
0.0
 11
97.39904093662271
 21
-69.45161299839873
 31
0.0
  0
LINE
  5
3F
330
17
100
AcDbEntity
  8
visible
100
AcDbLine
 10
-7.4761497730656
 20
-83.88606098429179
 30
0.0
 11
11.222197845167642
 21
-109.31294940312145
 31
0.0
  0
LINE
  5
40
330
17
100
AcDbEntity
  8
visible
100
AcDbLine
 10
109.34965671228578
 20
-96.81610512887293
 30
0.0
 11
11.222197845167614
 21
-109.3129494031214
 31
0.0
  0
LINE
  5
41
330
17
100
AcDbEntity
  8
visible
100
AcDbLine
 10
97.39904093662268
 20
-69.45161299839874
 30
0.0
 11
-7.476149773065671
 21
-83.8860609842917
 31
0.0
  0
LINE
  5
42
330
17
100
AcDbEntity
  8
visible
100
AcDbLine
 10
96.78483161105864
 20
-61.9060319635196
 30
0.0
 11
-7.430753465832652
 21
-76.53277920293733
 31
0.0
  0
LINE
  5
43
330
17
100
AcDbEntity
  8
visible
100
AcDbLine
 10
-7.430753465832611
 20
-76.53277920293733
 30
0.0
 11
-7.476149773065637
 21
-83.8860609842917
 31
0.0
  0
LINE
  5
44
330
17
100
AcDbEntity
  8
visible
100
AcDbLine
 10
-155.475925988313
 20
186.14358346254073
 30
0.0
 11
-153.67716597093306
 21
197.02985037118947
 31
0.0
  0
LINE
  5
45
330
17
100
AcDbEntity
  8
visible
100
AcDbLine
 10
-153.67716597093306
 20
197.02985037118944
 30
0.0
 11
-253.04737859844414
 21
171.6610703456662
 31
0.0
  0
LINE
  5
46
330
17
100
AcDbEntity
  8
visible
100
AcDbLine
 10
-261.44937955452224
 20
139.93741504138214
 30
0.0
 11
-253.04737859844417
 21
171.6610703456662
 31
0.0
  0
LINE
  5
47
330
17
100
AcDbEntity
  8
visible
100
AcDbLine
 10
-185.63174898782168
 20
158.37826284323612
 30
0.0
 11
-261.44937955452224
 21
139.93741504138214
 31
0.0
  0
LINE
  5
48
330
17
100
AcDbEntity
  8
visible
100
AcDbLine
 10
-75.36768824748842
 20
8.436031246387525
 30
0.0
 11
-135.62882592261113
 21
-2.1814272765906857
 31
0.0
  0
LINE
  5
49
330
17
100
AcDbEntity
  8
visible
100
AcDbLine
 10
-153.67716597093306
 20
197.02985037118944
 30
0.0
 11
-147.90137600473187
 21
188.0464416798273
 31
0.0
  0
LINE
  5
4A
330
17
100
AcDbEntity
  8
visible
100
AcDbLine
 10
-261.44937955452224
 20
139.93741504138214
 30
0.0
 11
-135.6288259226111
 21
-2.181427276590739
 31
0.0
  0
LINE
  5
4B
330
17
100
AcDbEntity
  8
visible
100
AcDbLine
 10
14.145136498186057
 20
130.31542839833384
 30
0.0
 11
13.998006774631985
 21
140.6834051301656
 31
0.0
  0
LINE
  5
4C
330
17
100
AcDbEntity
  8
visible
100
AcDbLine
 10
13.998006774631987
 20
140.6834051301656
 30
0.0
 11
10.058528384669042
 21
139.8209545069905
 31
0.0
  0
LINE
  5
4D
330
17
100
AcDbEntity
  8
visible
100
AcDbLine
 10
51.02697826234945
 20
44.52758183066208
 30
0.0
 11
50.573172477879915
 21
54.155371851232914
 31
0.0
  0
LINE
  5
4E
330
17
100
AcDbEntity
  8
visible
100
AcDbLine
 10
13.998006774631987
 20
140.6834051301656
 30
0.0
 11
23.53422661861762
 21
118.12300568562304
 31
0.0
  0
LINE
  5
4F
330
17
100
AcDbEntity
  8
visible
100
AcDbLine
 10
38.68604209264808
 20
82.27745944229511
 30
0.0
 11
50.57317247787993
 21
54.155371851232914
 31
0.0
  0
LINE
  5
50
330
17
100
AcDbEntity
  8
visible
100
AcDbLine
 10
-8.309431911853954
 20
-43.75121545901133
 30
0.0
 11
-8.196290095171081
 21
-27.808839728885786
 31
0.0
  0
LINE
  5
51
330
17
100
AcDbEntity
  8
visible
100
AcDbLine
 10
-8.309431911853954
 20
-43.75121545901133
 30
0.0
 11
-21.402621508245463
 21
-45.74819312984794
 31
0.0
  0
LINE
  5
52
330
17
100
AcDbEntity
  8
visible
100
AcDbLine
 10
-17.912315853370835
 20
-29.32879218824242
 30
0.0
 11
-8.309431911853949
 21
-43.751215459011334
 31
0.0
  0
LINE
  5
53
330
17
100
AcDbEntity
  8
visible
100
AcDbLine
 10
-8.207477008313177
 20
-27.791381576593764
 30
0.0
 11
-8.196290095171072
 21
-27.808839728885793
 31
0.0
  0
LINE
  5
54
330
17
100
AcDbEntity
  8
visible
100
AcDbLine
 10
-31.412988817229298
 20
-31.46752712350657
 30
0.0
 11
-21.402621508245453
 21
-45.74819312984796
 31
0.0
  0
LINE
  5
55
330
17
100
AcDbEntity
  8
visible
100
AcDbLine
 10
119.94752897558514
 20
-29.331661772396764
 30
0.0
 11
117.78197199056429
 21
-8.453233907787912
 31
0.0
  0
LINE
  5
56
330
17
100
AcDbEntity
  8
visible
100
AcDbLine
 10
117.78197199056432
 20
-8.453233907787922
 30
0.0
 11
62.83783076613013
 21
-17.14526400785539
 31
0.0
  0
LINE
  5
57
330
17
100
AcDbEntity
  8
visible
100
AcDbLine
 10
63.97034118936607
 20
-37.76768511314328
 30
0.0
 11
62.837830766130125
 21
-17.145264007855392
 31
0.0
  0
LINE
  5
58
330
17
100
AcDbEntity
  8
visible
100
AcDbLine
 10
119.94752897558514
 20
-29.331661772396764
 30
0.0
 11
63.97034118936605
 21
-37.76768511314327
 31
0.0
  0
LINE
  5
59
330
17
100
AcDbEntity
  8
visible
100
AcDbLine
 10
144.56382745880506
 20
-101.13285306685054
 30
0.0
 11
142.38629297071245
 21
-82.63225996055203
 31
0.0
  0
LINE
  5
5A
330
17
100
AcDbEntity
  8
visible
100
AcDbLine
 10
144.56382745880506
 20
-101.13285306685054
 30
0.0
 11
97.44201097050473
 21
-106.98878896378643
 31
0.0
  0
LINE
  5
5B
330
17
100
AcDbEntity
  8
visible
100
AcDbLine
 10
119.94752897558514
 20
-29.331661772396764
 30
0.0
 11
144.56382745880506
 21
-101.13285306685057
 31
0.0
  0
LINE
  5
5C
330
17
100
AcDbEntity
  8
visible
100
AcDbLine
 10
117.78197199056432
 20
-8.453233907787922
 30
0.0
 11
142.38629297071247
 21
-82.63225996055208
 31
0.0
  0
LINE
  5
5D
330
17
100
AcDbEntity
  8
visible
100
AcDbLine
 10
63.97034118936607
 20
-37.76768511314328
 30
0.0
 11
76.98604078297672
 21
-64.68480933040567
 31
0.0
  0
LINE
  5
5E
330
17
100
AcDbEntity
  8
visible
100
AcDbLine
 10
93.49913374157924
 20
-98.83471968913128
 30
0.0
 11
97.44201097050471
 21
-106.98878896378642
 31
0.0
  0
LINE
  5
5F
330
17
100
AcDbEntity
  8
visible
100
AcDbLine
 10
74.43080350002441
 20
-65.04343908666435
 30
0.0
 11
74.0262514037941
 21
-58.563815387406116
 31
0.0
  0
LINE
  5
60
330
17
100
AcDbEntity
  8
visible
100
AcDbLine
 10
67.06501801442153
 20
-44.16763310773225
 30
0.0
 11
7.755118505062242
 21
-52.959383057763254
 31
0.0
  0
LINE
  5
61
330
17
100
AcDbEntity
  8
visible
100
AcDbLine
 10
7.895901723101105
 20
-74.3816699297049
 30
0.0
 11
7.7551185050622236
 21
-52.95938305776326
 31
0.0
  0
LINE
  5
62
330
17
100
AcDbEntity
  8
visible
100
AcDbLine
 10
45.788931569590666
 20
113.64950128677673
 30
0.0
 11
44.25271224858985
 21
147.6507364092012
 31
0.0
  0
LINE
  5
63
330
17
100
AcDbEntity
  8
visible
100
AcDbLine
 10
44.25271224858985
 20
147.6507364092012
 30
0.0
 11
22.95431621445842
 21
142.98532675419207
 31
0.0
  0
LINE
  5
64
330
17
100
AcDbEntity
  8
visible
100
AcDbLine
 10
23.744799146682023
 20
109.09519421093799
 30
0.0
 11
22.95431621445843
 21
142.98532675419207
 31
0.0
  0
LINE
  5
65
330
17
100
AcDbEntity
  8
visible
100
AcDbLine
 10
45.788931569590666
 20
113.64950128677673
 30
0.0
 11
23.74479914668202
 21
109.09519421093799
 31
0.0
  0
LINE
  5
66
330
17
100
AcDbEntity
  8
visible
100
AcDbLine
 10
56.57381751247332
 20
85.7786088663043
 30
0.0
 11
55.70609615464077
 21
101.75023172271966
 31
0.0
  0
LINE
  5
67
330
17
100
AcDbEntity
  8
visible
100
AcDbLine
 10
55.264247858757535
 20
109.88306639124082
 30
0.0
 11
54.76563835130649
 21
119.06067039251025
 31
0.0
  0
LINE
  5
68
330
17
100
AcDbEntity
  8
visible
100
AcDbLine
 10
56.57381751247332
 20
85.7786088663043
 30
0.0
 11
35.5177252779838
 21
81.65732919521888
 31
0.0
  0
LINE
  5
69
330
17
100
AcDbEntity
  8
visible
100
AcDbLine
 10
45.788931569590666
 20
113.64950128677673
 30
0.0
 11
56.573817512473326
 21
85.7786088663043
 31
0.0
  0
LINE
  5
6A
330
17
100
AcDbEntity
  8
visible
100
AcDbLine
 10
44.25271224858985
 20
147.6507364092012
 30
0.0
 11
54.7656383513065
 21
119.06067039251023
 31
0.0
  0
LINE
  5
6B
330
17
100
AcDbEntity
  8
visible
100
AcDbLine
 10
23.744799146682023
 20
109.09519421093799
 30
0.0
 11
35.5177252779838
 21
81.65732919521888
 31
0.0
  0
LINE
  5
6C
330
17
100
AcDbEntity
  8
visible
100
AcDbLine
 10
56.66555987059846
 20
107.37706898657355
 30
0.0
 11
56.51211954148062
 21
110.13829506231654
 31
0.0
  0
LINE
  5
6D
330
17
100
AcDbEntity
  8
visible
100
AcDbLine
 10
56.51211954148062
 20
110.13829506231656
 30
0.0
 11
50.00214307221685
 21
108.80680187596688
 31
0.0
  0
LINE
  5
6E
330
17
100
AcDbEntity
  8
visible
100
AcDbLine
 10
50.13758758833023
 20
106.04847905407449
 30
0.0
 11
50.00214307221685
 21
108.80680187596688
 31
0.0
  0
LINE
  5
6F
330
17
100
AcDbEntity
  8
visible
100
AcDbLine
 10
56.66555987059846
 20
107.37706898657355
 30
0.0
 11
50.13758758833023
 21
106.04847905407448
 31
0.0
  0
LINE
  5
70
330
17
100
AcDbEntity
  8
visible
100
AcDbLine
 10
58.545654430060644
 20
102.32257384705852
 30
0.0
 11
58.388541252691226
 21
105.07266407410992
 31
0.0
  0
LINE
  5
71
330
17
100
AcDbEntity
  8
visible
100
AcDbLine
 10
58.545654430060644
 20
102.32257384705852
 30
0.0
 11
52.07170446354061
 21
101.01768276284449
 31
0.0
  0
LINE
  5
72
330
17
100
AcDbEntity
  8
visible
100
AcDbLine
 10
56.66555987059846
 20
107.37706898657355
 30
0.0
 11
58.545654430060644
 21
102.32257384705854
 31
0.0
  0
LINE
  5
73
330
17
100
AcDbEntity
  8
visible
100
AcDbLine
 10
56.51211954148062
 20
110.13829506231656
 30
0.0
 11
58.388541252691226
 21
105.07266407410995
 31
0.0
  0
LINE
  5
74
330
17
100
AcDbEntity
  8
visible
100
AcDbLine
 10
50.13758758833023
 20
106.04847905407449
 30
0.0
 11
52.07170446354061
 21
101.0176827628445
 31
0.0
  0
LINE
  5
75
330
17
100
AcDbEntity
  8
hidden
100
AcDbLine
 10
-190.48294327017638
 20
177.34921407533233
 30
0.0
 11
-44.192558734479746
 21
-25.54644351316753
 31
0.0
  0
LINE
  5
76
330
17
100
AcDbEntity
  8
hidden
100
AcDbLine
 10
73.02013157958001
 20
-6.6288998435022926
 30
0.0
 11
-44.1925587344798
 21
-25.54644351316743
 31
0.0
  0
LINE
  5
77
330
17
100
AcDbEntity
  8
hidden
100
AcDbLine
 10
-44.192558734479796
 20
-25.54644351316742
 30
0.0
 11
-44.499054978585974
 21
-33.54058132898178
 31
0.0
  0
LINE
  5
78
330
17
100
AcDbEntity
  8
hidden
100
AcDbLine
 10
108.70859662300288
 20
-89.64093007122663
 30
0.0
 11
11.158683028323253
 21
-102.3151705313371
 31
0.0
  0
LINE
  5
79
330
17
100
AcDbEntity
  8
hidden
100
AcDbLine
 10
11.222197845167628
 20
-109.3129494031214
 30
0.0
 11
11.15868302832327
 21
-102.3151705313371
 31
0.0
  0
LINE
  5
7A
330
17
100
AcDbEntity
  8
hidden
100
AcDbLine
 10
-7.4307534658325665
 20
-76.5327792029374
 30
0.0
 11
11.158683028323338
 21
-102.31517053133723
 31
0.0
  0
LINE
  5
7B
330
17
100
AcDbEntity
  8
hidden
100
AcDbLine
 10
-158.99307011990408
 20
164.85749226486206
 30
0.0
 11
-155.475925988313
 21
186.14358346254073
 31
0.0
  0
LINE
  5
7C
330
17
100
AcDbEntity
  8
hidden
100
AcDbLine
 10
-158.99307011990408
 20
164.85749226486206
 30
0.0
 11
-185.63174898782168
 21
158.37826284323612
 31
0.0
  0
LINE
  5
7D
330
17
100
AcDbEntity
  8
hidden
100
AcDbLine
 10
-54.40377088550624
 20
12.129680780021811
 30
0.0
 11
-53.02077115272221
 21
40.47333821570625
 31
0.0
  0
LINE
  5
7E
330
17
100
AcDbEntity
  8
hidden
100
AcDbLine
 10
-53.020771152722205
 20
40.47333821570625
 30
0.0
 11
-132.28377237148715
 21
25.6703398457403
 31
0.0
  0
LINE
  5
7F
330
17
100
AcDbEntity
  8
hidden
100
AcDbLine
 10
-135.62882592261113
 20
-2.1814272765906884
 30
0.0
 11
-132.28377237148717
 21
25.67033984574029
 31
0.0
  0
LINE
  5
80
330
17
100
AcDbEntity
  8
hidden
100
AcDbLine
 10
-54.40377088550624
 20
12.129680780021811
 30
0.0
 11
-75.36768824748842
 21
8.436031246387525
 31
0.0
  0
LINE
  5
81
330
17
100
AcDbEntity
  8
hidden
100
AcDbLine
 10
-158.99307011990408
 20
164.85749226486206
 30
0.0
 11
-54.40377088550625
 21
12.129680780021829
 31
0.0
  0
LINE
  5
82
330
17
100
AcDbEntity
  8
hidden
100
AcDbLine
 10
-147.90137600473187
 20
188.0464416798273
 30
0.0
 11
-53.020771152722205
 21
40.47333821570621
 31
0.0
  0
LINE
  5
83
330
17
100
AcDbEntity
  8
hidden
100
AcDbLine
 10
-253.0473785984442
 20
171.66107034566625
 30
0.0
 11
-132.28377237148717
 21
25.670339845740244
 31
0.0
  0
LINE
  5
84
330
17
100
AcDbEntity
  8
hidden
100
AcDbLine
 10
14.369279613540407
 20
114.52045136406963
 30
0.0
 11
14.145136498186057
 21
130.31542839833384
 31
0.0
  0
LINE
  5
85
330
17
100
AcDbEntity
  8
hidden
100
AcDbLine
 10
10.058528384669042
 20
139.8209545069905
 30
0.0
 11
-41.74036514471209
 21
128.48087757751267
 31
0.0
  0
LINE
  5
86
330
17
100
AcDbEntity
  8
hidden
100
AcDbLine
 10
-42.82423313240789
 20
102.54986624783992
 30
0.0
 11
-41.74036514471209
 21
128.48087757751267
 31
0.0
  0
LINE
  5
87
330
17
100
AcDbEntity
  8
hidden
100
AcDbLine
 10
14.369279613540407
 20
114.52045136406963
 30
0.0
 11
-42.8242331324079
 21
102.54986624783992
 31
0.0
  0
LINE
  5
88
330
17
100
AcDbEntity
  8
hidden
100
AcDbLine
 10
51.71567530470134
 20
29.916418336342748
 30
0.0
 11
51.02697826234945
 21
44.52758183066208
 31
0.0
  0
LINE
  5
89
330
17
100
AcDbEntity
  8
hidden
100
AcDbLine
 10
50.57317247787992
 20
54.15537185123292
 30
0.0
 11
2.132713403807223
 21
45.20805478434845
 31
0.0
  0
LINE
  5
8A
330
17
100
AcDbEntity
  8
hidden
100
AcDbLine
 10
2.1800302116231913
 20
21.205011858622665
 30
0.0
 11
2.132713403807217
 21
45.208054784348455
 31
0.0
  0
LINE
  5
8B
330
17
100
AcDbEntity
  8
hidden
100
AcDbLine
 10
51.71567530470134
 20
29.916418336342748
 30
0.0
 11
2.180030211623169
 21
21.205011858622658
 31
0.0
  0
LINE
  5
8C
330
17
100
AcDbEntity
  8
hidden
100
AcDbLine
 10
14.369279613540407
 20
114.52045136406963
 30
0.0
 11
51.71567530470134
 21
29.91641833634273
 31
0.0
  0
LINE
  5
8D
330
17
100
AcDbEntity
  8
hidden
100
AcDbLine
 10
23.53422661861762
 20
118.12300568562304
 30
0.0
 11
38.68604209264808
 21
82.27745944229511
 31
0.0
  0
LINE
  5
8E
330
17
100
AcDbEntity
  8
hidden
100
AcDbLine
 10
-42.82423313240789
 20
102.54986624783992
 30
0.0
 11
2.1800302116231975
 21
21.205011858622655
 31
0.0
  0
LINE
  5
8F
330
17
100
AcDbEntity
  8
hidden
100
AcDbLine
 10
-41.74036514471209
 20
128.48087757751267
 30
0.0
 11
2.132713403807209
 21
45.20805478434845
 31
0.0
  0
LINE
  5
90
330
17
100
AcDbEntity
  8
hidden
100
AcDbLine
 10
-49.126765160173385
 20
17.551707754106506
 30
0.0
 11
-48.359969670945276
 21
34.870080339190544
 31
0.0
  0
LINE
  5
91
330
17
100
AcDbEntity
  8
hidden
100
AcDbLine
 10
-48.359969670945276
 20
34.87008033919056
 30
0.0
 11
-62.93619969382813
 21
32.18327638522105
 31
0.0
  0
LINE
  5
92
330
17
100
AcDbEntity
  8
hidden
100
AcDbLine
 10
-63.92856923888624
 20
14.918797141267225
 30
0.0
 11
-62.936199693828115
 21
32.183276385221035
 31
0.0
  0
LINE
  5
93
330
17
100
AcDbEntity
  8
hidden
100
AcDbLine
 10
-49.126765160173385
 20
17.551707754106506
 30
0.0
 11
-63.928569238886254
 21
14.91879714126723
 31
0.0
  0
LINE
  5
94
330
17
100
AcDbEntity
  8
hidden
100
AcDbLine
 10
-8.196290095171081
 20
-27.808839728885786
 30
0.0
 11
-21.112593924834457
 21
-29.85490885147551
 31
0.0
  0
LINE
  5
95
330
17
100
AcDbEntity
  8
hidden
100
AcDbLine
 10
-21.40262150824546
 20
-45.74819312984794
 30
0.0
 11
-21.112593924834453
 21
-29.854908851475514
 31
0.0
  0
LINE
  5
96
330
17
100
AcDbEntity
  8
hidden
100
AcDbLine
 10
-49.126765160173385
 20
17.551707754106506
 30
0.0
 11
-17.912315853370835
 21
-29.32879218824242
 31
0.0
  0
LINE
  5
97
330
17
100
AcDbEntity
  8
hidden
100
AcDbLine
 10
-48.359969670945276
 20
34.87008033919056
 30
0.0
 11
-8.207477008313177
 21
-27.791381576593764
 31
0.0
  0
LINE
  5
98
330
17
100
AcDbEntity
  8
hidden
100
AcDbLine
 10
-63.92856923888624
 20
14.918797141267225
 30
0.0
 11
-31.412988817229298
 21
-31.46752712350657
 31
0.0
  0
LINE
  5
99
330
17
100
AcDbEntity
  8
hidden
100
AcDbLine
 10
-62.936199693828115
 20
32.18327638522105
 30
0.0
 11
-21.112593924834442
 21
-29.854908851475514
 31
0.0
  0
LINE
  5
9A
330
17
100
AcDbEntity
  8
hidden
100
AcDbLine
 10
142.38629297071245
 20
-82.63225996055205
 30
0.0
 11
95.9981140107453
 21
-88.70206494476454
 31
0.0
  0
LINE
  5
9B
330
17
100
AcDbEntity
  8
hidden
100
AcDbLine
 10
97.44201097050471
 20
-106.98878896378642
 30
0.0
 11
95.99811401074528
 21
-88.70206494476452
 31
0.0
  0
LINE
  5
9C
330
17
100
AcDbEntity
  8
hidden
100
AcDbLine
 10
76.98604078297672
 20
-64.68480933040567
 30
0.0
 11
93.49913374157924
 21
-98.83471968913128
 31
0.0
  0
LINE
  5
9D
330
17
100
AcDbEntity
  8
hidden
100
AcDbLine
 10
62.837830766130125
 20
-17.145264007855392
 30
0.0
 11
95.9981140107453
 21
-88.70206494476456
 31
0.0
  0
LINE
  5
9E
330
17
100
AcDbEntity
  8
hidden
100
AcDbLine
 10
74.47372651091425
 20
-65.73092769739439
 30
0.0
 11
74.43080350002441
 21
-65.04343908666435
 31
0.0
  0
LINE
  5
9F
330
17
100
AcDbEntity
  8
hidden
100
AcDbLine
 10
74.0262514037941
 20
-58.563815387406116
 30
0.0
 11
73.07184021676336
 21
-43.27721718671134
 31
0.0
  0
LINE
  5
A0
330
17
100
AcDbEntity
  8
hidden
100
AcDbLine
 10
73.07184021676336
 20
-43.27721718671133
 30
0.0
 11
67.06501801442153
 21
-44.16763310773225
 31
0.0
  0
LINE
  5
A1
330
17
100
AcDbEntity
  8
hidden
100
AcDbLine
 10
7.900346377492678
 20
-75.05799103352156
 30
0.0
 11
7.895901723101105
 21
-74.3816699297049
 31
0.0
  0
LINE
  5
A2
330
17
100
AcDbEntity
  8
hidden
100
AcDbLine
 10
74.47372651091425
 20
-65.73092769739439
 30
0.0
 11
7.900346377492681
 21
-75.05799103352156
 31
0.0
  0
LINE
  5
A3
330
17
100
AcDbEntity
  8
hidden
100
AcDbLine
 10
88.3701603402396
 20
-94.01723461250641
 30
0.0
 11
86.82510242569485
 21
-72.66732622255819
 31
0.0
  0
LINE
  5
A4
330
17
100
AcDbEntity
  8
hidden
100
AcDbLine
 10
86.82510242569484
 20
-72.6673262225582
 30
0.0
 11
25.756414310450992
 21
-81.03407903782612
 31
0.0
  0
LINE
  5
A5
330
17
100
AcDbEntity
  8
hidden
100
AcDbLine
 10
26.20457731744881
 20
-102.0556548360696
 30
0.0
 11
25.756414310451
 21
-81.03407903782609
 31
0.0
  0
LINE
  5
A6
330
17
100
AcDbEntity
  8
hidden
100
AcDbLine
 10
88.3701603402396
 20
-94.01723461250641
 30
0.0
 11
26.204577317448802
 21
-102.0556548360696
 31
0.0
  0
LINE
  5
A7
330
17
100
AcDbEntity
  8
hidden
100
AcDbLine
 10
74.47372651091425
 20
-65.73092769739439
 30
0.0
 11
88.3701603402396
 21
-94.01723461250641
 31
0.0
  0
LINE
  5
A8
330
17
100
AcDbEntity
  8
hidden
100
AcDbLine
 10
73.07184021676336
 20
-43.27721718671133
 30
0.0
 11
86.82510242569485
 21
-72.66732622255817
 31
0.0
  0
LINE
  5
A9
330
17
100
AcDbEntity
  8
hidden
100
AcDbLine
 10
7.900346377492678
 20
-75.05799103352156
 30
0.0
 11
26.204577317448813
 21
-102.05565483606962
 31
0.0
  0
LINE
  5
AA
330
17
100
AcDbEntity
  8
hidden
100
AcDbLine
 10
7.7551185050622236
 20
-52.95938305776326
 30
0.0
 11
25.756414310451
 21
-81.0340790378261
 31
0.0
  0
LINE
  5
AB
330
17
100
AcDbEntity
  8
hidden
100
AcDbLine
 10
55.70609615464077
 20
101.75023172271966
 30
0.0
 11
55.264247858757535
 21
109.88306639124082
 31
0.0
  0
LINE
  5
AC
330
17
100
AcDbEntity
  8
hidden
100
AcDbLine
 10
54.76563835130649
 20
119.06067039251023
 30
0.0
 11
34.39088769404967
 21
114.82506757608294
 31
0.0
  0
LINE
  5
AD
330
17
100
AcDbEntity
  8
hidden
100
AcDbLine
 10
35.51772527798381
 20
81.65732919521886
 30
0.0
 11
34.39088769404968
 21
114.82506757608294
 31
0.0
  0
LINE
  5
AE
330
17
100
AcDbEntity
  8
hidden
100
AcDbLine
 10
22.95431621445843
 20
142.98532675419207
 30
0.0
 11
34.39088769404968
 21
114.82506757608294
 31
0.0
  0
SPLINE
  5
AF
330
17
100
AcDbEntity
  8
hidden
100
AcDbSpline
 70
0
 71
1
 72
17
 73
15
 74
0
 40
0.0
 40
0.0
 40
0.12878276390335314
 40
0.2575655278067063
 40
0.3863482917100594
 40
0.5151310556134125
 40
0.6439138195167657
 40
0.7726965834201189
 40
0.9014793473234721
 40
1.0302621112268253
 40
1.1590448751301785
 40
1.2878276390335317
 40
1.416610402936885
 40
1.545393166840238
 40
1.6741759307435913
 40
1.8029586946469438
 40
1.8029586946469438
 10
39.445634782056985
 20
135.3153742645107
 30
0.0
 10
39.202780991625595
 20
135.27460698200005
 30
0.0
 10
38.955862868967706
 20
135.255643316708
 30
0.0
 10
38.708942738973576
 20
135.2587931453464
 30
0.0
 10
38.46608263452828
 20
135.28400500211856
 30
0.0
 10
38.231278823777004
 20
135.3308668851732
 30
0.0
 10
38.008397330209675
 20
135.39861271643647
 30
0.0
 10
37.801111402196796
 20
135.48613437139653
 30
0.0
 10
37.61284186966895
 20
135.59199912226353
 30
0.0
 10
37.446701297485426
 20
135.71447226466563
 30
0.0
 10
37.3054428069232
 20
135.85154462482768
 30
0.0
 10
37.191414387713294
 20
136.0009645714096
 30
0.0
 10
37.10651946218421
 20
136.16027408450736
 30
0.0
 10
37.05218438942875
 20
136.32684836471373
 30
0.0
 10
37.02933351028529
 20
136.49793839885393
 30
0.0
  0
SPLINE
  5
B0
330
17
100
AcDbEntity
  8
hidden
100
AcDbSpline
 70
0
 71
1
 72
17
 73
15
 74
0
 40
0.0
 40
0.0
 40
0.07142857142857145
 40
0.1428571428571429
 40
0.21428571428571436
 40
0.2857142857142858
 40
0.35714285714285726
 40
0.4285714285714287
 40
0.5000000000000001
 40
0.5714285714285716
 40
0.642857142857143
 40
0.7142857142857145
 40
0.7857142857142859
 40
0.8571428571428574
 40
0.9285714285714288
 40
1.0
 40
1.0
 10
37.02933351028529
 20
136.49793839885393
 30
0.0
 10
37.06546528820234
 20
136.7977112495
 30
0.0
 10
37.19604432943462
 20
137.087596398365
 30
0.0
 10
37.41467306661275
 20
137.35307445588955
 30
0.0
 10
37.71051373240559
 20
137.58081182129777
 30
0.0
 10
38.06881438125568
 20
137.75934244687565
 30
0.0
 10
38.471642174791974
 20
137.87965965747426
 30
0.0
 10
38.89878798492289
 20
137.9356846170672
 30
0.0
 10
39.32879530936886
 20
137.9245842896156
 30
0.0
 10
39.74005813821327
 20
137.8469201141071
 30
0.0
 10
40.11192761704055
 20
137.70661851605058
 30
0.0
 10
40.42576664238778
 20
137.51076502110902
 30
0.0
 10
40.6658949908002
 20
137.2692342316818
 30
0.0
 10
40.82037487088532
 20
136.99417740510756
 30
0.0
 10
40.88159715753285
 20
136.69939710063335
 30
0.0
  0
SPLINE
  5
B1
330
17
100
AcDbEntity
  8
hidden
100
AcDbSpline
 70
0
 71
1
 72
17
 73
15
 74
0
 40
0.0
 40
0.0
 40
0.07142857142857133
 40
0.14285714285714265
 40
0.214285714285714
 40
0.2857142857142853
 40
0.35714285714285665
 40
0.428571428571428
 40
0.49999999999999933
 40
0.5714285714285706
 40
0.642857142857142
 40
0.7142857142857133
 40
0.7857142857142847
 40
0.857142857142856
 40
0.9285714285714274
 40
1.0
 40
1.0
 10
40.88159715753286
 20
136.69939710063335
 30
0.0
 10
40.878369782109964
 20
136.57041931738996
 30
0.0
 10
40.85739035909664
 20
136.44171357466007
 30
0.0
 10
40.81886399841325
 20
136.31446730406887
 30
0.0
 10
40.763157232836
 20
136.1898529555183
 30
0.0
 10
40.69079423779111
 20
136.06901726733543
 30
0.0
 10
40.60245163309342
 20
135.95307082543243
 30
0.0
 10
40.49895192767411
 20
135.84307800231983
 30
0.0
 10
40.38125567897188
 20
135.74004736164335
 30
0.0
 10
40.250452448235045
 20
135.64492260822408
 30
0.0
 10
40.10775064149478
 20
135.55857415747147
 30
0.0
 10
39.95446633343864
 20
135.48179139160538
 30
0.0
 10
39.79201117787445
 20
135.41527566344453
 30
0.0
 10
39.62187951397185
 20
135.3596341016701
 30
0.0
 10
39.445634782056985
 20
135.3153742645107
 30
0.0
  0
SPLINE
  5
B2
330
17
100
AcDbEntity
  8
hidden
100
AcDbSpline
 70
0
 71
1
 72
17
 73
15
 74
0
 40
0.0
 40
0.0
 40
0.12878276390335314
 40
0.2575655278067063
 40
0.3863482917100594
 40
0.5151310556134125
 40
0.6439138195167657
 40
0.7726965834201189
 40
0.9014793473234721
 40
1.0302621112268253
 40
1.1590448751301785
 40
1.2878276390335317
 40
1.416610402936885
 40
1.545393166840238
 40
1.6741759307435913
 40
1.8029586946469438
 40
1.8029586946469438
 10
39.676688568107124
 20
129.50597883021388
 30
0.0
 10
39.43239633529225
 20
129.46537553263016
 30
0.0
 10
39.18402462490435
 20
129.44648815917202
 30
0.0
 10
38.9356595155932
 20
129.44962531539102
 30
0.0
 10
38.69138664953999
 20
129.47473574664306
 30
0.0
 10
38.45522538980876
 20
129.52140914096452
 30
0.0
 10
38.2310639777895
 20
129.5888825602745
 30
0.0
 10
38.02259665208321
 20
129.67605241699212
 30
0.0
 10
37.83326367120255
 20
129.7814918404417
 30
0.0
 10
37.666195154271435
 20
129.9034732045779
 30
0.0
 10
37.524159615729786
 20
130.0399955157382
 30
0.0
 10
37.40951802094815
 20
130.18881628671426
 30
0.0
 10
37.32418412863631
 20
130.3474874520736
 30
0.0
 10
37.269591812060874
 20
130.51339481031715
 30
0.0
 10
37.24666996364193
 20
130.68380041238646
 30
0.0
  0
SPLINE
  5
B3
330
17
100
AcDbEntity
  8
hidden
100
AcDbSpline
 70
0
 71
1
 72
17
 73
15
 74
0
 40
0.0
 40
0.0
 40
0.07142857142857145
 40
0.1428571428571429
 40
0.21428571428571436
 40
0.2857142857142858
 40
0.35714285714285726
 40
0.4285714285714287
 40
0.5000000000000001
 40
0.5714285714285716
 40
0.642857142857143
 40
0.7142857142857145
 40
0.7857142857142859
 40
0.8571428571428574
 40
0.9285714285714288
 40
1.0
 40
1.0
 10
37.24666996364192
 20
130.68380041238646
 30
0.0
 10
37.28312449662269
 20
130.98237543790736
 30
0.0
 10
37.41457774947828
 20
131.27110395677624
 30
0.0
 10
37.63458991807106
 20
131.5355242219427
 30
0.0
 10
37.93225503652705
 20
131.76235528005606
 30
0.0
 10
38.292730231845866
 20
131.94017613774196
 30
0.0
 10
38.69797351824102
 20
132.06001536888868
 30
0.0
 10
39.12765396694962
 20
132.11581785778282
 30
0.0
 10
39.560186945336596
 20
132.10476160393748
 30
0.0
 10
39.97383869969492
 20
132.02740586033468
 30
0.0
 10
40.34783972783062
 20
131.88766175120014
 30
0.0
 10
40.6634456754291
 20
131.6925871302863
 30
0.0
 10
40.90488798724353
 20
131.45201790732432
 30
0.0
 10
41.06016389353853
 20
131.17805752047406
 30
0.0
 10
41.12162576529845
 20
130.88445393497653
 30
0.0
  0
SPLINE
  5
B4
330
17
100
AcDbEntity
  8
hidden
100
AcDbSpline
 70
0
 71
1
 72
17
 73
15
 74
0
 40
0.0
 40
0.0
 40
0.07142857142857133
 40
0.14285714285714265
 40
0.214285714285714
 40
0.2857142857142853
 40
0.35714285714285665
 40
0.428571428571428
 40
0.49999999999999933
 40
0.5714285714285706
 40
0.642857142857142
 40
0.7142857142857133
 40
0.7857142857142847
 40
0.857142857142856
 40
0.9285714285714274
 40
1.0
 40
1.0
 10
41.12162576529845
 20
130.88445393497653
 30
0.0
 10
41.118326918881095
 20
130.7559915509143
 30
0.0
 10
41.09717196183202
 20
130.62780044742505
 30
0.0
 10
41.05836775849282
 20
130.50106330152695
 30
0.0
 10
41.002283532937355
 20
130.37694785667617
 30
0.0
 10
40.92944705930728
 20
130.25659623657162
 30
0.0
 10
40.840539426182346
 20
130.1411145472154
 30
0.0
 10
40.73638843652445
 20
130.03156285766394
 30
0.0
 10
40.61796071541026
 20
129.9289456447401
 30
0.0
 10
40.48635260737544
 20
129.83420278129893
 30
0.0
 10
40.3427799537333
 20
129.74820114154537
 30
0.0
 10
40.18856684771936
 20
129.6717268904907
 30
0.0
 10
40.02513347178659
 20
129.60547851797847
 30
0.0
 10
39.85398312687947
 20
129.55006067089047
 30
0.0
 10
39.67668856810714
 20
129.50597883021388
 30
0.0
  0
LINE
  5
B5
330
17
100
AcDbEntity
  8
hidden
100
AcDbLine
 10
58.38854125269123
 20
105.07266407410994
 30
0.0
 11
51.932290417964396
 21
103.76485814574737
 31
0.0
  0
LINE
  5
B6
330
17
100
AcDbEntity
  8
hidden
100
AcDbLine
 10
52.07170446354061
 20
101.0176827628445
 30
0.0
 11
51.93229041796439
 21
103.76485814574738
 31
0.0
  0
LINE
  5
B7
330
17
100
AcDbEntity
  8
hidden
100
AcDbLine
 10
50.002143072216846
 20
108.80680187596688
 30
0.0
 11
51.93229041796438
 21
103.76485814574738
 31
0.0
  0
LINE
  5
B8
330
17
100
AcDbEntity
  8
hidden
100
AcDbLine
 10
41.12162576529845
 20
130.88445393497656
 30
0.0
 11
40.88159715753286
 21
136.69939710063338
 31
0.0
  0
LINE
  5
B9
330
17
100
AcDbEntity
  8
hidden
100
AcDbLine
 10
37.24666996364193
 20
130.68380041238646
 30
0.0
 11
37.029333510285284
 21
136.49793839885388
 31
0.0
  0
ENDSEC
  0
SECTION
  2
OBJECTS
  0
DICTIONARY
  5
A
330
0
100
AcDbDictionary
281
1
  3
ACAD_COLOR
350
B
  3
ACAD_GROUP
350
C
  3
ACAD_LAYOUT
350
D
  3
ACAD_MATERIAL
350
E
  3
ACAD_MLEADERSTYLE
350
F
  3
ACAD_MLINESTYLE
350
10
  3
ACAD_PLOTSETTINGS
350
11
  3
ACAD_PLOTSTYLENAME
350
12
  3
ACAD_SCALELIST
350
14
  3
ACAD_TABLESTYLE
350
15
  3
ACAD_VISUALSTYLE
350
16
  3
EZDXF_META
350
2D
  0
DICTIONARY
  5
B
330
A
100
AcDbDictionary
281
1
  0
DICTIONARY
  5
C
330
A
100
AcDbDictionary
281
1
  0
DICTIONARY
  5
D
330
A
100
AcDbDictionary
281
1
  3
Model
350
1A
  3
Layout1
350
1E
  0
DICTIONARY
  5
E
330
A
100
AcDbDictionary
281
1
  3
ByBlock
350
1F
  3
ByLayer
350
20
  3
Global
350
21
  0
DICTIONARY
  5
F
330
A
100
AcDbDictionary
281
1
  3
Standard
350
2C
  0
DICTIONARY
  5
10
330
A
100
AcDbDictionary
281
1
  3
Standard
350
22
  0
DICTIONARY
  5
11
330
A
100
AcDbDictionary
281
1
  0
ACDBDICTIONARYWDFLT
  5
12
330
A
100
AcDbDictionary
281
1
  3
Normal
350
13
100
AcDbDictionaryWithDefault
340
13
  0
ACDBPLACEHOLDER
  5
13
330
12
  0
DICTIONARY
  5
14
330
A
100
AcDbDictionary
281
1
  0
DICTIONARY
  5
15
330
A
100
AcDbDictionary
281
1
  0
DICTIONARY
  5
16
330
A
100
AcDbDictionary
281
1
  0
LAYOUT
  5
1A
330
D
100
AcDbPlotSettings
  1

  4
A3
  6

 40
7.5
 41
20.0
 42
7.5
 43
20.0
 44
420.0
 45
297.0
 46
0.0
 47
0.0
 48
0.0
 49
0.0
140
0.0
141
0.0
142
1.0
143
1.0
 70
1024
 72
1
 73
0
 74
5
  7

 75
16
 76
0
 77
2
 78
300
147
1.0
148
0.0
149
0.0
100
AcDbLayout
  1
Model
 70
1
 71
0
 10
0.0
 20
0.0
 11
420.0
 21
297.0
 12
0.0
 22
0.0
 32
0.0
 14
1e+20
 24
1e+20
 34
1e+20
 15
-1e+20
 25
-1e+20
 35
-1e+20
146
0.0
 13
0.0
 23
0.0
 33
0.0
 16
1.0
 26
0.0
 36
0.0
 17
0.0
 27
1.0
 37
0.0
 76
1
330
17
  0
LAYOUT
  5
1E
330
D
100
AcDbPlotSettings
  1

  4
A3
  6

 40
7.5
 41
20.0
 42
7.5
 43
20.0
 44
420.0
 45
297.0
 46
0.0
 47
0.0
 48
0.0
 49
0.0
140
0.0
141
0.0
142
1.0
143
1.0
 70
0
 72
1
 73
0
 74
5
  7

 75
16
 76
0
 77
2
 78
300
147
1.0
148
0.0
149
0.0
100
AcDbLayout
  1
Layout1
 70
1
 71
1
 10
0.0
 20
0.0
 11
420.0
 21
297.0
 12
0.0
 22
0.0
 32
0.0
 14
1e+20
 24
1e+20
 34
1e+20
 15
-1e+20
 25
-1e+20
 35
-1e+20
146
0.0
 13
0.0
 23
0.0
 33
0.0
 16
1.0
 26
0.0
 36
0.0
 17
0.0
 27
1.0
 37
0.0
 76
1
330
1B
  0
MATERIAL
  5
1F
102
{ACAD_REACTORS
330
E
102
}
330
E
100
AcDbMaterial
  1
ByBlock
  2

 70
0
 40
1.0
 71
1
 41
1.0
 91
-1023410177
 42
1.0
 72
1
  3

 73
1
 74
1
 75
1
 44
0.5
 73
0
 45
1.0
 46
1.0
 77
1
  4

 78
1
 79
1
170
1
 48
1.0
171
1
  6

172
1
173
1
174
1
140
1.0
141
1.0
175
1
  7

176
1
177
1
178
1
143
1.0
179
1
  8

270
1
271
1
272
1
145
1.0
146
1.0
273
1
  9

274
1
275
1
276
1
 42
1.0
 72
1
  3

 73
1
 74
1
 75
1
 94
63
  0
MATERIAL
  5
20
102
{ACAD_REACTORS
330
E
102
}
330
E
100
AcDbMaterial
  1
ByLayer
  2

 70
0
 40
1.0
 71
1
 41
1.0
 91
-1023410177
 42
1.0
 72
1
  3

 73
1
 74
1
 75
1
 44
0.5
 73
0
 45
1.0
 46
1.0
 77
1
  4

 78
1
 79
1
170
1
 48
1.0
171
1
  6

172
1
173
1
174
1
140
1.0
141
1.0
175
1
  7

176
1
177
1
178
1
143
1.0
179
1
  8

270
1
271
1
272
1
145
1.0
146
1.0
273
1
  9

274
1
275
1
276
1
 42
1.0
 72
1
  3

 73
1
 74
1
 75
1
 94
63
  0
MATERIAL
  5
21
102
{ACAD_REACTORS
330
E
102
}
330
E
100
AcDbMaterial
  1
Global
  2

 70
0
 40
1.0
 71
1
 41
1.0
 91
-1023410177
 42
1.0
 72
1
  3

 73
1
 74
1
 75
1
 44
0.5
 73
0
 45
1.0
 46
1.0
 77
1
  4

 78
1
 79
1
170
1
 48
1.0
171
1
  6

172
1
173
1
174
1
140
1.0
141
1.0
175
1
  7

176
1
177
1
178
1
143
1.0
179
1
  8

270
1
271
1
272
1
145
1.0
146
1.0
273
1
  9

274
1
275
1
276
1
 42
1.0
 72
1
  3

 73
1
 74
1
 75
1
 94
63
  0
MLINESTYLE
  5
22
102
{ACAD_REACTORS
330
10
102
}
330
10
100
AcDbMlineStyle
  2
Standard
 70
0
  3

 62
256
 51
90.0
 52
90.0
 71
2
 49
0.5
 62
256
  6
BYLAYER
 49
-0.5
 62
256
  6
BYLAYER
  0
MLEADERSTYLE
  5
2C
102
{ACAD_REACTORS
330
F
102
}
330
F
100
AcDbMLeaderStyle
179
2
170
2
171
1
172
0
 90
2
 40
0.0
 41
0.0
173
1
 91
-1056964608
 92
-2
290
1
 42
2.0
291
1
 43
8.0
  3
Standard
 44
4.0
300

342
29
174
1
175
1
176
0
178
1
 93
-1056964608
 45
4.0
292
0
297
0
 46
4.0
 94
-1056964608
 47
1.0
 49
1.0
140
1.0
294
1
141
0.0
177
0
142
1.0
295
0
296
0
143
3.75
271
0
272
9
273
9
  0
DICTIONARY
  5
2D
330
A
100
AcDbDictionary
280
1
281
1
  3
CREATED_BY_EZDXF
350
2E
  3
WRITTEN_BY_EZDXF
350
BD
  0
DICTIONARYVAR
  5
2E
330
2D
100
DictionaryVariables
280
0
  1
1.4.3 @ 2026-04-03T09:36:17.036170+00:00
  0
DICTIONARYVAR
  5
BD
330
2D
100
DictionaryVariables
280
0
  1
1.4.3 @ 2026-04-03T09:36:17.082853+00:00
  0
ENDSEC
  0
EOF
