<?xml version='1.0' encoding='utf-8'?>
<svg width="339.599506mm" height="358.973417mm" viewBox="-121.680349 -233.815619 339.599506 358.973417" version="1.1" xmlns="http://www.w3.org/2000/svg">
  <g transform="scale(1,-1)" stroke-linecap="round">
    <g fill="none" stroke="rgb(0,0,0)" stroke-width="0.09" id="visible">
      <line x1="207.056527" y1="-14.484526" x2="216.967043" y2="-16.259668" />
      <line x1="216.967043" y1="-16.259668" x2="203.918302" y2="156.420569" />
      <line x1="194.477083" y1="159.845324" x2="203.918302" y2="156.420569" />
      <line x1="207.056527" y1="-14.484526" x2="194.477083" y2="159.845324" />
      <line x1="207.056527" y1="-14.484526" x2="-27.263155" y2="-70.714977" />
      <line x1="-19.029009" y1="-71.49208" x2="-27.263155" y2="-70.714977" />
      <line x1="216.967043" y1="-16.259668" x2="-19.029009" y2="-71.49208" />
      <line x1="194.477083" y1="159.845324" x2="-26.146208" y2="49.147725" />
      <line x1="-27.263155" y1="-70.714977" x2="-26.146208" y2="49.147725" />
      <line x1="-84.070454" y1="-84.347208" x2="-112.491244" y2="-91.167437" />
      <line x1="-112.491244" y1="-91.167437" x2="-105.29506" y2="-91.681749" />
      <line x1="-76.502642" y1="-84.943184" x2="-105.29506" y2="-91.681749" />
      <line x1="-76.502642" y1="-84.943184" x2="-84.070454" y2="-84.347208" />
      <line x1="-81.04001" y1="21.604794" x2="-108.715514" y2="7.718628" />
      <line x1="-112.491244" y1="-91.167437" x2="-108.715514" y2="7.718628" />
      <line x1="-84.070454" y1="-84.347208" x2="-81.04001" y2="21.604794" />
      <line x1="-76.502642" y1="-84.943184" x2="-73.761544" y2="20.394215" />
      <line x1="-73.761544" y1="20.394215" x2="-81.04001" y2="21.604794" />
      <line x1="206.607082" y1="120.838664" x2="217.874157" y2="117.173134" />
      <line x1="217.874157" y1="117.173134" x2="209.648388" y2="220.537742" />
      <line x1="179.196259" y1="233.770619" x2="209.648388" y2="220.537742" />
      <line x1="184.589274" y1="154.884122" x2="179.196259" y2="233.770619" />
      <line x1="19.945409" y1="72.274166" x2="19.503207" y2="133.968309" />
      <line x1="217.874157" y1="117.173134" x2="207.225351" y2="112.656806" />
      <line x1="179.196259" y1="233.770619" x2="19.503207" y2="133.968309" />
      <line x1="127.490166" y1="-37.200797" x2="135.410952" y2="-38.327919" />
      <line x1="135.410952" y1="-38.327919" x2="135.272953" y2="-35.379317" />
      <line x1="37.552484" y1="-58.249773" x2="44.919908" y2="-59.070217" />
      <line x1="135.410952" y1="-38.327919" x2="109.776247" y2="-44.203889" />
      <line x1="73.496961" y1="-52.519803" x2="44.919908" y2="-59.070217" />
      <line x1="-40.973039" y1="16.213036" x2="-26.475728" y2="13.786063" />
      <line x1="-40.973039" y1="16.213036" x2="-40.781338" y2="29.494766" />
      <line x1="-26.392777" y1="22.687719" x2="-40.973039" y2="16.213036" />
      <line x1="-26.265239" y1="36.374137" x2="-40.781338" y2="29.494766" />
      <line x1="-48.014194" y1="-112.916585" x2="-26.985998" y2="-114.113905" />
      <line x1="-26.985998" y1="-114.113905" x2="-26.592121" y2="-70.778306" />
      <line x1="-47.098284" y1="-56.301716" x2="-27.148368" y2="-58.396775" />
      <line x1="-48.014194" y1="-112.916585" x2="-47.098284" y2="-56.301716" />
      <line x1="-121.635349" y1="-124.283967" x2="-103.019659" y2="-125.112798" />
      <line x1="-121.635349" y1="-124.283967" x2="-119.701516" y2="-76.917971" />
      <line x1="-48.014194" y1="-112.916585" x2="-121.635349" y2="-124.283967" />
      <line x1="-26.985998" y1="-114.113905" x2="-103.019659" y2="-125.112798" />
      <line x1="-47.098284" y1="-56.301716" x2="-75.970675" y2="-64.500257" />
      <line x1="-111.862166" y1="-74.691926" x2="-119.701516" y2="-76.917971" />
      <line x1="-75.838853" y1="-61.542797" x2="-68.197463" y2="-62.292993" />
      <line x1="-53.288486" y1="-58.059473" x2="-52.183411" y2="2.349739" />
      <line x1="-74.089651" y1="5.725749" x2="-52.183411" y2="2.349739" />
      <line x1="-75.838853" y1="-61.542797" x2="-74.089651" y2="5.725749" />
      <line x1="-75.838853" y1="-61.542797" x2="-75.894134" y2="-61.558891" />
      <line x1="-74.089651" y1="5.725749" x2="-74.143889" y2="5.701103" />
      <line x1="102.912281" y1="-65.771164" x2="137.090539" y2="-69.56922" />
      <line x1="137.090539" y1="-69.56922" x2="136.065388" y2="-47.699784" />
      <line x1="102.116468" y1="-43.185302" x2="136.065388" y2="-47.699784" />
      <line x1="102.912281" y1="-65.771164" x2="102.116468" y2="-43.185302" />
      <line x1="73.974648" y1="-71.416757" x2="89.760451" y2="-73.038689" />
      <line x1="97.816021" y1="-73.866368" x2="107.433792" y2="-74.854557" />
      <line x1="73.974648" y1="-71.416757" x2="73.430652" y2="-49.89666" />
      <line x1="102.912281" y1="-65.771164" x2="73.974648" y2="-71.416757" />
      <line x1="137.090539" y1="-69.56922" x2="107.433792" y2="-74.854557" />
      <line x1="102.116468" y1="-43.185302" x2="73.430652" y2="-49.89666" />
      <line x1="95.094877" y1="-75.286426" x2="97.872828" y2="-75.567295" />
      <line x1="97.872828" y1="-75.567295" x2="97.650276" y2="-68.903578" />
      <line x1="94.878061" y1="-68.605483" x2="97.650276" y2="-68.903578" />
      <line x1="95.094877" y1="-75.286426" x2="94.878061" y2="-68.605483" />
      <line x1="89.858456" y1="-76.235652" x2="92.625219" y2="-76.511462" />
      <line x1="89.858456" y1="-76.235652" x2="89.655432" y2="-69.612943" />
      <line x1="95.094877" y1="-75.286426" x2="89.858456" y2="-76.235652" />
      <line x1="97.872828" y1="-75.567295" x2="92.625219" y2="-76.511462" />
      <line x1="94.878061" y1="-68.605483" x2="89.655432" y2="-69.612943" />
    </g>
    <g fill="none" stroke="rgb(0,0,0)" stroke-width="0.09" id="hidden" stroke-dasharray="0.5715 0.28575">
      <line x1="203.918302" y1="156.420569" x2="-18.254722" y2="47.585208" />
      <line x1="-19.029009" y1="-71.49208" x2="-18.254722" y2="47.585208" />
      <line x1="-18.254722" y1="47.585208" x2="-26.146208" y2="49.147725" />
      <line x1="-105.29506" y1="-91.681749" x2="-101.780629" y2="6.668574" />
      <line x1="-108.715514" y1="7.718628" x2="-101.780629" y2="6.668574" />
      <line x1="-73.761544" y1="20.394215" x2="-101.780629" y2="6.668574" />
      <line x1="186.468872" y1="127.390248" x2="206.607082" y2="120.838664" />
      <line x1="186.468872" y1="127.390248" x2="184.589274" y2="154.884122" />
      <line x1="20.098034" y1="50.980651" x2="48.084457" y2="45.162621" />
      <line x1="48.084457" y1="45.162621" x2="46.696134" y2="126.288997" />
      <line x1="19.503207" y1="133.968309" x2="46.696134" y2="126.288997" />
      <line x1="20.098034" y1="50.980651" x2="19.945409" y2="72.274166" />
      <line x1="186.468872" y1="127.390248" x2="20.098034" y2="50.980651" />
      <line x1="207.225351" y1="112.656806" x2="48.084457" y2="45.162621" />
      <line x1="209.648388" y1="220.537742" x2="46.696134" y2="126.288997" />
      <line x1="109.242327" y1="-34.604143" x2="127.490166" y2="-37.200797" />
      <line x1="135.272953" y1="-35.379317" x2="132.729579" y2="18.964416" />
      <line x1="107.023467" y1="24.087029" x2="132.729579" y2="18.964416" />
      <line x1="109.242327" y1="-34.604143" x2="107.023467" y2="24.087029" />
      <line x1="20.644467" y1="-56.366879" x2="37.552484" y2="-58.249773" />
      <line x1="44.919908" y1="-59.070217" x2="44.158366" y2="-9.667531" />
      <line x1="20.286791" y1="-5.92651" x2="44.158366" y2="-9.667531" />
      <line x1="20.644467" y1="-56.366879" x2="20.286791" y2="-5.92651" />
      <line x1="109.242327" y1="-34.604143" x2="20.644467" y2="-56.366879" />
      <line x1="109.776247" y1="-44.203889" x2="73.496961" y2="-52.519803" />
      <line x1="107.023467" y1="24.087029" x2="20.286791" y2="-5.92651" />
      <line x1="132.729579" y1="18.964416" x2="44.158366" y2="-9.667531" />
      <line x1="25.413824" y1="45.693567" x2="42.511423" y2="42.203829" />
      <line x1="42.511423" y1="42.203829" x2="42.286328" y2="57.097229" />
      <line x1="25.277159" y1="60.800762" x2="42.286328" y2="57.097229" />
      <line x1="25.413824" y1="45.693567" x2="25.277159" y2="60.800762" />
      <line x1="-26.475728" y1="13.786063" x2="-25.183958" y2="13.56981" />
      <line x1="-25.183958" y1="13.56981" x2="-25.067708" y2="26.685719" />
      <line x1="-40.781338" y1="29.494766" x2="-25.067708" y2="26.685719" />
      <line x1="25.413824" y1="45.693567" x2="-26.392777" y2="22.687719" />
      <line x1="42.511423" y1="42.203829" x2="-25.183958" y2="13.56981" />
      <line x1="25.277159" y1="60.800762" x2="-26.265239" y2="36.374137" />
      <line x1="42.286328" y1="57.097229" x2="-25.067708" y2="26.685719" />
      <line x1="-26.592121" y1="-70.778306" x2="-26.480223" y2="-58.466941" />
      <line x1="-27.148368" y1="-58.396775" x2="-26.480223" y2="-58.466941" />
      <line x1="-103.019659" y1="-125.112798" x2="-101.405738" y2="-78.42639" />
      <line x1="-119.701516" y1="-76.917971" x2="-101.405738" y2="-78.42639" />
      <line x1="-75.970675" y1="-64.500257" x2="-111.862166" y2="-74.691926" />
      <line x1="-26.480223" y1="-58.466941" x2="-101.405738" y2="-78.42639" />
      <line x1="-68.197463" y1="-62.292993" x2="-53.392519" y2="-63.746475" />
      <line x1="-53.392519" y1="-63.746475" x2="-53.288486" y2="-58.059473" />
      <line x1="-105.544082" y1="-70.190862" x2="-84.194444" y2="-72.087298" />
      <line x1="-84.194444" y1="-72.087298" x2="-82.421628" y2="-10.454578" />
      <line x1="-103.283534" y1="-7.53963" x2="-82.421628" y2="-10.454578" />
      <line x1="-105.544082" y1="-70.190862" x2="-103.283534" y2="-7.53963" />
      <line x1="-75.894134" y1="-61.558891" x2="-105.544082" y2="-70.190862" />
      <line x1="-53.392519" y1="-63.746475" x2="-84.194444" y2="-72.087298" />
      <line x1="-74.143889" y1="5.701103" x2="-103.283534" y2="-7.53963" />
      <line x1="-52.183411" y1="2.349739" x2="-82.421628" y2="-10.454578" />
      <line x1="89.760451" y1="-73.038689" x2="97.816021" y2="-73.866368" />
      <line x1="107.433792" y1="-74.854557" x2="106.66856" y2="-53.985955" />
      <line x1="73.430652" y1="-49.89666" x2="106.66856" y2="-53.985955" />
      <line x1="136.065388" y1="-47.699784" x2="106.66856" y2="-53.985955" />
      <path d="M 125.960198,-62.500646 L 125.960521,-62.255538 L 125.982471,-62.010263 L 126.025688,-61.768793 L 126.089475,-61.535035 L 126.172801,-61.312777 L 126.274322,-61.10562 L 126.392398,-60.916927 L 126.525124,-60.749764 L 126.670354,-60.606854 L 126.82574,-60.490531 L 126.988766,-60.402702 L 127.156787,-60.344816 L 127.327075,-60.317838 L 127.49686,-60.322234" />
      <path d="M 127.49686,-60.322234 L 127.78486,-60.405176 L 128.048441,-60.580056 L 128.274375,-60.838258 L 128.451293,-61.166955 L 128.570265,-61.54974 L 128.625264,-61.967441 L 128.613489,-62.399096 L 128.535513,-62.823017 L 128.395258,-63.217903 L 128.199792,-63.56393 L 127.958966,-63.843764 L 127.6849,-64.043436 L 127.391362,-64.153042 L 127.093059,-64.167224" />
      <path d="M 127.093059,-64.167224 L 126.965906,-64.143374 L 126.841867,-64.101624 L 126.72211,-64.04238 L 126.607759,-63.96621 L 126.499888,-63.873843 L 126.399506,-63.766157 L 126.307553,-63.644174 L 126.224888,-63.509047 L 126.152283,-63.362053 L 126.090414,-63.204577 L 126.039857,-63.038101 L 126.001081,-62.86419 L 125.974446,-62.684476 L 125.960198,-62.500646" />
      <path d="M 120.12759,-61.818673 L 120.1283,-61.572189 L 120.150547,-61.325512 L 120.193967,-61.082635 L 120.25786,-60.847491 L 120.341193,-60.623887 L 120.442621,-60.415448 L 120.560508,-60.225557 L 120.692949,-60.057299 L 120.837806,-59.913415 L 120.992735,-59.796255 L 121.155226,-59.70774 L 121.322647,-59.649329 L 121.492276,-59.621998 L 121.661356,-59.626218" />
      <path d="M 121.661356,-59.626218 L 121.948042,-59.709286 L 122.210265,-59.884839 L 122.434866,-60.144228 L 122.610541,-60.474569 L 122.728421,-60.859372 L 122.782537,-61.279364 L 122.770129,-61.713467 L 122.691803,-62.139871 L 122.551498,-62.537147 L 122.356286,-62.885351 L 122.116005,-63.16704 L 121.842748,-63.368152 L 121.550241,-63.478713 L 121.253143,-63.493317" />
      <path d="M 121.253143,-63.493317 L 121.12655,-63.469478 L 121.003088,-63.427635 L 120.883918,-63.368194 L 120.770159,-63.291727 L 120.662879,-63.198964 L 120.563081,-63.090788 L 120.471701,-62.968225 L 120.389592,-62.832434 L 120.317519,-62.684697 L 120.256155,-62.526408 L 120.20607,-62.359055 L 120.167729,-62.184212 L 120.141489,-62.00352 L 120.12759,-61.818673" />
      <line x1="92.625219" y1="-76.511462" x2="92.416498" y2="-69.905682" />
      <line x1="89.655432" y1="-69.612943" x2="92.416498" y2="-69.905682" />
      <line x1="97.650276" y1="-68.903578" x2="92.416498" y2="-69.905682" />
      <line x1="121.253143" y1="-63.493317" x2="127.093059" y2="-64.167224" />
      <line x1="121.661356" y1="-59.626218" x2="127.49686" y2="-60.322234" />
    </g>
  </g>
</svg>