<?xml version='1.0' encoding='utf-8'?>
<svg width="402.463826mm" height="332.98915mm" viewBox="-259.414873 -222.614678 402.463826 332.98915" version="1.1" xmlns="http://www.w3.org/2000/svg">
  <g transform="scale(1,-1)" stroke-linecap="round">
    <g fill="none" stroke="rgb(0,0,0)" stroke-width="0.09" id="visible">
      <line x1="-20.043034" y1="212.775389" x2="-19.824037" y2="222.569678" />
      <line x1="-19.824037" y1="222.569678" x2="-187.338661" y2="181.349859" />
      <line x1="-189.282577" y1="171.722389" x2="-187.338661" y2="181.349859" />
      <line x1="-20.043034" y1="212.775389" x2="-189.282577" y2="171.722389" />
      <line x1="-20.043034" y1="212.775389" x2="74.018236" y2="-14.704117" />
      <line x1="73.479537" y1="-6.524672" x2="74.018236" y2="-14.704117" />
      <line x1="-19.824037" y1="222.569678" x2="73.479537" y2="-6.524672" />
      <line x1="-189.282577" y1="171.722389" x2="-44.505232" y2="-33.161499" />
      <line x1="74.018236" y1="-14.704117" x2="-44.505232" y2="-33.161499" />
      <line x1="96.959609" y1="-70.185953" x2="108.457508" y2="-97.992684" />
      <line x1="108.457508" y1="-97.992684" x2="107.813773" y2="-90.827761" />
      <line x1="96.340619" y1="-62.656977" x2="107.813773" y2="-90.827761" />
      <line x1="96.340619" y1="-62.656977" x2="96.959609" y2="-70.185953" />
      <line x1="-8.274115" y1="-84.434522" x2="10.024064" y2="-110.329472" />
      <line x1="108.457508" y1="-97.992684" x2="10.024064" y2="-110.329472" />
      <line x1="96.959609" y1="-70.185953" x2="-8.274115" y2="-84.434522" />
      <line x1="96.340619" y1="-62.656977" x2="-8.223195" y2="-77.088915" />
      <line x1="-8.223195" y1="-77.088915" x2="-8.274115" y2="-84.434522" />
      <line x1="-152.43664" y1="189.938094" x2="-150.717097" y2="200.307339" />
      <line x1="-150.717097" y1="200.307339" x2="-250.917943" y2="175.276179" />
      <line x1="-259.369873" y1="143.81899" x2="-250.917943" y2="175.276179" />
      <line x1="-182.507764" y1="162.134908" x2="-259.369873" y2="143.81899" />
      <line x1="-74.618635" y1="9.453948" x2="-135.546831" y2="-1.08868" />
      <line x1="-150.717097" y1="200.307339" x2="-145.380929" y2="191.674272" />
      <line x1="-259.369873" y1="143.81899" x2="-135.546831" y2="-1.08868" />
      <line x1="15.869494" y1="134.929024" x2="15.758317" y2="141.754265" />
      <line x1="15.758317" y1="141.754265" x2="13.304022" y2="141.228194" />
      <line x1="51.356047" y1="47.796575" x2="51.048331" y2="54.156124" />
      <line x1="15.758317" y1="141.754265" x2="25.519651" y2="117.52433" />
      <line x1="39.377528" y1="83.12581" x2="51.048331" y2="54.156124" />
      <line x1="-9.199144" y1="-44.472763" x2="-9.072268" y2="-28.561578" />
      <line x1="-9.199144" y1="-44.472763" x2="-22.347597" y2="-46.441374" />
      <line x1="-19.002318" y1="-29.18999" x2="-9.199144" y2="-44.472763" />
      <line x1="-9.589538" y1="-27.72416" x2="-9.072268" y2="-28.561578" />
      <line x1="-32.580235" y1="-31.304447" x2="-22.347597" y2="-46.441374" />
      <line x1="119.46332" y1="-30.282487" x2="117.28163" y2="-9.473397" />
      <line x1="117.28163" y1="-9.473397" x2="62.241987" y2="-18.016246" />
      <line x1="63.377639" y1="-38.582545" x2="62.241987" y2="-18.016246" />
      <line x1="119.46332" y1="-30.282487" x2="63.377639" y2="-38.582545" />
      <line x1="143.003953" y1="-103.058679" x2="140.824367" y2="-84.582624" />
      <line x1="143.003953" y1="-103.058679" x2="95.81248" y2="-108.822996" />
      <line x1="119.46332" y1="-30.282487" x2="143.003953" y2="-103.058679" />
      <line x1="117.28163" y1="-9.473397" x2="140.824367" y2="-84.582624" />
      <line x1="63.377639" y1="-38.582545" x2="75.803369" y2="-65.491537" />
      <line x1="91.776763" y1="-100.083303" x2="95.81248" y2="-108.822996" />
      <line x1="73.2869" y1="-65.838861" x2="72.868871" y2="-59.136628" />
      <line x1="66.533859" y1="-45.417612" x2="6.461518" y2="-54.155053" />
      <line x1="6.577555" y1="-75.04611" x2="6.461518" y2="-54.155053" />
      <line x1="47.812343" y1="114.97255" x2="46.190442" y2="148.697804" />
      <line x1="46.190442" y1="148.697804" x2="24.835289" y2="144.117241" />
      <line x1="25.69244" y1="110.810104" x2="24.835289" y2="144.117241" />
      <line x1="47.812343" y1="114.97255" x2="25.812173" y2="110.516116" />
      <line x1="58.15201" y1="86.730123" x2="57.240049" y2="102.764344" />
      <line x1="56.77641" y1="110.916104" x2="56.272558" y2="119.774895" />
      <line x1="58.15201" y1="86.730123" x2="37.142233" y2="82.69668" />
      <line x1="47.812343" y1="114.97255" x2="58.15201" y2="86.730123" />
      <line x1="46.190442" y1="148.697804" x2="56.272558" y2="119.774895" />
      <line x1="58.507913" y1="108.490701" x2="58.347682" y2="111.231166" />
      <line x1="58.347682" y1="111.231166" x2="51.820915" y2="109.922459" />
      <line x1="51.962897" y1="107.184665" x2="51.820915" y2="109.922459" />
      <line x1="58.507913" y1="108.490701" x2="51.962897" y2="107.184665" />
      <line x1="60.307886" y1="103.37066" x2="60.1442" y2="106.100559" />
      <line x1="60.307886" y1="103.37066" x2="53.817249" y2="102.087874" />
      <line x1="58.507913" y1="108.490701" x2="60.307886" y2="103.37066" />
      <line x1="58.347682" y1="111.231166" x2="60.1442" y2="106.100559" />
      <line x1="51.962897" y1="107.184665" x2="53.817249" y2="102.087874" />
    </g>
    <g fill="none" stroke="rgb(0,0,0)" stroke-width="0.09" id="hidden" stroke-dasharray="0.5715 0.28575">
      <line x1="-187.338661" y1="181.349859" x2="-44.194553" y2="-25.187234" />
      <line x1="73.479537" y1="-6.524672" x2="-44.194553" y2="-25.187234" />
      <line x1="-44.194553" y1="-25.187234" x2="-44.505232" y2="-33.161499" />
      <line x1="107.813773" y1="-90.827761" x2="9.966564" y2="-103.334214" />
      <line x1="10.024064" y1="-110.329472" x2="9.966564" y2="-103.334214" />
      <line x1="-8.223195" y1="-77.088915" x2="9.966564" y2="-103.334214" />
      <line x1="-155.999761" y1="168.451654" x2="-152.43664" y2="189.938094" />
      <line x1="-155.999761" y1="168.451654" x2="-182.507764" y2="162.134908" />
      <line x1="-53.807268" y1="13.055014" x2="-52.421674" y2="41.281031" />
      <line x1="-52.421674" y1="41.281031" x2="-132.157356" y2="26.674281" />
      <line x1="-135.546831" y1="-1.08868" x2="-132.157356" y2="26.674281" />
      <line x1="-53.807268" y1="13.055014" x2="-74.618635" y2="9.453948" />
      <line x1="-155.999761" y1="168.451654" x2="-53.807268" y2="13.055014" />
      <line x1="-145.380929" y1="191.674272" x2="-52.421674" y2="41.281031" />
      <line x1="-250.917943" y1="175.276179" x2="-132.157356" y2="26.674281" />
      <line x1="16.181184" y1="115.794206" x2="15.869494" y2="134.929024" />
      <line x1="13.304022" y1="141.228194" x2="-40.187232" y2="129.762494" />
      <line x1="-41.243711" y1="104.015026" x2="-40.187232" y2="129.762494" />
      <line x1="16.181184" y1="115.794206" x2="-41.243711" y2="104.015026" />
      <line x1="52.215406" y1="30.036315" x2="51.356047" y2="47.796575" />
      <line x1="51.048331" y1="54.156124" x2="2.462144" y2="45.358951" />
      <line x1="2.517456" y1="21.460601" x2="2.462144" y2="45.358951" />
      <line x1="52.215406" y1="30.036315" x2="2.517456" y2="21.460601" />
      <line x1="16.181184" y1="115.794206" x2="52.215406" y2="30.036315" />
      <line x1="25.519651" y1="117.52433" x2="39.377528" y2="83.12581" />
      <line x1="-41.243711" y1="104.015026" x2="2.517456" y2="21.460601" />
      <line x1="-40.187232" y1="129.762494" x2="2.462144" y2="45.358951" />
      <line x1="-49.138368" y1="17.790964" x2="-48.361537" y2="35.04457" />
      <line x1="-48.361537" y1="35.04457" x2="-63.007927" y2="32.398549" />
      <line x1="-64.014565" y1="15.195701" x2="-63.007927" y2="32.398549" />
      <line x1="-49.138368" y1="17.790964" x2="-64.014565" y2="15.195701" />
      <line x1="-9.072268" y1="-28.561578" x2="-22.040803" y2="-30.576885" />
      <line x1="-22.347597" y1="-46.441374" x2="-22.040803" y2="-30.576885" />
      <line x1="-49.138368" y1="17.790964" x2="-19.002318" y2="-29.18999" />
      <line x1="-48.361537" y1="35.04457" x2="-9.589538" y2="-27.72416" />
      <line x1="-64.014565" y1="15.195701" x2="-32.580235" y2="-31.304447" />
      <line x1="-63.007927" y1="32.398549" x2="-22.040803" y2="-30.576885" />
      <line x1="140.824367" y1="-84.582624" x2="94.375162" y2="-90.551493" />
      <line x1="95.81248" y1="-108.822996" x2="94.375162" y2="-90.551493" />
      <line x1="75.803369" y1="-65.491537" x2="91.776763" y2="-100.083303" />
      <line x1="62.241987" y1="-18.016246" x2="94.375162" y2="-90.551493" />
      <line x1="73.361763" y1="-67.039132" x2="73.2869" y2="-65.838861" />
      <line x1="72.868871" y1="-59.136628" x2="71.963934" y2="-44.627815" />
      <line x1="71.963934" y1="-44.627815" x2="66.533859" y2="-45.417612" />
      <line x1="6.584118" y1="-76.227752" x2="6.577555" y2="-75.04611" />
      <line x1="73.361763" y1="-67.039132" x2="6.584118" y2="-76.227752" />
      <line x1="86.842075" y1="-95.73718" x2="85.305042" y2="-74.411379" />
      <line x1="85.305042" y1="-74.411379" x2="24.078997" y2="-82.645319" />
      <line x1="24.503511" y1="-103.657058" x2="24.078997" y2="-82.645319" />
      <line x1="86.842075" y1="-95.73718" x2="24.503511" y2="-103.657058" />
      <line x1="73.361763" y1="-67.039132" x2="86.842075" y2="-95.73718" />
      <line x1="71.963934" y1="-44.627815" x2="85.305042" y2="-74.411379" />
      <line x1="6.584118" y1="-76.227752" x2="24.503511" y2="-103.657058" />
      <line x1="6.461518" y1="-54.155053" x2="24.078997" y2="-82.645319" />
      <line x1="25.700587" y1="110.493513" x2="25.69244" y2="110.810104" />
      <line x1="25.812173" y1="110.516116" x2="25.700587" y2="110.493513" />
      <line x1="57.240049" y1="102.764344" x2="56.77641" y2="110.916104" />
      <line x1="56.272558" y1="119.774895" x2="35.847188" y2="115.615434" />
      <line x1="37.035631" y1="82.676214" x2="35.847188" y2="115.615434" />
      <line x1="37.142233" y1="82.69668" x2="37.035631" y2="82.676214" />
      <line x1="25.700587" y1="110.493513" x2="37.035631" y2="82.676214" />
      <line x1="24.835289" y1="144.117241" x2="35.847188" y2="115.615434" />
      <path d="M 41.105188,136.172456 L 40.86335,136.132924 L 40.617789,136.11516 L 40.372499,136.119452 L 40.131466,136.14573 L 39.898611,136.19357 L 39.677722,136.2622 L 39.472397,136.350509 L 39.285986,136.457068 L 39.121533,136.580153 L 38.981732,136.717768 L 38.868879,136.867679 L 38.784836,137.027448 L 38.730998,137.194474 L 38.708271,137.366034" />
      <path d="M 38.708271,137.366034 L 38.744208,137.668513 L 38.874583,137.961163 L 39.09301,138.229326 L 39.388661,138.459535 L 39.746794,138.6402 L 40.149485,138.762208 L 40.576534,138.819395 L 41.006489,138.80887 L 41.41775,138.731164 L 41.789667,138.590207 L 42.103603,138.393116 L 42.343871,138.149828 L 42.498527,137.872582 L 42.559953,137.575289" />
      <path d="M 42.559953,137.575289 L 42.556722,137.444128 L 42.535458,137.313226 L 42.496373,137.183811 L 42.439843,137.057094 L 42.36641,136.93426 L 42.276771,136.816457 L 42.171773,136.704782 L 42.052406,136.600277 L 41.919793,136.503913 L 41.775179,136.416586 L 41.619918,136.339108 L 41.455463,136.272197 L 41.283351,136.216474 L 41.105188,136.172456" />
      <path d="M 41.348678,130.408836 L 41.105392,130.369452 L 40.858369,130.351754 L 40.611628,130.35603 L 40.369178,130.38221 L 40.134962,130.429871 L 39.912792,130.498244 L 39.706286,130.586222 L 39.518811,130.692383 L 39.353431,130.815008 L 39.212855,130.952109 L 39.099391,131.10146 L 39.014911,131.260634 L 38.960818,131.427038 L 38.938022,131.597958" />
      <path d="M 38.938022,131.597958 L 38.974289,131.899314 L 39.105551,132.190877 L 39.32538,132.458046 L 39.622878,132.687403 L 39.983212,132.8674 L 40.388347,132.988957 L 40.81796,133.045933 L 41.250469,133.035447 L 41.664145,132.958028 L 42.038216,132.817592 L 42.353937,132.62123 L 42.595531,132.378843 L 42.750989,132.102624 L 42.812654,131.806436" />
      <path d="M 42.812654,131.806436 L 42.809348,131.675762 L 42.787903,131.545347 L 42.748531,131.416414 L 42.691613,131.290169 L 42.617692,131.167794 L 42.527472,131.05043 L 42.421804,130.939172 L 42.301686,130.835056 L 42.168247,130.739053 L 42.02274,130.652052 L 41.866526,130.574864 L 41.701069,130.508204 L 41.527915,130.45269 L 41.348678,130.408836" />
      <line x1="60.1442" y1="106.100559" x2="53.67151" y2="104.815086" />
      <line x1="53.817249" y1="102.087874" x2="53.67151" y2="104.815086" />
      <line x1="51.820915" y1="109.922459" x2="53.67151" y2="104.815086" />
      <line x1="42.812654" y1="131.806436" x2="42.559953" y2="137.575289" />
      <line x1="38.938022" y1="131.597958" x2="38.708271" y2="137.366034" />
    </g>
  </g>
</svg>