<?xml version='1.0' encoding='utf-8'?>
<svg width="406.103207mm" height="328.562805mm" viewBox="-261.49438 -219.204856 406.103207 328.562805" version="1.1" xmlns="http://www.w3.org/2000/svg">
  <g transform="scale(1,-1)" stroke-linecap="round">
    <g fill="none" stroke="rgb(0,0,0)" stroke-width="0.09" id="visible">
      <line x1="-24.313419" y1="209.245294" x2="-24.050788" y2="219.159856" />
      <line x1="-24.050788" y1="219.159856" x2="-190.482943" y2="177.349214" />
      <line x1="-192.432889" y1="167.626771" x2="-190.482943" y2="177.349214" />
      <line x1="-24.313419" y1="209.245294" x2="-192.432889" y2="167.626771" />
      <line x1="-24.313419" y1="209.245294" x2="73.548971" y2="-14.839778" />
      <line x1="73.020132" y1="-6.6289" x2="73.548971" y2="-14.839778" />
      <line x1="-24.050788" y1="219.159856" x2="73.020132" y2="-6.6289" />
      <line x1="-192.432889" y1="167.626771" x2="-44.499055" y2="-33.540581" />
      <line x1="73.548971" y1="-14.839778" x2="-44.499055" y2="-33.540581" />
      <line x1="97.399041" y1="-69.451613" x2="109.349657" y2="-96.816105" />
      <line x1="109.349657" y1="-96.816105" x2="108.708597" y2="-89.64093" />
      <line x1="96.784832" y1="-61.906032" x2="108.708597" y2="-89.64093" />
      <line x1="96.784832" y1="-61.906032" x2="97.399041" y2="-69.451613" />
      <line x1="-7.47615" y1="-83.886061" x2="11.222198" y2="-109.312949" />
      <line x1="109.349657" y1="-96.816105" x2="11.222198" y2="-109.312949" />
      <line x1="97.399041" y1="-69.451613" x2="-7.47615" y2="-83.886061" />
      <line x1="96.784832" y1="-61.906032" x2="-7.430753" y2="-76.532779" />
      <line x1="-7.430753" y1="-76.532779" x2="-7.47615" y2="-83.886061" />
      <line x1="-155.475926" y1="186.143583" x2="-153.677166" y2="197.02985" />
      <line x1="-153.677166" y1="197.02985" x2="-253.047379" y2="171.66107" />
      <line x1="-261.44938" y1="139.937415" x2="-253.047379" y2="171.66107" />
      <line x1="-185.631749" y1="158.378263" x2="-261.44938" y2="139.937415" />
      <line x1="-75.367688" y1="8.436031" x2="-135.628826" y2="-2.181427" />
      <line x1="-153.677166" y1="197.02985" x2="-147.901376" y2="188.046442" />
      <line x1="-261.44938" y1="139.937415" x2="-135.628826" y2="-2.181427" />
      <line x1="14.145136" y1="130.315428" x2="13.998007" y2="140.683405" />
      <line x1="13.998007" y1="140.683405" x2="10.058528" y2="139.820955" />
      <line x1="51.026978" y1="44.527582" x2="50.573172" y2="54.155372" />
      <line x1="13.998007" y1="140.683405" x2="23.534227" y2="118.123006" />
      <line x1="38.686042" y1="82.277459" x2="50.573172" y2="54.155372" />
      <line x1="-8.309432" y1="-43.751215" x2="-8.19629" y2="-27.80884" />
      <line x1="-8.309432" y1="-43.751215" x2="-21.402622" y2="-45.748193" />
      <line x1="-17.912316" y1="-29.328792" x2="-8.309432" y2="-43.751215" />
      <line x1="-8.207477" y1="-27.791382" x2="-8.19629" y2="-27.80884" />
      <line x1="-31.412989" y1="-31.467527" x2="-21.402622" y2="-45.748193" />
      <line x1="119.947529" y1="-29.331662" x2="117.781972" y2="-8.453234" />
      <line x1="117.781972" y1="-8.453234" x2="62.837831" y2="-17.145264" />
      <line x1="63.970341" y1="-37.767685" x2="62.837831" y2="-17.145264" />
      <line x1="119.947529" y1="-29.331662" x2="63.970341" y2="-37.767685" />
      <line x1="144.563827" y1="-101.132853" x2="142.386293" y2="-82.63226" />
      <line x1="144.563827" y1="-101.132853" x2="97.442011" y2="-106.988789" />
      <line x1="119.947529" y1="-29.331662" x2="144.563827" y2="-101.132853" />
      <line x1="117.781972" y1="-8.453234" x2="142.386293" y2="-82.63226" />
      <line x1="63.970341" y1="-37.767685" x2="76.986041" y2="-64.684809" />
      <line x1="93.499134" y1="-98.83472" x2="97.442011" y2="-106.988789" />
      <line x1="74.430804" y1="-65.043439" x2="74.026251" y2="-58.563815" />
      <line x1="67.065018" y1="-44.167633" x2="7.755119" y2="-52.959383" />
      <line x1="7.895902" y1="-74.38167" x2="7.755119" y2="-52.959383" />
      <line x1="45.788932" y1="113.649501" x2="44.252712" y2="147.650736" />
      <line x1="44.252712" y1="147.650736" x2="22.954316" y2="142.985327" />
      <line x1="23.744799" y1="109.095194" x2="22.954316" y2="142.985327" />
      <line x1="45.788932" y1="113.649501" x2="23.744799" y2="109.095194" />
      <line x1="56.573818" y1="85.778609" x2="55.706096" y2="101.750232" />
      <line x1="55.264248" y1="109.883066" x2="54.765638" y2="119.06067" />
      <line x1="56.573818" y1="85.778609" x2="35.517725" y2="81.657329" />
      <line x1="45.788932" y1="113.649501" x2="56.573818" y2="85.778609" />
      <line x1="44.252712" y1="147.650736" x2="54.765638" y2="119.06067" />
      <line x1="23.744799" y1="109.095194" x2="35.517725" y2="81.657329" />
      <line x1="56.66556" y1="107.377069" x2="56.51212" y2="110.138295" />
      <line x1="56.51212" y1="110.138295" x2="50.002143" y2="108.806802" />
      <line x1="50.137588" y1="106.048479" x2="50.002143" y2="108.806802" />
      <line x1="56.66556" y1="107.377069" x2="50.137588" y2="106.048479" />
      <line x1="58.545654" y1="102.322574" x2="58.388541" y2="105.072664" />
      <line x1="58.545654" y1="102.322574" x2="52.071704" y2="101.017683" />
      <line x1="56.66556" y1="107.377069" x2="58.545654" y2="102.322574" />
      <line x1="56.51212" y1="110.138295" x2="58.388541" y2="105.072664" />
      <line x1="50.137588" y1="106.048479" x2="52.071704" y2="101.017683" />
    </g>
    <g fill="none" stroke="rgb(0,0,0)" stroke-width="0.09" id="hidden" stroke-dasharray="0.5715 0.28575">
      <line x1="-190.482943" y1="177.349214" x2="-44.192559" y2="-25.546444" />
      <line x1="73.020132" y1="-6.6289" x2="-44.192559" y2="-25.546444" />
      <line x1="-44.192559" y1="-25.546444" x2="-44.499055" y2="-33.540581" />
      <line x1="108.708597" y1="-89.64093" x2="11.158683" y2="-102.315171" />
      <line x1="11.222198" y1="-109.312949" x2="11.158683" y2="-102.315171" />
      <line x1="-7.430753" y1="-76.532779" x2="11.158683" y2="-102.315171" />
      <line x1="-158.99307" y1="164.857492" x2="-155.475926" y2="186.143583" />
      <line x1="-158.99307" y1="164.857492" x2="-185.631749" y2="158.378263" />
      <line x1="-54.403771" y1="12.129681" x2="-53.020771" y2="40.473338" />
      <line x1="-53.020771" y1="40.473338" x2="-132.283772" y2="25.67034" />
      <line x1="-135.628826" y1="-2.181427" x2="-132.283772" y2="25.67034" />
      <line x1="-54.403771" y1="12.129681" x2="-75.367688" y2="8.436031" />
      <line x1="-158.99307" y1="164.857492" x2="-54.403771" y2="12.129681" />
      <line x1="-147.901376" y1="188.046442" x2="-53.020771" y2="40.473338" />
      <line x1="-253.047379" y1="171.66107" x2="-132.283772" y2="25.67034" />
      <line x1="14.36928" y1="114.520451" x2="14.145136" y2="130.315428" />
      <line x1="10.058528" y1="139.820955" x2="-41.740365" y2="128.480878" />
      <line x1="-42.824233" y1="102.549866" x2="-41.740365" y2="128.480878" />
      <line x1="14.36928" y1="114.520451" x2="-42.824233" y2="102.549866" />
      <line x1="51.715675" y1="29.916418" x2="51.026978" y2="44.527582" />
      <line x1="50.573172" y1="54.155372" x2="2.132713" y2="45.208055" />
      <line x1="2.18003" y1="21.205012" x2="2.132713" y2="45.208055" />
      <line x1="51.715675" y1="29.916418" x2="2.18003" y2="21.205012" />
      <line x1="14.36928" y1="114.520451" x2="51.715675" y2="29.916418" />
      <line x1="23.534227" y1="118.123006" x2="38.686042" y2="82.277459" />
      <line x1="-42.824233" y1="102.549866" x2="2.18003" y2="21.205012" />
      <line x1="-41.740365" y1="128.480878" x2="2.132713" y2="45.208055" />
      <line x1="-49.126765" y1="17.551708" x2="-48.35997" y2="34.87008" />
      <line x1="-48.35997" y1="34.87008" x2="-62.9362" y2="32.183276" />
      <line x1="-63.928569" y1="14.918797" x2="-62.9362" y2="32.183276" />
      <line x1="-49.126765" y1="17.551708" x2="-63.928569" y2="14.918797" />
      <line x1="-8.19629" y1="-27.80884" x2="-21.112594" y2="-29.854909" />
      <line x1="-21.402622" y1="-45.748193" x2="-21.112594" y2="-29.854909" />
      <line x1="-49.126765" y1="17.551708" x2="-17.912316" y2="-29.328792" />
      <line x1="-48.35997" y1="34.87008" x2="-8.207477" y2="-27.791382" />
      <line x1="-63.928569" y1="14.918797" x2="-31.412989" y2="-31.467527" />
      <line x1="-62.9362" y1="32.183276" x2="-21.112594" y2="-29.854909" />
      <line x1="142.386293" y1="-82.63226" x2="95.998114" y2="-88.702065" />
      <line x1="97.442011" y1="-106.988789" x2="95.998114" y2="-88.702065" />
      <line x1="76.986041" y1="-64.684809" x2="93.499134" y2="-98.83472" />
      <line x1="62.837831" y1="-17.145264" x2="95.998114" y2="-88.702065" />
      <line x1="74.473727" y1="-65.730928" x2="74.430804" y2="-65.043439" />
      <line x1="74.026251" y1="-58.563815" x2="73.07184" y2="-43.277217" />
      <line x1="73.07184" y1="-43.277217" x2="67.065018" y2="-44.167633" />
      <line x1="7.900346" y1="-75.057991" x2="7.895902" y2="-74.38167" />
      <line x1="74.473727" y1="-65.730928" x2="7.900346" y2="-75.057991" />
      <line x1="88.37016" y1="-94.017235" x2="86.825102" y2="-72.667326" />
      <line x1="86.825102" y1="-72.667326" x2="25.756414" y2="-81.034079" />
      <line x1="26.204577" y1="-102.055655" x2="25.756414" y2="-81.034079" />
      <line x1="88.37016" y1="-94.017235" x2="26.204577" y2="-102.055655" />
      <line x1="74.473727" y1="-65.730928" x2="88.37016" y2="-94.017235" />
      <line x1="73.07184" y1="-43.277217" x2="86.825102" y2="-72.667326" />
      <line x1="7.900346" y1="-75.057991" x2="26.204577" y2="-102.055655" />
      <line x1="7.755119" y1="-52.959383" x2="25.756414" y2="-81.034079" />
      <line x1="55.706096" y1="101.750232" x2="55.264248" y2="109.883066" />
      <line x1="54.765638" y1="119.06067" x2="34.390888" y2="114.825068" />
      <line x1="35.517725" y1="81.657329" x2="34.390888" y2="114.825068" />
      <line x1="22.954316" y1="142.985327" x2="34.390888" y2="114.825068" />
      <path d="M 39.445635,135.315374 L 39.202781,135.274607 L 38.955863,135.255643 L 38.708943,135.258793 L 38.466083,135.284005 L 38.231279,135.330867 L 38.008397,135.398613 L 37.801111,135.486134 L 37.612842,135.591999 L 37.446701,135.714472 L 37.305443,135.851545 L 37.191414,136.000965 L 37.106519,136.160274 L 37.052184,136.326848 L 37.029334,136.497938" />
      <path d="M 37.029334,136.497938 L 37.065465,136.797711 L 37.196044,137.087596 L 37.414673,137.353074 L 37.710514,137.580812 L 38.068814,137.759342 L 38.471642,137.87966 L 38.898788,137.935685 L 39.328795,137.924584 L 39.740058,137.84692 L 40.111928,137.706619 L 40.425767,137.510765 L 40.665895,137.269234 L 40.820375,136.994177 L 40.881597,136.699397" />
      <path d="M 40.881597,136.699397 L 40.87837,136.570419 L 40.85739,136.441714 L 40.818864,136.314467 L 40.763157,136.189853 L 40.690794,136.069017 L 40.602452,135.953071 L 40.498952,135.843078 L 40.381256,135.740047 L 40.250452,135.644923 L 40.107751,135.558574 L 39.954466,135.481791 L 39.792011,135.415276 L 39.62188,135.359634 L 39.445635,135.315374" />
      <path d="M 39.676689,129.505979 L 39.432396,129.465376 L 39.184025,129.446488 L 38.93566,129.449625 L 38.691387,129.474736 L 38.455225,129.521409 L 38.231064,129.588883 L 38.022597,129.676052 L 37.833264,129.781492 L 37.666195,129.903473 L 37.52416,130.039996 L 37.409518,130.188816 L 37.324184,130.347487 L 37.269592,130.513395 L 37.24667,130.6838" />
      <path d="M 37.24667,130.6838 L 37.283124,130.982375 L 37.414578,131.271104 L 37.63459,131.535524 L 37.932255,131.762355 L 38.29273,131.940176 L 38.697974,132.060015 L 39.127654,132.115818 L 39.560187,132.104762 L 39.973839,132.027406 L 40.34784,131.887662 L 40.663446,131.692587 L 40.904888,131.452018 L 41.060164,131.178058 L 41.121626,130.884454" />
      <path d="M 41.121626,130.884454 L 41.118327,130.755992 L 41.097172,130.6278 L 41.058368,130.501063 L 41.002284,130.376948 L 40.929447,130.256596 L 40.840539,130.141115 L 40.736388,130.031563 L 40.617961,129.928946 L 40.486353,129.834203 L 40.34278,129.748201 L 40.188567,129.671727 L 40.025133,129.605479 L 39.853983,129.550061 L 39.676689,129.505979" />
      <line x1="58.388541" y1="105.072664" x2="51.93229" y2="103.764858" />
      <line x1="52.071704" y1="101.017683" x2="51.93229" y2="103.764858" />
      <line x1="50.002143" y1="108.806802" x2="51.93229" y2="103.764858" />
      <line x1="41.121626" y1="130.884454" x2="40.881597" y2="136.699397" />
      <line x1="37.24667" y1="130.6838" x2="37.029334" y2="136.497938" />
    </g>
  </g>
</svg>