  0
SECTION
  2
HEADER
  9
$ACADVER
  1
AC1027
  9
$ACADMAINTVER
 70
105
  9
$DWGCODEPAGE
  3
ANSI_1252
  9
$LASTSAVEDBY
  1
ezdxf
  9
$REQUIREDVERSIONS
160
0
  9
$INSBASE
 10
0.0
 20
0.0
 30
0.0
  9
$EXTMIN
 10
1e+20
 20
1e+20
 30
1e+20
  9
$EXTMAX
 10
-1e+20
 20
-1e+20
 30
-1e+20
  9
$LIMMIN
 10
0.0
 20
0.0
  9
$LIMMAX
 10
420.0
 20
297.0
  9
$ORTHOMODE
 70
0
  9
$REGENMODE
 70
1
  9
$FILLMODE
 70
1
  9
$QTEXTMODE
 70
0
  9
$MIRRTEXT
 70
1
  9
$LTSCALE
 40
1.0
  9
$ATTMODE
 70
1
  9
$TEXTSIZE
 40
2.5
  9
$TRACEWID
 40
1.0
  9
$TEXTSTYLE
  7
Standard
  9
$CLAYER
  8
0
  9
$CELTYPE
  6
ByLayer
  9
$CECOLOR
 62
256
  9
$CELTSCALE
 40
1.0
  9
$DISPSILH
 70
0
  9
$DIMSCALE
 40
1.0
  9
$DIMASZ
 40
2.5
  9
$DIMEXO
 40
0.625
  9
$DIMDLI
 40
3.75
  9
$DIMRND
 40
0.0
  9
$DIMDLE
 40
0.0
  9
$DIMEXE
 40
1.25
  9
$DIMTP
 40
0.0
  9
$DIMTM
 40
0.0
  9
$DIMTXT
 40
2.5
  9
$DIMCEN
 40
2.5
  9
$DIMTSZ
 40
0.0
  9
$DIMTOL
 70
0
  9
$DIMLIM
 70
0
  9
$DIMTIH
 70
0
  9
$DIMTOH
 70
0
  9
$DIMSE1
 70
0
  9
$DIMSE2
 70
0
  9
$DIMTAD
 70
1
  9
$DIMZIN
 70
8
  9
$DIMBLK
  1

  9
$DIMASO
 70
1
  9
$DIMSHO
 70
1
  9
$DIMPOST
  1

  9
$DIMAPOST
  1

  9
$DIMALT
 70
0
  9
$DIMALTD
 70
3
  9
$DIMALTF
 40
0.03937007874
  9
$DIMLFAC
 40
1.0
  9
$DIMTOFL
 70
1
  9
$DIMTVP
 40
0.0
  9
$DIMTIX
 70
0
  9
$DIMSOXD
 70
0
  9
$DIMSAH
 70
0
  9
$DIMBLK1
  1

  9
$DIMBLK2
  1

  9
$DIMSTYLE
  2
ISO-25
  9
$DIMCLRD
 70
0
  9
$DIMCLRE
 70
0
  9
$DIMCLRT
 70
0
  9
$DIMTFAC
 40
1.0
  9
$DIMGAP
 40
0.625
  9
$DIMJUST
 70
0
  9
$DIMSD1
 70
0
  9
$DIMSD2
 70
0
  9
$DIMTOLJ
 70
0
  9
$DIMTZIN
 70
8
  9
$DIMALTZ
 70
0
  9
$DIMALTTZ
 70
0
  9
$DIMUPT
 70
0
  9
$DIMDEC
 70
2
  9
$DIMTDEC
 70
2
  9
$DIMALTU
 70
2
  9
$DIMALTTD
 70
3
  9
$DIMTXSTY
  7
Standard
  9
$DIMAUNIT
 70
0
  9
$DIMADEC
 70
0
  9
$DIMALTRND
 40
0.0
  9
$DIMAZIN
 70
0
  9
$DIMDSEP
 70
44
  9
$DIMATFIT
 70
3
  9
$DIMFRAC
 70
0
  9
$DIMLDRBLK
  1

  9
$DIMLUNIT
 70
2
  9
$DIMLWD
 70
-2
  9
$DIMLWE
 70
-2
  9
$DIMTMOVE
 70
0
  9
$DIMFXL
 40
1.0
  9
$DIMFXLON
 70
0
  9
$DIMJOGANG
 40
0.785398163397
  9
$DIMTFILL
 70
0
  9
$DIMTFILLCLR
 70
0
  9
$DIMARCSYM
 70
0
  9
$DIMLTYPE
  6

  9
$DIMLTEX1
  6

  9
$DIMLTEX2
  6

  9
$DIMTXTDIRECTION
 70
0
  9
$LUNITS
 70
2
  9
$LUPREC
 70
4
  9
$SKETCHINC
 40
1.0
  9
$FILLETRAD
 40
10.0
  9
$AUNITS
 70
0
  9
$AUPREC
 70
2
  9
$MENU
  1
.
  9
$ELEVATION
 40
0.0
  9
$PELEVATION
 40
0.0
  9
$THICKNESS
 40
0.0
  9
$LIMCHECK
 70
0
  9
$CHAMFERA
 40
0.0
  9
$CHAMFERB
 40
0.0
  9
$CHAMFERC
 40
0.0
  9
$CHAMFERD
 40
0.0
  9
$SKPOLY
 70
0
  9
$TDCREATE
 40
2461134.441863426
  9
$TDUCREATE
 40
2458532.153996898
  9
$TDUPDATE
 40
2461134.441863426
  9
$TDUUPDATE
 40
2458532.1544311
  9
$TDINDWG
 40
0.0
  9
$TDUSRTIMER
 40
0.0
  9
$USRTIMER
 70
1
  9
$ANGBASE
 50
0.0
  9
$ANGDIR
 70
0
  9
$PDMODE
 70
0
  9
$PDSIZE
 40
0.0
  9
$PLINEWID
 40
0.0
  9
$SPLFRAME
 70
0
  9
$SPLINETYPE
 70
6
  9
$SPLINESEGS
 70
8
  9
$HANDSEED
  5
C0
  9
$SURFTAB1
 70
6
  9
$SURFTAB2
 70
6
  9
$SURFTYPE
 70
6
  9
$SURFU
 70
6
  9
$SURFV
 70
6
  9
$UCSBASE
  2

  9
$UCSNAME
  2

  9
$UCSORG
 10
0.0
 20
0.0
 30
0.0
  9
$UCSXDIR
 10
1.0
 20
0.0
 30
0.0
  9
$UCSYDIR
 10
0.0
 20
1.0
 30
0.0
  9
$UCSORTHOREF
  2

  9
$UCSORTHOVIEW
 70
0
  9
$UCSORGTOP
 10
0.0
 20
0.0
 30
0.0
  9
$UCSORGBOTTOM
 10
0.0
 20
0.0
 30
0.0
  9
$UCSORGLEFT
 10
0.0
 20
0.0
 30
0.0
  9
$UCSORGRIGHT
 10
0.0
 20
0.0
 30
0.0
  9
$UCSORGFRONT
 10
0.0
 20
0.0
 30
0.0
  9
$UCSORGBACK
 10
0.0
 20
0.0
 30
0.0
  9
$PUCSBASE
  2

  9
$PUCSNAME
  2

  9
$PUCSORG
 10
0.0
 20
0.0
 30
0.0
  9
$PUCSXDIR
 10
1.0
 20
0.0
 30
0.0
  9
$PUCSYDIR
 10
0.0
 20
1.0
 30
0.0
  9
$PUCSORTHOREF
  2

  9
$PUCSORTHOVIEW
 70
0
  9
$PUCSORGTOP
 10
0.0
 20
0.0
 30
0.0
  9
$PUCSORGBOTTOM
 10
0.0
 20
0.0
 30
0.0
  9
$PUCSORGLEFT
 10
0.0
 20
0.0
 30
0.0
  9
$PUCSORGRIGHT
 10
0.0
 20
0.0
 30
0.0
  9
$PUCSORGFRONT
 10
0.0
 20
0.0
 30
0.0
  9
$PUCSORGBACK
 10
0.0
 20
0.0
 30
0.0
  9
$USERI1
 70
0
  9
$USERI2
 70
0
  9
$USERI3
 70
0
  9
$USERI4
 70
0
  9
$USERI5
 70
0
  9
$USERR1
 40
0.0
  9
$USERR2
 40
0.0
  9
$USERR3
 40
0.0
  9
$USERR4
 40
0.0
  9
$USERR5
 40
0.0
  9
$WORLDVIEW
 70
1
  9
$SHADEDGE
 70
3
  9
$SHADEDIF
 70
70
  9
$TILEMODE
 70
1
  9
$MAXACTVP
 70
64
  9
$PINSBASE
 10
0.0
 20
0.0
 30
0.0
  9
$PLIMCHECK
 70
0
  9
$PEXTMIN
 10
1e+20
 20
1e+20
 30
1e+20
  9
$PEXTMAX
 10
-1e+20
 20
-1e+20
 30
-1e+20
  9
$PLIMMIN
 10
0.0
 20
0.0
  9
$PLIMMAX
 10
420.0
 20
297.0
  9
$UNITMODE
 70
0
  9
$VISRETAIN
 70
1
  9
$PLINEGEN
 70
0
  9
$PSLTSCALE
 70
1
  9
$TREEDEPTH
 70
3020
  9
$CMLSTYLE
  2
Standard
  9
$CMLJUST
 70
0
  9
$CMLSCALE
 40
20.0
  9
$PROXYGRAPHICS
 70
1
  9
$MEASUREMENT
 70
1
  9
$CELWEIGHT
370
-1
  9
$ENDCAPS
280
0
  9
$JOINSTYLE
280
0
  9
$LWDISPLAY
290
0
  9
$INSUNITS
 70
4
  9
$HYPERLINKBASE
  1

  9
$STYLESHEET
  1

  9
$XEDIT
290
1
  9
$CEPSNTYPE
380
0
  9
$PSTYLEMODE
290
1
  9
$FINGERPRINTGUID
  2
{187693BE-A3B8-4270-B0D1-71AC35D84DAC}
  9
$VERSIONGUID
  2
{E77F3A3E-86BE-497B-9D13-F49C34D16EF6}
  9
$EXTNAMES
290
1
  9
$PSVPSCALE
 40
0.0
  9
$OLESTARTUP
290
0
  9
$SORTENTS
280
127
  9
$INDEXCTL
280
0
  9
$HIDETEXT
280
1
  9
$XCLIPFRAME
280
1
  9
$HALOGAP
280
0
  9
$OBSCOLOR
 70
257
  9
$OBSLTYPE
280
0
  9
$INTERSECTIONDISPLAY
280
0
  9
$INTERSECTIONCOLOR
 70
257
  9
$DIMASSOC
280
2
  9
$PROJECTNAME
  1

  9
$CAMERADISPLAY
290
0
  9
$LENSLENGTH
 40
50.0
  9
$CAMERAHEIGHT
 40
0.0
  9
$STEPSPERSEC
 40
24.0
  9
$STEPSIZE
 40
100.0
  9
$3DDWFPREC
 40
2.0
  9
$PSOLWIDTH
 40
0.005
  9
$PSOLHEIGHT
 40
0.08
  9
$LOFTANG1
 40
1.570796326795
  9
$LOFTANG2
 40
1.570796326795
  9
$LOFTMAG1
 40
0.0
  9
$LOFTMAG2
 40
0.0
  9
$LOFTPARAM
 70
7
  9
$LOFTNORMALS
280
1
  9
$LATITUDE
 40
37.795
  9
$LONGITUDE
 40
-122.394
  9
$NORTHDIRECTION
 40
0.0
  9
$TIMEZONE
 70
-8000
  9
$LIGHTGLYPHDISPLAY
280
1
  9
$TILEMODELIGHTSYNCH
280
1
  9
$CMATERIAL
347
20
  9
$SOLIDHIST
280
0
  9
$SHOWHIST
280
1
  9
$DWFFRAME
280
2
  9
$DGNFRAME
280
2
  9
$REALWORLDSCALE
290
1
  9
$INTERFERECOLOR
 62
256
  9
$CSHADOW
280
0
  9
$SHADOWPLANELOCATION
 40
0.0
  0
ENDSEC
  0
SECTION
  2
CLASSES
  0
CLASS
  1
ACDBDICTIONARYWDFLT
  2
AcDbDictionaryWithDefault
  3
ObjectDBX Classes
 90
0
 91
0
280
0
281
0
  0
CLASS
  1
SUN
  2
AcDbSun
  3
SCENEOE
 90
1153
 91
0
280
0
281
0
  0
CLASS
  1
VISUALSTYLE
  2
AcDbVisualStyle
  3
ObjectDBX Classes
 90
4095
 91
0
280
0
281
0
  0
CLASS
  1
MATERIAL
  2
AcDbMaterial
  3
ObjectDBX Classes
 90
1153
 91
0
280
0
281
0
  0
CLASS
  1
SCALE
  2
AcDbScale
  3
ObjectDBX Classes
 90
1153
 91
0
280
0
281
0
  0
CLASS
  1
TABLESTYLE
  2
AcDbTableStyle
  3
ObjectDBX Classes
 90
4095
 91
0
280
0
281
0
  0
CLASS
  1
MLEADERSTYLE
  2
AcDbMLeaderStyle
  3
ACDB_MLEADERSTYLE_CLASS
 90
4095
 91
0
280
0
281
0
  0
CLASS
  1
DICTIONARYVAR
  2
AcDbDictionaryVar
  3
ObjectDBX Classes
 90
0
 91
0
280
0
281
0
  0
CLASS
  1
CELLSTYLEMAP
  2
AcDbCellStyleMap
  3
ObjectDBX Classes
 90
1152
 91
0
280
0
281
0
  0
CLASS
  1
MENTALRAYRENDERSETTINGS
  2
AcDbMentalRayRenderSettings
  3
SCENEOE
 90
1024
 91
0
280
0
281
0
  0
CLASS
  1
ACDBDETAILVIEWSTYLE
  2
AcDbDetailViewStyle
  3
ObjectDBX Classes
 90
1025
 91
0
280
0
281
0
  0
CLASS
  1
ACDBSECTIONVIEWSTYLE
  2
AcDbSectionViewStyle
  3
ObjectDBX Classes
 90
1025
 91
0
280
0
281
0
  0
CLASS
  1
RASTERVARIABLES
  2
AcDbRasterVariables
  3
ISM
 90
0
 91
0
280
0
281
0
  0
CLASS
  1
ACDBPLACEHOLDER
  2
AcDbPlaceHolder
  3
ObjectDBX Classes
 90
0
 91
0
280
0
281
0
  0
CLASS
  1
LAYOUT
  2
AcDbLayout
  3
ObjectDBX Classes
 90
0
 91
0
280
0
281
0
  0
ENDSEC
  0
SECTION
  2
TABLES
  0
TABLE
  2
VPORT
  5
8
330
0
100
AcDbSymbolTable
 70
1
  0
VPORT
  5
BC
330
8
100
AcDbSymbolTableRecord
100
AcDbViewportTableRecord
  2
*Active
 70
0
 10
0.0
 20
0.0
 11
1.0
 21
1.0
 12
48.11940400894932
 22
54.32891055091109
 13
0.0
 23
0.0
 14
0.5
 24
0.5
 15
0.5
 25
0.5
 16
0.0
 26
0.0
 36
1.0
 17
0.0
 27
0.0
 37
0.0
 40
358.88341662846966
 41
1.34
 42
50.0
 43
0.0
 44
0.0
 50
0.0
 51
0.0
 71
0
 72
1000
 73
1
 74
3
 75
0
 76
0
 77
0
 78
0
281
0
 65
1
110
0.0
120
0.0
130
0.0
111
1.0
121
0.0
131
0.0
112
0.0
122
1.0
132
0.0
 79
0
146
0.0
  0
ENDTAB
  0
TABLE
  2
LTYPE
  5
2
330
0
100
AcDbSymbolTable
 70
4
  0
LTYPE
  5
24
330
2
100
AcDbSymbolTableRecord
100
AcDbLinetypeTableRecord
  2
ByBlock
 70
0
  3

 72
65
 73
0
 40
0.0
  0
LTYPE
  5
25
330
2
100
AcDbSymbolTableRecord
100
AcDbLinetypeTableRecord
  2
ByLayer
 70
0
  3

 72
65
 73
0
 40
0.0
  0
LTYPE
  5
26
330
2
100
AcDbSymbolTableRecord
100
AcDbLinetypeTableRecord
  2
Continuous
 70
0
  3

 72
65
 73
0
 40
0.0
  0
LTYPE
  5
30
330
2
100
AcDbSymbolTableRecord
100
AcDbLinetypeTableRecord
  2
HIDDEN
 70
0
  3
Hidden __ __ __ __ __ __ __ __ __ __ __ __ __ __
 72
65
 73
2
 40
9.525
 49
6.35
 74
0
 49
-3.175
 74
0
  0
ENDTAB
  0
TABLE
  2
LAYER
  5
1
330
0
100
AcDbSymbolTable
 70
4
  0
LAYER
  5
27
330
1
100
AcDbSymbolTableRecord
100
AcDbLayerTableRecord
  2
0
 70
0
 62
7
  6
CONTINUOUS
370
-3
390
13
347
21
  0
LAYER
  5
28
330
1
100
AcDbSymbolTableRecord
100
AcDbLayerTableRecord
  2
Defpoints
 70
0
 62
7
  6
Continuous
290
0
370
-3
390
13
347
21
  0
LAYER
  5
2F
330
1
100
AcDbSymbolTableRecord
100
AcDbLayerTableRecord
  2
visible
 70
0
 62
7
  6
CONTINUOUS
370
-3
390
13
347
21
  0
LAYER
  5
31
330
1
100
AcDbSymbolTableRecord
100
AcDbLayerTableRecord
  2
hidden
 70
0
 62
7
  6
HIDDEN
370
-3
390
13
347
21
  0
ENDTAB
  0
TABLE
  2
STYLE
  5
5
330
0
100
AcDbSymbolTable
 70
1
  0
STYLE
  5
29
330
5
100
AcDbSymbolTableRecord
100
AcDbTextStyleTableRecord
  2
Standard
 70
0
 40
0.0
 41
1.0
 50
0.0
 71
0
 42
2.5
  3
txt
  4

  0
ENDTAB
  0
TABLE
  2
VIEW
  5
7
330
0
100
AcDbSymbolTable
 70
0
  0
ENDTAB
  0
TABLE
  2
UCS
  5
6
330
0
100
AcDbSymbolTable
 70
0
  0
ENDTAB
  0
TABLE
  2
APPID
  5
3
330
0
100
AcDbSymbolTable
 70
3
  0
APPID
  5
2A
330
3
100
AcDbSymbolTableRecord
100
AcDbRegAppTableRecord
  2
ACAD
 70
0
  0
APPID
  5
BD
330
3
100
AcDbSymbolTableRecord
100
AcDbRegAppTableRecord
  2
HATCHBACKGROUNDCOLOR
 70
0
  0
APPID
  5
BE
330
3
100
AcDbSymbolTableRecord
100
AcDbRegAppTableRecord
  2
EZDXF
 70
0
  0
ENDTAB
  0
TABLE
  2
DIMSTYLE
  5
4
330
0
100
AcDbSymbolTable
 70
1
100
AcDbDimStyleTable
  0
DIMSTYLE
105
2B
330
4
100
AcDbSymbolTableRecord
100
AcDbDimStyleTableRecord
  2
Standard
 70
0
 40
1.0
 41
2.5
 42
0.625
 43
3.75
 44
1.25
 45
0.0
 46
0.0
 47
0.0
 48
0.0
 49
2.5
140
2.5
141
2.5
142
0.0
143
0.03937007874
144
1.0
145
0.0
146
1.0
147
0.625
148
0.0
 69
0
 70
0
 71
0
 72
0
 73
0
 74
0
 75
0
 76
0
 77
1
 78
8
 79
3
170
0
171
3
172
1
173
0
174
0
175
0
176
0
177
0
178
0
179
2
271
2
272
2
273
2
274
3
275
0
276
0
277
2
278
44
279
0
280
0
281
0
282
0
283
0
284
8
285
0
286
0
288
0
289
3
290
0
371
-2
372
-2
  0
ENDTAB
  0
TABLE
  2
BLOCK_RECORD
  5
9
330
0
100
AcDbSymbolTable
 70
2
  0
BLOCK_RECORD
  5
17
330
9
100
AcDbSymbolTableRecord
100
AcDbBlockTableRecord
  2
*Model_Space
340
1A
 70
0
280
1
281
0
  0
BLOCK_RECORD
  5
1B
330
9
100
AcDbSymbolTableRecord
100
AcDbBlockTableRecord
  2
*Paper_Space
340
1E
 70
0
280
1
281
0
  0
ENDTAB
  0
ENDSEC
  0
SECTION
  2
BLOCKS
  0
BLOCK
  5
18
330
17
100
AcDbEntity
  8
0
100
AcDbBlockBegin
  2
*Model_Space
 70
0
 10
0.0
 20
0.0
 30
0.0
  3
*Model_Space
  1

  0
ENDBLK
  5
19
330
17
100
AcDbEntity
  8
0
100
AcDbBlockEnd
  0
BLOCK
  5
1C
330
1B
100
AcDbEntity
  8
0
100
AcDbBlockBegin
  2
*Paper_Space
 70
0
 10
0.0
 20
0.0
 30
0.0
  3
*Paper_Space
  1

  0
ENDBLK
  5
1D
330
1B
100
AcDbEntity
  8
0
100
AcDbBlockEnd
  0
ENDSEC
  0
SECTION
  2
ENTITIES
  0
LINE
  5
32
330
17
100
AcDbEntity
  8
visible
100
AcDbLine
 10
207.05652749799168
 20
-14.48452641300368
 30
0.0
 11
216.96704309755322
 21
-16.259668186424165
 31
0.0
  0
LINE
  5
33
330
17
100
AcDbEntity
  8
visible
100
AcDbLine
 10
216.96704309755316
 20
-16.25966818642416
 30
0.0
 11
203.91830239528193
 21
156.420568891116
 31
0.0
  0
LINE
  5
34
330
17
100
AcDbEntity
  8
visible
100
AcDbLine
 10
194.47708295941825
 20
159.84532401918023
 30
0.0
 11
203.91830239528196
 21
156.42056889111598
 31
0.0
  0
LINE
  5
35
330
17
100
AcDbEntity
  8
visible
100
AcDbLine
 10
207.05652749799168
 20
-14.48452641300368
 30
0.0
 11
194.47708295941828
 21
159.84532401918023
 31
0.0
  0
LINE
  5
36
330
17
100
AcDbEntity
  8
visible
100
AcDbLine
 10
207.05652749799168
 20
-14.48452641300368
 30
0.0
 11
-27.26315538142714
 21
-70.7149770909795
 31
0.0
  0
LINE
  5
37
330
17
100
AcDbEntity
  8
visible
100
AcDbLine
 10
-19.02900934693409
 20
-71.49208043359265
 30
0.0
 11
-27.263155381427172
 21
-70.71497709097949
 31
0.0
  0
LINE
  5
38
330
17
100
AcDbEntity
  8
visible
100
AcDbLine
 10
216.96704309755316
 20
-16.25966818642416
 30
0.0
 11
-19.029009346934117
 21
-71.49208043359268
 31
0.0
  0
LINE
  5
39
330
17
100
AcDbEntity
  8
visible
100
AcDbLine
 10
194.47708295941825
 20
159.84532401918023
 30
0.0
 11
-26.14620791461749
 21
49.14772540353022
 31
0.0
  0
LINE
  5
3A
330
17
100
AcDbEntity
  8
visible
100
AcDbLine
 10
-27.263155381427172
 20
-70.7149770909795
 30
0.0
 11
-26.14620791461738
 21
49.14772540353029
 31
0.0
  0
LINE
  5
3B
330
17
100
AcDbEntity
  8
visible
100
AcDbLine
 10
-84.0704539816777
 20
-84.34720790845728
 30
0.0
 11
-112.49124390227576
 21
-91.16743660722047
 31
0.0
  0
LINE
  5
3C
330
17
100
AcDbEntity
  8
visible
100
AcDbLine
 10
-112.49124390227587
 20
-91.16743660722047
 30
0.0
 11
-105.29506021362972
 21
-91.68174901088939
 31
0.0
  0
LINE
  5
3D
330
17
100
AcDbEntity
  8
visible
100
AcDbLine
 10
-76.50264245834555
 20
-84.94318423160513
 30
0.0
 11
-105.2950602136298
 21
-91.68174901088943
 31
0.0
  0
LINE
  5
3E
330
17
100
AcDbEntity
  8
visible
100
AcDbLine
 10
-76.5026424583455
 20
-84.94318423160512
 30
0.0
 11
-84.07045398167774
 21
-84.34720790845728
 31
0.0
  0
LINE
  5
3F
330
17
100
AcDbEntity
  8
visible
100
AcDbLine
 10
-81.04001022486133
 20
21.60479432606914
 30
0.0
 11
-108.71551388589634
 21
7.71862762255293
 31
0.0
  0
LINE
  5
40
330
17
100
AcDbEntity
  8
visible
100
AcDbLine
 10
-112.49124390227587
 20
-91.16743660722047
 30
0.0
 11
-108.71551388589627
 21
7.718627622553001
 31
0.0
  0
LINE
  5
41
330
17
100
AcDbEntity
  8
visible
100
AcDbLine
 10
-84.07045398167774
 20
-84.34720790845728
 30
0.0
 11
-81.04001022486122
 21
21.604794326069168
 31
0.0
  0
LINE
  5
42
330
17
100
AcDbEntity
  8
visible
100
AcDbLine
 10
-76.50264245834552
 20
-84.94318423160513
 30
0.0
 11
-73.76154392689811
 21
20.39421514288516
 31
0.0
  0
LINE
  5
43
330
17
100
AcDbEntity
  8
visible
100
AcDbLine
 10
-73.76154392689813
 20
20.394215142885187
 30
0.0
 11
-81.04001022486123
 21
21.604794326069214
 31
0.0
  0
LINE
  5
44
330
17
100
AcDbEntity
  8
visible
100
AcDbLine
 10
206.6070817435516
 20
120.83866364047495
 30
0.0
 11
217.87415709581984
 21
117.17313439559466
 31
0.0
  0
LINE
  5
45
330
17
100
AcDbEntity
  8
visible
100
AcDbLine
 10
217.87415709581987
 20
117.17313439559464
 30
0.0
 11
209.64838842014396
 21
220.53774204540989
 31
0.0
  0
LINE
  5
46
330
17
100
AcDbEntity
  8
visible
100
AcDbLine
 10
179.19625868761642
 20
233.77061886514593
 30
0.0
 11
209.64838842014393
 21
220.5377420454099
 31
0.0
  0
LINE
  5
47
330
17
100
AcDbEntity
  8
visible
100
AcDbLine
 10
184.5892744565387
 20
154.88412226888494
 30
0.0
 11
179.19625868761645
 21
233.7706188651459
 31
0.0
  0
LINE
  5
48
330
17
100
AcDbEntity
  8
visible
100
AcDbLine
 10
19.94540939025976
 20
72.27416564357975
 30
0.0
 11
19.503206798636647
 21
133.96830853688297
 31
0.0
  0
LINE
  5
49
330
17
100
AcDbEntity
  8
visible
100
AcDbLine
 10
217.87415709581987
 20
117.17313439559464
 30
0.0
 11
207.22535129832943
 21
112.656806422768
 31
0.0
  0
LINE
  5
4A
330
17
100
AcDbEntity
  8
visible
100
AcDbLine
 10
179.19625868761642
 20
233.77061886514593
 30
0.0
 11
19.503206798636626
 21
133.968308536883
 31
0.0
  0
LINE
  5
4B
330
17
100
AcDbEntity
  8
visible
100
AcDbLine
 10
127.49016633496035
 20
-37.20079704324314
 30
0.0
 11
135.41095231480764
 21
-38.327919173372315
 31
0.0
  0
LINE
  5
4C
330
17
100
AcDbEntity
  8
visible
100
AcDbLine
 10
135.41095231480762
 20
-38.327919173372315
 30
0.0
 11
135.2729529987305
 21
-35.37931707782621
 31
0.0
  0
LINE
  5
4D
330
17
100
AcDbEntity
  8
visible
100
AcDbLine
 10
37.55248351154363
 20
-58.24977274772669
 30
0.0
 11
44.91990839496515
 21
-59.07021656344338
 31
0.0
  0
LINE
  5
4E
330
17
100
AcDbEntity
  8
visible
100
AcDbLine
 10
135.41095231480762
 20
-38.327919173372315
 30
0.0
 11
109.77624736959983
 21
-44.20388932961483
 31
0.0
  0
LINE
  5
4F
330
17
100
AcDbEntity
  8
visible
100
AcDbLine
 10
73.49696112597064
 20
-52.51980338881668
 30
0.0
 11
44.91990839496512
 21
-59.07021656344338
 31
0.0
  0
LINE
  5
50
330
17
100
AcDbEntity
  8
visible
100
AcDbLine
 10
-40.97303934861812
 20
16.213036174553928
 30
0.0
 11
-26.475727591209093
 21
13.786063252837355
 31
0.0
  0
LINE
  5
51
330
17
100
AcDbEntity
  8
visible
100
AcDbLine
 10
-40.97303934861812
 20
16.213036174553928
 30
0.0
 11
-40.7813381929426
 21
29.49476576415593
 31
0.0
  0
LINE
  5
52
330
17
100
AcDbEntity
  8
visible
100
AcDbLine
 10
-26.392777002671906
 20
22.68771889110547
 30
0.0
 11
-40.97303934861814
 21
16.213036174553928
 31
0.0
  0
LINE
  5
53
330
17
100
AcDbEntity
  8
visible
100
AcDbLine
 10
-26.2652393291541
 20
36.374137162299554
 30
0.0
 11
-40.78133819294262
 21
29.494765764155918
 31
0.0
  0
LINE
  5
54
330
17
100
AcDbEntity
  8
visible
100
AcDbLine
 10
-48.014193909920074
 20
-112.91658479332882
 30
0.0
 11
-26.985998053719133
 21
-114.1139052558554
 31
0.0
  0
LINE
  5
55
330
17
100
AcDbEntity
  8
visible
100
AcDbLine
 10
-26.985998053719147
 20
-114.11390525585541
 30
0.0
 11
-26.592120765601223
 21
-70.77830645637852
 31
0.0
  0
LINE
  5
56
330
17
100
AcDbEntity
  8
visible
100
AcDbLine
 10
-47.098283560198645
 20
-56.30171642681098
 30
0.0
 11
-27.148367513082974
 21
-58.39677545467768
 31
0.0
  0
LINE
  5
57
330
17
100
AcDbEntity
  8
visible
100
AcDbLine
 10
-48.014193909920074
 20
-112.91658479332882
 30
0.0
 11
-47.098283560198645
 21
-56.301716426810934
 31
0.0
  0
LINE
  5
58
330
17
100
AcDbEntity
  8
visible
100
AcDbLine
 10
-121.63534907792123
 20
-124.28396711677631
 30
0.0
 11
-103.01965889010214
 21
-125.11279776332374
 31
0.0
  0
LINE
  5
59
330
17
100
AcDbEntity
  8
visible
100
AcDbLine
 10
-121.63534907792123
 20
-124.28396711677631
 30
0.0
 11
-119.70151557649163
 21
-76.91797076104524
 31
0.0
  0
LINE
  5
5A
330
17
100
AcDbEntity
  8
visible
100
AcDbLine
 10
-48.014193909920074
 20
-112.91658479332882
 30
0.0
 11
-121.63534907792123
 21
-124.2839671167763
 31
0.0
  0
LINE
  5
5B
330
17
100
AcDbEntity
  8
visible
100
AcDbLine
 10
-26.985998053719147
 20
-114.11390525585541
 30
0.0
 11
-103.01965889010215
 21
-125.11279776332373
 31
0.0
  0
LINE
  5
5C
330
17
100
AcDbEntity
  8
visible
100
AcDbLine
 10
-47.098283560198645
 20
-56.30171642681098
 30
0.0
 11
-75.97067491986681
 21
-64.50025727654737
 31
0.0
  0
LINE
  5
5D
330
17
100
AcDbEntity
  8
visible
100
AcDbLine
 10
-111.8621655801561
 20
-74.69192615047939
 30
0.0
 11
-119.7015155764916
 21
-76.91797076104524
 31
0.0
  0
LINE
  5
5E
330
17
100
AcDbEntity
  8
visible
100
AcDbLine
 10
-75.8388529486048
 20
-61.54279655708566
 30
0.0
 11
-68.19746340210301
 21
-62.292993203123544
 31
0.0
  0
LINE
  5
5F
330
17
100
AcDbEntity
  8
visible
100
AcDbLine
 10
-53.288486261670975
 20
-58.059472792882644
 30
0.0
 11
-52.18341115032219
 21
2.3497387187231027
 31
0.0
  0
LINE
  5
60
330
17
100
AcDbEntity
  8
visible
100
AcDbLine
 10
-74.08965068777405
 20
5.72574858835369
 30
0.0
 11
-52.1834111503222
 21
2.349738718723097
 31
0.0
  0
LINE
  5
61
330
17
100
AcDbEntity
  8
visible
100
AcDbLine
 10
-75.8388529486048
 20
-61.54279655708566
 30
0.0
 11
-74.08965068777404
 21
5.725748588353717
 31
0.0
  0
LINE
  5
62
330
17
100
AcDbEntity
  8
visible
100
AcDbLine
 10
-75.8388529486048
 20
-61.54279655708566
 30
0.0
 11
-75.89413443316596
 21
-61.55889062247493
 31
0.0
  0
LINE
  5
63
330
17
100
AcDbEntity
  8
visible
100
AcDbLine
 10
-74.08965068777405
 20
5.72574858835369
 30
0.0
 11
-74.14388930393883
 21
5.701103159398023
 31
0.0
  0
LINE
  5
64
330
17
100
AcDbEntity
  8
visible
100
AcDbLine
 10
102.91228078560243
 20
-65.77116438953763
 30
0.0
 11
137.09053898746464
 21
-69.56922021352077
 31
0.0
  0
LINE
  5
65
330
17
100
AcDbEntity
  8
visible
100
AcDbLine
 10
137.09053898746464
 20
-69.56922021352077
 30
0.0
 11
136.06538819507364
 21
-47.69978372880472
 31
0.0
  0
LINE
  5
66
330
17
100
AcDbEntity
  8
visible
100
AcDbLine
 10
102.11646796652346
 20
-43.18530222203246
 30
0.0
 11
136.06538819507364
 21
-47.69978372880474
 31
0.0
  0
LINE
  5
67
330
17
100
AcDbEntity
  8
visible
100
AcDbLine
 10
102.91228078560243
 20
-65.77116438953763
 30
0.0
 11
102.11646796652344
 21
-43.18530222203245
 31
0.0
  0
LINE
  5
68
330
17
100
AcDbEntity
  8
visible
100
AcDbLine
 10
73.97464778603761
 20
-71.4167573514708
 30
0.0
 11
89.76045073965457
 21
-73.03868870554582
 31
0.0
  0
LINE
  5
69
330
17
100
AcDbEntity
  8
visible
100
AcDbLine
 10
97.81602078531716
 20
-73.86636796078537
 30
0.0
 11
107.43379187049497
 21
-74.85455744504544
 31
0.0
  0
LINE
  5
6A
330
17
100
AcDbEntity
  8
visible
100
AcDbLine
 10
73.97464778603761
 20
-71.4167573514708
 30
0.0
 11
73.43065199585031
 21
-49.8966600525296
 31
0.0
  0
LINE
  5
6B
330
17
100
AcDbEntity
  8
visible
100
AcDbLine
 10
102.91228078560243
 20
-65.77116438953763
 30
0.0
 11
73.9746477860376
 21
-71.4167573514708
 31
0.0
  0
LINE
  5
6C
330
17
100
AcDbEntity
  8
visible
100
AcDbLine
 10
137.09053898746464
 20
-69.56922021352077
 30
0.0
 11
107.43379187049494
 21
-74.85455744504544
 31
0.0
  0
LINE
  5
6D
330
17
100
AcDbEntity
  8
visible
100
AcDbLine
 10
102.11646796652346
 20
-43.18530222203246
 30
0.0
 11
73.4306519958503
 21
-49.896660052529626
 31
0.0
  0
LINE
  5
6E
330
17
100
AcDbEntity
  8
visible
100
AcDbLine
 10
95.0948765121797
 20
-75.28642595465979
 30
0.0
 11
97.87282761732654
 21
-75.56729451993563
 31
0.0
  0
LINE
  5
6F
330
17
100
AcDbEntity
  8
visible
100
AcDbLine
 10
97.87282761732654
 20
-75.56729451993561
 30
0.0
 11
97.65027561397882
 21
-68.90357820455019
 31
0.0
  0
LINE
  5
70
330
17
100
AcDbEntity
  8
visible
100
AcDbLine
 10
94.87806147910494
 20
-68.605482832449
 30
0.0
 11
97.6502756139788
 21
-68.90357820455019
 31
0.0
  0
LINE
  5
71
330
17
100
AcDbEntity
  8
visible
100
AcDbLine
 10
95.0948765121797
 20
-75.28642595465979
 30
0.0
 11
94.87806147910494
 21
-68.60548283244901
 31
0.0
  0
LINE
  5
72
330
17
100
AcDbEntity
  8
visible
100
AcDbLine
 10
89.85845623427234
 20
-76.23565189839509
 30
0.0
 11
92.62521932484971
 21
-76.51146199490348
 31
0.0
  0
LINE
  5
73
330
17
100
AcDbEntity
  8
visible
100
AcDbLine
 10
89.85845623427234
 20
-76.23565189839509
 30
0.0
 11
89.6554317410531
 21
-69.61294329822678
 31
0.0
  0
LINE
  5
74
330
17
100
AcDbEntity
  8
visible
100
AcDbLine
 10
95.0948765121797
 20
-75.28642595465979
 30
0.0
 11
89.85845623427232
 21
-76.23565189839509
 31
0.0
  0
LINE
  5
75
330
17
100
AcDbEntity
  8
visible
100
AcDbLine
 10
97.87282761732654
 20
-75.56729451993561
 30
0.0
 11
92.62521932484971
 21
-76.51146199490347
 31
0.0
  0
LINE
  5
76
330
17
100
AcDbEntity
  8
visible
100
AcDbLine
 10
94.87806147910494
 20
-68.605482832449
 30
0.0
 11
89.65543174105309
 21
-69.61294329822675
 31
0.0
  0
LINE
  5
77
330
17
100
AcDbEntity
  8
hidden
100
AcDbLine
 10
203.91830239528193
 20
156.42056889111598
 30
0.0
 11
-18.254721685122632
 21
47.585207711137755
 31
0.0
  0
LINE
  5
78
330
17
100
AcDbEntity
  8
hidden
100
AcDbLine
 10
-19.02900934693409
 20
-71.49208043359266
 30
0.0
 11
-18.254721685122526
 21
47.5852077111378
 31
0.0
  0
LINE
  5
79
330
17
100
AcDbEntity
  8
hidden
100
AcDbLine
 10
-18.25472168512253
 20
47.58520771113781
 30
0.0
 11
-26.14620791461738
 21
49.14772540353028
 31
0.0
  0
LINE
  5
7A
330
17
100
AcDbEntity
  8
hidden
100
AcDbLine
 10
-105.29506021362974
 20
-91.6817490108894
 30
0.0
 11
-101.78062857096401
 21
6.668574013448648
 31
0.0
  0
LINE
  5
7B
330
17
100
AcDbEntity
  8
hidden
100
AcDbLine
 10
-108.7155138858963
 20
7.718627622552991
 30
0.0
 11
-101.78062857096401
 21
6.668574013448669
 31
0.0
  0
LINE
  5
7C
330
17
100
AcDbEntity
  8
hidden
100
AcDbLine
 10
-73.76154392689821
 20
20.394215142885116
 30
0.0
 11
-101.78062857096413
 21
6.668574013448563
 31
0.0
  0
LINE
  5
7D
330
17
100
AcDbEntity
  8
hidden
100
AcDbLine
 10
186.46887240529963
 20
127.39024805443941
 30
0.0
 11
206.6070817435516
 21
120.83866364047495
 31
0.0
  0
LINE
  5
7E
330
17
100
AcDbEntity
  8
hidden
100
AcDbLine
 10
186.46887240529963
 20
127.39024805443941
 30
0.0
 11
184.5892744565387
 21
154.88412226888494
 31
0.0
  0
LINE
  5
7F
330
17
100
AcDbEntity
  8
hidden
100
AcDbLine
 10
20.098034047322976
 20
50.98065090560022
 30
0.0
 11
48.08445676836081
 21
45.162620947460226
 31
0.0
  0
LINE
  5
80
330
17
100
AcDbEntity
  8
hidden
100
AcDbLine
 10
48.0844567683608
 20
45.16262094746023
 30
0.0
 11
46.69613422913855
 21
126.28899748124604
 31
0.0
  0
LINE
  5
81
330
17
100
AcDbEntity
  8
hidden
100
AcDbLine
 10
19.503206798636647
 20
133.96830853688297
 30
0.0
 11
46.696134229138536
 21
126.28899748124601
 31
0.0
  0
LINE
  5
82
330
17
100
AcDbEntity
  8
hidden
100
AcDbLine
 10
20.098034047322976
 20
50.98065090560022
 30
0.0
 11
19.94540939025976
 21
72.27416564357975
 31
0.0
  0
LINE
  5
83
330
17
100
AcDbEntity
  8
hidden
100
AcDbLine
 10
186.46887240529963
 20
127.39024805443941
 30
0.0
 11
20.098034047322955
 21
50.98065090560024
 31
0.0
  0
LINE
  5
84
330
17
100
AcDbEntity
  8
hidden
100
AcDbLine
 10
207.22535129832943
 20
112.656806422768
 30
0.0
 11
48.08445676836081
 21
45.16262094746027
 31
0.0
  0
LINE
  5
85
330
17
100
AcDbEntity
  8
hidden
100
AcDbLine
 10
209.64838842014396
 20
220.53774204540994
 30
0.0
 11
46.69613422913858
 21
126.28899748124608
 31
0.0
  0
LINE
  5
86
330
17
100
AcDbEntity
  8
hidden
100
AcDbLine
 10
109.24232731043335
 20
-34.60414271576745
 30
0.0
 11
127.49016633496035
 21
-37.20079704324314
 31
0.0
  0
LINE
  5
87
330
17
100
AcDbEntity
  8
hidden
100
AcDbLine
 10
135.2729529987305
 20
-35.37931707782621
 30
0.0
 11
132.72957895503654
 21
18.964416269391236
 31
0.0
  0
LINE
  5
88
330
17
100
AcDbEntity
  8
hidden
100
AcDbLine
 10
107.02346674672954
 20
24.08702946167459
 30
0.0
 11
132.72957895503654
 21
18.964416269391226
 31
0.0
  0
LINE
  5
89
330
17
100
AcDbEntity
  8
hidden
100
AcDbLine
 10
109.24232731043335
 20
-34.60414271576745
 30
0.0
 11
107.02346674672954
 21
24.087029461674597
 31
0.0
  0
LINE
  5
8A
330
17
100
AcDbEntity
  8
hidden
100
AcDbLine
 10
20.64446650539249
 20
-56.36687903544129
 30
0.0
 11
37.55248351154363
 21
-58.24977274772669
 31
0.0
  0
LINE
  5
8B
330
17
100
AcDbEntity
  8
hidden
100
AcDbLine
 10
44.91990839496515
 20
-59.070216563443374
 30
0.0
 11
44.15836613796103
 21
-9.667530738134985
 31
0.0
  0
LINE
  5
8C
330
17
100
AcDbEntity
  8
hidden
100
AcDbLine
 10
20.286790687199996
 20
-5.926510496870021
 30
0.0
 11
44.15836613796103
 21
-9.66753073813499
 31
0.0
  0
LINE
  5
8D
330
17
100
AcDbEntity
  8
hidden
100
AcDbLine
 10
20.64446650539249
 20
-56.36687903544129
 30
0.0
 11
20.2867906872
 21
-5.92651049687003
 31
0.0
  0
LINE
  5
8E
330
17
100
AcDbEntity
  8
hidden
100
AcDbLine
 10
109.24232731043335
 20
-34.60414271576745
 30
0.0
 11
20.6444665053925
 21
-56.366879035441286
 31
0.0
  0
LINE
  5
8F
330
17
100
AcDbEntity
  8
hidden
100
AcDbLine
 10
109.77624736959983
 20
-44.20388932961483
 30
0.0
 11
73.49696112597064
 21
-52.51980338881668
 31
0.0
  0
LINE
  5
90
330
17
100
AcDbEntity
  8
hidden
100
AcDbLine
 10
107.02346674672954
 20
24.08702946167459
 30
0.0
 11
20.286790687199982
 21
-5.926510496870019
 31
0.0
  0
LINE
  5
91
330
17
100
AcDbEntity
  8
hidden
100
AcDbLine
 10
132.72957895503654
 20
18.964416269391226
 30
0.0
 11
44.15836613796107
 21
-9.667530738134975
 31
0.0
  0
LINE
  5
92
330
17
100
AcDbEntity
  8
hidden
100
AcDbLine
 10
25.41382428615035
 20
45.69356734631346
 30
0.0
 11
42.51142308699187
 21
42.20382884667598
 31
0.0
  0
LINE
  5
93
330
17
100
AcDbEntity
  8
hidden
100
AcDbLine
 10
42.51142308699186
 20
42.203828846675975
 30
0.0
 11
42.28632800115008
 21
57.09722942175697
 31
0.0
  0
LINE
  5
94
330
17
100
AcDbEntity
  8
hidden
100
AcDbLine
 10
25.277158596758547
 20
60.80076179543605
 30
0.0
 11
42.28632800115008
 21
57.09722942175697
 31
0.0
  0
LINE
  5
95
330
17
100
AcDbEntity
  8
hidden
100
AcDbLine
 10
25.41382428615035
 20
45.69356734631346
 30
0.0
 11
25.27715859675855
 21
60.80076179543605
 31
0.0
  0
LINE
  5
96
330
17
100
AcDbEntity
  8
hidden
100
AcDbLine
 10
-26.475727591209093
 20
13.786063252837355
 30
0.0
 11
-25.18395765253424
 21
13.569810011221776
 31
0.0
  0
LINE
  5
97
330
17
100
AcDbEntity
  8
hidden
100
AcDbLine
 10
-25.183957652534236
 20
13.569810011221772
 30
0.0
 11
-25.067708418923605
 21
26.685718998061674
 31
0.0
  0
LINE
  5
98
330
17
100
AcDbEntity
  8
hidden
100
AcDbLine
 10
-40.7813381929426
 20
29.49476576415592
 30
0.0
 11
-25.06770841892361
 21
26.68571899806167
 31
0.0
  0
LINE
  5
99
330
17
100
AcDbEntity
  8
hidden
100
AcDbLine
 10
25.41382428615035
 20
45.69356734631346
 30
0.0
 11
-26.392777002671906
 21
22.68771889110547
 31
0.0
  0
LINE
  5
9A
330
17
100
AcDbEntity
  8
hidden
100
AcDbLine
 10
42.51142308699186
 20
42.203828846675975
 30
0.0
 11
-25.183957652534268
 21
13.569810011221758
 31
0.0
  0
LINE
  5
9B
330
17
100
AcDbEntity
  8
hidden
100
AcDbLine
 10
25.277158596758547
 20
60.80076179543605
 30
0.0
 11
-26.2652393291541
 21
36.374137162299554
 31
0.0
  0
LINE
  5
9C
330
17
100
AcDbEntity
  8
hidden
100
AcDbLine
 10
42.28632800115009
 20
57.09722942175698
 30
0.0
 11
-25.067708418923623
 21
26.685718998061667
 31
0.0
  0
LINE
  5
9D
330
17
100
AcDbEntity
  8
hidden
100
AcDbLine
 10
-26.592120765601223
 20
-70.77830645637852
 30
0.0
 11
-26.480222758982073
 21
-58.46694129876919
 31
0.0
  0
LINE
  5
9E
330
17
100
AcDbEntity
  8
hidden
100
AcDbLine
 10
-27.148367513082974
 20
-58.39677545467768
 30
0.0
 11
-26.480222758982062
 21
-58.4669412987692
 31
0.0
  0
LINE
  5
9F
330
17
100
AcDbEntity
  8
hidden
100
AcDbLine
 10
-103.01965889010212
 20
-125.11279776332373
 30
0.0
 11
-101.40573757213633
 21
-78.42639005910848
 31
0.0
  0
LINE
  5
A0
330
17
100
AcDbEntity
  8
hidden
100
AcDbLine
 10
-119.70151557649162
 20
-76.91797076104525
 30
0.0
 11
-101.40573757213633
 21
-78.42639005910851
 31
0.0
  0
LINE
  5
A1
330
17
100
AcDbEntity
  8
hidden
100
AcDbLine
 10
-75.97067491986681
 20
-64.50025727654737
 30
0.0
 11
-111.8621655801561
 21
-74.69192615047939
 31
0.0
  0
LINE
  5
A2
330
17
100
AcDbEntity
  8
hidden
100
AcDbLine
 10
-26.480222758982073
 20
-58.466941298769214
 30
0.0
 11
-101.40573757213633
 21
-78.42639005910851
 31
0.0
  0
LINE
  5
A3
330
17
100
AcDbEntity
  8
hidden
100
AcDbLine
 10
-68.19746340210301
 20
-62.292993203123544
 30
0.0
 11
-53.39251947527652
 21
-63.746474825948134
 31
0.0
  0
LINE
  5
A4
330
17
100
AcDbEntity
  8
hidden
100
AcDbLine
 10
-53.392519475276536
 20
-63.74647482594813
 30
0.0
 11
-53.288486261670975
 21
-58.059472792882644
 31
0.0
  0
LINE
  5
A5
330
17
100
AcDbEntity
  8
hidden
100
AcDbLine
 10
-105.54408243547095
 20
-70.1908621718189
 30
0.0
 11
-84.19444356610028
 21
-72.08729834537523
 31
0.0
  0
LINE
  5
A6
330
17
100
AcDbEntity
  8
hidden
100
AcDbLine
 10
-84.19444356610026
 20
-72.08729834537523
 30
0.0
 11
-82.42162754501898
 21
-10.454578188167076
 31
0.0
  0
LINE
  5
A7
330
17
100
AcDbEntity
  8
hidden
100
AcDbLine
 10
-103.28353368426728
 20
-7.5396298487408435
 30
0.0
 11
-82.42162754501899
 21
-10.454578188167089
 31
0.0
  0
LINE
  5
A8
330
17
100
AcDbEntity
  8
hidden
100
AcDbLine
 10
-105.54408243547095
 20
-70.1908621718189
 30
0.0
 11
-103.28353368426728
 21
-7.539629848740837
 31
0.0
  0
LINE
  5
A9
330
17
100
AcDbEntity
  8
hidden
100
AcDbLine
 10
-75.89413443316596
 20
-61.55889062247493
 30
0.0
 11
-105.54408243547094
 21
-70.19086217181889
 31
0.0
  0
LINE
  5
AA
330
17
100
AcDbEntity
  8
hidden
100
AcDbLine
 10
-53.392519475276536
 20
-63.74647482594813
 30
0.0
 11
-84.19444356610026
 21
-72.08729834537522
 31
0.0
  0
LINE
  5
AB
330
17
100
AcDbEntity
  8
hidden
100
AcDbLine
 10
-74.14388930393883
 20
5.701103159398023
 30
0.0
 11
-103.28353368426727
 21
-7.539629848740845
 31
0.0
  0
LINE
  5
AC
330
17
100
AcDbEntity
  8
hidden
100
AcDbLine
 10
-52.18341115032219
 20
2.3497387187230983
 30
0.0
 11
-82.42162754501896
 21
-10.45457818816708
 31
0.0
  0
LINE
  5
AD
330
17
100
AcDbEntity
  8
hidden
100
AcDbLine
 10
89.76045073965457
 20
-73.03868870554582
 30
0.0
 11
97.81602078531716
 21
-73.86636796078537
 31
0.0
  0
LINE
  5
AE
330
17
100
AcDbEntity
  8
hidden
100
AcDbLine
 10
107.43379187049494
 20
-74.85455744504544
 30
0.0
 11
106.66856046158524
 21
-53.98595465234975
 31
0.0
  0
LINE
  5
AF
330
17
100
AcDbEntity
  8
hidden
100
AcDbLine
 10
73.43065199585031
 20
-49.89666005252962
 30
0.0
 11
106.66856046158527
 21
-53.985954652349754
 31
0.0
  0
LINE
  5
B0
330
17
100
AcDbEntity
  8
hidden
100
AcDbLine
 10
136.06538819507364
 20
-47.69978372880474
 30
0.0
 11
106.66856046158526
 21
-53.98595465234976
 31
0.0
  0
SPLINE
  5
B1
330
17
100
AcDbEntity
  8
hidden
100
AcDbSpline
 70
0
 71
1
 72
17
 73
15
 74
0
 40
0.0
 40
0.0
 40
0.12775913877945688
 40
0.25551827755891376
 40
0.38327741633837065
 40
0.5110365551178275
 40
0.6387956938972844
 40
0.7665548326767413
 40
0.8943139714561982
 40
1.022073110235655
 40
1.149832249015112
 40
1.277591387794569
 40
1.405350526574026
 40
1.533109665353483
 40
1.66086880413294
 40
1.7886279429123964
 40
1.7886279429123964
 10
125.96019790554513
 20
-62.500645547955
 30
0.0
 10
125.9605214781885
 20
-62.255538104951995
 30
0.0
 10
125.98247071713777
 20
-62.010263491509875
 30
0.0
 10
126.02568840463348
 20
-61.76879262689775
 30
0.0
 10
126.08947536052725
 20
-61.53503502087415
 30
0.0
 10
126.17280149847822
 20
-61.31277676014052
 30
0.0
 10
126.27432199401697
 20
-61.10562035852288
 30
0.0
 10
126.39239834073233
 20
-60.9169273509152
 30
0.0
 10
126.5251240066511
 20
-60.7497644820411
 30
0.0
 10
126.67035433991737
 20
-60.60685430362999
 30
0.0
 10
126.82574031140939
 20
-60.4905309469701
 30
0.0
 10
126.98876562243836
 20
-60.402701781191155
 30
0.0
 10
127.1567866489153
 20
-60.3448156002393
 30
0.0
 10
127.3270746403461
 20
-60.31783790263428
 30
0.0
 10
127.4968595439882
 20
-60.322233737275994
 30
0.0
  0
SPLINE
  5
B2
330
17
100
AcDbEntity
  8
hidden
100
AcDbSpline
 70
0
 71
1
 72
17
 73
15
 74
0
 40
0.0
 40
0.0
 40
0.07142857142857142
 40
0.1428571428571429
 40
0.21428571428571438
 40
0.28571428571428586
 40
0.3571428571428574
 40
0.4285714285714289
 40
0.5000000000000003
 40
0.5714285714285718
 40
0.6428571428571433
 40
0.7142857142857149
 40
0.7857142857142864
 40
0.8571428571428579
 40
0.9285714285714294
 40
1.0
 40
1.0
 10
127.4968595439882
 20
-60.322233737275994
 30
0.0
 10
127.78486043560963
 20
-60.4051755803395
 30
0.0
 10
128.04844056512457
 20
-60.580056176592095
 30
0.0
 10
128.27437510136363
 20
-60.83825827136533
 30
0.0
 10
128.45129333057423
 20
-61.16695538086029
 30
0.0
 10
128.57026456862457
 20
-61.549739664714934
 30
0.0
 10
128.62526365613058
 20
-61.967440927604656
 30
0.0
 10
128.61348888262836
 20
-62.39909592182332
 30
0.0
 10
128.5355130391962
 20
-62.8230171348459
 30
0.0
 10
128.39525781198034
 20
-63.21790326844156
 30
0.0
 10
128.19979219090334
 20
-63.563930412859534
 30
0.0
 10
127.95896612180303
 20
-63.84376388518703
 30
0.0
 10
127.68490038735808
 20
-64.04343578805123
 30
0.0
 10
127.39136186266052
 20
-64.15304206641302
 30
0.0
 10
127.09305925094083
 20
-64.16722434449049
 30
0.0
  0
SPLINE
  5
B3
330
17
100
AcDbEntity
  8
hidden
100
AcDbSpline
 70
0
 71
1
 72
17
 73
15
 74
0
 40
0.0
 40
0.0
 40
0.07142857142857152
 40
0.14285714285714304
 40
0.21428571428571458
 40
0.2857142857142861
 40
0.3571428571428576
 40
0.42857142857142916
 40
0.5000000000000007
 40
0.5714285714285722
 40
0.6428571428571437
 40
0.7142857142857152
 40
0.7857142857142867
 40
0.8571428571428583
 40
0.9285714285714298
 40
1.0
 40
1.0
 10
127.09305925094083
 20
-64.16722434449048
 30
0.0
 10
126.96590611748377
 20
-64.1433743109738
 30
0.0
 10
126.84186746972715
 20
-64.10162438440258
 30
0.0
 10
126.722110189098
 20
-64.04237983941297
 30
0.0
 10
126.6077593329521
 20
-63.9662100573385
 30
0.0
 10
126.4998876909939
 20
-63.8738427576872
 30
0.0
 10
126.39950588236302
 20
-63.76615678529066
 30
0.0
 10
126.30755307861955
 20
-63.64417353413225
 30
0.0
 10
126.22488843050922
 20
-63.50904709935869
 30
0.0
 10
126.15228326866809
 20
-63.362053258230176
 30
0.0
 10
126.0904141404438
 20
-63.20457738878649
 30
0.0
 10
126.03985673686913
 20
-63.038101441837775
 30
0.0
 10
126.00108075560001
 20
-62.864190087581505
 30
0.0
 10
125.97444573739747
 20
-62.68447616276799
 30
0.0
 10
125.96019790554513
 20
-62.500645547955
 30
0.0
  0
SPLINE
  5
B4
330
17
100
AcDbEntity
  8
hidden
100
AcDbSpline
 70
0
 71
1
 72
17
 73
15
 74
0
 40
0.0
 40
0.0
 40
0.12775913877945688
 40
0.25551827755891376
 40
0.38327741633837065
 40
0.5110365551178275
 40
0.6387956938972844
 40
0.7665548326767413
 40
0.8943139714561982
 40
1.022073110235655
 40
1.149832249015112
 40
1.277591387794569
 40
1.405350526574026
 40
1.533109665353483
 40
1.66086880413294
 40
1.7886279429123964
 40
1.7886279429123964
 10
120.12759040196124
 20
-61.8186732344891
 30
0.0
 10
120.12830031949773
 20
-61.57218919961673
 30
0.0
 10
120.15054665168722
 20
-61.325512007488726
 30
0.0
 10
120.19396738212887
 20
-61.08263512874571
 30
0.0
 10
120.25786007185124
 20
-60.84749068177264
 30
0.0
 10
120.3411929653585
 20
-60.623887070570134
 30
0.0
 10
120.44262118241953
 20
-60.41544848975002
 30
0.0
 10
120.56050777168701
 20
-60.22555718112942
 30
0.0
 10
120.69294933847675
 20
-60.0572992974499
 30
0.0
 10
120.83780589648416
 20
-59.913415191311884
 30
0.0
 10
120.99273453213145
 20
-59.7962549007799
 30
0.0
 10
121.15522641110623
 20
-59.707739546468346
 30
0.0
 10
121.32264660021946
 20
-59.649329287432415
 30
0.0
 10
121.49227612497992
 20
-59.621998404147426
 30
0.0
 10
121.66135563551123
 20
-59.62621798577474
 30
0.0
  0
SPLINE
  5
B5
330
17
100
AcDbEntity
  8
hidden
100
AcDbSpline
 70
0
 71
1
 72
17
 73
15
 74
0
 40
0.0
 40
0.0
 40
0.07142857142857142
 40
0.1428571428571429
 40
0.21428571428571438
 40
0.28571428571428586
 40
0.3571428571428574
 40
0.4285714285714289
 40
0.5000000000000003
 40
0.5714285714285718
 40
0.6428571428571433
 40
0.7142857142857149
 40
0.7857142857142864
 40
0.8571428571428579
 40
0.9285714285714294
 40
1.0
 40
1.0
 10
121.66135563551123
 20
-59.62621798577474
 30
0.0
 10
121.94804210472701
 20
-59.70928560268917
 30
0.0
 10
122.21026453122352
 20
-59.88483890642816
 30
0.0
 10
122.4348655647849
 20
-60.14422843236109
 30
0.0
 10
122.610540800698
 20
-60.4745692485326
 30
0.0
 10
122.72842143255804
 20
-60.8593715806324
 30
0.0
 10
122.78253669253283
 20
-61.27936387891175
 30
0.0
 10
122.77012907070157
 20
-61.7134673018157
 30
0.0
 10
122.69180314551512
 20
-62.139870517966386
 30
0.0
 10
122.5514983516313
 20
-62.537146684170004
 30
0.0
 10
122.35628644821841
 20
-62.88535121476723
 30
0.0
 10
122.11600497387317
 20
-63.167039916332655
 30
0.0
 10
121.84274769533832
 20
-63.368152175118254
 30
0.0
 10
121.55024117804123
 20
-63.478712661999445
 30
0.0
 10
121.25314252511183
 20
-63.49331660169643
 30
0.0
  0
SPLINE
  5
B6
330
17
100
AcDbEntity
  8
hidden
100
AcDbSpline
 70
0
 71
1
 72
17
 73
15
 74
0
 40
0.0
 40
0.0
 40
0.07142857142857152
 40
0.14285714285714304
 40
0.21428571428571458
 40
0.2857142857142861
 40
0.3571428571428576
 40
0.42857142857142916
 40
0.5000000000000007
 40
0.5714285714285722
 40
0.6428571428571437
 40
0.7142857142857152
 40
0.7857142857142867
 40
0.8571428571428583
 40
0.9285714285714298
 40
1.0
 40
1.0
 10
121.25314252511183
 20
-63.49331660169643
 30
0.0
 10
121.12655035021695
 20
-63.46947795906293
 30
0.0
 10
121.00308844596042
 20
-63.427635158419164
 30
0.0
 10
120.88391823088247
 20
-63.368194485844796
 30
0.0
 10
120.77015920112862
 20
-63.29172729933198
 30
0.0
 10
120.66287854024583
 20
-63.19896423686841
 30
0.0
 10
120.56308127006736
 20
-63.09078797182128
 30
0.0
 10
120.47170102737576
 20
-62.968224597086035
 30
0.0
 10
120.38959154368547
 20
-62.832433730008844
 30
0.0
 10
120.31751889777412
 20
-62.6846974393832
 30
0.0
 10
120.25615460262523
 20
-62.52640810387343
 30
0.0
 10
120.20606958032297
 20
-62.35905531807278
 30
0.0
 10
120.16772907024426
 20
-62.18421196811347
 30
0.0
 10
120.1414885076923
 20
-62.003519603378464
 30
0.0
 10
120.12759040196126
 20
-61.8186732344891
 30
0.0
  0
LINE
  5
B7
330
17
100
AcDbEntity
  8
hidden
100
AcDbLine
 10
92.62521932484972
 20
-76.51146199490348
 30
0.0
 11
92.41649823816357
 21
-69.90568200421008
 31
0.0
  0
LINE
  5
B8
330
17
100
AcDbEntity
  8
hidden
100
AcDbLine
 10
89.65543174105309
 20
-69.61294329822677
 30
0.0
 11
92.41649823816354
 21
-69.90568200421006
 31
0.0
  0
LINE
  5
B9
330
17
100
AcDbEntity
  8
hidden
100
AcDbLine
 10
97.65027561397882
 20
-68.90357820455019
 30
0.0
 11
92.41649823816356
 21
-69.90568200421005
 31
0.0
  0
LINE
  5
BA
330
17
100
AcDbEntity
  8
hidden
100
AcDbLine
 10
121.25314252511183
 20
-63.49331660169643
 30
0.0
 11
127.09305925094083
 21
-64.16722434449049
 31
0.0
  0
LINE
  5
BB
330
17
100
AcDbEntity
  8
hidden
100
AcDbLine
 10
121.66135563551123
 20
-59.62621798577474
 30
0.0
 11
127.4968595439882
 21
-60.32223373727599
 31
0.0
  0
ENDSEC
  0
SECTION
  2
OBJECTS
  0
DICTIONARY
  5
A
330
0
100
AcDbDictionary
281
1
  3
ACAD_COLOR
350
B
  3
ACAD_GROUP
350
C
  3
ACAD_LAYOUT
350
D
  3
ACAD_MATERIAL
350
E
  3
ACAD_MLEADERSTYLE
350
F
  3
ACAD_MLINESTYLE
350
10
  3
ACAD_PLOTSETTINGS
350
11
  3
ACAD_PLOTSTYLENAME
350
12
  3
ACAD_SCALELIST
350
14
  3
ACAD_TABLESTYLE
350
15
  3
ACAD_VISUALSTYLE
350
16
  3
EZDXF_META
350
2D
  0
DICTIONARY
  5
B
330
A
100
AcDbDictionary
281
1
  0
DICTIONARY
  5
C
330
A
100
AcDbDictionary
281
1
  0
DICTIONARY
  5
D
330
A
100
AcDbDictionary
281
1
  3
Model
350
1A
  3
Layout1
350
1E
  0
DICTIONARY
  5
E
330
A
100
AcDbDictionary
281
1
  3
ByBlock
350
1F
  3
ByLayer
350
20
  3
Global
350
21
  0
DICTIONARY
  5
F
330
A
100
AcDbDictionary
281
1
  3
Standard
350
2C
  0
DICTIONARY
  5
10
330
A
100
AcDbDictionary
281
1
  3
Standard
350
22
  0
DICTIONARY
  5
11
330
A
100
AcDbDictionary
281
1
  0
ACDBDICTIONARYWDFLT
  5
12
330
A
100
AcDbDictionary
281
1
  3
Normal
350
13
100
AcDbDictionaryWithDefault
340
13
  0
ACDBPLACEHOLDER
  5
13
330
12
  0
DICTIONARY
  5
14
330
A
100
AcDbDictionary
281
1
  0
DICTIONARY
  5
15
330
A
100
AcDbDictionary
281
1
  0
DICTIONARY
  5
16
330
A
100
AcDbDictionary
281
1
  0
LAYOUT
  5
1A
330
D
100
AcDbPlotSettings
  1

  4
A3
  6

 40
7.5
 41
20.0
 42
7.5
 43
20.0
 44
420.0
 45
297.0
 46
0.0
 47
0.0
 48
0.0
 49
0.0
140
0.0
141
0.0
142
1.0
143
1.0
 70
1024
 72
1
 73
0
 74
5
  7

 75
16
 76
0
 77
2
 78
300
147
1.0
148
0.0
149
0.0
100
AcDbLayout
  1
Model
 70
1
 71
0
 10
0.0
 20
0.0
 11
420.0
 21
297.0
 12
0.0
 22
0.0
 32
0.0
 14
1e+20
 24
1e+20
 34
1e+20
 15
-1e+20
 25
-1e+20
 35
-1e+20
146
0.0
 13
0.0
 23
0.0
 33
0.0
 16
1.0
 26
0.0
 36
0.0
 17
0.0
 27
1.0
 37
0.0
 76
1
330
17
  0
LAYOUT
  5
1E
330
D
100
AcDbPlotSettings
  1

  4
A3
  6

 40
7.5
 41
20.0
 42
7.5
 43
20.0
 44
420.0
 45
297.0
 46
0.0
 47
0.0
 48
0.0
 49
0.0
140
0.0
141
0.0
142
1.0
143
1.0
 70
0
 72
1
 73
0
 74
5
  7

 75
16
 76
0
 77
2
 78
300
147
1.0
148
0.0
149
0.0
100
AcDbLayout
  1
Layout1
 70
1
 71
1
 10
0.0
 20
0.0
 11
420.0
 21
297.0
 12
0.0
 22
0.0
 32
0.0
 14
1e+20
 24
1e+20
 34
1e+20
 15
-1e+20
 25
-1e+20
 35
-1e+20
146
0.0
 13
0.0
 23
0.0
 33
0.0
 16
1.0
 26
0.0
 36
0.0
 17
0.0
 27
1.0
 37
0.0
 76
1
330
1B
  0
MATERIAL
  5
1F
102
{ACAD_REACTORS
330
E
102
}
330
E
100
AcDbMaterial
  1
ByBlock
  2

 70
0
 40
1.0
 71
1
 41
1.0
 91
-1023410177
 42
1.0
 72
1
  3

 73
1
 74
1
 75
1
 44
0.5
 73
0
 45
1.0
 46
1.0
 77
1
  4

 78
1
 79
1
170
1
 48
1.0
171
1
  6

172
1
173
1
174
1
140
1.0
141
1.0
175
1
  7

176
1
177
1
178
1
143
1.0
179
1
  8

270
1
271
1
272
1
145
1.0
146
1.0
273
1
  9

274
1
275
1
276
1
 42
1.0
 72
1
  3

 73
1
 74
1
 75
1
 94
63
  0
MATERIAL
  5
20
102
{ACAD_REACTORS
330
E
102
}
330
E
100
AcDbMaterial
  1
ByLayer
  2

 70
0
 40
1.0
 71
1
 41
1.0
 91
-1023410177
 42
1.0
 72
1
  3

 73
1
 74
1
 75
1
 44
0.5
 73
0
 45
1.0
 46
1.0
 77
1
  4

 78
1
 79
1
170
1
 48
1.0
171
1
  6

172
1
173
1
174
1
140
1.0
141
1.0
175
1
  7

176
1
177
1
178
1
143
1.0
179
1
  8

270
1
271
1
272
1
145
1.0
146
1.0
273
1
  9

274
1
275
1
276
1
 42
1.0
 72
1
  3

 73
1
 74
1
 75
1
 94
63
  0
MATERIAL
  5
21
102
{ACAD_REACTORS
330
E
102
}
330
E
100
AcDbMaterial
  1
Global
  2

 70
0
 40
1.0
 71
1
 41
1.0
 91
-1023410177
 42
1.0
 72
1
  3

 73
1
 74
1
 75
1
 44
0.5
 73
0
 45
1.0
 46
1.0
 77
1
  4

 78
1
 79
1
170
1
 48
1.0
171
1
  6

172
1
173
1
174
1
140
1.0
141
1.0
175
1
  7

176
1
177
1
178
1
143
1.0
179
1
  8

270
1
271
1
272
1
145
1.0
146
1.0
273
1
  9

274
1
275
1
276
1
 42
1.0
 72
1
  3

 73
1
 74
1
 75
1
 94
63
  0
MLINESTYLE
  5
22
102
{ACAD_REACTORS
330
10
102
}
330
10
100
AcDbMlineStyle
  2
Standard
 70
0
  3

 62
256
 51
90.0
 52
90.0
 71
2
 49
0.5
 62
256
  6
BYLAYER
 49
-0.5
 62
256
  6
BYLAYER
  0
MLEADERSTYLE
  5
2C
102
{ACAD_REACTORS
330
F
102
}
330
F
100
AcDbMLeaderStyle
179
2
170
2
171
1
172
0
 90
2
 40
0.0
 41
0.0
173
1
 91
-1056964608
 92
-2
290
1
 42
2.0
291
1
 43
8.0
  3
Standard
 44
4.0
300

342
29
174
1
175
1
176
0
178
1
 93
-1056964608
 45
4.0
292
0
297
0
 46
4.0
 94
-1056964608
 47
1.0
 49
1.0
140
1.0
294
1
141
0.0
177
0
142
1.0
295
0
296
0
143
3.75
271
0
272
9
273
9
  0
DICTIONARY
  5
2D
330
A
100
AcDbDictionary
280
1
281
1
  3
CREATED_BY_EZDXF
350
2E
  3
WRITTEN_BY_EZDXF
350
BF
  0
DICTIONARYVAR
  5
2E
330
2D
100
DictionaryVariables
280
0
  1
1.4.3 @ 2026-04-03T09:36:17.367559+00:00
  0
DICTIONARYVAR
  5
BF
330
2D
100
DictionaryVariables
280
0
  1
1.4.3 @ 2026-04-03T09:36:17.416165+00:00
  0
ENDSEC
  0
EOF
