<?xml version='1.0' encoding='utf-8'?>
<svg width="623.880604mm" height="663.170542mm" viewBox="-341.375344 -372.217587 623.880604 663.170542" version="1.1" xmlns="http://www.w3.org/2000/svg">
  <g transform="scale(1,-1)" stroke-linecap="round">
    <g fill="none" stroke="rgb(0,0,0)" stroke-width="0.09" id="visible">
      <line x1="-221.642673" y1="372.086447" x2="-218.7941" y2="372.172587" />
      <line x1="-221.642673" y1="372.086447" x2="-341.330344" y2="253.481152" />
      <line x1="266.788288" y1="-200.182369" x2="264.228998" y2="-194.62832" />
      <line x1="266.788288" y1="-200.182369" x2="156.971061" y2="-266.731105" />
      <line x1="-221.642673" y1="372.086447" x2="266.788288" y2="-200.182369" />
      <line x1="-218.7941" y1="372.172587" x2="264.228998" y2="-194.62832" />
      <line x1="-341.330344" y1="253.481152" x2="156.971061" y2="-266.731105" />
      <line x1="-140.714322" y1="280.550283" x2="-139.322068" y2="281.522274" />
      <line x1="-20.474447" y1="139.455437" x2="-20.285081" y2="141.669015" />
      <line x1="-139.322068" y1="281.522274" x2="-20.285081" y2="141.669015" />
      <line x1="-154.895374" y1="55.906476" x2="-153.954998" y2="57.866709" />
      <line x1="-156.436846" y1="60.457686" x2="-163.046074" y2="54.97978" />
      <line x1="-168.054666" y1="45.03273" x2="-163.046074" y2="54.97978" />
      <line x1="-154.895374" y1="55.906476" x2="-168.054666" y2="45.03273" />
      <line x1="170.746318" y1="-283.533611" x2="166.512097" y2="-267.109132" />
      <line x1="170.746318" y1="-283.533611" x2="158.383566" y2="-290.907955" />
      <line x1="-154.895374" y1="55.906476" x2="170.746318" y2="-283.533611" />
      <line x1="162.792993" y1="-263.20304" x2="166.512097" y2="-267.109132" />
      <line x1="-168.054666" y1="45.03273" x2="158.383566" y2="-290.907955" />
      <line x1="-14.55437" y1="171.87263" x2="-14.09268" y2="178.43638" />
      <line x1="-14.09268" y1="178.43638" x2="-28.42169" y2="166.560109" />
      <line x1="-29.34722" y1="159.649047" x2="-28.42169" y2="166.560109" />
      <line x1="-14.55437" y1="171.87263" x2="-29.34722" y2="159.649047" />
      <line x1="282.46026" y1="-183.533007" x2="275.023907" y2="-168.728717" />
      <line x1="282.46026" y1="-183.533007" x2="268.764192" y2="-191.868258" />
      <line x1="-14.55437" y1="171.87263" x2="282.46026" y2="-183.533007" />
      <line x1="-14.09268" y1="178.43638" x2="275.023907" y2="-168.728717" />
      <line x1="-29.34722" y1="159.649047" x2="268.764192" y2="-191.868258" />
      <line x1="47.501671" y1="-179.144432" x2="47.282747" y2="-176.573047" />
      <line x1="48.884917" y1="-178.221855" x2="47.501671" y2="-179.144432" />
      <line x1="126.02388" y1="-257.606295" x2="124.665526" y2="-258.443999" />
      <line x1="47.501671" y1="-179.144432" x2="124.665526" y2="-258.443999" />
    </g>
    <g fill="none" stroke="rgb(0,0,0)" stroke-width="0.09" id="hidden" stroke-dasharray="0.5715 0.28575">
      <line x1="-218.7941" y1="372.172587" x2="-337.173489" y2="255.007198" />
      <line x1="-341.330344" y1="253.481152" x2="-337.173489" y2="255.007198" />
      <line x1="264.228998" y1="-194.62832" x2="155.524955" y2="-260.784212" />
      <line x1="156.971061" y1="-266.731105" x2="155.524955" y2="-260.784212" />
      <line x1="-337.173489" y1="255.007198" x2="155.524955" y2="-260.784212" />
      <line x1="-145.323181" y1="277.332646" x2="-140.714322" y2="280.550283" />
      <line x1="-139.322068" y1="281.522274" x2="-245.115845" y2="184.47533" />
      <line x1="-255.176476" y1="176.49985" x2="-245.115845" y2="184.47533" />
      <line x1="-145.323181" y1="277.332646" x2="-255.176476" y2="176.49985" />
      <line x1="-21.099563" y1="132.148226" x2="-20.474447" y2="139.455437" />
      <line x1="-20.285081" y1="141.669015" x2="-124.522723" y2="56.616256" />
      <line x1="-129.30226" y1="44.250355" x2="-124.522723" y2="56.616256" />
      <line x1="-21.099563" y1="132.148226" x2="-129.30226" y2="44.250355" />
      <line x1="-145.323181" y1="277.332646" x2="-21.099563" y2="132.148226" />
      <line x1="-255.176476" y1="176.49985" x2="-129.30226" y2="44.250355" />
      <line x1="-245.115845" y1="184.47533" x2="-124.522723" y2="56.616256" />
      <line x1="-153.954998" y1="57.866709" x2="-150.253452" y2="65.58265" />
      <line x1="-150.253452" y1="65.58265" x2="-156.436846" y2="60.457686" />
      <line x1="166.512097" y1="-267.109132" x2="154.473806" y2="-274.376231" />
      <line x1="158.383566" y1="-290.907955" x2="154.473806" y2="-274.376231" />
      <line x1="-150.253452" y1="65.58265" x2="162.792993" y2="-263.20304" />
      <line x1="-163.046074" y1="54.97978" x2="154.473806" y2="-274.376231" />
      <line x1="275.023907" y1="-168.728717" x2="261.722615" y2="-176.917138" />
      <line x1="268.764192" y1="-191.868258" x2="261.722615" y2="-176.917138" />
      <line x1="-28.42169" y1="166.560109" x2="261.722615" y2="-176.917138" />
      <line x1="110.146959" y1="-105.880244" x2="103.85152" y2="-78.179029" />
      <line x1="103.85152" y1="-78.179029" x2="89.818313" y2="-87.883322" />
      <line x1="95.231676" y1="-116.009719" x2="89.818313" y2="-87.883322" />
      <line x1="110.146959" y1="-105.880244" x2="95.231676" y2="-116.009719" />
      <line x1="218.446379" y1="-226.636806" x2="206.773308" y2="-194.28481" />
      <line x1="206.773308" y1="-194.28481" x2="193.124975" y2="-202.770577" />
      <line x1="203.968993" y1="-235.425292" x2="193.124975" y2="-202.770577" />
      <line x1="218.446379" y1="-226.636806" x2="203.968993" y2="-235.425292" />
      <line x1="110.146959" y1="-105.880244" x2="218.446379" y2="-226.636806" />
      <line x1="103.85152" y1="-78.179029" x2="206.773308" y2="-194.28481" />
      <line x1="95.231676" y1="-116.009719" x2="203.968993" y2="-235.425292" />
      <line x1="89.818313" y1="-87.883322" x2="193.124975" y2="-202.770577" />
      <line x1="127.139836" y1="-126.028502" x2="123.190009" y2="-110.345445" />
      <line x1="123.190009" y1="-110.345445" x2="46.069714" y2="-162.325312" />
      <line x1="47.282747" y1="-176.573047" x2="46.069714" y2="-162.325312" />
      <line x1="127.139836" y1="-126.028502" x2="48.884917" y2="-178.221855" />
      <line x1="202.756595" y1="-210.284831" x2="196.754109" y2="-192.845662" />
      <line x1="196.754109" y1="-192.845662" x2="121.079331" y2="-240.113021" />
      <line x1="124.665526" y1="-258.443999" x2="121.079331" y2="-240.113021" />
      <line x1="202.756595" y1="-210.284831" x2="126.02388" y2="-257.606295" />
      <line x1="127.139836" y1="-126.028502" x2="202.756595" y2="-210.284831" />
      <line x1="123.190009" y1="-110.345445" x2="196.754109" y2="-192.845662" />
      <line x1="46.069714" y1="-162.325312" x2="121.079331" y2="-240.113021" />
    </g>
  </g>
</svg>