<?xml version='1.0' encoding='utf-8'?>
<svg width="759.743676mm" height="237.456402mm" viewBox="-328.728672 -119.565523 759.743676 237.456402" version="1.1" xmlns="http://www.w3.org/2000/svg">
  <g transform="scale(1,-1)" stroke-linecap="round">
    <g fill="none" stroke="rgb(0,0,0)" stroke-width="0.09" id="visible">
      <line x1="430.970003" y1="-48.923308" x2="429.370868" y2="-51.097028" />
      <line x1="430.970003" y1="-48.923308" x2="408.952976" y2="119.520523" />
      <line x1="-319.366261" y1="-92.743735" x2="-313.361609" y2="-93.936986" />
      <line x1="-319.366261" y1="-92.743735" x2="-307.135643" y2="35.205207" />
      <line x1="430.970003" y1="-48.923308" x2="-319.366261" y2="-92.743735" />
      <line x1="429.370868" y1="-51.097028" x2="-313.361609" y2="-93.936986" />
      <line x1="408.952976" y1="119.520523" x2="-307.135643" y2="35.205207" />
      <line x1="308.893906" y1="-58.046001" x2="308.880749" y2="-59.24148" />
      <line x1="123.972219" y1="-68.712072" x2="125.256199" y2="-69.75325" />
      <line x1="308.880749" y1="-59.24148" x2="125.256199" y2="-69.75325" />
      <line x1="137.722318" y1="89.781172" x2="138.860421" y2="87.718678" />
      <line x1="142.479638" y1="88.14482" x2="142.068322" y2="97.267569" />
      <line x1="136.972534" y1="106.976487" x2="142.068322" y2="97.267569" />
      <line x1="137.722318" y1="89.781172" x2="136.972534" y2="106.976487" />
      <line x1="-328.683672" y1="34.468838" x2="-312.905343" y2="28.222454" />
      <line x1="-328.683672" y1="34.468838" x2="-327.215194" y2="48.827282" />
      <line x1="137.722318" y1="89.781172" x2="-328.683672" y2="34.468838" />
      <line x1="-307.746513" y1="28.814669" x2="-312.905343" y2="28.222454" />
      <line x1="136.972534" y1="106.976487" x2="-327.215194" y2="48.827282" />
      <line x1="145.697774" y1="-93.125509" x2="150.830452" y2="-97.071525" />
      <line x1="150.830452" y1="-97.071525" x2="149.989482" y2="-78.419283" />
      <line x1="144.8589" y1="-73.887043" x2="149.989482" y2="-78.419283" />
      <line x1="145.697774" y1="-93.125509" x2="144.8589" y2="-73.887043" />
      <line x1="-315.351598" y1="-115.16148" x2="-298.982301" y2="-117.845879" />
      <line x1="-315.351598" y1="-115.16148" x2="-313.856748" y2="-99.217957" />
      <line x1="145.697774" y1="-93.125509" x2="-315.351598" y2="-115.16148" />
      <line x1="150.830452" y1="-97.071525" x2="-298.982301" y2="-117.845879" />
      <line x1="144.8589" y1="-73.887043" x2="-313.856748" y2="-99.217957" />
      <line x1="-171.463162" y1="70.71755" x2="-168.190437" y2="68.748453" />
      <line x1="-171.592412" y1="68.322285" x2="-171.463162" y2="70.71755" />
      <line x1="-281.064541" y1="54.608615" x2="-280.862991" y2="56.898769" />
      <line x1="-171.463162" y1="70.71755" x2="-280.862991" y2="56.898769" />
    </g>
    <g fill="none" stroke="rgb(0,0,0)" stroke-width="0.09" id="hidden" stroke-dasharray="0.5715 0.28575">
      <line x1="429.370868" y1="-51.097028" x2="407.704518" y2="115.390949" />
      <line x1="408.952976" y1="119.520523" x2="407.704518" y2="115.390949" />
      <line x1="-313.361609" y1="-93.936986" x2="-301.471602" y2="32.877459" />
      <line x1="-307.135643" y1="35.205207" x2="-301.471602" y2="32.877459" />
      <line x1="407.704518" y1="115.390949" x2="-301.471602" y2="32.877459" />
      <line x1="308.955949" y1="-52.408678" x2="308.893906" y2="-58.046001" />
      <line x1="308.880749" y1="-59.24148" x2="295.441854" y2="84.662617" />
      <line x1="294.958813" y1="97.12704" x2="295.441854" y2="84.662617" />
      <line x1="308.955949" y1="-52.408678" x2="294.958813" y2="97.12704" />
      <line x1="117.934936" y1="-63.816445" x2="123.972219" y2="-68.712072" />
      <line x1="125.256199" y1="-69.75325" x2="120.154302" y2="65.395159" />
      <line x1="112.946068" y1="76.290701" x2="120.154302" y2="65.395159" />
      <line x1="117.934936" y1="-63.816445" x2="112.946068" y2="76.290701" />
      <line x1="308.955949" y1="-52.408678" x2="117.934936" y2="-63.816445" />
      <line x1="294.958813" y1="97.12704" x2="112.946068" y2="76.290701" />
      <line x1="295.441854" y1="84.662617" x2="120.154302" y2="65.395159" />
      <line x1="138.860421" y1="87.718678" x2="142.822589" y2="80.538362" />
      <line x1="142.822589" y1="80.538362" x2="142.479638" y2="88.14482" />
      <line x1="-312.905343" y1="28.222454" x2="-311.541899" y2="42.253357" />
      <line x1="-327.215194" y1="48.827282" x2="-311.541899" y2="42.253357" />
      <line x1="142.822589" y1="80.538362" x2="-307.746513" y2="28.814669" />
      <line x1="142.068322" y1="97.267569" x2="-311.541899" y2="42.253357" />
      <line x1="-298.982301" y1="-117.845879" x2="-297.602142" y2="-102.307286" />
      <line x1="-313.856748" y1="-99.217957" x2="-297.602142" y2="-102.307286" />
      <line x1="149.989482" y1="-78.419283" x2="-297.602142" y2="-102.307286" />
      <line x1="-150.792468" y1="-24.60354" x2="-124.590773" y2="-35.625884" />
      <line x1="-124.590773" y1="-35.625884" x2="-123.942277" y2="-18.533201" />
      <line x1="-149.96022" y1="-6.540067" x2="-123.942277" y2="-18.533201" />
      <line x1="-150.792468" y1="-24.60354" x2="-149.96022" y2="-6.540067" />
      <line x1="-311.664421" y1="-38.075364" x2="-278.601848" y2="-47.648279" />
      <line x1="-278.601848" y1="-47.648279" x2="-277.247248" y2="-31.623107" />
      <line x1="-310.06397" y1="-21.199446" x2="-277.247248" y2="-31.623107" />
      <line x1="-311.664421" y1="-38.075364" x2="-310.06397" y2="-21.199446" />
      <line x1="-150.792468" y1="-24.60354" x2="-311.664421" y2="-38.075364" />
      <line x1="-124.590773" y1="-35.625884" x2="-278.601848" y2="-47.648279" />
      <line x1="-149.96022" y1="-6.540067" x2="-310.06397" y2="-21.199446" />
      <line x1="-123.942277" y1="-18.533201" x2="-277.247248" y2="-31.623107" />
      <line x1="-176.638529" y1="-25.192049" x2="-161.59657" y2="-31.163435" />
      <line x1="-161.59657" y1="-31.163435" x2="-157.00495" y2="62.018495" />
      <line x1="-168.190437" y1="68.748453" x2="-157.00495" y2="62.018495" />
      <line x1="-176.638529" y1="-25.192049" x2="-171.592412" y2="68.322285" />
      <line x1="-288.921943" y1="-34.672741" x2="-271.276617" y2="-40.077417" />
      <line x1="-271.276617" y1="-40.077417" x2="-263.927781" y2="49.003141" />
      <line x1="-280.862991" y1="56.898769" x2="-263.927781" y2="49.003141" />
      <line x1="-288.921943" y1="-34.672741" x2="-281.064541" y2="54.608615" />
      <line x1="-176.638529" y1="-25.192049" x2="-288.921943" y2="-34.672741" />
      <line x1="-161.59657" y1="-31.163435" x2="-271.276617" y2="-40.077417" />
      <line x1="-157.00495" y1="62.018495" x2="-263.927781" y2="49.003141" />
    </g>
  </g>
</svg>