  0
SECTION
  2
HEADER
  9
$ACADVER
  1
AC1027
  9
$ACADMAINTVER
 70
105
  9
$DWGCODEPAGE
  3
ANSI_1252
  9
$LASTSAVEDBY
  1
ezdxf
  9
$REQUIREDVERSIONS
160
0
  9
$INSBASE
 10
0.0
 20
0.0
 30
0.0
  9
$EXTMIN
 10
1e+20
 20
1e+20
 30
1e+20
  9
$EXTMAX
 10
-1e+20
 20
-1e+20
 30
-1e+20
  9
$LIMMIN
 10
0.0
 20
0.0
  9
$LIMMAX
 10
420.0
 20
297.0
  9
$ORTHOMODE
 70
0
  9
$REGENMODE
 70
1
  9
$FILLMODE
 70
1
  9
$QTEXTMODE
 70
0
  9
$MIRRTEXT
 70
1
  9
$LTSCALE
 40
1.0
  9
$ATTMODE
 70
1
  9
$TEXTSIZE
 40
2.5
  9
$TRACEWID
 40
1.0
  9
$TEXTSTYLE
  7
Standard
  9
$CLAYER
  8
0
  9
$CELTYPE
  6
ByLayer
  9
$CECOLOR
 62
256
  9
$CELTSCALE
 40
1.0
  9
$DISPSILH
 70
0
  9
$DIMSCALE
 40
1.0
  9
$DIMASZ
 40
2.5
  9
$DIMEXO
 40
0.625
  9
$DIMDLI
 40
3.75
  9
$DIMRND
 40
0.0
  9
$DIMDLE
 40
0.0
  9
$DIMEXE
 40
1.25
  9
$DIMTP
 40
0.0
  9
$DIMTM
 40
0.0
  9
$DIMTXT
 40
2.5
  9
$DIMCEN
 40
2.5
  9
$DIMTSZ
 40
0.0
  9
$DIMTOL
 70
0
  9
$DIMLIM
 70
0
  9
$DIMTIH
 70
0
  9
$DIMTOH
 70
0
  9
$DIMSE1
 70
0
  9
$DIMSE2
 70
0
  9
$DIMTAD
 70
1
  9
$DIMZIN
 70
8
  9
$DIMBLK
  1

  9
$DIMASO
 70
1
  9
$DIMSHO
 70
1
  9
$DIMPOST
  1

  9
$DIMAPOST
  1

  9
$DIMALT
 70
0
  9
$DIMALTD
 70
3
  9
$DIMALTF
 40
0.03937007874
  9
$DIMLFAC
 40
1.0
  9
$DIMTOFL
 70
1
  9
$DIMTVP
 40
0.0
  9
$DIMTIX
 70
0
  9
$DIMSOXD
 70
0
  9
$DIMSAH
 70
0
  9
$DIMBLK1
  1

  9
$DIMBLK2
  1

  9
$DIMSTYLE
  2
ISO-25
  9
$DIMCLRD
 70
0
  9
$DIMCLRE
 70
0
  9
$DIMCLRT
 70
0
  9
$DIMTFAC
 40
1.0
  9
$DIMGAP
 40
0.625
  9
$DIMJUST
 70
0
  9
$DIMSD1
 70
0
  9
$DIMSD2
 70
0
  9
$DIMTOLJ
 70
0
  9
$DIMTZIN
 70
8
  9
$DIMALTZ
 70
0
  9
$DIMALTTZ
 70
0
  9
$DIMUPT
 70
0
  9
$DIMDEC
 70
2
  9
$DIMTDEC
 70
2
  9
$DIMALTU
 70
2
  9
$DIMALTTD
 70
3
  9
$DIMTXSTY
  7
Standard
  9
$DIMAUNIT
 70
0
  9
$DIMADEC
 70
0
  9
$DIMALTRND
 40
0.0
  9
$DIMAZIN
 70
0
  9
$DIMDSEP
 70
44
  9
$DIMATFIT
 70
3
  9
$DIMFRAC
 70
0
  9
$DIMLDRBLK
  1

  9
$DIMLUNIT
 70
2
  9
$DIMLWD
 70
-2
  9
$DIMLWE
 70
-2
  9
$DIMTMOVE
 70
0
  9
$DIMFXL
 40
1.0
  9
$DIMFXLON
 70
0
  9
$DIMJOGANG
 40
0.785398163397
  9
$DIMTFILL
 70
0
  9
$DIMTFILLCLR
 70
0
  9
$DIMARCSYM
 70
0
  9
$DIMLTYPE
  6

  9
$DIMLTEX1
  6

  9
$DIMLTEX2
  6

  9
$DIMTXTDIRECTION
 70
0
  9
$LUNITS
 70
2
  9
$LUPREC
 70
4
  9
$SKETCHINC
 40
1.0
  9
$FILLETRAD
 40
10.0
  9
$AUNITS
 70
0
  9
$AUPREC
 70
2
  9
$MENU
  1
.
  9
$ELEVATION
 40
0.0
  9
$PELEVATION
 40
0.0
  9
$THICKNESS
 40
0.0
  9
$LIMCHECK
 70
0
  9
$CHAMFERA
 40
0.0
  9
$CHAMFERB
 40
0.0
  9
$CHAMFERC
 40
0.0
  9
$CHAMFERD
 40
0.0
  9
$SKPOLY
 70
0
  9
$TDCREATE
 40
2461134.4505208335
  9
$TDUCREATE
 40
2458532.153996898
  9
$TDUPDATE
 40
2461134.4505208335
  9
$TDUUPDATE
 40
2458532.1544311
  9
$TDINDWG
 40
0.0
  9
$TDUSRTIMER
 40
0.0
  9
$USRTIMER
 70
1
  9
$ANGBASE
 50
0.0
  9
$ANGDIR
 70
0
  9
$PDMODE
 70
0
  9
$PDSIZE
 40
0.0
  9
$PLINEWID
 40
0.0
  9
$SPLFRAME
 70
0
  9
$SPLINETYPE
 70
6
  9
$SPLINESEGS
 70
8
  9
$HANDSEED
  5
86
  9
$SURFTAB1
 70
6
  9
$SURFTAB2
 70
6
  9
$SURFTYPE
 70
6
  9
$SURFU
 70
6
  9
$SURFV
 70
6
  9
$UCSBASE
  2

  9
$UCSNAME
  2

  9
$UCSORG
 10
0.0
 20
0.0
 30
0.0
  9
$UCSXDIR
 10
1.0
 20
0.0
 30
0.0
  9
$UCSYDIR
 10
0.0
 20
1.0
 30
0.0
  9
$UCSORTHOREF
  2

  9
$UCSORTHOVIEW
 70
0
  9
$UCSORGTOP
 10
0.0
 20
0.0
 30
0.0
  9
$UCSORGBOTTOM
 10
0.0
 20
0.0
 30
0.0
  9
$UCSORGLEFT
 10
0.0
 20
0.0
 30
0.0
  9
$UCSORGRIGHT
 10
0.0
 20
0.0
 30
0.0
  9
$UCSORGFRONT
 10
0.0
 20
0.0
 30
0.0
  9
$UCSORGBACK
 10
0.0
 20
0.0
 30
0.0
  9
$PUCSBASE
  2

  9
$PUCSNAME
  2

  9
$PUCSORG
 10
0.0
 20
0.0
 30
0.0
  9
$PUCSXDIR
 10
1.0
 20
0.0
 30
0.0
  9
$PUCSYDIR
 10
0.0
 20
1.0
 30
0.0
  9
$PUCSORTHOREF
  2

  9
$PUCSORTHOVIEW
 70
0
  9
$PUCSORGTOP
 10
0.0
 20
0.0
 30
0.0
  9
$PUCSORGBOTTOM
 10
0.0
 20
0.0
 30
0.0
  9
$PUCSORGLEFT
 10
0.0
 20
0.0
 30
0.0
  9
$PUCSORGRIGHT
 10
0.0
 20
0.0
 30
0.0
  9
$PUCSORGFRONT
 10
0.0
 20
0.0
 30
0.0
  9
$PUCSORGBACK
 10
0.0
 20
0.0
 30
0.0
  9
$USERI1
 70
0
  9
$USERI2
 70
0
  9
$USERI3
 70
0
  9
$USERI4
 70
0
  9
$USERI5
 70
0
  9
$USERR1
 40
0.0
  9
$USERR2
 40
0.0
  9
$USERR3
 40
0.0
  9
$USERR4
 40
0.0
  9
$USERR5
 40
0.0
  9
$WORLDVIEW
 70
1
  9
$SHADEDGE
 70
3
  9
$SHADEDIF
 70
70
  9
$TILEMODE
 70
1
  9
$MAXACTVP
 70
64
  9
$PINSBASE
 10
0.0
 20
0.0
 30
0.0
  9
$PLIMCHECK
 70
0
  9
$PEXTMIN
 10
1e+20
 20
1e+20
 30
1e+20
  9
$PEXTMAX
 10
-1e+20
 20
-1e+20
 30
-1e+20
  9
$PLIMMIN
 10
0.0
 20
0.0
  9
$PLIMMAX
 10
420.0
 20
297.0
  9
$UNITMODE
 70
0
  9
$VISRETAIN
 70
1
  9
$PLINEGEN
 70
0
  9
$PSLTSCALE
 70
1
  9
$TREEDEPTH
 70
3020
  9
$CMLSTYLE
  2
Standard
  9
$CMLJUST
 70
0
  9
$CMLSCALE
 40
20.0
  9
$PROXYGRAPHICS
 70
1
  9
$MEASUREMENT
 70
1
  9
$CELWEIGHT
370
-1
  9
$ENDCAPS
280
0
  9
$JOINSTYLE
280
0
  9
$LWDISPLAY
290
0
  9
$INSUNITS
 70
4
  9
$HYPERLINKBASE
  1

  9
$STYLESHEET
  1

  9
$XEDIT
290
1
  9
$CEPSNTYPE
380
0
  9
$PSTYLEMODE
290
1
  9
$FINGERPRINTGUID
  2
{BC0ADA4C-7CFD-47DD-8E0D-BD999C8B06DB}
  9
$VERSIONGUID
  2
{38E98B9F-491D-4746-A0BB-AA21F531E963}
  9
$EXTNAMES
290
1
  9
$PSVPSCALE
 40
0.0
  9
$OLESTARTUP
290
0
  9
$SORTENTS
280
127
  9
$INDEXCTL
280
0
  9
$HIDETEXT
280
1
  9
$XCLIPFRAME
280
1
  9
$HALOGAP
280
0
  9
$OBSCOLOR
 70
257
  9
$OBSLTYPE
280
0
  9
$INTERSECTIONDISPLAY
280
0
  9
$INTERSECTIONCOLOR
 70
257
  9
$DIMASSOC
280
2
  9
$PROJECTNAME
  1

  9
$CAMERADISPLAY
290
0
  9
$LENSLENGTH
 40
50.0
  9
$CAMERAHEIGHT
 40
0.0
  9
$STEPSPERSEC
 40
24.0
  9
$STEPSIZE
 40
100.0
  9
$3DDWFPREC
 40
2.0
  9
$PSOLWIDTH
 40
0.005
  9
$PSOLHEIGHT
 40
0.08
  9
$LOFTANG1
 40
1.570796326795
  9
$LOFTANG2
 40
1.570796326795
  9
$LOFTMAG1
 40
0.0
  9
$LOFTMAG2
 40
0.0
  9
$LOFTPARAM
 70
7
  9
$LOFTNORMALS
280
1
  9
$LATITUDE
 40
37.795
  9
$LONGITUDE
 40
-122.394
  9
$NORTHDIRECTION
 40
0.0
  9
$TIMEZONE
 70
-8000
  9
$LIGHTGLYPHDISPLAY
280
1
  9
$TILEMODELIGHTSYNCH
280
1
  9
$CMATERIAL
347
20
  9
$SOLIDHIST
280
0
  9
$SHOWHIST
280
1
  9
$DWFFRAME
280
2
  9
$DGNFRAME
280
2
  9
$REALWORLDSCALE
290
1
  9
$INTERFERECOLOR
 62
256
  9
$CSHADOW
280
0
  9
$SHADOWPLANELOCATION
 40
0.0
  0
ENDSEC
  0
SECTION
  2
CLASSES
  0
CLASS
  1
ACDBDICTIONARYWDFLT
  2
AcDbDictionaryWithDefault
  3
ObjectDBX Classes
 90
0
 91
0
280
0
281
0
  0
CLASS
  1
SUN
  2
AcDbSun
  3
SCENEOE
 90
1153
 91
0
280
0
281
0
  0
CLASS
  1
VISUALSTYLE
  2
AcDbVisualStyle
  3
ObjectDBX Classes
 90
4095
 91
0
280
0
281
0
  0
CLASS
  1
MATERIAL
  2
AcDbMaterial
  3
ObjectDBX Classes
 90
1153
 91
0
280
0
281
0
  0
CLASS
  1
SCALE
  2
AcDbScale
  3
ObjectDBX Classes
 90
1153
 91
0
280
0
281
0
  0
CLASS
  1
TABLESTYLE
  2
AcDbTableStyle
  3
ObjectDBX Classes
 90
4095
 91
0
280
0
281
0
  0
CLASS
  1
MLEADERSTYLE
  2
AcDbMLeaderStyle
  3
ACDB_MLEADERSTYLE_CLASS
 90
4095
 91
0
280
0
281
0
  0
CLASS
  1
DICTIONARYVAR
  2
AcDbDictionaryVar
  3
ObjectDBX Classes
 90
0
 91
0
280
0
281
0
  0
CLASS
  1
CELLSTYLEMAP
  2
AcDbCellStyleMap
  3
ObjectDBX Classes
 90
1152
 91
0
280
0
281
0
  0
CLASS
  1
MENTALRAYRENDERSETTINGS
  2
AcDbMentalRayRenderSettings
  3
SCENEOE
 90
1024
 91
0
280
0
281
0
  0
CLASS
  1
ACDBDETAILVIEWSTYLE
  2
AcDbDetailViewStyle
  3
ObjectDBX Classes
 90
1025
 91
0
280
0
281
0
  0
CLASS
  1
ACDBSECTIONVIEWSTYLE
  2
AcDbSectionViewStyle
  3
ObjectDBX Classes
 90
1025
 91
0
280
0
281
0
  0
CLASS
  1
RASTERVARIABLES
  2
AcDbRasterVariables
  3
ISM
 90
0
 91
0
280
0
281
0
  0
CLASS
  1
ACDBPLACEHOLDER
  2
AcDbPlaceHolder
  3
ObjectDBX Classes
 90
0
 91
0
280
0
281
0
  0
CLASS
  1
LAYOUT
  2
AcDbLayout
  3
ObjectDBX Classes
 90
0
 91
0
280
0
281
0
  0
ENDSEC
  0
SECTION
  2
TABLES
  0
TABLE
  2
VPORT
  5
8
330
0
100
AcDbSymbolTable
 70
1
  0
VPORT
  5
82
330
8
100
AcDbSymbolTableRecord
100
AcDbViewportTableRecord
  2
*Active
 70
0
 10
0.0
 20
0.0
 11
1.0
 21
1.0
 12
-27.694963694458295
 22
39.801606803596485
 13
0.0
 23
0.0
 14
0.5
 24
0.5
 15
0.5
 25
0.5
 16
0.0
 26
0.0
 36
1.0
 17
0.0
 27
0.0
 37
0.0
 40
670.8023001355454
 41
1.34
 42
50.0
 43
0.0
 44
0.0
 50
0.0
 51
0.0
 71
0
 72
1000
 73
1
 74
3
 75
0
 76
0
 77
0
 78
0
281
0
 65
1
110
0.0
120
0.0
130
0.0
111
1.0
121
0.0
131
0.0
112
0.0
122
1.0
132
0.0
 79
0
146
0.0
  0
ENDTAB
  0
TABLE
  2
LTYPE
  5
2
330
0
100
AcDbSymbolTable
 70
4
  0
LTYPE
  5
24
330
2
100
AcDbSymbolTableRecord
100
AcDbLinetypeTableRecord
  2
ByBlock
 70
0
  3

 72
65
 73
0
 40
0.0
  0
LTYPE
  5
25
330
2
100
AcDbSymbolTableRecord
100
AcDbLinetypeTableRecord
  2
ByLayer
 70
0
  3

 72
65
 73
0
 40
0.0
  0
LTYPE
  5
26
330
2
100
AcDbSymbolTableRecord
100
AcDbLinetypeTableRecord
  2
Continuous
 70
0
  3

 72
65
 73
0
 40
0.0
  0
LTYPE
  5
30
330
2
100
AcDbSymbolTableRecord
100
AcDbLinetypeTableRecord
  2
HIDDEN
 70
0
  3
Hidden __ __ __ __ __ __ __ __ __ __ __ __ __ __
 72
65
 73
2
 40
9.525
 49
6.35
 74
0
 49
-3.175
 74
0
  0
ENDTAB
  0
TABLE
  2
LAYER
  5
1
330
0
100
AcDbSymbolTable
 70
4
  0
LAYER
  5
27
330
1
100
AcDbSymbolTableRecord
100
AcDbLayerTableRecord
  2
0
 70
0
 62
7
  6
CONTINUOUS
370
-3
390
13
347
21
  0
LAYER
  5
28
330
1
100
AcDbSymbolTableRecord
100
AcDbLayerTableRecord
  2
Defpoints
 70
0
 62
7
  6
Continuous
290
0
370
-3
390
13
347
21
  0
LAYER
  5
2F
330
1
100
AcDbSymbolTableRecord
100
AcDbLayerTableRecord
  2
visible
 70
0
 62
7
  6
CONTINUOUS
370
-3
390
13
347
21
  0
LAYER
  5
31
330
1
100
AcDbSymbolTableRecord
100
AcDbLayerTableRecord
  2
hidden
 70
0
 62
7
  6
HIDDEN
370
-3
390
13
347
21
  0
ENDTAB
  0
TABLE
  2
STYLE
  5
5
330
0
100
AcDbSymbolTable
 70
1
  0
STYLE
  5
29
330
5
100
AcDbSymbolTableRecord
100
AcDbTextStyleTableRecord
  2
Standard
 70
0
 40
0.0
 41
1.0
 50
0.0
 71
0
 42
2.5
  3
txt
  4

  0
ENDTAB
  0
TABLE
  2
VIEW
  5
7
330
0
100
AcDbSymbolTable
 70
0
  0
ENDTAB
  0
TABLE
  2
UCS
  5
6
330
0
100
AcDbSymbolTable
 70
0
  0
ENDTAB
  0
TABLE
  2
APPID
  5
3
330
0
100
AcDbSymbolTable
 70
3
  0
APPID
  5
2A
330
3
100
AcDbSymbolTableRecord
100
AcDbRegAppTableRecord
  2
ACAD
 70
0
  0
APPID
  5
83
330
3
100
AcDbSymbolTableRecord
100
AcDbRegAppTableRecord
  2
HATCHBACKGROUNDCOLOR
 70
0
  0
APPID
  5
84
330
3
100
AcDbSymbolTableRecord
100
AcDbRegAppTableRecord
  2
EZDXF
 70
0
  0
ENDTAB
  0
TABLE
  2
DIMSTYLE
  5
4
330
0
100
AcDbSymbolTable
 70
1
100
AcDbDimStyleTable
  0
DIMSTYLE
105
2B
330
4
100
AcDbSymbolTableRecord
100
AcDbDimStyleTableRecord
  2
Standard
 70
0
 40
1.0
 41
2.5
 42
0.625
 43
3.75
 44
1.25
 45
0.0
 46
0.0
 47
0.0
 48
0.0
 49
2.5
140
2.5
141
2.5
142
0.0
143
0.03937007874
144
1.0
145
0.0
146
1.0
147
0.625
148
0.0
 69
0
 70
0
 71
0
 72
0
 73
0
 74
0
 75
0
 76
0
 77
1
 78
8
 79
3
170
0
171
3
172
1
173
0
174
0
175
0
176
0
177
0
178
0
179
2
271
2
272
2
273
2
274
3
275
0
276
0
277
2
278
44
279
0
280
0
281
0
282
0
283
0
284
8
285
0
286
0
288
0
289
3
290
0
371
-2
372
-2
  0
ENDTAB
  0
TABLE
  2
BLOCK_RECORD
  5
9
330
0
100
AcDbSymbolTable
 70
2
  0
BLOCK_RECORD
  5
17
330
9
100
AcDbSymbolTableRecord
100
AcDbBlockTableRecord
  2
*Model_Space
340
1A
 70
0
280
1
281
0
  0
BLOCK_RECORD
  5
1B
330
9
100
AcDbSymbolTableRecord
100
AcDbBlockTableRecord
  2
*Paper_Space
340
1E
 70
0
280
1
281
0
  0
ENDTAB
  0
ENDSEC
  0
SECTION
  2
BLOCKS
  0
BLOCK
  5
18
330
17
100
AcDbEntity
  8
0
100
AcDbBlockBegin
  2
*Model_Space
 70
0
 10
0.0
 20
0.0
 30
0.0
  3
*Model_Space
  1

  0
ENDBLK
  5
19
330
17
100
AcDbEntity
  8
0
100
AcDbBlockEnd
  0
BLOCK
  5
1C
330
1B
100
AcDbEntity
  8
0
100
AcDbBlockBegin
  2
*Paper_Space
 70
0
 10
0.0
 20
0.0
 30
0.0
  3
*Paper_Space
  1

  0
ENDBLK
  5
1D
330
1B
100
AcDbEntity
  8
0
100
AcDbBlockEnd
  0
ENDSEC
  0
SECTION
  2
ENTITIES
  0
LINE
  5
32
330
17
100
AcDbEntity
  8
visible
100
AcDbLine
 10
-217.52907814079907
 20
375.20275687136916
 30
0.0
 11
-214.72990559208154
 21
374.984322585463
 31
0.0
  0
LINE
  5
33
330
17
100
AcDbEntity
  8
visible
100
AcDbLine
 10
-217.52907814079907
 20
375.20275687136916
 30
0.0
 11
-338.07707769376066
 21
257.78282647297294
 31
0.0
  0
LINE
  5
34
330
17
100
AcDbEntity
  8
visible
100
AcDbLine
 10
266.9884922657291
 20
-203.16404539082066
 30
0.0
 11
264.3919585192017
 21
-197.70436103556827
 31
0.0
  0
LINE
  5
35
330
17
100
AcDbEntity
  8
visible
100
AcDbLine
 10
266.9884922657291
 20
-203.16404539082066
 30
0.0
 11
156.53028770346938
 21
-270.64099718712777
 31
0.0
  0
LINE
  5
36
330
17
100
AcDbEntity
  8
visible
100
AcDbLine
 10
-217.52907814079907
 20
375.20275687136916
 30
0.0
 11
266.98849226572906
 21
-203.16404539082066
 31
0.0
  0
LINE
  5
37
330
17
100
AcDbEntity
  8
visible
100
AcDbLine
 10
-214.72990559208154
 20
374.984322585463
 30
0.0
 11
264.39195851920175
 21
-197.70436103556824
 31
0.0
  0
LINE
  5
38
330
17
100
AcDbEntity
  8
visible
100
AcDbLine
 10
-338.07707769376066
 20
257.78282647297294
 30
0.0
 11
156.53028770346947
 21
-270.6409971871278
 31
0.0
  0
LINE
  5
39
330
17
100
AcDbEntity
  8
visible
100
AcDbLine
 10
-137.70844813862166
 20
282.9214876709826
 30
0.0
 11
-136.78912650536495
 21
283.4242217516304
 31
0.0
  0
LINE
  5
3A
330
17
100
AcDbEntity
  8
visible
100
AcDbLine
 10
-19.46642902601116
 20
141.58820412338457
 30
0.0
 11
-19.34457588031942
 21
142.94429348459744
 31
0.0
  0
LINE
  5
3B
330
17
100
AcDbEntity
  8
visible
100
AcDbLine
 10
-136.78912650536495
 20
283.4242217516304
 30
0.0
 11
-19.344575880319468
 21
142.94429348459747
 31
0.0
  0
LINE
  5
3C
330
17
100
AcDbEntity
  8
visible
100
AcDbLine
 10
-154.38863384292182
 20
58.26497804821984
 30
0.0
 11
-153.3025271478296
 21
60.37518286430737
 31
0.0
  0
LINE
  5
3D
330
17
100
AcDbEntity
  8
visible
100
AcDbLine
 10
-155.422213996587
 20
62.63979335728465
 30
0.0
 11
-162.619213933652
 21
56.71669882298367
 31
0.0
  0
LINE
  5
3E
330
17
100
AcDbEntity
  8
visible
100
AcDbLine
 10
-167.65983973806308
 20
47.37091092891414
 30
0.0
 11
-162.619213933652
 21
56.71669882298368
 31
0.0
  0
LINE
  5
3F
330
17
100
AcDbEntity
  8
visible
100
AcDbLine
 10
-154.38863384292182
 20
58.26497804821984
 30
0.0
 11
-167.65983973806308
 21
47.37091092891414
 31
0.0
  0
LINE
  5
40
330
17
100
AcDbEntity
  8
visible
100
AcDbLine
 10
170.33526181583505
 20
-288.1018426353369
 30
0.0
 11
166.04438923830483
 21
-271.82031556024754
 31
0.0
  0
LINE
  5
41
330
17
100
AcDbEntity
  8
visible
100
AcDbLine
 10
170.33526181583505
 20
-288.1018426353369
 30
0.0
 11
157.87272591224013
 21
-295.5995432641762
 31
0.0
  0
LINE
  5
42
330
17
100
AcDbEntity
  8
visible
100
AcDbLine
 10
-154.38863384292182
 20
58.26497804821984
 30
0.0
 11
170.3352618158351
 21
-288.10184263533677
 31
0.0
  0
LINE
  5
43
330
17
100
AcDbEntity
  8
visible
100
AcDbLine
 10
161.89508368133417
 20
-267.3637387794795
 30
0.0
 11
166.04438923830472
 21
-271.8203155602474
 31
0.0
  0
LINE
  5
44
330
17
100
AcDbEntity
  8
visible
100
AcDbLine
 10
-167.65983973806308
 20
47.37091092891414
 30
0.0
 11
157.87272591224016
 21
-295.5995432641762
 31
0.0
  0
LINE
  5
45
330
17
100
AcDbEntity
  8
visible
100
AcDbLine
 10
-13.342756953949761
 20
174.04671347381083
 30
0.0
 11
-12.917225326372744
 21
179.92067801537073
 31
0.0
  0
LINE
  5
46
330
17
100
AcDbEntity
  8
visible
100
AcDbLine
 10
-12.917225326372744
 20
179.92067801537073
 30
0.0
 11
-27.274504394894706
 21
168.10470998399174
 31
0.0
  0
LINE
  5
47
330
17
100
AcDbEntity
  8
visible
100
AcDbLine
 10
-28.167907070310854
 20
161.8770446662046
 30
0.0
 11
-27.274504394894695
 21
168.1047099839917
 31
0.0
  0
LINE
  5
48
330
17
100
AcDbEntity
  8
visible
100
AcDbLine
 10
-13.342756953949761
 20
174.04671347381083
 30
0.0
 11
-28.16790707031086
 21
161.8770446662046
 31
0.0
  0
LINE
  5
49
330
17
100
AcDbEntity
  8
visible
100
AcDbLine
 10
282.687150304844
 20
-186.48354189655686
 30
0.0
 11
275.14724713448095
 21
-171.95486298381417
 31
0.0
  0
LINE
  5
4A
330
17
100
AcDbEntity
  8
visible
100
AcDbLine
 10
282.687150304844
 20
-186.48354189655686
 30
0.0
 11
268.94413931610575
 21
-194.91241449526316
 31
0.0
  0
LINE
  5
4B
330
17
100
AcDbEntity
  8
visible
100
AcDbLine
 10
-13.342756953949761
 20
174.04671347381083
 30
0.0
 11
282.68715030484407
 21
-186.48354189655686
 31
0.0
  0
LINE
  5
4C
330
17
100
AcDbEntity
  8
visible
100
AcDbLine
 10
-12.917225326372744
 20
179.92067801537073
 30
0.0
 11
275.14724713448106
 21
-171.95486298381414
 31
0.0
  0
LINE
  5
4D
330
17
100
AcDbEntity
  8
visible
100
AcDbLine
 10
-28.167907070310854
 20
161.8770446662046
 30
0.0
 11
268.94413931610586
 21
-194.9124144952632
 31
0.0
  0
LINE
  5
4E
330
17
100
AcDbEntity
  8
visible
100
AcDbLine
 10
46.59856799574453
 20
-182.2978347470032
 30
0.0
 11
46.22562260312899
 21
-177.97181021456547
 31
0.0
  0
LINE
  5
4F
330
17
100
AcDbEntity
  8
visible
100
AcDbLine
 10
48.88173471304604
 20
-180.77020298029757
 30
0.0
 11
46.598567995744574
 21
-182.2978347470032
 31
0.0
  0
LINE
  5
50
330
17
100
AcDbEntity
  8
visible
100
AcDbLine
 10
126.11366022242213
 20
-262.1392313515239
 30
0.0
 11
123.87129990891457
 21
-263.531123113479
 31
0.0
  0
LINE
  5
51
330
17
100
AcDbEntity
  8
visible
100
AcDbLine
 10
46.59856799574453
 20
-182.2978347470032
 30
0.0
 11
123.87129990891457
 21
-263.53112311347905
 31
0.0
  0
LINE
  5
52
330
17
100
AcDbEntity
  8
hidden
100
AcDbLine
 10
-214.72990559208154
 20
374.984322585463
 30
0.0
 11
-333.94185142680783
 21
259.01143011523925
 31
0.0
  0
LINE
  5
53
330
17
100
AcDbEntity
  8
hidden
100
AcDbLine
 10
-338.07707769376066
 20
257.78282647297294
 30
0.0
 11
-333.94185142680783
 21
259.01143011523925
 31
0.0
  0
LINE
  5
54
330
17
100
AcDbEntity
  8
hidden
100
AcDbLine
 10
264.39195851920164
 20
-197.70436103556824
 30
0.0
 11
155.06558696903133
 21
-264.75648361848255
 31
0.0
  0
LINE
  5
55
330
17
100
AcDbEntity
  8
hidden
100
AcDbLine
 10
156.5302877034694
 20
-270.6409971871277
 30
0.0
 11
155.06558696903136
 21
-264.75648361848255
 31
0.0
  0
LINE
  5
56
330
17
100
AcDbEntity
  8
hidden
100
AcDbLine
 10
-333.94185142680783
 20
259.01143011523925
 30
0.0
 11
155.06558696903136
 21
-264.75648361848255
 31
0.0
  0
LINE
  5
57
330
17
100
AcDbEntity
  8
hidden
100
AcDbLine
 10
-142.70080160066513
 20
280.19140264174393
 30
0.0
 11
-137.70844813862166
 21
282.9214876709826
 31
0.0
  0
LINE
  5
58
330
17
100
AcDbEntity
  8
hidden
100
AcDbLine
 10
-136.78912650536495
 20
283.4242217516304
 30
0.0
 11
-243.1865981692265
 21
187.07479236915938
 31
0.0
  0
LINE
  5
59
330
17
100
AcDbEntity
  8
hidden
100
AcDbLine
 10
-253.22854750321972
 20
180.0073390982345
 30
0.0
 11
-243.18659816922647
 21
187.07479236915933
 31
0.0
  0
LINE
  5
5A
330
17
100
AcDbEntity
  8
hidden
100
AcDbLine
 10
-142.70080160066513
 20
280.19140264174393
 30
0.0
 11
-253.22854750321972
 21
180.00733909823452
 31
0.0
  0
LINE
  5
5B
330
17
100
AcDbEntity
  8
hidden
100
AcDbLine
 10
-20.126371416262337
 20
134.24378269419122
 30
0.0
 11
-19.46642902601116
 21
141.58820412338457
 31
0.0
  0
LINE
  5
5C
330
17
100
AcDbEntity
  8
hidden
100
AcDbLine
 10
-19.344575880319418
 20
142.9442934845974
 30
0.0
 11
-124.09680449553866
 21
58.00756254969288
 31
0.0
  0
LINE
  5
5D
330
17
100
AcDbEntity
  8
hidden
100
AcDbLine
 10
-128.9026527414642
 20
46.381050897181716
 30
0.0
 11
-124.09680449553865
 21
58.0075625496929
 31
0.0
  0
LINE
  5
5E
330
17
100
AcDbEntity
  8
hidden
100
AcDbLine
 10
-20.126371416262337
 20
134.24378269419122
 30
0.0
 11
-128.90265274146418
 21
46.38105089718174
 31
0.0
  0
LINE
  5
5F
330
17
100
AcDbEntity
  8
hidden
100
AcDbLine
 10
-142.70080160066513
 20
280.19140264174393
 30
0.0
 11
-20.126371416262316
 21
134.24378269419122
 31
0.0
  0
LINE
  5
60
330
17
100
AcDbEntity
  8
hidden
100
AcDbLine
 10
-253.22854750321972
 20
180.0073390982345
 30
0.0
 11
-128.9026527414642
 21
46.381050897181694
 31
0.0
  0
LINE
  5
61
330
17
100
AcDbEntity
  8
hidden
100
AcDbLine
 10
-243.1865981692265
 20
187.07479236915935
 30
0.0
 11
-124.09680449553868
 21
58.00756254969289
 31
0.0
  0
LINE
  5
62
330
17
100
AcDbEntity
  8
hidden
100
AcDbLine
 10
-153.3025271478296
 20
60.37518286430737
 30
0.0
 11
-149.7226921853634
 21
67.33047097065075
 31
0.0
  0
LINE
  5
63
330
17
100
AcDbEntity
  8
hidden
100
AcDbLine
 10
-149.7226921853634
 20
67.33047097065074
 30
0.0
 11
-155.422213996587
 21
62.63979335728465
 31
0.0
  0
LINE
  5
64
330
17
100
AcDbEntity
  8
hidden
100
AcDbLine
 10
166.0443892383048
 20
-271.8203155602474
 30
0.0
 11
153.91307918665018
 21
-279.20073011596895
 31
0.0
  0
LINE
  5
65
330
17
100
AcDbEntity
  8
hidden
100
AcDbLine
 10
157.8727259122401
 20
-295.59954326417613
 30
0.0
 11
153.91307918665018
 21
-279.200730115969
 31
0.0
  0
LINE
  5
66
330
17
100
AcDbEntity
  8
hidden
100
AcDbLine
 10
-149.7226921853634
 20
67.33047097065074
 30
0.0
 11
161.89508368133417
 21
-267.3637387794795
 31
0.0
  0
LINE
  5
67
330
17
100
AcDbEntity
  8
hidden
100
AcDbLine
 10
-162.619213933652
 20
56.71669882298368
 30
0.0
 11
153.9130791866502
 21
-279.200730115969
 31
0.0
  0
LINE
  5
68
330
17
100
AcDbEntity
  8
hidden
100
AcDbLine
 10
275.147247134481
 20
-171.95486298381417
 30
0.0
 11
261.80379648980414
 21
-180.22679674987037
 31
0.0
  0
LINE
  5
69
330
17
100
AcDbEntity
  8
hidden
100
AcDbLine
 10
268.9441393161058
 20
-194.91241449526316
 30
0.0
 11
261.80379648980414
 21
-180.22679674987037
 31
0.0
  0
LINE
  5
6A
330
17
100
AcDbEntity
  8
hidden
100
AcDbLine
 10
-27.2745043948947
 20
168.10470998399174
 30
0.0
 11
261.80379648980414
 21
-180.22679674987032
 31
0.0
  0
LINE
  5
6B
330
17
100
AcDbEntity
  8
hidden
100
AcDbLine
 10
109.93786628214242
 20
-106.71138496919995
 30
0.0
 11
103.5832738255261
 21
-79.83712232436368
 31
0.0
  0
LINE
  5
6C
330
17
100
AcDbEntity
  8
hidden
100
AcDbLine
 10
103.58327382552609
 20
-79.83712232436366
 30
0.0
 11
89.48441297821545
 21
-89.60285868721515
 31
0.0
  0
LINE
  5
6D
330
17
100
AcDbEntity
  8
hidden
100
AcDbLine
 10
94.943977876424
 20
-116.92561257038248
 30
0.0
 11
89.48441297821545
 21
-89.60285868721516
 31
0.0
  0
LINE
  5
6E
330
17
100
AcDbEntity
  8
hidden
100
AcDbLine
 10
109.93786628214242
 20
-106.71138496919995
 30
0.0
 11
94.943977876424
 21
-116.9256125703825
 31
0.0
  0
LINE
  5
6F
330
17
100
AcDbEntity
  8
hidden
100
AcDbLine
 10
218.3942359347508
 20
-230.14544183821437
 30
0.0
 11
206.561677405745
 21
-198.2674900485253
 31
0.0
  0
LINE
  5
70
330
17
100
AcDbEntity
  8
hidden
100
AcDbLine
 10
206.561677405745
 20
-198.26749004852533
 30
0.0
 11
192.84306887217986
 21
-206.85050377158086
 31
0.0
  0
LINE
  5
71
330
17
100
AcDbEntity
  8
hidden
100
AcDbLine
 10
203.83321012385287
 20
-239.0543600418216
 30
0.0
 11
192.84306887217988
 21
-206.85050377158086
 31
0.0
  0
LINE
  5
72
330
17
100
AcDbEntity
  8
hidden
100
AcDbLine
 10
218.3942359347508
 20
-230.14544183821437
 30
0.0
 11
203.83321012385284
 21
-239.05436004182158
 31
0.0
  0
LINE
  5
73
330
17
100
AcDbEntity
  8
hidden
100
AcDbLine
 10
109.93786628214242
 20
-106.71138496919995
 30
0.0
 11
218.3942359347508
 21
-230.14544183821437
 31
0.0
  0
LINE
  5
74
330
17
100
AcDbEntity
  8
hidden
100
AcDbLine
 10
103.58327382552609
 20
-79.83712232436366
 30
0.0
 11
206.561677405745
 21
-198.2674900485253
 31
0.0
  0
LINE
  5
75
330
17
100
AcDbEntity
  8
hidden
100
AcDbLine
 10
94.943977876424
 20
-116.92561257038248
 30
0.0
 11
203.8332101238528
 21
-239.05436004182155
 31
0.0
  0
LINE
  5
76
330
17
100
AcDbEntity
  8
hidden
100
AcDbLine
 10
89.48441297821545
 20
-89.60285868721515
 30
0.0
 11
192.84306887217986
 21
-206.85050377158086
 31
0.0
  0
LINE
  5
77
330
17
100
AcDbEntity
  8
hidden
100
AcDbLine
 10
126.75315497884105
 20
-128.66763227660718
 30
0.0
 11
122.76794493708056
 21
-113.35929063320602
 31
0.0
  0
LINE
  5
78
330
17
100
AcDbEntity
  8
hidden
100
AcDbLine
 10
122.76794493708056
 20
-113.35929063320604
 30
0.0
 11
45.17484647817342
 21
-165.7832073127357
 31
0.0
  0
LINE
  5
79
330
17
100
AcDbEntity
  8
hidden
100
AcDbLine
 10
46.22562260312899
 20
-177.97181021456547
 30
0.0
 11
45.17484647817339
 21
-165.78320731273567
 31
0.0
  0
LINE
  5
7A
330
17
100
AcDbEntity
  8
hidden
100
AcDbLine
 10
126.75315497884105
 20
-128.66763227660718
 30
0.0
 11
48.88173471304604
 21
-180.77020298029757
 31
0.0
  0
LINE
  5
7B
330
17
100
AcDbEntity
  8
hidden
100
AcDbLine
 10
202.4891787741542
 20
-214.7309471222523
 30
0.0
 11
196.41142497387582
 21
-197.5334737714409
 31
0.0
  0
LINE
  5
7C
330
17
100
AcDbEntity
  8
hidden
100
AcDbLine
 10
196.41142497387582
 20
-197.53347377144095
 30
0.0
 11
120.25363448464847
 21
-245.37263287707952
 31
0.0
  0
LINE
  5
7D
330
17
100
AcDbEntity
  8
hidden
100
AcDbLine
 10
123.87129990891458
 20
-263.531123113479
 30
0.0
 11
120.2536344846485
 21
-245.37263287707944
 31
0.0
  0
LINE
  5
7E
330
17
100
AcDbEntity
  8
hidden
100
AcDbLine
 10
202.4891787741542
 20
-214.7309471222523
 30
0.0
 11
126.11366022242213
 21
-262.1392313515239
 31
0.0
  0
LINE
  5
7F
330
17
100
AcDbEntity
  8
hidden
100
AcDbLine
 10
126.75315497884105
 20
-128.66763227660718
 30
0.0
 11
202.4891787741542
 21
-214.73094712225236
 31
0.0
  0
LINE
  5
80
330
17
100
AcDbEntity
  8
hidden
100
AcDbLine
 10
122.76794493708056
 20
-113.35929063320604
 30
0.0
 11
196.41142497387582
 21
-197.53347377144092
 31
0.0
  0
LINE
  5
81
330
17
100
AcDbEntity
  8
hidden
100
AcDbLine
 10
45.17484647817339
 20
-165.78320731273567
 30
0.0
 11
120.25363448464849
 21
-245.3726328770795
 31
0.0
  0
ENDSEC
  0
SECTION
  2
OBJECTS
  0
DICTIONARY
  5
A
330
0
100
AcDbDictionary
281
1
  3
ACAD_COLOR
350
B
  3
ACAD_GROUP
350
C
  3
ACAD_LAYOUT
350
D
  3
ACAD_MATERIAL
350
E
  3
ACAD_MLEADERSTYLE
350
F
  3
ACAD_MLINESTYLE
350
10
  3
ACAD_PLOTSETTINGS
350
11
  3
ACAD_PLOTSTYLENAME
350
12
  3
ACAD_SCALELIST
350
14
  3
ACAD_TABLESTYLE
350
15
  3
ACAD_VISUALSTYLE
350
16
  3
EZDXF_META
350
2D
  0
DICTIONARY
  5
B
330
A
100
AcDbDictionary
281
1
  0
DICTIONARY
  5
C
330
A
100
AcDbDictionary
281
1
  0
DICTIONARY
  5
D
330
A
100
AcDbDictionary
281
1
  3
Model
350
1A
  3
Layout1
350
1E
  0
DICTIONARY
  5
E
330
A
100
AcDbDictionary
281
1
  3
ByBlock
350
1F
  3
ByLayer
350
20
  3
Global
350
21
  0
DICTIONARY
  5
F
330
A
100
AcDbDictionary
281
1
  3
Standard
350
2C
  0
DICTIONARY
  5
10
330
A
100
AcDbDictionary
281
1
  3
Standard
350
22
  0
DICTIONARY
  5
11
330
A
100
AcDbDictionary
281
1
  0
ACDBDICTIONARYWDFLT
  5
12
330
A
100
AcDbDictionary
281
1
  3
Normal
350
13
100
AcDbDictionaryWithDefault
340
13
  0
ACDBPLACEHOLDER
  5
13
330
12
  0
DICTIONARY
  5
14
330
A
100
AcDbDictionary
281
1
  0
DICTIONARY
  5
15
330
A
100
AcDbDictionary
281
1
  0
DICTIONARY
  5
16
330
A
100
AcDbDictionary
281
1
  0
LAYOUT
  5
1A
330
D
100
AcDbPlotSettings
  1

  4
A3
  6

 40
7.5
 41
20.0
 42
7.5
 43
20.0
 44
420.0
 45
297.0
 46
0.0
 47
0.0
 48
0.0
 49
0.0
140
0.0
141
0.0
142
1.0
143
1.0
 70
1024
 72
1
 73
0
 74
5
  7

 75
16
 76
0
 77
2
 78
300
147
1.0
148
0.0
149
0.0
100
AcDbLayout
  1
Model
 70
1
 71
0
 10
0.0
 20
0.0
 11
420.0
 21
297.0
 12
0.0
 22
0.0
 32
0.0
 14
1e+20
 24
1e+20
 34
1e+20
 15
-1e+20
 25
-1e+20
 35
-1e+20
146
0.0
 13
0.0
 23
0.0
 33
0.0
 16
1.0
 26
0.0
 36
0.0
 17
0.0
 27
1.0
 37
0.0
 76
1
330
17
  0
LAYOUT
  5
1E
330
D
100
AcDbPlotSettings
  1

  4
A3
  6

 40
7.5
 41
20.0
 42
7.5
 43
20.0
 44
420.0
 45
297.0
 46
0.0
 47
0.0
 48
0.0
 49
0.0
140
0.0
141
0.0
142
1.0
143
1.0
 70
0
 72
1
 73
0
 74
5
  7

 75
16
 76
0
 77
2
 78
300
147
1.0
148
0.0
149
0.0
100
AcDbLayout
  1
Layout1
 70
1
 71
1
 10
0.0
 20
0.0
 11
420.0
 21
297.0
 12
0.0
 22
0.0
 32
0.0
 14
1e+20
 24
1e+20
 34
1e+20
 15
-1e+20
 25
-1e+20
 35
-1e+20
146
0.0
 13
0.0
 23
0.0
 33
0.0
 16
1.0
 26
0.0
 36
0.0
 17
0.0
 27
1.0
 37
0.0
 76
1
330
1B
  0
MATERIAL
  5
1F
102
{ACAD_REACTORS
330
E
102
}
330
E
100
AcDbMaterial
  1
ByBlock
  2

 70
0
 40
1.0
 71
1
 41
1.0
 91
-1023410177
 42
1.0
 72
1
  3

 73
1
 74
1
 75
1
 44
0.5
 73
0
 45
1.0
 46
1.0
 77
1
  4

 78
1
 79
1
170
1
 48
1.0
171
1
  6

172
1
173
1
174
1
140
1.0
141
1.0
175
1
  7

176
1
177
1
178
1
143
1.0
179
1
  8

270
1
271
1
272
1
145
1.0
146
1.0
273
1
  9

274
1
275
1
276
1
 42
1.0
 72
1
  3

 73
1
 74
1
 75
1
 94
63
  0
MATERIAL
  5
20
102
{ACAD_REACTORS
330
E
102
}
330
E
100
AcDbMaterial
  1
ByLayer
  2

 70
0
 40
1.0
 71
1
 41
1.0
 91
-1023410177
 42
1.0
 72
1
  3

 73
1
 74
1
 75
1
 44
0.5
 73
0
 45
1.0
 46
1.0
 77
1
  4

 78
1
 79
1
170
1
 48
1.0
171
1
  6

172
1
173
1
174
1
140
1.0
141
1.0
175
1
  7

176
1
177
1
178
1
143
1.0
179
1
  8

270
1
271
1
272
1
145
1.0
146
1.0
273
1
  9

274
1
275
1
276
1
 42
1.0
 72
1
  3

 73
1
 74
1
 75
1
 94
63
  0
MATERIAL
  5
21
102
{ACAD_REACTORS
330
E
102
}
330
E
100
AcDbMaterial
  1
Global
  2

 70
0
 40
1.0
 71
1
 41
1.0
 91
-1023410177
 42
1.0
 72
1
  3

 73
1
 74
1
 75
1
 44
0.5
 73
0
 45
1.0
 46
1.0
 77
1
  4

 78
1
 79
1
170
1
 48
1.0
171
1
  6

172
1
173
1
174
1
140
1.0
141
1.0
175
1
  7

176
1
177
1
178
1
143
1.0
179
1
  8

270
1
271
1
272
1
145
1.0
146
1.0
273
1
  9

274
1
275
1
276
1
 42
1.0
 72
1
  3

 73
1
 74
1
 75
1
 94
63
  0
MLINESTYLE
  5
22
102
{ACAD_REACTORS
330
10
102
}
330
10
100
AcDbMlineStyle
  2
Standard
 70
0
  3

 62
256
 51
90.0
 52
90.0
 71
2
 49
0.5
 62
256
  6
BYLAYER
 49
-0.5
 62
256
  6
BYLAYER
  0
MLEADERSTYLE
  5
2C
102
{ACAD_REACTORS
330
F
102
}
330
F
100
AcDbMLeaderStyle
179
2
170
2
171
1
172
0
 90
2
 40
0.0
 41
0.0
173
1
 91
-1056964608
 92
-2
290
1
 42
2.0
291
1
 43
8.0
  3
Standard
 44
4.0
300

342
29
174
1
175
1
176
0
178
1
 93
-1056964608
 45
4.0
292
0
297
0
 46
4.0
 94
-1056964608
 47
1.0
 49
1.0
140
1.0
294
1
141
0.0
177
0
142
1.0
295
0
296
0
143
3.75
271
0
272
9
273
9
  0
DICTIONARY
  5
2D
330
A
100
AcDbDictionary
280
1
281
1
  3
CREATED_BY_EZDXF
350
2E
  3
WRITTEN_BY_EZDXF
350
85
  0
DICTIONARYVAR
  5
2E
330
2D
100
DictionaryVariables
280
0
  1
1.4.3 @ 2026-04-03T09:48:45.462167+00:00
  0
DICTIONARYVAR
  5
85
330
2D
100
DictionaryVariables
280
0
  1
1.4.3 @ 2026-04-03T09:48:45.481442+00:00
  0
ENDSEC
  0
EOF
