<?xml version='1.0' encoding='utf-8'?>
<svg width="161.30984mm" height="494.484807mm" viewBox="-80.65492 -283.321026 161.30984 494.484807" version="1.1" xmlns="http://www.w3.org/2000/svg">
  <g transform="scale(1,-1)" stroke-linecap="round">
    <g fill="none" stroke="rgb(0,0,0)" stroke-width="0.09" id="visible">
      <line x1="80.60992" y1="258.056529" x2="75.229052" y2="283.276026" />
      <line x1="75.229052" y1="283.276026" x2="-75.229052" y2="283.276026" />
      <line x1="-80.60992" y1="258.056529" x2="-75.229052" y2="283.276026" />
      <line x1="80.60992" y1="258.056529" x2="-80.60992" y2="258.056529" />
      <line x1="65.171157" y1="64.747992" x2="-65.171157" y2="64.747992" />
      <line x1="80.60992" y1="258.056529" x2="65.171157" y2="64.747992" />
      <line x1="-80.60992" y1="258.056529" x2="-65.171157" y2="64.747992" />
      <line x1="75.232525" y1="56.15689" x2="68.57942" y2="107.422801" />
      <line x1="-75.232525" y1="56.15689" x2="-68.57942" y2="107.422801" />
      <line x1="75.232525" y1="56.15689" x2="-75.232525" y2="56.15689" />
      <line x1="66.793878" y1="-34.40898" x2="-66.793878" y2="-34.40898" />
      <line x1="75.232525" y1="56.15689" x2="66.793878" y2="-34.40898" />
      <line x1="-75.232525" y1="56.15689" x2="-66.793878" y2="-34.40898" />
      <line x1="51.434533" y1="-107.248093" x2="47.529965" y2="-50.83582" />
      <line x1="47.529965" y1="-50.83582" x2="-47.529965" y2="-50.83582" />
      <line x1="-51.434533" y1="-107.248093" x2="-47.529965" y2="-50.83582" />
      <line x1="51.434533" y1="-107.248093" x2="-51.434533" y2="-107.248093" />
      <line x1="50.66865" y1="-116.837709" x2="-50.66865" y2="-116.837709" />
      <line x1="51.434533" y1="-107.248093" x2="50.66865" y2="-116.837709" />
      <line x1="-51.434533" y1="-107.248093" x2="-50.66865" y2="-116.837709" />
      <line x1="44.566038" y1="-142.520174" x2="43.441619" y2="-122.881189" />
      <line x1="43.441619" y1="-122.881189" x2="-43.441619" y2="-122.881189" />
      <line x1="-44.566038" y1="-142.520174" x2="-43.441619" y2="-122.881189" />
      <line x1="44.566038" y1="-142.520174" x2="-44.566038" y2="-142.520174" />
      <line x1="39.543905" y1="-211.118781" x2="-39.543905" y2="-211.118781" />
      <line x1="44.566038" y1="-142.520174" x2="39.543905" y2="-211.118781" />
      <line x1="-44.566038" y1="-142.520174" x2="-39.543905" y2="-211.118781" />
    </g>
    <g fill="none" stroke="rgb(0,0,0)" stroke-width="0.09" id="hidden" stroke-dasharray="0.5715 0.28575">
      <line x1="65.171157" y1="64.747992" x2="61.608498" y2="95.968829" />
      <line x1="61.608498" y1="95.968829" x2="-61.608498" y2="95.968829" />
      <line x1="-65.171157" y1="64.747992" x2="-61.608498" y2="95.968829" />
      <line x1="75.229052" y1="283.276026" x2="61.608498" y2="95.968829" />
      <line x1="-75.229052" y1="283.276026" x2="-61.608498" y2="95.968829" />
      <line x1="68.57942" y1="107.422801" x2="64.210435" y2="141.088287" />
      <line x1="64.210435" y1="141.088287" x2="-64.210435" y2="141.088287" />
      <line x1="-68.57942" y1="107.422801" x2="-64.210435" y2="141.088287" />
      <line x1="66.793878" y1="-34.40898" x2="57.960594" y2="54.232784" />
      <line x1="57.960594" y1="54.232784" x2="-57.960594" y2="54.232784" />
      <line x1="-66.793878" y1="-34.40898" x2="-57.960594" y2="54.232784" />
      <line x1="64.210435" y1="141.088287" x2="57.960594" y2="54.232784" />
      <line x1="-64.210435" y1="141.088287" x2="-57.960594" y2="54.232784" />
      <line x1="50.66865" y1="-116.837709" x2="46.875209" y2="-60.4846" />
      <line x1="46.875209" y1="-60.4846" x2="-46.875209" y2="-60.4846" />
      <line x1="-50.66865" y1="-116.837709" x2="-46.875209" y2="-60.4846" />
      <line x1="47.529965" y1="-50.83582" x2="46.875209" y2="-60.4846" />
      <line x1="-47.529965" y1="-50.83582" x2="-46.875209" y2="-60.4846" />
      <line x1="39.543905" y1="-211.118781" x2="38.656104" y2="-192.103111" />
      <line x1="38.656104" y1="-192.103111" x2="-38.656104" y2="-192.103111" />
      <line x1="-39.543905" y1="-211.118781" x2="-38.656104" y2="-192.103111" />
      <line x1="43.441619" y1="-122.881189" x2="38.656104" y2="-192.103111" />
      <line x1="-43.441619" y1="-122.881189" x2="-38.656104" y2="-192.103111" />
    </g>
  </g>
</svg>