<svg xmlns="http://www.w3.org/2000/svg" width="3350" height="820" viewBox="0 0 3350 820">
<defs>
<marker id="arrow-gray" viewBox="0 0 10 10" refX="9" refY="5" markerWidth="8" markerHeight="8" orient="auto-start-reverse">
<path d="M 0 0 L 10 5 L 0 10 z" fill="#3c4450" />
</marker>
<marker id="arrow-orange" viewBox="0 0 10 10" refX="9" refY="5" markerWidth="8" markerHeight="8" orient="auto-start-reverse">
<path d="M 0 0 L 10 5 L 0 10 z" fill="#d97706" />
</marker>
</defs>
<rect x="0" y="0" width="100%" height="100%" fill="#f9fafc" />
<text x="50%" y="98" text-anchor="middle" font-family="DejaVu Sans, Arial, sans-serif" font-size="40" font-weight="700" fill="#181c22">Agent Workflow Graph</text>
<text x="50%" y="132" text-anchor="middle" font-family="DejaVu Sans, Arial, sans-serif" font-size="22" fill="#5a6270">Linear path with review loops back to the previous node</text>
<rect x="757.5" y="170" rx="16" ry="16" width="180" height="34" fill="#ecf4ff" stroke="#2563eb" stroke-width="2"/>
<text x="847.5" y="193" text-anchor="middle" font-family="DejaVu Sans, Arial, sans-serif" font-size="20" fill="#181c22">Benchmark</text>
<rect x="2317.5" y="170" rx="16" ry="16" width="180" height="34" fill="#ecfaef" stroke="#16a34a" stroke-width="2"/>
<text x="2407.5" y="193" text-anchor="middle" font-family="DejaVu Sans, Arial, sans-serif" font-size="20" fill="#181c22">Engineer</text>
<line x1="438" y1="322.5" x2="477" y2="322.5" stroke="#3c4450" stroke-width="5" marker-end="url(#arrow-gray)"/>
<line x1="828" y1="322.5" x2="867" y2="322.5" stroke="#3c4450" stroke-width="5" marker-end="url(#arrow-gray)"/>
<line x1="1218" y1="322.5" x2="1257" y2="322.5" stroke="#3c4450" stroke-width="5" marker-end="url(#arrow-gray)"/>
<line x1="1608" y1="322.5" x2="1647" y2="322.5" stroke="#3c4450" stroke-width="5" marker-end="url(#arrow-gray)"/>
<line x1="1998" y1="322.5" x2="2037" y2="322.5" stroke="#3c4450" stroke-width="5" marker-end="url(#arrow-gray)"/>
<line x1="2388" y1="322.5" x2="2427" y2="322.5" stroke="#3c4450" stroke-width="5" marker-end="url(#arrow-gray)"/>
<line x1="2778" y1="322.5" x2="2817" y2="322.5" stroke="#3c4450" stroke-width="5" marker-end="url(#arrow-gray)"/>
<path d="M 511 247 C 511 145, 404 145, 404 247" fill="none" stroke="#d97706" stroke-width="4" stroke-dasharray="9 7" marker-end="url(#arrow-orange)"/>
<path d="M 1291 247 C 1291 145, 1184 145, 1184 247" fill="none" stroke="#d97706" stroke-width="4" stroke-dasharray="9 7" marker-end="url(#arrow-orange)"/>
<path d="M 2071 247 C 2071 145, 1964 145, 1964 247" fill="none" stroke="#d97706" stroke-width="4" stroke-dasharray="9 7" marker-end="url(#arrow-orange)"/>
<path d="M 2851 247 C 2851 145, 2744 145, 2744 247" fill="none" stroke="#d97706" stroke-width="4" stroke-dasharray="9 7" marker-end="url(#arrow-orange)"/>
<rect x="95" y="250" width="335" height="145" rx="18" ry="18" fill="#e8f1ff" stroke="#2563eb" stroke-width="4"/>
<rect x="101" y="256" width="323" height="133" rx="14" ry="14" fill="none" stroke="rgba(255,255,255,0.7)" stroke-width="1"/>
<text x="262.5" y="308" text-anchor="middle" font-family="DejaVu Sans, Arial, sans-serif" font-size="22" fill="#121822">Benchmark Planner</text>
<text x="262.5" y="350" text-anchor="middle" font-family="DejaVu Sans Mono, monospace" font-size="18" fill="#424b59">benchmark_planner</text>
<rect x="485" y="250" width="335" height="145" rx="18" ry="18" fill="#fff3d6" stroke="#d97706" stroke-width="4"/>
<rect x="491" y="256" width="323" height="133" rx="14" ry="14" fill="none" stroke="rgba(255,255,255,0.7)" stroke-width="1"/>
<text x="652.5" y="308" text-anchor="middle" font-family="DejaVu Sans, Arial, sans-serif" font-size="22" fill="#121822">Benchmark Plan Reviewer</text>
<text x="652.5" y="350" text-anchor="middle" font-family="DejaVu Sans Mono, monospace" font-size="18" fill="#424b59">benchmark_plan_reviewer</text>
<rect x="875" y="250" width="335" height="145" rx="18" ry="18" fill="#e8f1ff" stroke="#2563eb" stroke-width="4"/>
<rect x="881" y="256" width="323" height="133" rx="14" ry="14" fill="none" stroke="rgba(255,255,255,0.7)" stroke-width="1"/>
<text x="1042.5" y="308" text-anchor="middle" font-family="DejaVu Sans, Arial, sans-serif" font-size="22" fill="#121822">Benchmark Coder</text>
<text x="1042.5" y="350" text-anchor="middle" font-family="DejaVu Sans Mono, monospace" font-size="18" fill="#424b59">benchmark_coder</text>
<rect x="1265" y="250" width="335" height="145" rx="18" ry="18" fill="#fff3d6" stroke="#d97706" stroke-width="4"/>
<rect x="1271" y="256" width="323" height="133" rx="14" ry="14" fill="none" stroke="rgba(255,255,255,0.7)" stroke-width="1"/>
<text x="1432.5" y="308" text-anchor="middle" font-family="DejaVu Sans, Arial, sans-serif" font-size="22" fill="#121822">Benchmark Reviewer</text>
<text x="1432.5" y="350" text-anchor="middle" font-family="DejaVu Sans Mono, monospace" font-size="18" fill="#424b59">benchmark_reviewer</text>
<rect x="1655" y="250" width="335" height="145" rx="18" ry="18" fill="#eaf8ef" stroke="#16a34a" stroke-width="4"/>
<rect x="1661" y="256" width="323" height="133" rx="14" ry="14" fill="none" stroke="rgba(255,255,255,0.7)" stroke-width="1"/>
<text x="1822.5" y="308" text-anchor="middle" font-family="DejaVu Sans, Arial, sans-serif" font-size="22" fill="#121822">Engineering Planner</text>
<text x="1822.5" y="350" text-anchor="middle" font-family="DejaVu Sans Mono, monospace" font-size="18" fill="#424b59">engineer_planner</text>
<rect x="2045" y="250" width="335" height="145" rx="18" ry="18" fill="#fff3d6" stroke="#d97706" stroke-width="4"/>
<rect x="2051" y="256" width="323" height="133" rx="14" ry="14" fill="none" stroke="rgba(255,255,255,0.7)" stroke-width="1"/>
<text x="2212.5" y="308" text-anchor="middle" font-family="DejaVu Sans, Arial, sans-serif" font-size="22" fill="#121822">Engineering Plan Reviewer</text>
<text x="2212.5" y="350" text-anchor="middle" font-family="DejaVu Sans Mono, monospace" font-size="18" fill="#424b59">engineer_plan_reviewer</text>
<rect x="2435" y="250" width="335" height="145" rx="18" ry="18" fill="#eaf8ef" stroke="#16a34a" stroke-width="4"/>
<rect x="2441" y="256" width="323" height="133" rx="14" ry="14" fill="none" stroke="rgba(255,255,255,0.7)" stroke-width="1"/>
<text x="2602.5" y="308" text-anchor="middle" font-family="DejaVu Sans, Arial, sans-serif" font-size="22" fill="#121822">Engineering Coder</text>
<text x="2602.5" y="350" text-anchor="middle" font-family="DejaVu Sans Mono, monospace" font-size="18" fill="#424b59">engineer_coder</text>
<rect x="2825" y="250" width="335" height="145" rx="18" ry="18" fill="#fff3d6" stroke="#d97706" stroke-width="4"/>
<rect x="2831" y="256" width="323" height="133" rx="14" ry="14" fill="none" stroke="rgba(255,255,255,0.7)" stroke-width="1"/>
<text x="2992.5" y="308" text-anchor="middle" font-family="DejaVu Sans, Arial, sans-serif" font-size="22" fill="#121822">Engineering Execution Reviewer</text>
<text x="2992.5" y="350" text-anchor="middle" font-family="DejaVu Sans Mono, monospace" font-size="18" fill="#424b59">engineer_execution_reviewer</text>
</svg>