<?xml version='1.0' encoding='utf-8'?>
<svg width="489.292688mm" height="162.156224mm" viewBox="-208.596115 -81.078112 489.292688 162.156224" version="1.1" xmlns="http://www.w3.org/2000/svg">
  <g transform="scale(1,-1)" stroke-linecap="round">
    <g fill="none" stroke="rgb(0,0,0)" stroke-width="0.09" id="visible">
      <line x1="254.166553" y1="-81.033112" x2="280.651573" y2="-75.662762" />
      <line x1="280.651573" y1="-75.662762" x2="280.651573" y2="75.662762" />
      <line x1="254.166553" y1="81.033112" x2="280.651573" y2="75.662762" />
      <line x1="254.166553" y1="-81.033112" x2="254.166553" y2="81.033112" />
      <line x1="62.464465" y1="-65.259447" x2="62.464465" y2="65.259447" />
      <line x1="254.166553" y1="-81.033112" x2="62.464465" y2="-65.259447" />
      <line x1="254.166553" y1="81.033112" x2="62.464465" y2="65.259447" />
      <line x1="53.979231" y1="-75.321475" x2="105.746906" y2="-68.820821" />
      <line x1="53.979231" y1="75.321475" x2="105.746906" y2="68.820821" />
      <line x1="53.979231" y1="-75.321475" x2="53.979231" y2="75.321475" />
      <line x1="-35.293166" y1="-66.751693" x2="-35.293166" y2="66.751693" />
      <line x1="53.979231" y1="-75.321475" x2="-35.293166" y2="-66.751693" />
      <line x1="53.979231" y1="75.321475" x2="-35.293166" y2="66.751693" />
      <line x1="-106.857619" y1="-51.327258" x2="-49.910523" y2="-47.484604" />
      <line x1="-49.910523" y1="-47.484604" x2="-49.910523" y2="47.484604" />
      <line x1="-106.857619" y1="51.327258" x2="-49.910523" y2="47.484604" />
      <line x1="-106.857619" y1="-51.327258" x2="-106.857619" y2="51.327258" />
      <line x1="-116.26391" y1="-50.553288" x2="-116.26391" y2="50.553288" />
      <line x1="-106.857619" y1="-51.327258" x2="-116.26391" y2="-50.553288" />
      <line x1="-106.857619" y1="51.327258" x2="-116.26391" y2="50.553288" />
      <line x1="-141.437664" y1="-44.441776" x2="-121.678967" y2="-43.337561" />
      <line x1="-121.678967" y1="-43.337561" x2="-121.678967" y2="43.337561" />
      <line x1="-141.437664" y1="44.441776" x2="-121.678967" y2="43.337561" />
      <line x1="-141.437664" y1="-44.441776" x2="-141.437664" y2="44.441776" />
      <line x1="-208.551115" y1="-39.379722" x2="-208.551115" y2="39.379722" />
      <line x1="-141.437664" y1="-44.441776" x2="-208.551115" y2="-39.379722" />
      <line x1="-141.437664" y1="44.441776" x2="-208.551115" y2="39.379722" />
    </g>
    <g fill="none" stroke="rgb(0,0,0)" stroke-width="0.09" id="hidden" stroke-dasharray="0.5715 0.28575">
      <line x1="62.464465" y1="-65.259447" x2="94.438169" y2="-61.730839" />
      <line x1="94.438169" y1="-61.730839" x2="94.438169" y2="61.730839" />
      <line x1="62.464465" y1="65.259447" x2="94.438169" y2="61.730839" />
      <line x1="280.651573" y1="-75.662762" x2="94.438169" y2="-61.730839" />
      <line x1="280.651573" y1="75.662762" x2="94.438169" y2="61.730839" />
      <line x1="105.746906" y1="-68.820821" x2="140.97859" y2="-64.396651" />
      <line x1="140.97859" y1="-64.396651" x2="140.97859" y2="64.396651" />
      <line x1="105.746906" y1="68.820821" x2="140.97859" y2="64.396651" />
      <line x1="-35.293166" y1="-66.751693" x2="54.769085" y2="-58.027444" />
      <line x1="54.769085" y1="-58.027444" x2="54.769085" y2="58.027444" />
      <line x1="-35.293166" y1="66.751693" x2="54.769085" y2="58.027444" />
      <line x1="140.97859" y1="-64.396651" x2="54.769085" y2="-58.027444" />
      <line x1="140.97859" y1="64.396651" x2="54.769085" y2="58.027444" />
      <line x1="-116.26391" y1="-50.553288" x2="-59.417762" y2="-46.821435" />
      <line x1="-59.417762" y1="-46.821435" x2="-59.417762" y2="46.821435" />
      <line x1="-116.26391" y1="50.553288" x2="-59.417762" y2="46.821435" />
      <line x1="-49.910523" y1="-47.484604" x2="-59.417762" y2="-46.821435" />
      <line x1="-49.910523" y1="47.484604" x2="-59.417762" y2="46.821435" />
      <line x1="-208.551115" y1="-39.379722" x2="-189.511524" y2="-38.510267" />
      <line x1="-189.511524" y1="-38.510267" x2="-189.511524" y2="38.510267" />
      <line x1="-208.551115" y1="39.379722" x2="-189.511524" y2="38.510267" />
      <line x1="-121.678967" y1="-43.337561" x2="-189.511524" y2="-38.510267" />
      <line x1="-121.678967" y1="43.337561" x2="-189.511524" y2="38.510267" />
    </g>
  </g>
</svg>