  0
SECTION
  2
HEADER
  9
$ACADVER
  1
AC1027
  9
$ACADMAINTVER
 70
105
  9
$DWGCODEPAGE
  3
ANSI_1252
  9
$LASTSAVEDBY
  1
ezdxf
  9
$REQUIREDVERSIONS
160
0
  9
$INSBASE
 10
0.0
 20
0.0
 30
0.0
  9
$EXTMIN
 10
1e+20
 20
1e+20
 30
1e+20
  9
$EXTMAX
 10
-1e+20
 20
-1e+20
 30
-1e+20
  9
$LIMMIN
 10
0.0
 20
0.0
  9
$LIMMAX
 10
420.0
 20
297.0
  9
$ORTHOMODE
 70
0
  9
$REGENMODE
 70
1
  9
$FILLMODE
 70
1
  9
$QTEXTMODE
 70
0
  9
$MIRRTEXT
 70
1
  9
$LTSCALE
 40
1.0
  9
$ATTMODE
 70
1
  9
$TEXTSIZE
 40
2.5
  9
$TRACEWID
 40
1.0
  9
$TEXTSTYLE
  7
Standard
  9
$CLAYER
  8
0
  9
$CELTYPE
  6
ByLayer
  9
$CECOLOR
 62
256
  9
$CELTSCALE
 40
1.0
  9
$DISPSILH
 70
0
  9
$DIMSCALE
 40
1.0
  9
$DIMASZ
 40
2.5
  9
$DIMEXO
 40
0.625
  9
$DIMDLI
 40
3.75
  9
$DIMRND
 40
0.0
  9
$DIMDLE
 40
0.0
  9
$DIMEXE
 40
1.25
  9
$DIMTP
 40
0.0
  9
$DIMTM
 40
0.0
  9
$DIMTXT
 40
2.5
  9
$DIMCEN
 40
2.5
  9
$DIMTSZ
 40
0.0
  9
$DIMTOL
 70
0
  9
$DIMLIM
 70
0
  9
$DIMTIH
 70
0
  9
$DIMTOH
 70
0
  9
$DIMSE1
 70
0
  9
$DIMSE2
 70
0
  9
$DIMTAD
 70
1
  9
$DIMZIN
 70
8
  9
$DIMBLK
  1

  9
$DIMASO
 70
1
  9
$DIMSHO
 70
1
  9
$DIMPOST
  1

  9
$DIMAPOST
  1

  9
$DIMALT
 70
0
  9
$DIMALTD
 70
3
  9
$DIMALTF
 40
0.03937007874
  9
$DIMLFAC
 40
1.0
  9
$DIMTOFL
 70
1
  9
$DIMTVP
 40
0.0
  9
$DIMTIX
 70
0
  9
$DIMSOXD
 70
0
  9
$DIMSAH
 70
0
  9
$DIMBLK1
  1

  9
$DIMBLK2
  1

  9
$DIMSTYLE
  2
ISO-25
  9
$DIMCLRD
 70
0
  9
$DIMCLRE
 70
0
  9
$DIMCLRT
 70
0
  9
$DIMTFAC
 40
1.0
  9
$DIMGAP
 40
0.625
  9
$DIMJUST
 70
0
  9
$DIMSD1
 70
0
  9
$DIMSD2
 70
0
  9
$DIMTOLJ
 70
0
  9
$DIMTZIN
 70
8
  9
$DIMALTZ
 70
0
  9
$DIMALTTZ
 70
0
  9
$DIMUPT
 70
0
  9
$DIMDEC
 70
2
  9
$DIMTDEC
 70
2
  9
$DIMALTU
 70
2
  9
$DIMALTTD
 70
3
  9
$DIMTXSTY
  7
Standard
  9
$DIMAUNIT
 70
0
  9
$DIMADEC
 70
0
  9
$DIMALTRND
 40
0.0
  9
$DIMAZIN
 70
0
  9
$DIMDSEP
 70
44
  9
$DIMATFIT
 70
3
  9
$DIMFRAC
 70
0
  9
$DIMLDRBLK
  1

  9
$DIMLUNIT
 70
2
  9
$DIMLWD
 70
-2
  9
$DIMLWE
 70
-2
  9
$DIMTMOVE
 70
0
  9
$DIMFXL
 40
1.0
  9
$DIMFXLON
 70
0
  9
$DIMJOGANG
 40
0.785398163397
  9
$DIMTFILL
 70
0
  9
$DIMTFILLCLR
 70
0
  9
$DIMARCSYM
 70
0
  9
$DIMLTYPE
  6

  9
$DIMLTEX1
  6

  9
$DIMLTEX2
  6

  9
$DIMTXTDIRECTION
 70
0
  9
$LUNITS
 70
2
  9
$LUPREC
 70
4
  9
$SKETCHINC
 40
1.0
  9
$FILLETRAD
 40
10.0
  9
$AUNITS
 70
0
  9
$AUPREC
 70
2
  9
$MENU
  1
.
  9
$ELEVATION
 40
0.0
  9
$PELEVATION
 40
0.0
  9
$THICKNESS
 40
0.0
  9
$LIMCHECK
 70
0
  9
$CHAMFERA
 40
0.0
  9
$CHAMFERB
 40
0.0
  9
$CHAMFERC
 40
0.0
  9
$CHAMFERD
 40
0.0
  9
$SKPOLY
 70
0
  9
$TDCREATE
 40
2461134.441863426
  9
$TDUCREATE
 40
2458532.153996898
  9
$TDUPDATE
 40
2461134.441863426
  9
$TDUUPDATE
 40
2458532.1544311
  9
$TDINDWG
 40
0.0
  9
$TDUSRTIMER
 40
0.0
  9
$USRTIMER
 70
1
  9
$ANGBASE
 50
0.0
  9
$ANGDIR
 70
0
  9
$PDMODE
 70
0
  9
$PDSIZE
 40
0.0
  9
$PLINEWID
 40
0.0
  9
$SPLFRAME
 70
0
  9
$SPLINETYPE
 70
6
  9
$SPLINESEGS
 70
8
  9
$HANDSEED
  5
C1
  9
$SURFTAB1
 70
6
  9
$SURFTAB2
 70
6
  9
$SURFTYPE
 70
6
  9
$SURFU
 70
6
  9
$SURFV
 70
6
  9
$UCSBASE
  2

  9
$UCSNAME
  2

  9
$UCSORG
 10
0.0
 20
0.0
 30
0.0
  9
$UCSXDIR
 10
1.0
 20
0.0
 30
0.0
  9
$UCSYDIR
 10
0.0
 20
1.0
 30
0.0
  9
$UCSORTHOREF
  2

  9
$UCSORTHOVIEW
 70
0
  9
$UCSORGTOP
 10
0.0
 20
0.0
 30
0.0
  9
$UCSORGBOTTOM
 10
0.0
 20
0.0
 30
0.0
  9
$UCSORGLEFT
 10
0.0
 20
0.0
 30
0.0
  9
$UCSORGRIGHT
 10
0.0
 20
0.0
 30
0.0
  9
$UCSORGFRONT
 10
0.0
 20
0.0
 30
0.0
  9
$UCSORGBACK
 10
0.0
 20
0.0
 30
0.0
  9
$PUCSBASE
  2

  9
$PUCSNAME
  2

  9
$PUCSORG
 10
0.0
 20
0.0
 30
0.0
  9
$PUCSXDIR
 10
1.0
 20
0.0
 30
0.0
  9
$PUCSYDIR
 10
0.0
 20
1.0
 30
0.0
  9
$PUCSORTHOREF
  2

  9
$PUCSORTHOVIEW
 70
0
  9
$PUCSORGTOP
 10
0.0
 20
0.0
 30
0.0
  9
$PUCSORGBOTTOM
 10
0.0
 20
0.0
 30
0.0
  9
$PUCSORGLEFT
 10
0.0
 20
0.0
 30
0.0
  9
$PUCSORGRIGHT
 10
0.0
 20
0.0
 30
0.0
  9
$PUCSORGFRONT
 10
0.0
 20
0.0
 30
0.0
  9
$PUCSORGBACK
 10
0.0
 20
0.0
 30
0.0
  9
$USERI1
 70
0
  9
$USERI2
 70
0
  9
$USERI3
 70
0
  9
$USERI4
 70
0
  9
$USERI5
 70
0
  9
$USERR1
 40
0.0
  9
$USERR2
 40
0.0
  9
$USERR3
 40
0.0
  9
$USERR4
 40
0.0
  9
$USERR5
 40
0.0
  9
$WORLDVIEW
 70
1
  9
$SHADEDGE
 70
3
  9
$SHADEDIF
 70
70
  9
$TILEMODE
 70
1
  9
$MAXACTVP
 70
64
  9
$PINSBASE
 10
0.0
 20
0.0
 30
0.0
  9
$PLIMCHECK
 70
0
  9
$PEXTMIN
 10
1e+20
 20
1e+20
 30
1e+20
  9
$PEXTMAX
 10
-1e+20
 20
-1e+20
 30
-1e+20
  9
$PLIMMIN
 10
0.0
 20
0.0
  9
$PLIMMAX
 10
420.0
 20
297.0
  9
$UNITMODE
 70
0
  9
$VISRETAIN
 70
1
  9
$PLINEGEN
 70
0
  9
$PSLTSCALE
 70
1
  9
$TREEDEPTH
 70
3020
  9
$CMLSTYLE
  2
Standard
  9
$CMLJUST
 70
0
  9
$CMLSCALE
 40
20.0
  9
$PROXYGRAPHICS
 70
1
  9
$MEASUREMENT
 70
1
  9
$CELWEIGHT
370
-1
  9
$ENDCAPS
280
0
  9
$JOINSTYLE
280
0
  9
$LWDISPLAY
290
0
  9
$INSUNITS
 70
4
  9
$HYPERLINKBASE
  1

  9
$STYLESHEET
  1

  9
$XEDIT
290
1
  9
$CEPSNTYPE
380
0
  9
$PSTYLEMODE
290
1
  9
$FINGERPRINTGUID
  2
{A97E21E2-1BE2-4108-8635-FF22412B3600}
  9
$VERSIONGUID
  2
{A0C0459C-A714-4357-88B0-EE31B7FBEBE3}
  9
$EXTNAMES
290
1
  9
$PSVPSCALE
 40
0.0
  9
$OLESTARTUP
290
0
  9
$SORTENTS
280
127
  9
$INDEXCTL
280
0
  9
$HIDETEXT
280
1
  9
$XCLIPFRAME
280
1
  9
$HALOGAP
280
0
  9
$OBSCOLOR
 70
257
  9
$OBSLTYPE
280
0
  9
$INTERSECTIONDISPLAY
280
0
  9
$INTERSECTIONCOLOR
 70
257
  9
$DIMASSOC
280
2
  9
$PROJECTNAME
  1

  9
$CAMERADISPLAY
290
0
  9
$LENSLENGTH
 40
50.0
  9
$CAMERAHEIGHT
 40
0.0
  9
$STEPSPERSEC
 40
24.0
  9
$STEPSIZE
 40
100.0
  9
$3DDWFPREC
 40
2.0
  9
$PSOLWIDTH
 40
0.005
  9
$PSOLHEIGHT
 40
0.08
  9
$LOFTANG1
 40
1.570796326795
  9
$LOFTANG2
 40
1.570796326795
  9
$LOFTMAG1
 40
0.0
  9
$LOFTMAG2
 40
0.0
  9
$LOFTPARAM
 70
7
  9
$LOFTNORMALS
280
1
  9
$LATITUDE
 40
37.795
  9
$LONGITUDE
 40
-122.394
  9
$NORTHDIRECTION
 40
0.0
  9
$TIMEZONE
 70
-8000
  9
$LIGHTGLYPHDISPLAY
280
1
  9
$TILEMODELIGHTSYNCH
280
1
  9
$CMATERIAL
347
20
  9
$SOLIDHIST
280
0
  9
$SHOWHIST
280
1
  9
$DWFFRAME
280
2
  9
$DGNFRAME
280
2
  9
$REALWORLDSCALE
290
1
  9
$INTERFERECOLOR
 62
256
  9
$CSHADOW
280
0
  9
$SHADOWPLANELOCATION
 40
0.0
  0
ENDSEC
  0
SECTION
  2
CLASSES
  0
CLASS
  1
ACDBDICTIONARYWDFLT
  2
AcDbDictionaryWithDefault
  3
ObjectDBX Classes
 90
0
 91
0
280
0
281
0
  0
CLASS
  1
SUN
  2
AcDbSun
  3
SCENEOE
 90
1153
 91
0
280
0
281
0
  0
CLASS
  1
VISUALSTYLE
  2
AcDbVisualStyle
  3
ObjectDBX Classes
 90
4095
 91
0
280
0
281
0
  0
CLASS
  1
MATERIAL
  2
AcDbMaterial
  3
ObjectDBX Classes
 90
1153
 91
0
280
0
281
0
  0
CLASS
  1
SCALE
  2
AcDbScale
  3
ObjectDBX Classes
 90
1153
 91
0
280
0
281
0
  0
CLASS
  1
TABLESTYLE
  2
AcDbTableStyle
  3
ObjectDBX Classes
 90
4095
 91
0
280
0
281
0
  0
CLASS
  1
MLEADERSTYLE
  2
AcDbMLeaderStyle
  3
ACDB_MLEADERSTYLE_CLASS
 90
4095
 91
0
280
0
281
0
  0
CLASS
  1
DICTIONARYVAR
  2
AcDbDictionaryVar
  3
ObjectDBX Classes
 90
0
 91
0
280
0
281
0
  0
CLASS
  1
CELLSTYLEMAP
  2
AcDbCellStyleMap
  3
ObjectDBX Classes
 90
1152
 91
0
280
0
281
0
  0
CLASS
  1
MENTALRAYRENDERSETTINGS
  2
AcDbMentalRayRenderSettings
  3
SCENEOE
 90
1024
 91
0
280
0
281
0
  0
CLASS
  1
ACDBDETAILVIEWSTYLE
  2
AcDbDetailViewStyle
  3
ObjectDBX Classes
 90
1025
 91
0
280
0
281
0
  0
CLASS
  1
ACDBSECTIONVIEWSTYLE
  2
AcDbSectionViewStyle
  3
ObjectDBX Classes
 90
1025
 91
0
280
0
281
0
  0
CLASS
  1
RASTERVARIABLES
  2
AcDbRasterVariables
  3
ISM
 90
0
 91
0
280
0
281
0
  0
CLASS
  1
ACDBPLACEHOLDER
  2
AcDbPlaceHolder
  3
ObjectDBX Classes
 90
0
 91
0
280
0
281
0
  0
CLASS
  1
LAYOUT
  2
AcDbLayout
  3
ObjectDBX Classes
 90
0
 91
0
280
0
281
0
  0
ENDSEC
  0
SECTION
  2
TABLES
  0
TABLE
  2
VPORT
  5
8
330
0
100
AcDbSymbolTable
 70
1
  0
VPORT
  5
BD
330
8
100
AcDbSymbolTableRecord
100
AcDbViewportTableRecord
  2
*Active
 70
0
 10
0.0
 20
0.0
 11
1.0
 21
1.0
 12
-58.18296002366145
 22
56.12010343383109
 13
0.0
 23
0.0
 14
0.5
 24
0.5
 15
0.5
 25
0.5
 16
0.0
 26
0.0
 36
1.0
 17
0.0
 27
0.0
 37
0.0
 40
332.89915006785156
 41
1.34
 42
50.0
 43
0.0
 44
0.0
 50
0.0
 51
0.0
 71
0
 72
1000
 73
1
 74
3
 75
0
 76
0
 77
0
 78
0
281
0
 65
1
110
0.0
120
0.0
130
0.0
111
1.0
121
0.0
131
0.0
112
0.0
122
1.0
132
0.0
 79
0
146
0.0
  0
ENDTAB
  0
TABLE
  2
LTYPE
  5
2
330
0
100
AcDbSymbolTable
 70
4
  0
LTYPE
  5
24
330
2
100
AcDbSymbolTableRecord
100
AcDbLinetypeTableRecord
  2
ByBlock
 70
0
  3

 72
65
 73
0
 40
0.0
  0
LTYPE
  5
25
330
2
100
AcDbSymbolTableRecord
100
AcDbLinetypeTableRecord
  2
ByLayer
 70
0
  3

 72
65
 73
0
 40
0.0
  0
LTYPE
  5
26
330
2
100
AcDbSymbolTableRecord
100
AcDbLinetypeTableRecord
  2
Continuous
 70
0
  3

 72
65
 73
0
 40
0.0
  0
LTYPE
  5
30
330
2
100
AcDbSymbolTableRecord
100
AcDbLinetypeTableRecord
  2
HIDDEN
 70
0
  3
Hidden __ __ __ __ __ __ __ __ __ __ __ __ __ __
 72
65
 73
2
 40
9.525
 49
6.35
 74
0
 49
-3.175
 74
0
  0
ENDTAB
  0
TABLE
  2
LAYER
  5
1
330
0
100
AcDbSymbolTable
 70
4
  0
LAYER
  5
27
330
1
100
AcDbSymbolTableRecord
100
AcDbLayerTableRecord
  2
0
 70
0
 62
7
  6
CONTINUOUS
370
-3
390
13
347
21
  0
LAYER
  5
28
330
1
100
AcDbSymbolTableRecord
100
AcDbLayerTableRecord
  2
Defpoints
 70
0
 62
7
  6
Continuous
290
0
370
-3
390
13
347
21
  0
LAYER
  5
2F
330
1
100
AcDbSymbolTableRecord
100
AcDbLayerTableRecord
  2
visible
 70
0
 62
7
  6
CONTINUOUS
370
-3
390
13
347
21
  0
LAYER
  5
31
330
1
100
AcDbSymbolTableRecord
100
AcDbLayerTableRecord
  2
hidden
 70
0
 62
7
  6
HIDDEN
370
-3
390
13
347
21
  0
ENDTAB
  0
TABLE
  2
STYLE
  5
5
330
0
100
AcDbSymbolTable
 70
1
  0
STYLE
  5
29
330
5
100
AcDbSymbolTableRecord
100
AcDbTextStyleTableRecord
  2
Standard
 70
0
 40
0.0
 41
1.0
 50
0.0
 71
0
 42
2.5
  3
txt
  4

  0
ENDTAB
  0
TABLE
  2
VIEW
  5
7
330
0
100
AcDbSymbolTable
 70
0
  0
ENDTAB
  0
TABLE
  2
UCS
  5
6
330
0
100
AcDbSymbolTable
 70
0
  0
ENDTAB
  0
TABLE
  2
APPID
  5
3
330
0
100
AcDbSymbolTable
 70
3
  0
APPID
  5
2A
330
3
100
AcDbSymbolTableRecord
100
AcDbRegAppTableRecord
  2
ACAD
 70
0
  0
APPID
  5
BE
330
3
100
AcDbSymbolTableRecord
100
AcDbRegAppTableRecord
  2
HATCHBACKGROUNDCOLOR
 70
0
  0
APPID
  5
BF
330
3
100
AcDbSymbolTableRecord
100
AcDbRegAppTableRecord
  2
EZDXF
 70
0
  0
ENDTAB
  0
TABLE
  2
DIMSTYLE
  5
4
330
0
100
AcDbSymbolTable
 70
1
100
AcDbDimStyleTable
  0
DIMSTYLE
105
2B
330
4
100
AcDbSymbolTableRecord
100
AcDbDimStyleTableRecord
  2
Standard
 70
0
 40
1.0
 41
2.5
 42
0.625
 43
3.75
 44
1.25
 45
0.0
 46
0.0
 47
0.0
 48
0.0
 49
2.5
140
2.5
141
2.5
142
0.0
143
0.03937007874
144
1.0
145
0.0
146
1.0
147
0.625
148
0.0
 69
0
 70
0
 71
0
 72
0
 73
0
 74
0
 75
0
 76
0
 77
1
 78
8
 79
3
170
0
171
3
172
1
173
0
174
0
175
0
176
0
177
0
178
0
179
2
271
2
272
2
273
2
274
3
275
0
276
0
277
2
278
44
279
0
280
0
281
0
282
0
283
0
284
8
285
0
286
0
288
0
289
3
290
0
371
-2
372
-2
  0
ENDTAB
  0
TABLE
  2
BLOCK_RECORD
  5
9
330
0
100
AcDbSymbolTable
 70
2
  0
BLOCK_RECORD
  5
17
330
9
100
AcDbSymbolTableRecord
100
AcDbBlockTableRecord
  2
*Model_Space
340
1A
 70
0
280
1
281
0
  0
BLOCK_RECORD
  5
1B
330
9
100
AcDbSymbolTableRecord
100
AcDbBlockTableRecord
  2
*Paper_Space
340
1E
 70
0
280
1
281
0
  0
ENDTAB
  0
ENDSEC
  0
SECTION
  2
BLOCKS
  0
BLOCK
  5
18
330
17
100
AcDbEntity
  8
0
100
AcDbBlockBegin
  2
*Model_Space
 70
0
 10
0.0
 20
0.0
 30
0.0
  3
*Model_Space
  1

  0
ENDBLK
  5
19
330
17
100
AcDbEntity
  8
0
100
AcDbBlockEnd
  0
BLOCK
  5
1C
330
1B
100
AcDbEntity
  8
0
100
AcDbBlockBegin
  2
*Paper_Space
 70
0
 10
0.0
 20
0.0
 30
0.0
  3
*Paper_Space
  1

  0
ENDBLK
  5
1D
330
1B
100
AcDbEntity
  8
0
100
AcDbBlockEnd
  0
ENDSEC
  0
SECTION
  2
ENTITIES
  0
LINE
  5
32
330
17
100
AcDbEntity
  8
visible
100
AcDbLine
 10
-20.043034427774664
 20
212.77538852007368
 30
0.0
 11
-19.82403699624893
 21
222.56967846775686
 31
0.0
  0
LINE
  5
33
330
17
100
AcDbEntity
  8
visible
100
AcDbLine
 10
-19.82403699624893
 20
222.5696784677569
 30
0.0
 11
-187.33866056724463
 21
181.34985882259042
 31
0.0
  0
LINE
  5
34
330
17
100
AcDbEntity
  8
visible
100
AcDbLine
 10
-189.28257675739485
 20
171.7223892531675
 30
0.0
 11
-187.33866056724466
 21
181.34985882259042
 31
0.0
  0
LINE
  5
35
330
17
100
AcDbEntity
  8
visible
100
AcDbLine
 10
-20.043034427774664
 20
212.77538852007368
 30
0.0
 11
-189.28257675739485
 21
171.72238925316748
 31
0.0
  0
LINE
  5
36
330
17
100
AcDbEntity
  8
visible
100
AcDbLine
 10
-20.043034427774664
 20
212.77538852007368
 30
0.0
 11
74.01823630662759
 21
-14.704116959152515
 31
0.0
  0
LINE
  5
37
330
17
100
AcDbEntity
  8
visible
100
AcDbLine
 10
73.47953704744793
 20
-6.524671591260434
 30
0.0
 11
74.01823630662757
 21
-14.70411695915252
 31
0.0
  0
LINE
  5
38
330
17
100
AcDbEntity
  8
visible
100
AcDbLine
 10
-19.82403699624893
 20
222.5696784677569
 30
0.0
 11
73.47953704744793
 21
-6.524671591260443
 31
0.0
  0
LINE
  5
39
330
17
100
AcDbEntity
  8
visible
100
AcDbLine
 10
-189.28257675739485
 20
171.7223892531675
 30
0.0
 11
-44.505231731345276
 21
-33.161499169262385
 31
0.0
  0
LINE
  5
3A
330
17
100
AcDbEntity
  8
visible
100
AcDbLine
 10
74.01823630662757
 20
-14.70411695915252
 30
0.0
 11
-44.505231731345276
 21
-33.161499169262406
 31
0.0
  0
LINE
  5
3B
330
17
100
AcDbEntity
  8
visible
100
AcDbLine
 10
96.95960863662117
 20
-70.18595333979843
 30
0.0
 11
108.45750783943714
 21
-97.9926840408111
 31
0.0
  0
LINE
  5
3C
330
17
100
AcDbEntity
  8
visible
100
AcDbLine
 10
108.4575078394371
 20
-97.99268404081107
 30
0.0
 11
107.81377349152912
 21
-90.82776140908054
 31
0.0
  0
LINE
  5
3D
330
17
100
AcDbEntity
  8
visible
100
AcDbLine
 10
96.3406191847418
 20
-62.656977428080154
 30
0.0
 11
107.8137734915291
 21
-90.82776140908055
 31
0.0
  0
LINE
  5
3E
330
17
100
AcDbEntity
  8
visible
100
AcDbLine
 10
96.3406191847418
 20
-62.65697742808016
 30
0.0
 11
96.95960863662113
 21
-70.18595333979837
 31
0.0
  0
LINE
  5
3F
330
17
100
AcDbEntity
  8
visible
100
AcDbLine
 10
-8.274114769190902
 20
-84.43452205663752
 30
0.0
 11
10.024064132780836
 21
-110.32947160009465
 31
0.0
  0
LINE
  5
40
330
17
100
AcDbEntity
  8
visible
100
AcDbLine
 10
108.4575078394371
 20
-97.99268404081107
 30
0.0
 11
10.02406413278085
 21
-110.32947160009469
 31
0.0
  0
LINE
  5
41
330
17
100
AcDbEntity
  8
visible
100
AcDbLine
 10
96.95960863662113
 20
-70.1859533397984
 30
0.0
 11
-8.27411476919086
 21
-84.43452205663755
 31
0.0
  0
LINE
  5
42
330
17
100
AcDbEntity
  8
visible
100
AcDbLine
 10
96.3406191847418
 20
-62.656977428080175
 30
0.0
 11
-8.22319456360384
 21
-77.08891505524448
 31
0.0
  0
LINE
  5
43
330
17
100
AcDbEntity
  8
visible
100
AcDbLine
 10
-8.223194563603851
 20
-77.08891505524447
 30
0.0
 11
-8.27411476919088
 21
-84.43452205663753
 31
0.0
  0
LINE
  5
44
330
17
100
AcDbEntity
  8
visible
100
AcDbLine
 10
-152.4366403170464
 20
189.93809398258165
 30
0.0
 11
-150.71709662056983
 21
200.30733941686168
 31
0.0
  0
LINE
  5
45
330
17
100
AcDbEntity
  8
visible
100
AcDbLine
 10
-150.71709662056983
 20
200.30733941686168
 30
0.0
 11
-250.917943251417
 21
175.2761788189116
 31
0.0
  0
LINE
  5
46
330
17
100
AcDbEntity
  8
visible
100
AcDbLine
 10
-259.3698730847181
 20
143.81898993974377
 30
0.0
 11
-250.917943251417
 21
175.2761788189116
 31
0.0
  0
LINE
  5
47
330
17
100
AcDbEntity
  8
visible
100
AcDbLine
 10
-182.50776375018003
 20
162.1349083389176
 30
0.0
 11
-259.3698730847181
 21
143.8189899397438
 31
0.0
  0
LINE
  5
48
330
17
100
AcDbEntity
  8
visible
100
AcDbLine
 10
-74.61863537124249
 20
9.4539475379982
 30
0.0
 11
-135.54683147703054
 21
-1.0886800908336962
 31
0.0
  0
LINE
  5
49
330
17
100
AcDbEntity
  8
visible
100
AcDbLine
 10
-150.71709662056983
 20
200.30733941686168
 30
0.0
 11
-145.38092896504054
 21
191.67427165589848
 31
0.0
  0
LINE
  5
4A
330
17
100
AcDbEntity
  8
visible
100
AcDbLine
 10
-259.3698730847181
 20
143.81898993974377
 30
0.0
 11
-135.54683147703057
 21
-1.0886800908337193
 31
0.0
  0
LINE
  5
4B
330
17
100
AcDbEntity
  8
visible
100
AcDbLine
 10
15.86949407438599
 20
134.92902390817028
 30
0.0
 11
15.758316714938204
 21
141.7542647681621
 31
0.0
  0
LINE
  5
4C
330
17
100
AcDbEntity
  8
visible
100
AcDbLine
 10
15.758316714938204
 20
141.75426476816213
 30
0.0
 11
13.304022448808603
 21
141.2281936953989
 31
0.0
  0
LINE
  5
4D
330
17
100
AcDbEntity
  8
visible
100
AcDbLine
 10
51.356047471899394
 20
47.79657512726362
 30
0.0
 11
51.048330635192144
 21
54.15612433346227
 31
0.0
  0
LINE
  5
4E
330
17
100
AcDbEntity
  8
visible
100
AcDbLine
 10
15.758316714938204
 20
141.75426476816213
 30
0.0
 11
25.519651066315568
 21
117.52432994086917
 31
0.0
  0
LINE
  5
4F
330
17
100
AcDbEntity
  8
visible
100
AcDbLine
 10
39.37752784781985
 20
83.12581031500204
 30
0.0
 11
51.04833063519215
 21
54.15612433346223
 31
0.0
  0
LINE
  5
50
330
17
100
AcDbEntity
  8
visible
100
AcDbLine
 10
-9.19914438135984
 20
-44.4727632634345
 30
0.0
 11
-9.072268219865656
 21
-28.561578441424395
 31
0.0
  0
LINE
  5
51
330
17
100
AcDbEntity
  8
visible
100
AcDbLine
 10
-9.19914438135984
 20
-44.4727632634345
 30
0.0
 11
-22.34759690977136
 21
-46.441374098305744
 31
0.0
  0
LINE
  5
52
330
17
100
AcDbEntity
  8
visible
100
AcDbLine
 10
-19.002317601932813
 20
-29.189990055072723
 30
0.0
 11
-9.19914438135983
 21
-44.472763263434516
 31
0.0
  0
LINE
  5
53
330
17
100
AcDbEntity
  8
visible
100
AcDbLine
 10
-9.589538333058208
 20
-27.72415997516522
 30
0.0
 11
-9.072268219865641
 21
-28.561578441424416
 31
0.0
  0
LINE
  5
54
330
17
100
AcDbEntity
  8
visible
100
AcDbLine
 10
-32.58023455935815
 20
-31.304447276490176
 30
0.0
 11
-22.34759690977134
 21
-46.44137409830577
 31
0.0
  0
LINE
  5
55
330
17
100
AcDbEntity
  8
visible
100
AcDbLine
 10
119.4633196263229
 20
-30.282486613113853
 30
0.0
 11
117.2816304641569
 21
-9.473397173765594
 31
0.0
  0
LINE
  5
56
330
17
100
AcDbEntity
  8
visible
100
AcDbLine
 10
117.28163046415692
 20
-9.473397173765594
 30
0.0
 11
62.241987048993145
 21
-18.01624591980467
 31
0.0
  0
LINE
  5
57
330
17
100
AcDbEntity
  8
visible
100
AcDbLine
 10
63.37763928929251
 20
-38.582544617855866
 30
0.0
 11
62.24198704899315
 21
-18.01624591980466
 31
0.0
  0
LINE
  5
58
330
17
100
AcDbEntity
  8
visible
100
AcDbLine
 10
119.4633196263229
 20
-30.282486613113853
 30
0.0
 11
63.377639289292496
 21
-38.58254461785587
 31
0.0
  0
LINE
  5
59
330
17
100
AcDbEntity
  8
visible
100
AcDbLine
 10
143.00395303739518
 20
-103.05867916586669
 30
0.0
 11
140.82436668042655
 21
-84.58262445244242
 31
0.0
  0
LINE
  5
5A
330
17
100
AcDbEntity
  8
visible
100
AcDbLine
 10
143.00395303739518
 20
-103.05867916586669
 30
0.0
 11
95.81247991872365
 21
-108.82299554571783
 31
0.0
  0
LINE
  5
5B
330
17
100
AcDbEntity
  8
visible
100
AcDbLine
 10
119.4633196263229
 20
-30.282486613113853
 30
0.0
 11
143.00395303739518
 21
-103.05867916586669
 31
0.0
  0
LINE
  5
5C
330
17
100
AcDbEntity
  8
visible
100
AcDbLine
 10
117.28163046415692
 20
-9.473397173765594
 30
0.0
 11
140.82436668042655
 21
-84.58262445244242
 31
0.0
  0
LINE
  5
5D
330
17
100
AcDbEntity
  8
visible
100
AcDbLine
 10
63.37763928929251
 20
-38.582544617855866
 30
0.0
 11
75.80336909812159
 21
-65.49153655191729
 31
0.0
  0
LINE
  5
5E
330
17
100
AcDbEntity
  8
visible
100
AcDbLine
 10
91.77676347526995
 20
-100.08330275536827
 30
0.0
 11
95.81247991872365
 21
-108.82299554571784
 31
0.0
  0
LINE
  5
5F
330
17
100
AcDbEntity
  8
visible
100
AcDbLine
 10
73.28690001737243
 20
-65.83886057838657
 30
0.0
 11
72.86887131370271
 21
-59.13662795287945
 31
0.0
  0
LINE
  5
60
330
17
100
AcDbEntity
  8
visible
100
AcDbLine
 10
66.5338592469271
 20
-45.41761174781757
 30
0.0
 11
6.46151816026547
 21
-54.15505338587912
 31
0.0
  0
LINE
  5
61
330
17
100
AcDbEntity
  8
visible
100
AcDbLine
 10
6.577554842492399
 20
-75.04610995272449
 30
0.0
 11
6.461518160265479
 21
-54.155053385879114
 31
0.0
  0
LINE
  5
62
330
17
100
AcDbEntity
  8
visible
100
AcDbLine
 10
47.812342547247766
 20
114.9725497067711
 30
0.0
 11
46.1904418469352
 21
148.6978041223343
 31
0.0
  0
LINE
  5
63
330
17
100
AcDbEntity
  8
visible
100
AcDbLine
 10
46.1904418469352
 20
148.69780412233433
 30
0.0
 11
24.835289283981663
 21
144.1172411175676
 31
0.0
  0
LINE
  5
64
330
17
100
AcDbEntity
  8
visible
100
AcDbLine
 10
25.692439949475897
 20
110.81010430639056
 30
0.0
 11
24.83528928398166
 21
144.11724111756757
 31
0.0
  0
LINE
  5
65
330
17
100
AcDbEntity
  8
visible
100
AcDbLine
 10
47.812342547247766
 20
114.9725497067711
 30
0.0
 11
25.812173057524753
 21
110.51611579791009
 31
0.0
  0
LINE
  5
66
330
17
100
AcDbEntity
  8
visible
100
AcDbLine
 10
58.15200995124927
 20
86.73012263398383
 30
0.0
 11
57.24004863028619
 21
102.76434360758776
 31
0.0
  0
LINE
  5
67
330
17
100
AcDbEntity
  8
visible
100
AcDbLine
 10
56.776409630705125
 20
110.91610399520225
 30
0.0
 11
56.272557576469936
 21
119.7748954701296
 31
0.0
  0
LINE
  5
68
330
17
100
AcDbEntity
  8
visible
100
AcDbLine
 10
58.15200995124927
 20
86.73012263398383
 30
0.0
 11
37.14223330695573
 21
82.69667998768838
 31
0.0
  0
LINE
  5
69
330
17
100
AcDbEntity
  8
visible
100
AcDbLine
 10
47.812342547247766
 20
114.9725497067711
 30
0.0
 11
58.15200995124927
 21
86.73012263398381
 31
0.0
  0
LINE
  5
6A
330
17
100
AcDbEntity
  8
visible
100
AcDbLine
 10
46.1904418469352
 20
148.69780412233433
 30
0.0
 11
56.272557576469936
 21
119.77489547012961
 31
0.0
  0
LINE
  5
6B
330
17
100
AcDbEntity
  8
visible
100
AcDbLine
 10
58.507912551857345
 20
108.49070089770322
 30
0.0
 11
58.347681907216284
 21
111.2311658562473
 31
0.0
  0
LINE
  5
6C
330
17
100
AcDbEntity
  8
visible
100
AcDbLine
 10
58.34768190721628
 20
111.2311658562473
 30
0.0
 11
51.82091494224154
 21
109.92245865296219
 31
0.0
  0
LINE
  5
6D
330
17
100
AcDbEntity
  8
visible
100
AcDbLine
 10
51.9628972810121
 20
107.18466510056322
 30
0.0
 11
51.82091494224153
 21
109.92245865296218
 31
0.0
  0
LINE
  5
6E
330
17
100
AcDbEntity
  8
visible
100
AcDbLine
 10
58.507912551857345
 20
108.49070089770322
 30
0.0
 11
51.962897281012104
 21
107.18466510056322
 31
0.0
  0
LINE
  5
6F
330
17
100
AcDbEntity
  8
visible
100
AcDbLine
 10
60.307886182141694
 20
103.37066003379196
 30
0.0
 11
60.144200420494464
 21
106.10055861545935
 31
0.0
  0
LINE
  5
70
330
17
100
AcDbEntity
  8
visible
100
AcDbLine
 10
60.307886182141694
 20
103.37066003379196
 30
0.0
 11
53.81724903994989
 21
102.0878737554045
 31
0.0
  0
LINE
  5
71
330
17
100
AcDbEntity
  8
visible
100
AcDbLine
 10
58.507912551857345
 20
108.49070089770322
 30
0.0
 11
60.30788618214169
 21
103.37066003379195
 31
0.0
  0
LINE
  5
72
330
17
100
AcDbEntity
  8
visible
100
AcDbLine
 10
58.34768190721628
 20
111.2311658562473
 30
0.0
 11
60.14420042049445
 21
106.10055861545935
 31
0.0
  0
LINE
  5
73
330
17
100
AcDbEntity
  8
visible
100
AcDbLine
 10
51.9628972810121
 20
107.18466510056322
 30
0.0
 11
53.81724903994988
 21
102.0878737554045
 31
0.0
  0
LINE
  5
74
330
17
100
AcDbEntity
  8
hidden
100
AcDbLine
 10
-187.33866056724466
 20
181.34985882259045
 30
0.0
 11
-44.19455334266087
 21
-25.187233614791808
 31
0.0
  0
LINE
  5
75
330
17
100
AcDbEntity
  8
hidden
100
AcDbLine
 10
73.47953704744793
 20
-6.524671591260437
 30
0.0
 11
-44.19455334266087
 21
-25.18723361479184
 31
0.0
  0
LINE
  5
76
330
17
100
AcDbEntity
  8
hidden
100
AcDbLine
 10
-44.194553342660875
 20
-25.187233614791836
 30
0.0
 11
-44.50523173134526
 21
-33.1614991692624
 31
0.0
  0
LINE
  5
77
330
17
100
AcDbEntity
  8
hidden
100
AcDbLine
 10
107.8137734915291
 20
-90.82776140908054
 30
0.0
 11
9.966564208114008
 21
-103.3342140178746
 31
0.0
  0
LINE
  5
78
330
17
100
AcDbEntity
  8
hidden
100
AcDbLine
 10
10.024064132780873
 20
-110.32947160009469
 30
0.0
 11
9.966564208114049
 21
-103.33421401787461
 31
0.0
  0
LINE
  5
79
330
17
100
AcDbEntity
  8
hidden
100
AcDbLine
 10
-8.223194563603869
 20
-77.08891505524443
 30
0.0
 11
9.966564208113965
 21
-103.33421401787447
 31
0.0
  0
LINE
  5
7A
330
17
100
AcDbEntity
  8
hidden
100
AcDbLine
 10
-155.99976091149213
 20
168.451654276832
 30
0.0
 11
-152.4366403170464
 21
189.93809398258165
 31
0.0
  0
LINE
  5
7B
330
17
100
AcDbEntity
  8
hidden
100
AcDbLine
 10
-155.99976091149213
 20
168.451654276832
 30
0.0
 11
-182.50776375018003
 21
162.1349083389176
 31
0.0
  0
LINE
  5
7C
330
17
100
AcDbEntity
  8
hidden
100
AcDbLine
 10
-53.80726767949784
 20
13.055014269726428
 30
0.0
 11
-52.42167394406281
 21
41.28103077389738
 31
0.0
  0
LINE
  5
7D
330
17
100
AcDbEntity
  8
hidden
100
AcDbLine
 10
-52.42167394406282
 20
41.28103077389737
 30
0.0
 11
-132.1573563806107
 21
26.67428055638011
 31
0.0
  0
LINE
  5
7E
330
17
100
AcDbEntity
  8
hidden
100
AcDbLine
 10
-135.5468314770305
 20
-1.0886800908336953
 30
0.0
 11
-132.15735638061065
 21
26.67428055638012
 31
0.0
  0
LINE
  5
7F
330
17
100
AcDbEntity
  8
hidden
100
AcDbLine
 10
-53.80726767949784
 20
13.055014269726428
 30
0.0
 11
-74.61863537124249
 21
9.4539475379982
 31
0.0
  0
LINE
  5
80
330
17
100
AcDbEntity
  8
hidden
100
AcDbLine
 10
-155.99976091149213
 20
168.451654276832
 30
0.0
 11
-53.80726767949784
 21
13.0550142697264
 31
0.0
  0
LINE
  5
81
330
17
100
AcDbEntity
  8
hidden
100
AcDbLine
 10
-145.38092896504054
 20
191.67427165589848
 30
0.0
 11
-52.4216739440628
 21
41.281030773897385
 31
0.0
  0
LINE
  5
82
330
17
100
AcDbEntity
  8
hidden
100
AcDbLine
 10
-250.91794325141697
 20
175.2761788189116
 30
0.0
 11
-132.15735638061068
 21
26.674280556380097
 31
0.0
  0
LINE
  5
83
330
17
100
AcDbEntity
  8
hidden
100
AcDbLine
 10
16.18118395663068
 20
115.79420607737262
 30
0.0
 11
15.86949407438599
 21
134.92902390817028
 31
0.0
  0
LINE
  5
84
330
17
100
AcDbEntity
  8
hidden
100
AcDbLine
 10
13.304022448808603
 20
141.2281936953989
 30
0.0
 11
-40.187231844309906
 21
129.76249379226186
 31
0.0
  0
LINE
  5
85
330
17
100
AcDbEntity
  8
hidden
100
AcDbLine
 10
-41.243710826562335
 20
104.0150260360692
 30
0.0
 11
-40.1872318443099
 21
129.76249379226186
 31
0.0
  0
LINE
  5
86
330
17
100
AcDbEntity
  8
hidden
100
AcDbLine
 10
16.18118395663068
 20
115.79420607737262
 30
0.0
 11
-41.243710826562335
 21
104.01502603606917
 31
0.0
  0
LINE
  5
87
330
17
100
AcDbEntity
  8
hidden
100
AcDbLine
 10
52.21540572297345
 20
30.036314941508685
 30
0.0
 11
51.356047471899394
 21
47.79657512726362
 31
0.0
  0
LINE
  5
88
330
17
100
AcDbEntity
  8
hidden
100
AcDbLine
 10
51.04833063519215
 20
54.15612433346227
 30
0.0
 11
2.462144163342124
 21
45.35895116035564
 31
0.0
  0
LINE
  5
89
330
17
100
AcDbEntity
  8
hidden
100
AcDbLine
 10
2.5174560467237326
 20
21.46060081481401
 30
0.0
 11
2.462144163342096
 21
45.35895116035563
 31
0.0
  0
LINE
  5
8A
330
17
100
AcDbEntity
  8
hidden
100
AcDbLine
 10
52.21540572297345
 20
30.036314941508685
 30
0.0
 11
2.517456046723737
 21
21.460600814814015
 31
0.0
  0
LINE
  5
8B
330
17
100
AcDbEntity
  8
hidden
100
AcDbLine
 10
16.18118395663068
 20
115.79420607737262
 30
0.0
 11
52.21540572297344
 21
30.03631494150865
 31
0.0
  0
LINE
  5
8C
330
17
100
AcDbEntity
  8
hidden
100
AcDbLine
 10
25.519651066315568
 20
117.52432994086917
 30
0.0
 11
39.37752784781985
 21
83.12581031500204
 31
0.0
  0
LINE
  5
8D
330
17
100
AcDbEntity
  8
hidden
100
AcDbLine
 10
-41.243710826562335
 20
104.0150260360692
 30
0.0
 11
2.517456046723744
 21
21.460600814814015
 31
0.0
  0
LINE
  5
8E
330
17
100
AcDbEntity
  8
hidden
100
AcDbLine
 10
-40.1872318443099
 20
129.76249379226186
 30
0.0
 11
2.462144163342103
 21
45.3589511603556
 31
0.0
  0
LINE
  5
8F
330
17
100
AcDbEntity
  8
hidden
100
AcDbLine
 10
-49.13836815163115
 20
17.79096351822825
 30
0.0
 11
-48.361537231776474
 21
35.04456959858625
 31
0.0
  0
LINE
  5
90
330
17
100
AcDbEntity
  8
hidden
100
AcDbLine
 10
-48.361537231776474
 20
35.04456959858624
 30
0.0
 11
-63.007926843929134
 21
32.39854866444037
 31
0.0
  0
LINE
  5
91
330
17
100
AcDbEntity
  8
hidden
100
AcDbLine
 10
-64.01456533470204
 20
15.195700674936536
 30
0.0
 11
-63.007926843929134
 21
32.39854866444037
 31
0.0
  0
LINE
  5
92
330
17
100
AcDbEntity
  8
hidden
100
AcDbLine
 10
-49.13836815163115
 20
17.79096351822825
 30
0.0
 11
-64.01456533470204
 21
15.195700674936532
 31
0.0
  0
LINE
  5
93
330
17
100
AcDbEntity
  8
hidden
100
AcDbLine
 10
-9.072268219865656
 20
-28.5615784414244
 30
0.0
 11
-22.04080313937854
 21
-30.576884795415506
 31
0.0
  0
LINE
  5
94
330
17
100
AcDbEntity
  8
hidden
100
AcDbLine
 10
-22.34759690977136
 20
-46.441374098305744
 30
0.0
 11
-22.04080313937854
 21
-30.576884795415495
 31
0.0
  0
LINE
  5
95
330
17
100
AcDbEntity
  8
hidden
100
AcDbLine
 10
-49.13836815163115
 20
17.79096351822825
 30
0.0
 11
-19.002317601932813
 21
-29.189990055072723
 31
0.0
  0
LINE
  5
96
330
17
100
AcDbEntity
  8
hidden
100
AcDbLine
 10
-48.361537231776474
 20
35.04456959858624
 30
0.0
 11
-9.589538333058208
 21
-27.72415997516522
 31
0.0
  0
LINE
  5
97
330
17
100
AcDbEntity
  8
hidden
100
AcDbLine
 10
-64.01456533470204
 20
15.195700674936536
 30
0.0
 11
-32.58023455935815
 21
-31.304447276490176
 31
0.0
  0
LINE
  5
98
330
17
100
AcDbEntity
  8
hidden
100
AcDbLine
 10
-63.00792684392914
 20
32.39854866444037
 30
0.0
 11
-22.040803139378554
 21
-30.576884795415502
 31
0.0
  0
LINE
  5
99
330
17
100
AcDbEntity
  8
hidden
100
AcDbLine
 10
140.82436668042652
 20
-84.5826244524424
 30
0.0
 11
94.37516176972915
 21
-90.55149258449543
 31
0.0
  0
LINE
  5
9A
330
17
100
AcDbEntity
  8
hidden
100
AcDbLine
 10
95.81247991872365
 20
-108.82299554571782
 30
0.0
 11
94.37516176972919
 21
-90.55149258449543
 31
0.0
  0
LINE
  5
9B
330
17
100
AcDbEntity
  8
hidden
100
AcDbLine
 10
75.80336909812159
 20
-65.49153655191729
 30
0.0
 11
91.77676347526995
 21
-100.08330275536827
 31
0.0
  0
LINE
  5
9C
330
17
100
AcDbEntity
  8
hidden
100
AcDbLine
 10
62.24198704899315
 20
-18.016245919804664
 30
0.0
 11
94.37516176972917
 21
-90.55149258449543
 31
0.0
  0
LINE
  5
9D
330
17
100
AcDbEntity
  8
hidden
100
AcDbLine
 10
73.36176282839601
 20
-67.03913216278914
 30
0.0
 11
73.28690001737243
 21
-65.83886057838657
 31
0.0
  0
LINE
  5
9E
330
17
100
AcDbEntity
  8
hidden
100
AcDbLine
 10
72.86887131370271
 20
-59.13662795287945
 30
0.0
 11
71.96393399512075
 21
-44.62781464078941
 31
0.0
  0
LINE
  5
9F
330
17
100
AcDbEntity
  8
hidden
100
AcDbLine
 10
71.96393399512075
 20
-44.62781464078941
 30
0.0
 11
66.5338592469271
 21
-45.41761174781757
 31
0.0
  0
LINE
  5
A0
330
17
100
AcDbEntity
  8
hidden
100
AcDbLine
 10
6.584118122385898
 20
-76.22775224796865
 30
0.0
 11
6.577554842492399
 21
-75.04610995272449
 31
0.0
  0
LINE
  5
A1
330
17
100
AcDbEntity
  8
hidden
100
AcDbLine
 10
73.36176282839601
 20
-67.03913216278914
 30
0.0
 11
6.584118122385917
 21
-76.22775224796865
 31
0.0
  0
LINE
  5
A2
330
17
100
AcDbEntity
  8
hidden
100
AcDbLine
 10
86.84207510393182
 20
-95.73718033334816
 30
0.0
 11
85.30504161831853
 21
-74.41137855812093
 31
0.0
  0
LINE
  5
A3
330
17
100
AcDbEntity
  8
hidden
100
AcDbLine
 10
85.30504161831854
 20
-74.41137855812096
 30
0.0
 11
24.078996612825442
 21
-82.64531872346781
 31
0.0
  0
LINE
  5
A4
330
17
100
AcDbEntity
  8
hidden
100
AcDbLine
 10
24.503511381330927
 20
-103.65705809549391
 30
0.0
 11
24.07899661282546
 21
-82.64531872346777
 31
0.0
  0
LINE
  5
A5
330
17
100
AcDbEntity
  8
hidden
100
AcDbLine
 10
86.84207510393182
 20
-95.73718033334816
 30
0.0
 11
24.50351138133091
 21
-103.65705809549392
 31
0.0
  0
LINE
  5
A6
330
17
100
AcDbEntity
  8
hidden
100
AcDbLine
 10
73.36176282839601
 20
-67.03913216278914
 30
0.0
 11
86.84207510393183
 21
-95.73718033334816
 31
0.0
  0
LINE
  5
A7
330
17
100
AcDbEntity
  8
hidden
100
AcDbLine
 10
71.96393399512075
 20
-44.62781464078941
 30
0.0
 11
85.30504161831854
 21
-74.41137855812093
 31
0.0
  0
LINE
  5
A8
330
17
100
AcDbEntity
  8
hidden
100
AcDbLine
 10
6.584118122385898
 20
-76.22775224796865
 30
0.0
 11
24.503511381330927
 21
-103.65705809549392
 31
0.0
  0
LINE
  5
A9
330
17
100
AcDbEntity
  8
hidden
100
AcDbLine
 10
6.46151816026548
 20
-54.155053385879114
 30
0.0
 11
24.078996612825456
 21
-82.64531872346778
 31
0.0
  0
LINE
  5
AA
330
17
100
AcDbEntity
  8
hidden
100
AcDbLine
 10
25.70058735637944
 20
110.49351259466842
 30
0.0
 11
25.692439949475897
 21
110.81010430639056
 31
0.0
  0
LINE
  5
AB
330
17
100
AcDbEntity
  8
hidden
100
AcDbLine
 10
25.812173057524753
 20
110.51611579791009
 30
0.0
 11
25.700587356379437
 21
110.4935125946684
 31
0.0
  0
LINE
  5
AC
330
17
100
AcDbEntity
  8
hidden
100
AcDbLine
 10
57.24004863028619
 20
102.76434360758776
 30
0.0
 11
56.776409630705125
 21
110.91610399520225
 31
0.0
  0
LINE
  5
AD
330
17
100
AcDbEntity
  8
hidden
100
AcDbLine
 10
56.27255757646993
 20
119.77489547012958
 30
0.0
 11
35.847187718119585
 21
115.61543398610637
 31
0.0
  0
LINE
  5
AE
330
17
100
AcDbEntity
  8
hidden
100
AcDbLine
 10
37.03563062098715
 20
82.67621447646114
 30
0.0
 11
35.84718771811959
 21
115.61543398610638
 31
0.0
  0
LINE
  5
AF
330
17
100
AcDbEntity
  8
hidden
100
AcDbLine
 10
37.14223330695573
 20
82.69667998768838
 30
0.0
 11
37.03563062098715
 21
82.67621447646115
 31
0.0
  0
LINE
  5
B0
330
17
100
AcDbEntity
  8
hidden
100
AcDbLine
 10
25.70058735637944
 20
110.49351259466842
 30
0.0
 11
37.03563062098715
 21
82.67621447646115
 31
0.0
  0
LINE
  5
B1
330
17
100
AcDbEntity
  8
hidden
100
AcDbLine
 10
24.83528928398166
 20
144.11724111756757
 30
0.0
 11
35.84718771811959
 21
115.61543398610637
 31
0.0
  0
SPLINE
  5
B2
330
17
100
AcDbEntity
  8
hidden
100
AcDbSpline
 70
0
 71
1
 72
17
 73
15
 74
0
 40
0.0
 40
0.0
 40
0.12802047239264186
 40
0.2560409447852837
 40
0.3840614171779256
 40
0.5120818895705674
 40
0.6401023619632094
 40
0.7681228343558513
 40
0.8961433067484932
 40
1.024163779141135
 40
1.152184251533777
 40
1.280204723926419
 40
1.4082251963190608
 40
1.5362456687117028
 40
1.6642661411043447
 40
1.7922866134969861
 40
1.7922866134969861
 10
41.10518785979815
 20
136.17245613005414
 30
0.0
 10
40.863349813176825
 20
136.13292363014617
 30
0.0
 10
40.617789320941974
 20
136.11515992069306
 30
0.0
 10
40.37249882069472
 20
136.11945186457194
 30
0.0
 10
40.13146612205748
 20
136.14573015664814
 30
0.0
 10
39.89861087830008
 20
136.19357039726486
 30
0.0
 10
39.67772207481715
 20
136.26219967011076
 30
0.0
 10
39.472397451812085
 20
136.35050854037894
 30
0.0
 10
39.28598575987421
 20
136.4570683186261
 30
0.0
 10
39.12153271967658
 20
136.58015336514694
 30
0.0
 10
38.98173152006018
 20
136.71776813916125
 30
0.0
 10
38.86887864144279
 20
136.8676786270583
 30
0.0
 10
38.78483573289018
 20
137.02744771498732
 30
0.0
 10
38.730998200470076
 20
137.19447400414816
 30
0.0
 10
38.708271081028975
 20
137.36603350342796
 30
0.0
  0
SPLINE
  5
B3
330
17
100
AcDbEntity
  8
hidden
100
AcDbSpline
 70
0
 71
1
 72
17
 73
15
 74
0
 40
0.0
 40
0.0
 40
0.07142857142857142
 40
0.1428571428571429
 40
0.21428571428571438
 40
0.28571428571428586
 40
0.3571428571428574
 40
0.4285714285714289
 40
0.5000000000000003
 40
0.5714285714285718
 40
0.6428571428571433
 40
0.7142857142857146
 40
0.7857142857142861
 40
0.8571428571428575
 40
0.928571428571429
 40
1.0
 40
1.0
 10
38.708271081028975
 20
137.36603350342796
 30
0.0
 10
38.74420765602954
 20
137.66851318114507
 30
0.0
 10
38.87458322996496
 20
137.96116295914234
 30
0.0
 10
39.093010130683666
 20
138.22932596110405
 30
0.0
 10
39.388660850471354
 20
138.45953478851646
 30
0.0
 10
39.74679355717035
 20
138.6401999630376
 30
0.0
 10
40.14948479977488
 20
138.76220795724777
 30
0.0
 10
40.57653350342912
 20
138.81939508414695
 30
0.0
 10
41.006489303656736
 20
138.80886980307838
 30
0.0
 10
41.41774992008817
 20
138.7311644224322
 30
0.0
 10
41.78966747394978
 20
138.59020714844036
 30
0.0
 10
42.10360293092765
 20
138.39311615236687
 30
0.0
 10
42.34387129572548
 20
138.14982791120383
 30
0.0
 10
42.49852744725926
 20
137.87258164446217
 30
0.0
 10
42.559952847454475
 20
137.57528948310397
 30
0.0
  0
SPLINE
  5
B4
330
17
100
AcDbEntity
  8
hidden
100
AcDbSpline
 70
0
 71
1
 72
17
 73
15
 74
0
 40
0.0
 40
0.0
 40
0.07142857142857142
 40
0.14285714285714285
 40
0.21428571428571427
 40
0.2857142857142857
 40
0.35714285714285715
 40
0.42857142857142855
 40
0.5
 40
0.5714285714285714
 40
0.6428571428571429
 40
0.7142857142857143
 40
0.7857142857142857
 40
0.8571428571428571
 40
0.9285714285714286
 40
1.0
 40
1.0
 10
42.559952847454475
 20
137.57528948310394
 30
0.0
 10
42.55672184665567
 20
137.4441276626346
 30
0.0
 10
42.535458093321246
 20
137.31322573855704
 30
0.0
 10
42.496372672629974
 20
137.18381070572985
 30
0.0
 10
42.43984323939469
 20
137.05709404981968
 30
0.0
 10
42.36641006578588
 20
136.93426048251382
 30
0.0
 10
42.27677060285701
 20
136.81645698222178
 30
0.0
 10
42.17177262058554
 20
136.70478223716438
 30
0.0
 10
42.05240600245686
 20
136.6002765821931
 30
0.0
 10
41.919793280797975
 20
136.50391251456762
 30
0.0
 10
41.77517900810898
 20
136.41658586735014
 30
0.0
 10
41.61991806756504
 20
136.33910771215335
 30
0.0
 10
41.455463032702255
 20
136.27219705579256
 30
0.0
 10
41.283350692111384
 20
136.21647438802364
 30
0.0
 10
41.10518785979815
 20
136.17245613005417
 30
0.0
  0
SPLINE
  5
B5
330
17
100
AcDbEntity
  8
hidden
100
AcDbSpline
 70
0
 71
1
 72
17
 73
15
 74
0
 40
0.0
 40
0.0
 40
0.12802047239264186
 40
0.2560409447852837
 40
0.3840614171779256
 40
0.5120818895705674
 40
0.6401023619632094
 40
0.7681228343558513
 40
0.8961433067484932
 40
1.024163779141135
 40
1.152184251533777
 40
1.280204723926419
 40
1.4082251963190608
 40
1.5362456687117028
 40
1.6642661411043447
 40
1.7922866134969861
 40
1.7922866134969861
 10
41.348678303851315
 20
130.40883608745014
 30
0.0
 10
41.105391655648255
 20
130.36945162189352
 30
0.0
 10
40.85836949004956
 20
130.35175444087045
 30
0.0
 10
40.61162784981493
 20
130.35603031004402
 30
0.0
 10
40.369177976811734
 20
130.3822101893997
 30
0.0
 10
40.134962420715354
 20
130.4298713022684
 30
0.0
 10
39.91279217204321
 20
130.4982436858535
 30
0.0
 10
39.70628574145927
 20
130.58622213967357
 30
0.0
 10
39.51881108857667
 20
130.69238341822398
 30
0.0
 10
39.3534312759832
 20
130.8150084439551
 30
0.0
 10
39.21285468718678
 20
130.9521092465028
 30
0.0
 10
39.099390599752255
 20
131.10146026437323
 30
0.0
 10
39.01491084614703
 20
131.2606335766109
 30
0.0
 10
38.9608182238734
 20
131.42703756527519
 30
0.0
 10
38.938022232672225
 20
131.5979584460268
 30
0.0
  0
SPLINE
  5
B6
330
17
100
AcDbEntity
  8
hidden
100
AcDbSpline
 70
0
 71
1
 72
17
 73
15
 74
0
 40
0.0
 40
0.0
 40
0.07142857142857142
 40
0.1428571428571429
 40
0.21428571428571438
 40
0.28571428571428586
 40
0.3571428571428574
 40
0.4285714285714289
 40
0.5000000000000003
 40
0.5714285714285718
 40
0.6428571428571433
 40
0.7142857142857146
 40
0.7857142857142861
 40
0.8571428571428575
 40
0.928571428571429
 40
1.0
 40
1.0
 10
38.938022232672225
 20
131.5979584460268
 30
0.0
 10
38.97428855592432
 20
131.8993135748645
 30
0.0
 10
39.10555140374805
 20
132.1908770632278
 30
0.0
 10
39.32538022666185
 20
132.45804614827335
 30
0.0
 10
39.62287840496587
 20
132.6874028608624
 30
0.0
 10
39.98321203668602
 20
132.86740003624146
 30
0.0
 10
40.38834720823957
 20
132.98895727630452
 30
0.0
 10
40.817959621844295
 20
133.04593322827134
 30
0.0
 10
41.250469325265044
 20
133.03544680908004
 30
0.0
 10
41.66414487619236
 20
132.95802840292123
 30
0.0
 10
42.03821644197861
 20
132.81759200292424
 30
0.0
 10
42.35393661056194
 20
132.62122996532446
 30
0.0
 10
42.59553116488791
 20
132.37884260161985
 30
0.0
 10
42.750989397614696
 20
132.10262437651915
 30
0.0
 10
42.812653971000934
 20
131.80643626880965
 30
0.0
  0
SPLINE
  5
B7
330
17
100
AcDbEntity
  8
hidden
100
AcDbSpline
 70
0
 71
1
 72
17
 73
15
 74
0
 40
0.0
 40
0.0
 40
0.07142857142857142
 40
0.14285714285714285
 40
0.21428571428571427
 40
0.2857142857142857
 40
0.35714285714285715
 40
0.42857142857142855
 40
0.5
 40
0.5714285714285714
 40
0.6428571428571429
 40
0.7142857142857143
 40
0.7857142857142857
 40
0.8571428571428571
 40
0.9285714285714286
 40
1.0
 40
1.0
 10
42.81265397100093
 20
131.80643626880965
 30
0.0
 10
42.80934832269334
 20
131.6757620969205
 30
0.0
 10
42.78790301720112
 20
131.5453471927438
 30
0.0
 10
42.74853098051432
 20
131.4164139793795
 30
0.0
 10
42.69161268572813
 20
131.2901694161228
 30
0.0
 10
42.61769216950792
 20
131.16779377638036
 30
0.0
 10
42.52747155397664
 20
131.0504297303657
 30
0.0
 10
42.421804139269035
 20
130.939171829063
 30
0.0
 10
42.30168614335993
 20
130.83505648040173
 30
0.0
 10
42.1682471759902
 20
130.73905250248026
 30
0.0
 10
42.0227395425857
 20
130.65205233212328
 30
0.0
 10
41.8665264820086
 20
130.57486396015565
 30
0.0
 10
41.70106944883501
 20
130.508203657615
 30
0.0
 10
41.52791455667041
 20
130.45268954978218
 30
0.0
 10
41.348678303851315
 20
130.40883608745014
 30
0.0
  0
LINE
  5
B8
330
17
100
AcDbEntity
  8
hidden
100
AcDbLine
 10
60.144200420494464
 20
106.10055861545935
 30
0.0
 11
53.67150959532202
 21
104.81508560814929
 31
0.0
  0
LINE
  5
B9
330
17
100
AcDbEntity
  8
hidden
100
AcDbLine
 10
53.81724903994988
 20
102.0878737554045
 30
0.0
 11
53.67150959532201
 21
104.81508560814929
 31
0.0
  0
LINE
  5
BA
330
17
100
AcDbEntity
  8
hidden
100
AcDbLine
 10
51.82091494224153
 20
109.92245865296218
 30
0.0
 11
53.67150959532201
 21
104.81508560814927
 31
0.0
  0
LINE
  5
BB
330
17
100
AcDbEntity
  8
hidden
100
AcDbLine
 10
42.81265397100095
 20
131.80643626880962
 30
0.0
 11
42.55995284745449
 21
137.57528948310392
 31
0.0
  0
LINE
  5
BC
330
17
100
AcDbEntity
  8
hidden
100
AcDbLine
 10
38.93802223267221
 20
131.5979584460268
 30
0.0
 11
38.70827108102897
 21
137.36603350342793
 31
0.0
  0
ENDSEC
  0
SECTION
  2
OBJECTS
  0
DICTIONARY
  5
A
330
0
100
AcDbDictionary
281
1
  3
ACAD_COLOR
350
B
  3
ACAD_GROUP
350
C
  3
ACAD_LAYOUT
350
D
  3
ACAD_MATERIAL
350
E
  3
ACAD_MLEADERSTYLE
350
F
  3
ACAD_MLINESTYLE
350
10
  3
ACAD_PLOTSETTINGS
350
11
  3
ACAD_PLOTSTYLENAME
350
12
  3
ACAD_SCALELIST
350
14
  3
ACAD_TABLESTYLE
350
15
  3
ACAD_VISUALSTYLE
350
16
  3
EZDXF_META
350
2D
  0
DICTIONARY
  5
B
330
A
100
AcDbDictionary
281
1
  0
DICTIONARY
  5
C
330
A
100
AcDbDictionary
281
1
  0
DICTIONARY
  5
D
330
A
100
AcDbDictionary
281
1
  3
Model
350
1A
  3
Layout1
350
1E
  0
DICTIONARY
  5
E
330
A
100
AcDbDictionary
281
1
  3
ByBlock
350
1F
  3
ByLayer
350
20
  3
Global
350
21
  0
DICTIONARY
  5
F
330
A
100
AcDbDictionary
281
1
  3
Standard
350
2C
  0
DICTIONARY
  5
10
330
A
100
AcDbDictionary
281
1
  3
Standard
350
22
  0
DICTIONARY
  5
11
330
A
100
AcDbDictionary
281
1
  0
ACDBDICTIONARYWDFLT
  5
12
330
A
100
AcDbDictionary
281
1
  3
Normal
350
13
100
AcDbDictionaryWithDefault
340
13
  0
ACDBPLACEHOLDER
  5
13
330
12
  0
DICTIONARY
  5
14
330
A
100
AcDbDictionary
281
1
  0
DICTIONARY
  5
15
330
A
100
AcDbDictionary
281
1
  0
DICTIONARY
  5
16
330
A
100
AcDbDictionary
281
1
  0
LAYOUT
  5
1A
330
D
100
AcDbPlotSettings
  1

  4
A3
  6

 40
7.5
 41
20.0
 42
7.5
 43
20.0
 44
420.0
 45
297.0
 46
0.0
 47
0.0
 48
0.0
 49
0.0
140
0.0
141
0.0
142
1.0
143
1.0
 70
1024
 72
1
 73
0
 74
5
  7

 75
16
 76
0
 77
2
 78
300
147
1.0
148
0.0
149
0.0
100
AcDbLayout
  1
Model
 70
1
 71
0
 10
0.0
 20
0.0
 11
420.0
 21
297.0
 12
0.0
 22
0.0
 32
0.0
 14
1e+20
 24
1e+20
 34
1e+20
 15
-1e+20
 25
-1e+20
 35
-1e+20
146
0.0
 13
0.0
 23
0.0
 33
0.0
 16
1.0
 26
0.0
 36
0.0
 17
0.0
 27
1.0
 37
0.0
 76
1
330
17
  0
LAYOUT
  5
1E
330
D
100
AcDbPlotSettings
  1

  4
A3
  6

 40
7.5
 41
20.0
 42
7.5
 43
20.0
 44
420.0
 45
297.0
 46
0.0
 47
0.0
 48
0.0
 49
0.0
140
0.0
141
0.0
142
1.0
143
1.0
 70
0
 72
1
 73
0
 74
5
  7

 75
16
 76
0
 77
2
 78
300
147
1.0
148
0.0
149
0.0
100
AcDbLayout
  1
Layout1
 70
1
 71
1
 10
0.0
 20
0.0
 11
420.0
 21
297.0
 12
0.0
 22
0.0
 32
0.0
 14
1e+20
 24
1e+20
 34
1e+20
 15
-1e+20
 25
-1e+20
 35
-1e+20
146
0.0
 13
0.0
 23
0.0
 33
0.0
 16
1.0
 26
0.0
 36
0.0
 17
0.0
 27
1.0
 37
0.0
 76
1
330
1B
  0
MATERIAL
  5
1F
102
{ACAD_REACTORS
330
E
102
}
330
E
100
AcDbMaterial
  1
ByBlock
  2

 70
0
 40
1.0
 71
1
 41
1.0
 91
-1023410177
 42
1.0
 72
1
  3

 73
1
 74
1
 75
1
 44
0.5
 73
0
 45
1.0
 46
1.0
 77
1
  4

 78
1
 79
1
170
1
 48
1.0
171
1
  6

172
1
173
1
174
1
140
1.0
141
1.0
175
1
  7

176
1
177
1
178
1
143
1.0
179
1
  8

270
1
271
1
272
1
145
1.0
146
1.0
273
1
  9

274
1
275
1
276
1
 42
1.0
 72
1
  3

 73
1
 74
1
 75
1
 94
63
  0
MATERIAL
  5
20
102
{ACAD_REACTORS
330
E
102
}
330
E
100
AcDbMaterial
  1
ByLayer
  2

 70
0
 40
1.0
 71
1
 41
1.0
 91
-1023410177
 42
1.0
 72
1
  3

 73
1
 74
1
 75
1
 44
0.5
 73
0
 45
1.0
 46
1.0
 77
1
  4

 78
1
 79
1
170
1
 48
1.0
171
1
  6

172
1
173
1
174
1
140
1.0
141
1.0
175
1
  7

176
1
177
1
178
1
143
1.0
179
1
  8

270
1
271
1
272
1
145
1.0
146
1.0
273
1
  9

274
1
275
1
276
1
 42
1.0
 72
1
  3

 73
1
 74
1
 75
1
 94
63
  0
MATERIAL
  5
21
102
{ACAD_REACTORS
330
E
102
}
330
E
100
AcDbMaterial
  1
Global
  2

 70
0
 40
1.0
 71
1
 41
1.0
 91
-1023410177
 42
1.0
 72
1
  3

 73
1
 74
1
 75
1
 44
0.5
 73
0
 45
1.0
 46
1.0
 77
1
  4

 78
1
 79
1
170
1
 48
1.0
171
1
  6

172
1
173
1
174
1
140
1.0
141
1.0
175
1
  7

176
1
177
1
178
1
143
1.0
179
1
  8

270
1
271
1
272
1
145
1.0
146
1.0
273
1
  9

274
1
275
1
276
1
 42
1.0
 72
1
  3

 73
1
 74
1
 75
1
 94
63
  0
MLINESTYLE
  5
22
102
{ACAD_REACTORS
330
10
102
}
330
10
100
AcDbMlineStyle
  2
Standard
 70
0
  3

 62
256
 51
90.0
 52
90.0
 71
2
 49
0.5
 62
256
  6
BYLAYER
 49
-0.5
 62
256
  6
BYLAYER
  0
MLEADERSTYLE
  5
2C
102
{ACAD_REACTORS
330
F
102
}
330
F
100
AcDbMLeaderStyle
179
2
170
2
171
1
172
0
 90
2
 40
0.0
 41
0.0
173
1
 91
-1056964608
 92
-2
290
1
 42
2.0
291
1
 43
8.0
  3
Standard
 44
4.0
300

342
29
174
1
175
1
176
0
178
1
 93
-1056964608
 45
4.0
292
0
297
0
 46
4.0
 94
-1056964608
 47
1.0
 49
1.0
140
1.0
294
1
141
0.0
177
0
142
1.0
295
0
296
0
143
3.75
271
0
272
9
273
9
  0
DICTIONARY
  5
2D
330
A
100
AcDbDictionary
280
1
281
1
  3
CREATED_BY_EZDXF
350
2E
  3
WRITTEN_BY_EZDXF
350
C0
  0
DICTIONARYVAR
  5
2E
330
2D
100
DictionaryVariables
280
0
  1
1.4.3 @ 2026-04-03T09:36:17.704326+00:00
  0
DICTIONARYVAR
  5
C0
330
2D
100
DictionaryVariables
280
0
  1
1.4.3 @ 2026-04-03T09:36:17.750242+00:00
  0
ENDSEC
  0
EOF
