<?xml version="1.0" encoding="utf-8" standalone="no"?>
<!DOCTYPE svg PUBLIC "-//W3C//DTD SVG 1.1//EN"
  "http://www.w3.org/Graphics/SVG/1.1/DTD/svg11.dtd">
<svg xmlns:xlink="http://www.w3.org/1999/xlink" width="623.297218pt" height="459.777637pt" viewBox="0 0 623.297218 459.777637" xmlns="http://www.w3.org/2000/svg" version="1.1">
 <metadata>
  <rdf:RDF xmlns:dc="http://purl.org/dc/elements/1.1/" xmlns:cc="http://creativecommons.org/ns#" xmlns:rdf="http://www.w3.org/1999/02/22-rdf-syntax-ns#">
   <cc:Work>
    <dc:type rdf:resource="http://purl.org/dc/dcmitype/StillImage"/>
    <dc:date>2026-04-09T16:26:38.864722</dc:date>
    <dc:format>image/svg+xml</dc:format>
    <dc:creator>
     <cc:Agent>
      <dc:title>Matplotlib v3.10.8, https://matplotlib.org/</dc:title>
     </cc:Agent>
    </dc:creator>
   </cc:Work>
  </rdf:RDF>
 </metadata>
 <defs>
  <style type="text/css">*{stroke-linejoin: round; stroke-linecap: butt}</style>
 </defs>
 <g id="figure_1">
  <g id="patch_1">
   <path d="M 0 459.777637 
L 623.297218 459.777637 
L 623.297218 0 
L 0 0 
z
" style="fill: #ffffff"/>
  </g>
  <g id="axes_1">
   <g id="line2d_1">
    <path d="M 186.242026 237.445482 
L 194.662464 237.445482 
" clip-path="url(#p825515e9c1)" style="fill: none; stroke: #111111; stroke-width: 1.4; stroke-linecap: square"/>
   </g>
   <g id="line2d_2">
    <path d="M 183.217218 234.295762 
L 183.221137 233.573968 
" clip-path="url(#p825515e9c1)" style="fill: none; stroke: #111111; stroke-width: 1.4; stroke-linecap: square"/>
   </g>
   <g id="line2d_3">
    <path d="M 183.221137 233.573968 
L 197.683353 233.573968 
" clip-path="url(#p825515e9c1)" style="fill: none; stroke: #111111; stroke-width: 1.4; stroke-linecap: square"/>
   </g>
   <g id="line2d_4">
    <path d="M 197.687272 234.295762 
L 197.683353 233.573968 
" clip-path="url(#p825515e9c1)" style="fill: none; stroke: #111111; stroke-width: 1.4; stroke-linecap: square"/>
   </g>
   <g id="line2d_5">
    <path d="M 183.217218 234.295762 
L 197.687272 234.295762 
" clip-path="url(#p825515e9c1)" style="fill: none; stroke: #111111; stroke-width: 1.4; stroke-linecap: square"/>
   </g>
   <g id="line2d_6">
    <path d="M 186.242026 237.445482 
L 183.217218 234.295762 
" clip-path="url(#p825515e9c1)" style="fill: none; stroke: #111111; stroke-width: 1.4; stroke-linecap: square"/>
   </g>
   <g id="line2d_7">
    <path d="M 194.662464 237.445482 
L 197.687272 234.295762 
" clip-path="url(#p825515e9c1)" style="fill: none; stroke: #111111; stroke-width: 1.4; stroke-linecap: square"/>
   </g>
   <g id="line2d_8">
    <path d="M 188.924963 236.52839 
L 191.979527 236.52839 
" clip-path="url(#p825515e9c1)" style="fill: none; stroke: #111111; stroke-width: 1.4; stroke-linecap: square"/>
   </g>
   <g id="line2d_9">
    <path d="M 188.779132 236.022214 
L 192.125358 236.022214 
" clip-path="url(#p825515e9c1)" style="fill: none; stroke: #111111; stroke-width: 1.4; stroke-linecap: square"/>
   </g>
   <g id="line2d_10">
    <path d="M 188.924963 236.52839 
L 188.779132 236.022214 
" clip-path="url(#p825515e9c1)" style="fill: none; stroke: #111111; stroke-width: 1.4; stroke-linecap: square"/>
   </g>
   <g id="line2d_11">
    <path d="M 191.979527 236.52839 
L 192.125358 236.022214 
" clip-path="url(#p825515e9c1)" style="fill: none; stroke: #111111; stroke-width: 1.4; stroke-linecap: square"/>
   </g>
   <g id="line2d_12">
    <path d="M 189.380014 233.573968 
L 189.38517 227.169064 
" clip-path="url(#p825515e9c1)" style="fill: none; stroke: #111111; stroke-width: 1.4; stroke-linecap: square"/>
   </g>
   <g id="line2d_13">
    <path d="M 189.38517 227.169064 
L 191.51932 227.169064 
" clip-path="url(#p825515e9c1)" style="fill: none; stroke: #111111; stroke-width: 1.4; stroke-linecap: square"/>
   </g>
   <g id="line2d_14">
    <path d="M 191.524477 233.573968 
L 191.51932 227.169064 
" clip-path="url(#p825515e9c1)" style="fill: none; stroke: #111111; stroke-width: 1.4; stroke-linecap: square"/>
   </g>
   <g id="line2d_15">
    <path d="M 188.437049 223.708917 
L 192.467442 223.708917 
" clip-path="url(#p825515e9c1)" style="fill: none; stroke: #111111; stroke-width: 1.4; stroke-linecap: square"/>
   </g>
   <g id="line2d_16">
    <path d="M 188.365036 223.061379 
L 188.366123 222.373124 
" clip-path="url(#p825515e9c1)" style="fill: none; stroke: #111111; stroke-width: 1.4; stroke-linecap: square"/>
   </g>
   <g id="line2d_17">
    <path d="M 188.366123 222.373124 
L 192.538367 222.373124 
" clip-path="url(#p825515e9c1)" style="fill: none; stroke: #111111; stroke-width: 1.4; stroke-linecap: square"/>
   </g>
   <g id="line2d_18">
    <path d="M 192.539454 223.061379 
L 192.538367 222.373124 
" clip-path="url(#p825515e9c1)" style="fill: none; stroke: #111111; stroke-width: 1.4; stroke-linecap: square"/>
   </g>
   <g id="line2d_19">
    <path d="M 188.365036 223.061379 
L 192.539454 223.061379 
" clip-path="url(#p825515e9c1)" style="fill: none; stroke: #111111; stroke-width: 1.4; stroke-linecap: square"/>
   </g>
   <g id="line2d_20">
    <path d="M 188.437049 223.708917 
L 188.365036 223.061379 
" clip-path="url(#p825515e9c1)" style="fill: none; stroke: #111111; stroke-width: 1.4; stroke-linecap: square"/>
   </g>
   <g id="line2d_21">
    <path d="M 192.467442 223.708917 
L 192.539454 223.061379 
" clip-path="url(#p825515e9c1)" style="fill: none; stroke: #111111; stroke-width: 1.4; stroke-linecap: square"/>
   </g>
   <g id="line2d_22">
    <path d="M 189.380014 233.573968 
L 189.380458 233.021683 
" clip-path="url(#p825515e9c1)" style="fill: none; stroke: #111111; stroke-width: 1.4; stroke-linecap: square"/>
   </g>
   <g id="line2d_23">
    <path d="M 189.380458 233.021683 
L 191.524032 233.021683 
" clip-path="url(#p825515e9c1)" style="fill: none; stroke: #111111; stroke-width: 1.4; stroke-linecap: square"/>
   </g>
   <g id="line2d_24">
    <path d="M 191.524477 233.573968 
L 191.524032 233.021683 
" clip-path="url(#p825515e9c1)" style="fill: none; stroke: #111111; stroke-width: 1.4; stroke-linecap: square"/>
   </g>
   <g id="line2d_25">
    <path d="M 186.242026 237.445482 
L 186.243354 237.024367 
" clip-path="url(#p825515e9c1)" style="fill: none; stroke-dasharray: 3.7,1.6; stroke-dashoffset: 0; stroke: #707070"/>
   </g>
   <g id="line2d_26">
    <path d="M 186.243354 237.024367 
L 194.661137 237.024367 
" clip-path="url(#p825515e9c1)" style="fill: none; stroke-dasharray: 3.7,1.6; stroke-dashoffset: 0; stroke: #707070"/>
   </g>
   <g id="line2d_27">
    <path d="M 194.662464 237.445482 
L 194.661137 237.024367 
" clip-path="url(#p825515e9c1)" style="fill: none; stroke-dasharray: 3.7,1.6; stroke-dashoffset: 0; stroke: #707070"/>
   </g>
   <g id="line2d_28">
    <path d="M 186.243354 237.024367 
L 183.221137 233.573968 
" clip-path="url(#p825515e9c1)" style="fill: none; stroke-dasharray: 3.7,1.6; stroke-dashoffset: 0; stroke: #707070"/>
   </g>
   <g id="line2d_29">
    <path d="M 194.661137 237.024367 
L 197.683353 233.573968 
" clip-path="url(#p825515e9c1)" style="fill: none; stroke-dasharray: 3.7,1.6; stroke-dashoffset: 0; stroke: #707070"/>
   </g>
   <g id="line2d_30">
    <path d="M 188.924963 236.52839 
L 188.925545 236.019566 
" clip-path="url(#p825515e9c1)" style="fill: none; stroke-dasharray: 3.7,1.6; stroke-dashoffset: 0; stroke: #707070"/>
   </g>
   <g id="line2d_31">
    <path d="M 188.925545 236.019566 
L 191.978945 236.019566 
" clip-path="url(#p825515e9c1)" style="fill: none; stroke-dasharray: 3.7,1.6; stroke-dashoffset: 0; stroke: #707070"/>
   </g>
   <g id="line2d_32">
    <path d="M 191.979527 236.52839 
L 191.978945 236.019566 
" clip-path="url(#p825515e9c1)" style="fill: none; stroke-dasharray: 3.7,1.6; stroke-dashoffset: 0; stroke: #707070"/>
   </g>
   <g id="line2d_33">
    <path d="M 188.779132 236.022214 
L 188.779831 235.465037 
" clip-path="url(#p825515e9c1)" style="fill: none; stroke-dasharray: 3.7,1.6; stroke-dashoffset: 0; stroke: #707070"/>
   </g>
   <g id="line2d_34">
    <path d="M 188.779831 235.465037 
L 192.124659 235.465037 
" clip-path="url(#p825515e9c1)" style="fill: none; stroke-dasharray: 3.7,1.6; stroke-dashoffset: 0; stroke: #707070"/>
   </g>
   <g id="line2d_35">
    <path d="M 192.125358 236.022214 
L 192.124659 235.465037 
" clip-path="url(#p825515e9c1)" style="fill: none; stroke-dasharray: 3.7,1.6; stroke-dashoffset: 0; stroke: #707070"/>
   </g>
   <g id="line2d_36">
    <path d="M 188.925545 236.019566 
L 188.779831 235.465037 
" clip-path="url(#p825515e9c1)" style="fill: none; stroke-dasharray: 3.7,1.6; stroke-dashoffset: 0; stroke: #707070"/>
   </g>
   <g id="line2d_37">
    <path d="M 191.978945 236.019566 
L 192.124659 235.465037 
" clip-path="url(#p825515e9c1)" style="fill: none; stroke-dasharray: 3.7,1.6; stroke-dashoffset: 0; stroke: #707070"/>
   </g>
   <g id="line2d_38">
    <path d="M 189.397693 235.809769 
L 189.404315 227.432095 
" clip-path="url(#p825515e9c1)" style="fill: none; stroke-dasharray: 3.7,1.6; stroke-dashoffset: 0; stroke: #707070"/>
   </g>
   <g id="line2d_39">
    <path d="M 189.404315 227.432095 
L 191.500176 227.432095 
" clip-path="url(#p825515e9c1)" style="fill: none; stroke-dasharray: 3.7,1.6; stroke-dashoffset: 0; stroke: #707070"/>
   </g>
   <g id="line2d_40">
    <path d="M 191.506798 235.809769 
L 191.500176 227.432095 
" clip-path="url(#p825515e9c1)" style="fill: none; stroke-dasharray: 3.7,1.6; stroke-dashoffset: 0; stroke: #707070"/>
   </g>
   <g id="line2d_41">
    <path d="M 189.397693 235.809769 
L 191.506798 235.809769 
" clip-path="url(#p825515e9c1)" style="fill: none; stroke-dasharray: 3.7,1.6; stroke-dashoffset: 0; stroke: #707070"/>
   </g>
   <g id="line2d_42">
    <path d="M 189.378303 235.699084 
L 189.380014 233.573968 
" clip-path="url(#p825515e9c1)" style="fill: none; stroke-dasharray: 3.7,1.6; stroke-dashoffset: 0; stroke: #707070"/>
   </g>
   <g id="line2d_43">
    <path d="M 191.526187 235.699084 
L 191.524477 233.573968 
" clip-path="url(#p825515e9c1)" style="fill: none; stroke-dasharray: 3.7,1.6; stroke-dashoffset: 0; stroke: #707070"/>
   </g>
   <g id="line2d_44">
    <path d="M 189.378303 235.699084 
L 191.526187 235.699084 
" clip-path="url(#p825515e9c1)" style="fill: none; stroke-dasharray: 3.7,1.6; stroke-dashoffset: 0; stroke: #707070"/>
   </g>
   <g id="line2d_45">
    <path d="M 189.397693 235.809769 
L 189.378303 235.699084 
" clip-path="url(#p825515e9c1)" style="fill: none; stroke-dasharray: 3.7,1.6; stroke-dashoffset: 0; stroke: #707070"/>
   </g>
   <g id="line2d_46">
    <path d="M 189.404315 227.432095 
L 189.38517 227.169064 
" clip-path="url(#p825515e9c1)" style="fill: none; stroke-dasharray: 3.7,1.6; stroke-dashoffset: 0; stroke: #707070"/>
   </g>
   <g id="line2d_47">
    <path d="M 191.506798 235.809769 
L 191.526187 235.699084 
" clip-path="url(#p825515e9c1)" style="fill: none; stroke-dasharray: 3.7,1.6; stroke-dashoffset: 0; stroke: #707070"/>
   </g>
   <g id="line2d_48">
    <path d="M 191.500176 227.432095 
L 191.51932 227.169064 
" clip-path="url(#p825515e9c1)" style="fill: none; stroke-dasharray: 3.7,1.6; stroke-dashoffset: 0; stroke: #707070"/>
   </g>
   <g id="line2d_49">
    <path d="M 188.437049 223.708917 
L 188.438062 223.04407 
" clip-path="url(#p825515e9c1)" style="fill: none; stroke-dasharray: 3.7,1.6; stroke-dashoffset: 0; stroke: #707070"/>
   </g>
   <g id="line2d_50">
    <path d="M 188.438062 223.04407 
L 192.466428 223.04407 
" clip-path="url(#p825515e9c1)" style="fill: none; stroke-dasharray: 3.7,1.6; stroke-dashoffset: 0; stroke: #707070"/>
   </g>
   <g id="line2d_51">
    <path d="M 192.467442 223.708917 
L 192.466428 223.04407 
" clip-path="url(#p825515e9c1)" style="fill: none; stroke-dasharray: 3.7,1.6; stroke-dashoffset: 0; stroke: #707070"/>
   </g>
   <g id="line2d_52">
    <path d="M 188.438062 223.04407 
L 188.366123 222.373124 
" clip-path="url(#p825515e9c1)" style="fill: none; stroke-dasharray: 3.7,1.6; stroke-dashoffset: 0; stroke: #707070"/>
   </g>
   <g id="line2d_53">
    <path d="M 192.466428 223.04407 
L 192.538367 222.373124 
" clip-path="url(#p825515e9c1)" style="fill: none; stroke-dasharray: 3.7,1.6; stroke-dashoffset: 0; stroke: #707070"/>
   </g>
   <g id="line2d_54">
    <path d="M 189.398941 234.230899 
L 189.399771 233.180394 
" clip-path="url(#p825515e9c1)" style="fill: none; stroke-dasharray: 3.7,1.6; stroke-dashoffset: 0; stroke: #707070"/>
   </g>
   <g id="line2d_55">
    <path d="M 189.399771 233.180394 
L 191.504719 233.180394 
" clip-path="url(#p825515e9c1)" style="fill: none; stroke-dasharray: 3.7,1.6; stroke-dashoffset: 0; stroke: #707070"/>
   </g>
   <g id="line2d_56">
    <path d="M 191.50555 234.230899 
L 191.504719 233.180394 
" clip-path="url(#p825515e9c1)" style="fill: none; stroke-dasharray: 3.7,1.6; stroke-dashoffset: 0; stroke: #707070"/>
   </g>
   <g id="line2d_57">
    <path d="M 189.398941 234.230899 
L 191.50555 234.230899 
" clip-path="url(#p825515e9c1)" style="fill: none; stroke-dasharray: 3.7,1.6; stroke-dashoffset: 0; stroke: #707070"/>
   </g>
   <g id="line2d_58">
    <path d="M 189.379597 234.091353 
L 189.380014 233.573968 
" clip-path="url(#p825515e9c1)" style="fill: none; stroke-dasharray: 3.7,1.6; stroke-dashoffset: 0; stroke: #707070"/>
   </g>
   <g id="line2d_59">
    <path d="M 191.524893 234.091353 
L 191.524477 233.573968 
" clip-path="url(#p825515e9c1)" style="fill: none; stroke-dasharray: 3.7,1.6; stroke-dashoffset: 0; stroke: #707070"/>
   </g>
   <g id="line2d_60">
    <path d="M 189.379597 234.091353 
L 191.524893 234.091353 
" clip-path="url(#p825515e9c1)" style="fill: none; stroke-dasharray: 3.7,1.6; stroke-dashoffset: 0; stroke: #707070"/>
   </g>
   <g id="line2d_61">
    <path d="M 189.398941 234.230899 
L 189.379597 234.091353 
" clip-path="url(#p825515e9c1)" style="fill: none; stroke-dasharray: 3.7,1.6; stroke-dashoffset: 0; stroke: #707070"/>
   </g>
   <g id="line2d_62">
    <path d="M 189.399771 233.180394 
L 189.380458 233.021683 
" clip-path="url(#p825515e9c1)" style="fill: none; stroke-dasharray: 3.7,1.6; stroke-dashoffset: 0; stroke: #707070"/>
   </g>
   <g id="line2d_63">
    <path d="M 191.50555 234.230899 
L 191.524893 234.091353 
" clip-path="url(#p825515e9c1)" style="fill: none; stroke-dasharray: 3.7,1.6; stroke-dashoffset: 0; stroke: #707070"/>
   </g>
   <g id="line2d_64">
    <path d="M 191.504719 233.180394 
L 191.524032 233.021683 
" clip-path="url(#p825515e9c1)" style="fill: none; stroke-dasharray: 3.7,1.6; stroke-dashoffset: 0; stroke: #707070"/>
   </g>
   <g id="text_1">
    <g id="patch_2">
     <path d="M 150.061229 131.275148 
L 230.843261 131.275148 
Q 232.643261 131.275148 232.643261 129.475148 
L 232.643261 120.764835 
Q 232.643261 118.964835 230.843261 118.964835 
L 150.061229 118.964835 
Q 148.261229 118.964835 148.261229 120.764835 
L 148.261229 129.475148 
Q 148.261229 131.275148 150.061229 131.275148 
z
" style="fill: #f7f7f7; stroke: #333333; stroke-linejoin: miter"/>
    </g>
    <!-- View side (side) -->
    <g transform="translate(150.061229 127.603429) scale(0.09 -0.09)">
     <defs>
      <path id="DejaVuSans-Bold-56" d="M 31 4666 
L 1241 4666 
L 2478 1222 
L 3713 4666 
L 4922 4666 
L 3194 0 
L 1759 0 
L 31 4666 
z
" transform="scale(0.015625)"/>
      <path id="DejaVuSans-Bold-69" d="M 538 3500 
L 1656 3500 
L 1656 0 
L 538 0 
L 538 3500 
z
M 538 4863 
L 1656 4863 
L 1656 3950 
L 538 3950 
L 538 4863 
z
" transform="scale(0.015625)"/>
      <path id="DejaVuSans-Bold-65" d="M 4031 1759 
L 4031 1441 
L 1416 1441 
Q 1456 1047 1700 850 
Q 1944 653 2381 653 
Q 2734 653 3104 758 
Q 3475 863 3866 1075 
L 3866 213 
Q 3469 63 3072 -14 
Q 2675 -91 2278 -91 
Q 1328 -91 801 392 
Q 275 875 275 1747 
Q 275 2603 792 3093 
Q 1309 3584 2216 3584 
Q 3041 3584 3536 3087 
Q 4031 2591 4031 1759 
z
M 2881 2131 
Q 2881 2450 2695 2645 
Q 2509 2841 2209 2841 
Q 1884 2841 1681 2658 
Q 1478 2475 1428 2131 
L 2881 2131 
z
" transform="scale(0.015625)"/>
      <path id="DejaVuSans-Bold-77" d="M 225 3500 
L 1313 3500 
L 1900 1088 
L 2491 3500 
L 3425 3500 
L 4013 1113 
L 4603 3500 
L 5691 3500 
L 4769 0 
L 3547 0 
L 2956 2406 
L 2369 0 
L 1147 0 
L 225 3500 
z
" transform="scale(0.015625)"/>
      <path id="DejaVuSans-Bold-20" transform="scale(0.015625)"/>
      <path id="DejaVuSans-Bold-73" d="M 3272 3391 
L 3272 2541 
Q 2913 2691 2578 2766 
Q 2244 2841 1947 2841 
Q 1628 2841 1473 2761 
Q 1319 2681 1319 2516 
Q 1319 2381 1436 2309 
Q 1553 2238 1856 2203 
L 2053 2175 
Q 2913 2066 3209 1816 
Q 3506 1566 3506 1031 
Q 3506 472 3093 190 
Q 2681 -91 1863 -91 
Q 1516 -91 1145 -36 
Q 775 19 384 128 
L 384 978 
Q 719 816 1070 734 
Q 1422 653 1784 653 
Q 2113 653 2278 743 
Q 2444 834 2444 1013 
Q 2444 1163 2330 1236 
Q 2216 1309 1875 1350 
L 1678 1375 
Q 931 1469 631 1722 
Q 331 1975 331 2491 
Q 331 3047 712 3315 
Q 1094 3584 1881 3584 
Q 2191 3584 2531 3537 
Q 2872 3491 3272 3391 
z
" transform="scale(0.015625)"/>
      <path id="DejaVuSans-Bold-64" d="M 2919 2988 
L 2919 4863 
L 4044 4863 
L 4044 0 
L 2919 0 
L 2919 506 
Q 2688 197 2409 53 
Q 2131 -91 1766 -91 
Q 1119 -91 703 423 
Q 288 938 288 1747 
Q 288 2556 703 3070 
Q 1119 3584 1766 3584 
Q 2128 3584 2408 3439 
Q 2688 3294 2919 2988 
z
M 2181 722 
Q 2541 722 2730 984 
Q 2919 1247 2919 1747 
Q 2919 2247 2730 2509 
Q 2541 2772 2181 2772 
Q 1825 2772 1636 2509 
Q 1447 2247 1447 1747 
Q 1447 1247 1636 984 
Q 1825 722 2181 722 
z
" transform="scale(0.015625)"/>
      <path id="DejaVuSans-Bold-28" d="M 2413 -844 
L 1484 -844 
Q 1006 -72 778 623 
Q 550 1319 550 2003 
Q 550 2688 779 3389 
Q 1009 4091 1484 4856 
L 2413 4856 
Q 2013 4116 1813 3408 
Q 1613 2700 1613 2009 
Q 1613 1319 1811 609 
Q 2009 -100 2413 -844 
z
" transform="scale(0.015625)"/>
      <path id="DejaVuSans-Bold-29" d="M 513 -844 
Q 913 -100 1113 609 
Q 1313 1319 1313 2009 
Q 1313 2700 1113 3408 
Q 913 4116 513 4856 
L 1441 4856 
Q 1916 4091 2145 3389 
Q 2375 2688 2375 2003 
Q 2375 1319 2147 623 
Q 1919 -72 1441 -844 
L 513 -844 
z
" transform="scale(0.015625)"/>
     </defs>
     <use xlink:href="#DejaVuSans-Bold-56"/>
     <use xlink:href="#DejaVuSans-Bold-69" transform="translate(75.642578 0)"/>
     <use xlink:href="#DejaVuSans-Bold-65" transform="translate(109.919922 0)"/>
     <use xlink:href="#DejaVuSans-Bold-77" transform="translate(177.742188 0)"/>
     <use xlink:href="#DejaVuSans-Bold-20" transform="translate(270.125 0)"/>
     <use xlink:href="#DejaVuSans-Bold-73" transform="translate(304.939453 0)"/>
     <use xlink:href="#DejaVuSans-Bold-69" transform="translate(364.460938 0)"/>
     <use xlink:href="#DejaVuSans-Bold-64" transform="translate(398.738281 0)"/>
     <use xlink:href="#DejaVuSans-Bold-65" transform="translate(470.320312 0)"/>
     <use xlink:href="#DejaVuSans-Bold-20" transform="translate(538.142578 0)"/>
     <use xlink:href="#DejaVuSans-Bold-28" transform="translate(572.957031 0)"/>
     <use xlink:href="#DejaVuSans-Bold-73" transform="translate(618.660156 0)"/>
     <use xlink:href="#DejaVuSans-Bold-69" transform="translate(678.181641 0)"/>
     <use xlink:href="#DejaVuSans-Bold-64" transform="translate(712.458984 0)"/>
     <use xlink:href="#DejaVuSans-Bold-65" transform="translate(784.041016 0)"/>
     <use xlink:href="#DejaVuSans-Bold-29" transform="translate(851.863281 0)"/>
    </g>
   </g>
   <g id="text_2">
    <g id="patch_3">
     <path d="M 183.217218 166.856465 
L 218.293468 166.856465 
Q 219.493468 166.856465 219.493468 165.656465 
L 219.493468 157.913965 
Q 219.493468 156.713965 218.293468 156.713965 
L 183.217218 156.713965 
Q 182.017218 156.713965 182.017218 157.913965 
L 182.017218 165.656465 
Q 182.017218 166.856465 183.217218 166.856465 
z
" style="fill: #eef6ff; stroke: #4a6fa5; stroke-linejoin: miter"/>
    </g>
    <!-- Datum A -->
    <g transform="translate(183.217218 163.992715) scale(0.08 -0.08)">
     <defs>
      <path id="DejaVuSans-44" d="M 1259 4147 
L 1259 519 
L 2022 519 
Q 2988 519 3436 956 
Q 3884 1394 3884 2338 
Q 3884 3275 3436 3711 
Q 2988 4147 2022 4147 
L 1259 4147 
z
M 628 4666 
L 1925 4666 
Q 3281 4666 3915 4102 
Q 4550 3538 4550 2338 
Q 4550 1131 3912 565 
Q 3275 0 1925 0 
L 628 0 
L 628 4666 
z
" transform="scale(0.015625)"/>
      <path id="DejaVuSans-61" d="M 2194 1759 
Q 1497 1759 1228 1600 
Q 959 1441 959 1056 
Q 959 750 1161 570 
Q 1363 391 1709 391 
Q 2188 391 2477 730 
Q 2766 1069 2766 1631 
L 2766 1759 
L 2194 1759 
z
M 3341 1997 
L 3341 0 
L 2766 0 
L 2766 531 
Q 2569 213 2275 61 
Q 1981 -91 1556 -91 
Q 1019 -91 701 211 
Q 384 513 384 1019 
Q 384 1609 779 1909 
Q 1175 2209 1959 2209 
L 2766 2209 
L 2766 2266 
Q 2766 2663 2505 2880 
Q 2244 3097 1772 3097 
Q 1472 3097 1187 3025 
Q 903 2953 641 2809 
L 641 3341 
Q 956 3463 1253 3523 
Q 1550 3584 1831 3584 
Q 2591 3584 2966 3190 
Q 3341 2797 3341 1997 
z
" transform="scale(0.015625)"/>
      <path id="DejaVuSans-74" d="M 1172 4494 
L 1172 3500 
L 2356 3500 
L 2356 3053 
L 1172 3053 
L 1172 1153 
Q 1172 725 1289 603 
Q 1406 481 1766 481 
L 2356 481 
L 2356 0 
L 1766 0 
Q 1100 0 847 248 
Q 594 497 594 1153 
L 594 3053 
L 172 3053 
L 172 3500 
L 594 3500 
L 594 4494 
L 1172 4494 
z
" transform="scale(0.015625)"/>
      <path id="DejaVuSans-75" d="M 544 1381 
L 544 3500 
L 1119 3500 
L 1119 1403 
Q 1119 906 1312 657 
Q 1506 409 1894 409 
Q 2359 409 2629 706 
Q 2900 1003 2900 1516 
L 2900 3500 
L 3475 3500 
L 3475 0 
L 2900 0 
L 2900 538 
Q 2691 219 2414 64 
Q 2138 -91 1772 -91 
Q 1169 -91 856 284 
Q 544 659 544 1381 
z
M 1991 3584 
L 1991 3584 
z
" transform="scale(0.015625)"/>
      <path id="DejaVuSans-6d" d="M 3328 2828 
Q 3544 3216 3844 3400 
Q 4144 3584 4550 3584 
Q 5097 3584 5394 3201 
Q 5691 2819 5691 2113 
L 5691 0 
L 5113 0 
L 5113 2094 
Q 5113 2597 4934 2840 
Q 4756 3084 4391 3084 
Q 3944 3084 3684 2787 
Q 3425 2491 3425 1978 
L 3425 0 
L 2847 0 
L 2847 2094 
Q 2847 2600 2669 2842 
Q 2491 3084 2119 3084 
Q 1678 3084 1418 2786 
Q 1159 2488 1159 1978 
L 1159 0 
L 581 0 
L 581 3500 
L 1159 3500 
L 1159 2956 
Q 1356 3278 1631 3431 
Q 1906 3584 2284 3584 
Q 2666 3584 2933 3390 
Q 3200 3197 3328 2828 
z
" transform="scale(0.015625)"/>
      <path id="DejaVuSans-20" transform="scale(0.015625)"/>
      <path id="DejaVuSans-41" d="M 2188 4044 
L 1331 1722 
L 3047 1722 
L 2188 4044 
z
M 1831 4666 
L 2547 4666 
L 4325 0 
L 3669 0 
L 3244 1197 
L 1141 1197 
L 716 0 
L 50 0 
L 1831 4666 
z
" transform="scale(0.015625)"/>
     </defs>
     <use xlink:href="#DejaVuSans-44"/>
     <use xlink:href="#DejaVuSans-61" transform="translate(77.001953 0)"/>
     <use xlink:href="#DejaVuSans-74" transform="translate(138.28125 0)"/>
     <use xlink:href="#DejaVuSans-75" transform="translate(177.490234 0)"/>
     <use xlink:href="#DejaVuSans-6d" transform="translate(240.869141 0)"/>
     <use xlink:href="#DejaVuSans-20" transform="translate(338.28125 0)"/>
     <use xlink:href="#DejaVuSans-41" transform="translate(370.068359 0)"/>
    </g>
   </g>
   <g id="text_3">
    <g id="patch_4">
     <path d="M 183.217218 192.281174 
L 218.309718 192.281174 
Q 219.509718 192.281174 219.509718 191.081174 
L 219.509718 183.338674 
Q 219.509718 182.138674 218.309718 182.138674 
L 183.217218 182.138674 
Q 182.017218 182.138674 182.017218 183.338674 
L 182.017218 191.081174 
Q 182.017218 192.281174 183.217218 192.281174 
z
" style="fill: #eef6ff; stroke: #4a6fa5; stroke-linejoin: miter"/>
    </g>
    <!-- Datum B -->
    <g transform="translate(183.217218 189.417424) scale(0.08 -0.08)">
     <defs>
      <path id="DejaVuSans-42" d="M 1259 2228 
L 1259 519 
L 2272 519 
Q 2781 519 3026 730 
Q 3272 941 3272 1375 
Q 3272 1813 3026 2020 
Q 2781 2228 2272 2228 
L 1259 2228 
z
M 1259 4147 
L 1259 2741 
L 2194 2741 
Q 2656 2741 2882 2914 
Q 3109 3088 3109 3444 
Q 3109 3797 2882 3972 
Q 2656 4147 2194 4147 
L 1259 4147 
z
M 628 4666 
L 2241 4666 
Q 2963 4666 3353 4366 
Q 3744 4066 3744 3513 
Q 3744 3084 3544 2831 
Q 3344 2578 2956 2516 
Q 3422 2416 3680 2098 
Q 3938 1781 3938 1306 
Q 3938 681 3513 340 
Q 3088 0 2303 0 
L 628 0 
L 628 4666 
z
" transform="scale(0.015625)"/>
     </defs>
     <use xlink:href="#DejaVuSans-44"/>
     <use xlink:href="#DejaVuSans-61" transform="translate(77.001953 0)"/>
     <use xlink:href="#DejaVuSans-74" transform="translate(138.28125 0)"/>
     <use xlink:href="#DejaVuSans-75" transform="translate(177.490234 0)"/>
     <use xlink:href="#DejaVuSans-6d" transform="translate(240.869141 0)"/>
     <use xlink:href="#DejaVuSans-20" transform="translate(338.28125 0)"/>
     <use xlink:href="#DejaVuSans-42" transform="translate(370.068359 0)"/>
    </g>
   </g>
   <g id="patch_5">
    <path d="M 196.792845 320.564724 
Q 190.452245 320.564724 184.111645 320.564724 
" style="fill: none; stroke: #b26b00; stroke-width: 0.8; stroke-linecap: round"/>
    <path d="M 193.592845 318.964724 
L 196.792845 320.564724 
L 193.592845 322.164724 
" style="fill: none; stroke: #b26b00; stroke-width: 0.8; stroke-linecap: round"/>
    <path d="M 187.311645 322.164724 
L 184.111645 320.564724 
L 187.311645 318.964724 
" style="fill: none; stroke: #b26b00; stroke-width: 0.8; stroke-linecap: round"/>
   </g>
   <g id="text_4">
    <g id="patch_6">
     <path d="M 102.969147 325.987224 
L 292.405397 325.987224 
Q 293.845397 325.987224 293.845397 324.547224 
L 293.845397 316.582224 
Q 293.845397 315.142224 292.405397 315.142224 
L 102.969147 315.142224 
Q 101.529147 315.142224 101.529147 316.582224 
L 101.529147 324.547224 
Q 101.529147 325.987224 102.969147 325.987224 
z
" style="fill: #fff6e8; stroke: #b26b00; stroke-linejoin: miter"/>
    </g>
    <!-- support_tower_height (linear) = 210 ± nominal -->
    <g transform="translate(102.969147 322.660974) scale(0.08 -0.08)">
     <defs>
      <path id="DejaVuSans-73" d="M 2834 3397 
L 2834 2853 
Q 2591 2978 2328 3040 
Q 2066 3103 1784 3103 
Q 1356 3103 1142 2972 
Q 928 2841 928 2578 
Q 928 2378 1081 2264 
Q 1234 2150 1697 2047 
L 1894 2003 
Q 2506 1872 2764 1633 
Q 3022 1394 3022 966 
Q 3022 478 2636 193 
Q 2250 -91 1575 -91 
Q 1294 -91 989 -36 
Q 684 19 347 128 
L 347 722 
Q 666 556 975 473 
Q 1284 391 1588 391 
Q 1994 391 2212 530 
Q 2431 669 2431 922 
Q 2431 1156 2273 1281 
Q 2116 1406 1581 1522 
L 1381 1569 
Q 847 1681 609 1914 
Q 372 2147 372 2553 
Q 372 3047 722 3315 
Q 1072 3584 1716 3584 
Q 2034 3584 2315 3537 
Q 2597 3491 2834 3397 
z
" transform="scale(0.015625)"/>
      <path id="DejaVuSans-70" d="M 1159 525 
L 1159 -1331 
L 581 -1331 
L 581 3500 
L 1159 3500 
L 1159 2969 
Q 1341 3281 1617 3432 
Q 1894 3584 2278 3584 
Q 2916 3584 3314 3078 
Q 3713 2572 3713 1747 
Q 3713 922 3314 415 
Q 2916 -91 2278 -91 
Q 1894 -91 1617 61 
Q 1341 213 1159 525 
z
M 3116 1747 
Q 3116 2381 2855 2742 
Q 2594 3103 2138 3103 
Q 1681 3103 1420 2742 
Q 1159 2381 1159 1747 
Q 1159 1113 1420 752 
Q 1681 391 2138 391 
Q 2594 391 2855 752 
Q 3116 1113 3116 1747 
z
" transform="scale(0.015625)"/>
      <path id="DejaVuSans-6f" d="M 1959 3097 
Q 1497 3097 1228 2736 
Q 959 2375 959 1747 
Q 959 1119 1226 758 
Q 1494 397 1959 397 
Q 2419 397 2687 759 
Q 2956 1122 2956 1747 
Q 2956 2369 2687 2733 
Q 2419 3097 1959 3097 
z
M 1959 3584 
Q 2709 3584 3137 3096 
Q 3566 2609 3566 1747 
Q 3566 888 3137 398 
Q 2709 -91 1959 -91 
Q 1206 -91 779 398 
Q 353 888 353 1747 
Q 353 2609 779 3096 
Q 1206 3584 1959 3584 
z
" transform="scale(0.015625)"/>
      <path id="DejaVuSans-72" d="M 2631 2963 
Q 2534 3019 2420 3045 
Q 2306 3072 2169 3072 
Q 1681 3072 1420 2755 
Q 1159 2438 1159 1844 
L 1159 0 
L 581 0 
L 581 3500 
L 1159 3500 
L 1159 2956 
Q 1341 3275 1631 3429 
Q 1922 3584 2338 3584 
Q 2397 3584 2469 3576 
Q 2541 3569 2628 3553 
L 2631 2963 
z
" transform="scale(0.015625)"/>
      <path id="DejaVuSans-5f" d="M 3263 -1063 
L 3263 -1509 
L -63 -1509 
L -63 -1063 
L 3263 -1063 
z
" transform="scale(0.015625)"/>
      <path id="DejaVuSans-77" d="M 269 3500 
L 844 3500 
L 1563 769 
L 2278 3500 
L 2956 3500 
L 3675 769 
L 4391 3500 
L 4966 3500 
L 4050 0 
L 3372 0 
L 2619 2869 
L 1863 0 
L 1184 0 
L 269 3500 
z
" transform="scale(0.015625)"/>
      <path id="DejaVuSans-65" d="M 3597 1894 
L 3597 1613 
L 953 1613 
Q 991 1019 1311 708 
Q 1631 397 2203 397 
Q 2534 397 2845 478 
Q 3156 559 3463 722 
L 3463 178 
Q 3153 47 2828 -22 
Q 2503 -91 2169 -91 
Q 1331 -91 842 396 
Q 353 884 353 1716 
Q 353 2575 817 3079 
Q 1281 3584 2069 3584 
Q 2775 3584 3186 3129 
Q 3597 2675 3597 1894 
z
M 3022 2063 
Q 3016 2534 2758 2815 
Q 2500 3097 2075 3097 
Q 1594 3097 1305 2825 
Q 1016 2553 972 2059 
L 3022 2063 
z
" transform="scale(0.015625)"/>
      <path id="DejaVuSans-68" d="M 3513 2113 
L 3513 0 
L 2938 0 
L 2938 2094 
Q 2938 2591 2744 2837 
Q 2550 3084 2163 3084 
Q 1697 3084 1428 2787 
Q 1159 2491 1159 1978 
L 1159 0 
L 581 0 
L 581 4863 
L 1159 4863 
L 1159 2956 
Q 1366 3272 1645 3428 
Q 1925 3584 2291 3584 
Q 2894 3584 3203 3211 
Q 3513 2838 3513 2113 
z
" transform="scale(0.015625)"/>
      <path id="DejaVuSans-69" d="M 603 3500 
L 1178 3500 
L 1178 0 
L 603 0 
L 603 3500 
z
M 603 4863 
L 1178 4863 
L 1178 4134 
L 603 4134 
L 603 4863 
z
" transform="scale(0.015625)"/>
      <path id="DejaVuSans-67" d="M 2906 1791 
Q 2906 2416 2648 2759 
Q 2391 3103 1925 3103 
Q 1463 3103 1205 2759 
Q 947 2416 947 1791 
Q 947 1169 1205 825 
Q 1463 481 1925 481 
Q 2391 481 2648 825 
Q 2906 1169 2906 1791 
z
M 3481 434 
Q 3481 -459 3084 -895 
Q 2688 -1331 1869 -1331 
Q 1566 -1331 1297 -1286 
Q 1028 -1241 775 -1147 
L 775 -588 
Q 1028 -725 1275 -790 
Q 1522 -856 1778 -856 
Q 2344 -856 2625 -561 
Q 2906 -266 2906 331 
L 2906 616 
Q 2728 306 2450 153 
Q 2172 0 1784 0 
Q 1141 0 747 490 
Q 353 981 353 1791 
Q 353 2603 747 3093 
Q 1141 3584 1784 3584 
Q 2172 3584 2450 3431 
Q 2728 3278 2906 2969 
L 2906 3500 
L 3481 3500 
L 3481 434 
z
" transform="scale(0.015625)"/>
      <path id="DejaVuSans-28" d="M 1984 4856 
Q 1566 4138 1362 3434 
Q 1159 2731 1159 2009 
Q 1159 1288 1364 580 
Q 1569 -128 1984 -844 
L 1484 -844 
Q 1016 -109 783 600 
Q 550 1309 550 2009 
Q 550 2706 781 3412 
Q 1013 4119 1484 4856 
L 1984 4856 
z
" transform="scale(0.015625)"/>
      <path id="DejaVuSans-6c" d="M 603 4863 
L 1178 4863 
L 1178 0 
L 603 0 
L 603 4863 
z
" transform="scale(0.015625)"/>
      <path id="DejaVuSans-6e" d="M 3513 2113 
L 3513 0 
L 2938 0 
L 2938 2094 
Q 2938 2591 2744 2837 
Q 2550 3084 2163 3084 
Q 1697 3084 1428 2787 
Q 1159 2491 1159 1978 
L 1159 0 
L 581 0 
L 581 3500 
L 1159 3500 
L 1159 2956 
Q 1366 3272 1645 3428 
Q 1925 3584 2291 3584 
Q 2894 3584 3203 3211 
Q 3513 2838 3513 2113 
z
" transform="scale(0.015625)"/>
      <path id="DejaVuSans-29" d="M 513 4856 
L 1013 4856 
Q 1481 4119 1714 3412 
Q 1947 2706 1947 2009 
Q 1947 1309 1714 600 
Q 1481 -109 1013 -844 
L 513 -844 
Q 928 -128 1133 580 
Q 1338 1288 1338 2009 
Q 1338 2731 1133 3434 
Q 928 4138 513 4856 
z
" transform="scale(0.015625)"/>
      <path id="DejaVuSans-3d" d="M 678 2906 
L 4684 2906 
L 4684 2381 
L 678 2381 
L 678 2906 
z
M 678 1631 
L 4684 1631 
L 4684 1100 
L 678 1100 
L 678 1631 
z
" transform="scale(0.015625)"/>
      <path id="DejaVuSans-32" d="M 1228 531 
L 3431 531 
L 3431 0 
L 469 0 
L 469 531 
Q 828 903 1448 1529 
Q 2069 2156 2228 2338 
Q 2531 2678 2651 2914 
Q 2772 3150 2772 3378 
Q 2772 3750 2511 3984 
Q 2250 4219 1831 4219 
Q 1534 4219 1204 4116 
Q 875 4013 500 3803 
L 500 4441 
Q 881 4594 1212 4672 
Q 1544 4750 1819 4750 
Q 2544 4750 2975 4387 
Q 3406 4025 3406 3419 
Q 3406 3131 3298 2873 
Q 3191 2616 2906 2266 
Q 2828 2175 2409 1742 
Q 1991 1309 1228 531 
z
" transform="scale(0.015625)"/>
      <path id="DejaVuSans-31" d="M 794 531 
L 1825 531 
L 1825 4091 
L 703 3866 
L 703 4441 
L 1819 4666 
L 2450 4666 
L 2450 531 
L 3481 531 
L 3481 0 
L 794 0 
L 794 531 
z
" transform="scale(0.015625)"/>
      <path id="DejaVuSans-30" d="M 2034 4250 
Q 1547 4250 1301 3770 
Q 1056 3291 1056 2328 
Q 1056 1369 1301 889 
Q 1547 409 2034 409 
Q 2525 409 2770 889 
Q 3016 1369 3016 2328 
Q 3016 3291 2770 3770 
Q 2525 4250 2034 4250 
z
M 2034 4750 
Q 2819 4750 3233 4129 
Q 3647 3509 3647 2328 
Q 3647 1150 3233 529 
Q 2819 -91 2034 -91 
Q 1250 -91 836 529 
Q 422 1150 422 2328 
Q 422 3509 836 4129 
Q 1250 4750 2034 4750 
z
" transform="scale(0.015625)"/>
      <path id="DejaVuSans-b1" d="M 2944 4013 
L 2944 2803 
L 4684 2803 
L 4684 2272 
L 2944 2272 
L 2944 1063 
L 2419 1063 
L 2419 2272 
L 678 2272 
L 678 2803 
L 2419 2803 
L 2419 4013 
L 2944 4013 
z
M 678 531 
L 4684 531 
L 4684 0 
L 678 0 
L 678 531 
z
" transform="scale(0.015625)"/>
     </defs>
     <use xlink:href="#DejaVuSans-73"/>
     <use xlink:href="#DejaVuSans-75" transform="translate(52.099609 0)"/>
     <use xlink:href="#DejaVuSans-70" transform="translate(115.478516 0)"/>
     <use xlink:href="#DejaVuSans-70" transform="translate(178.955078 0)"/>
     <use xlink:href="#DejaVuSans-6f" transform="translate(242.431641 0)"/>
     <use xlink:href="#DejaVuSans-72" transform="translate(303.613281 0)"/>
     <use xlink:href="#DejaVuSans-74" transform="translate(344.726562 0)"/>
     <use xlink:href="#DejaVuSans-5f" transform="translate(383.935547 0)"/>
     <use xlink:href="#DejaVuSans-74" transform="translate(433.935547 0)"/>
     <use xlink:href="#DejaVuSans-6f" transform="translate(473.144531 0)"/>
     <use xlink:href="#DejaVuSans-77" transform="translate(534.326172 0)"/>
     <use xlink:href="#DejaVuSans-65" transform="translate(616.113281 0)"/>
     <use xlink:href="#DejaVuSans-72" transform="translate(677.636719 0)"/>
     <use xlink:href="#DejaVuSans-5f" transform="translate(718.75 0)"/>
     <use xlink:href="#DejaVuSans-68" transform="translate(768.75 0)"/>
     <use xlink:href="#DejaVuSans-65" transform="translate(832.128906 0)"/>
     <use xlink:href="#DejaVuSans-69" transform="translate(893.652344 0)"/>
     <use xlink:href="#DejaVuSans-67" transform="translate(921.435547 0)"/>
     <use xlink:href="#DejaVuSans-68" transform="translate(984.912109 0)"/>
     <use xlink:href="#DejaVuSans-74" transform="translate(1048.291016 0)"/>
     <use xlink:href="#DejaVuSans-20" transform="translate(1087.5 0)"/>
     <use xlink:href="#DejaVuSans-28" transform="translate(1119.287109 0)"/>
     <use xlink:href="#DejaVuSans-6c" transform="translate(1158.300781 0)"/>
     <use xlink:href="#DejaVuSans-69" transform="translate(1186.083984 0)"/>
     <use xlink:href="#DejaVuSans-6e" transform="translate(1213.867188 0)"/>
     <use xlink:href="#DejaVuSans-65" transform="translate(1277.246094 0)"/>
     <use xlink:href="#DejaVuSans-61" transform="translate(1338.769531 0)"/>
     <use xlink:href="#DejaVuSans-72" transform="translate(1400.048828 0)"/>
     <use xlink:href="#DejaVuSans-29" transform="translate(1441.162109 0)"/>
     <use xlink:href="#DejaVuSans-20" transform="translate(1480.175781 0)"/>
     <use xlink:href="#DejaVuSans-3d" transform="translate(1511.962891 0)"/>
     <use xlink:href="#DejaVuSans-20" transform="translate(1595.751953 0)"/>
     <use xlink:href="#DejaVuSans-32" transform="translate(1627.539062 0)"/>
     <use xlink:href="#DejaVuSans-31" transform="translate(1691.162109 0)"/>
     <use xlink:href="#DejaVuSans-30" transform="translate(1754.785156 0)"/>
     <use xlink:href="#DejaVuSans-20" transform="translate(1818.408203 0)"/>
     <use xlink:href="#DejaVuSans-b1" transform="translate(1850.195312 0)"/>
     <use xlink:href="#DejaVuSans-20" transform="translate(1933.984375 0)"/>
     <use xlink:href="#DejaVuSans-6e" transform="translate(1965.771484 0)"/>
     <use xlink:href="#DejaVuSans-6f" transform="translate(2029.150391 0)"/>
     <use xlink:href="#DejaVuSans-6d" transform="translate(2090.332031 0)"/>
     <use xlink:href="#DejaVuSans-69" transform="translate(2187.744141 0)"/>
     <use xlink:href="#DejaVuSans-6e" transform="translate(2215.527344 0)"/>
     <use xlink:href="#DejaVuSans-61" transform="translate(2278.90625 0)"/>
     <use xlink:href="#DejaVuSans-6c" transform="translate(2340.185547 0)"/>
    </g>
   </g>
   <g id="patch_7">
    <path d="M 196.792845 347.94518 
Q 190.452245 347.94518 184.111645 347.94518 
" style="fill: none; stroke: #b26b00; stroke-width: 0.8; stroke-linecap: round"/>
    <path d="M 193.592845 346.34518 
L 196.792845 347.94518 
L 193.592845 349.54518 
" style="fill: none; stroke: #b26b00; stroke-width: 0.8; stroke-linecap: round"/>
    <path d="M 187.311645 349.54518 
L 184.111645 347.94518 
L 187.311645 346.34518 
" style="fill: none; stroke: #b26b00; stroke-width: 0.8; stroke-linecap: round"/>
   </g>
   <g id="text_5">
    <g id="patch_8">
     <path d="M 99.004147 353.36768 
L 296.370397 353.36768 
Q 297.810397 353.36768 297.810397 351.92768 
L 297.810397 343.96268 
Q 297.810397 342.52268 296.370397 342.52268 
L 99.004147 342.52268 
Q 97.564147 342.52268 97.564147 343.96268 
L 97.564147 351.92768 
Q 97.564147 353.36768 99.004147 353.36768 
z
" style="fill: #fff6e8; stroke: #b26b00; stroke-linejoin: miter"/>
    </g>
    <!-- raised_goal_shelf_width (linear) = 150 ± nominal -->
    <g transform="translate(99.004147 350.04143) scale(0.08 -0.08)">
     <defs>
      <path id="DejaVuSans-64" d="M 2906 2969 
L 2906 4863 
L 3481 4863 
L 3481 0 
L 2906 0 
L 2906 525 
Q 2725 213 2448 61 
Q 2172 -91 1784 -91 
Q 1150 -91 751 415 
Q 353 922 353 1747 
Q 353 2572 751 3078 
Q 1150 3584 1784 3584 
Q 2172 3584 2448 3432 
Q 2725 3281 2906 2969 
z
M 947 1747 
Q 947 1113 1208 752 
Q 1469 391 1925 391 
Q 2381 391 2643 752 
Q 2906 1113 2906 1747 
Q 2906 2381 2643 2742 
Q 2381 3103 1925 3103 
Q 1469 3103 1208 2742 
Q 947 2381 947 1747 
z
" transform="scale(0.015625)"/>
      <path id="DejaVuSans-66" d="M 2375 4863 
L 2375 4384 
L 1825 4384 
Q 1516 4384 1395 4259 
Q 1275 4134 1275 3809 
L 1275 3500 
L 2222 3500 
L 2222 3053 
L 1275 3053 
L 1275 0 
L 697 0 
L 697 3053 
L 147 3053 
L 147 3500 
L 697 3500 
L 697 3744 
Q 697 4328 969 4595 
Q 1241 4863 1831 4863 
L 2375 4863 
z
" transform="scale(0.015625)"/>
      <path id="DejaVuSans-35" d="M 691 4666 
L 3169 4666 
L 3169 4134 
L 1269 4134 
L 1269 2991 
Q 1406 3038 1543 3061 
Q 1681 3084 1819 3084 
Q 2600 3084 3056 2656 
Q 3513 2228 3513 1497 
Q 3513 744 3044 326 
Q 2575 -91 1722 -91 
Q 1428 -91 1123 -41 
Q 819 9 494 109 
L 494 744 
Q 775 591 1075 516 
Q 1375 441 1709 441 
Q 2250 441 2565 725 
Q 2881 1009 2881 1497 
Q 2881 1984 2565 2268 
Q 2250 2553 1709 2553 
Q 1456 2553 1204 2497 
Q 953 2441 691 2322 
L 691 4666 
z
" transform="scale(0.015625)"/>
     </defs>
     <use xlink:href="#DejaVuSans-72"/>
     <use xlink:href="#DejaVuSans-61" transform="translate(41.113281 0)"/>
     <use xlink:href="#DejaVuSans-69" transform="translate(102.392578 0)"/>
     <use xlink:href="#DejaVuSans-73" transform="translate(130.175781 0)"/>
     <use xlink:href="#DejaVuSans-65" transform="translate(182.275391 0)"/>
     <use xlink:href="#DejaVuSans-64" transform="translate(243.798828 0)"/>
     <use xlink:href="#DejaVuSans-5f" transform="translate(307.275391 0)"/>
     <use xlink:href="#DejaVuSans-67" transform="translate(357.275391 0)"/>
     <use xlink:href="#DejaVuSans-6f" transform="translate(420.751953 0)"/>
     <use xlink:href="#DejaVuSans-61" transform="translate(481.933594 0)"/>
     <use xlink:href="#DejaVuSans-6c" transform="translate(543.212891 0)"/>
     <use xlink:href="#DejaVuSans-5f" transform="translate(570.996094 0)"/>
     <use xlink:href="#DejaVuSans-73" transform="translate(620.996094 0)"/>
     <use xlink:href="#DejaVuSans-68" transform="translate(673.095703 0)"/>
     <use xlink:href="#DejaVuSans-65" transform="translate(736.474609 0)"/>
     <use xlink:href="#DejaVuSans-6c" transform="translate(797.998047 0)"/>
     <use xlink:href="#DejaVuSans-66" transform="translate(825.78125 0)"/>
     <use xlink:href="#DejaVuSans-5f" transform="translate(860.986328 0)"/>
     <use xlink:href="#DejaVuSans-77" transform="translate(910.986328 0)"/>
     <use xlink:href="#DejaVuSans-69" transform="translate(992.773438 0)"/>
     <use xlink:href="#DejaVuSans-64" transform="translate(1020.556641 0)"/>
     <use xlink:href="#DejaVuSans-74" transform="translate(1084.033203 0)"/>
     <use xlink:href="#DejaVuSans-68" transform="translate(1123.242188 0)"/>
     <use xlink:href="#DejaVuSans-20" transform="translate(1186.621094 0)"/>
     <use xlink:href="#DejaVuSans-28" transform="translate(1218.408203 0)"/>
     <use xlink:href="#DejaVuSans-6c" transform="translate(1257.421875 0)"/>
     <use xlink:href="#DejaVuSans-69" transform="translate(1285.205078 0)"/>
     <use xlink:href="#DejaVuSans-6e" transform="translate(1312.988281 0)"/>
     <use xlink:href="#DejaVuSans-65" transform="translate(1376.367188 0)"/>
     <use xlink:href="#DejaVuSans-61" transform="translate(1437.890625 0)"/>
     <use xlink:href="#DejaVuSans-72" transform="translate(1499.169922 0)"/>
     <use xlink:href="#DejaVuSans-29" transform="translate(1540.283203 0)"/>
     <use xlink:href="#DejaVuSans-20" transform="translate(1579.296875 0)"/>
     <use xlink:href="#DejaVuSans-3d" transform="translate(1611.083984 0)"/>
     <use xlink:href="#DejaVuSans-20" transform="translate(1694.873047 0)"/>
     <use xlink:href="#DejaVuSans-31" transform="translate(1726.660156 0)"/>
     <use xlink:href="#DejaVuSans-35" transform="translate(1790.283203 0)"/>
     <use xlink:href="#DejaVuSans-30" transform="translate(1853.90625 0)"/>
     <use xlink:href="#DejaVuSans-20" transform="translate(1917.529297 0)"/>
     <use xlink:href="#DejaVuSans-b1" transform="translate(1949.316406 0)"/>
     <use xlink:href="#DejaVuSans-20" transform="translate(2033.105469 0)"/>
     <use xlink:href="#DejaVuSans-6e" transform="translate(2064.892578 0)"/>
     <use xlink:href="#DejaVuSans-6f" transform="translate(2128.271484 0)"/>
     <use xlink:href="#DejaVuSans-6d" transform="translate(2189.453125 0)"/>
     <use xlink:href="#DejaVuSans-69" transform="translate(2286.865234 0)"/>
     <use xlink:href="#DejaVuSans-6e" transform="translate(2314.648438 0)"/>
     <use xlink:href="#DejaVuSans-61" transform="translate(2378.027344 0)"/>
     <use xlink:href="#DejaVuSans-6c" transform="translate(2439.306641 0)"/>
    </g>
   </g>
   <g id="text_6">
    <g id="patch_9">
     <path d="M 215.288994 227.444374 
L 266.386494 227.444374 
Q 267.586494 227.444374 267.586494 226.244374 
L 267.586494 218.501874 
Q 267.586494 217.301874 266.386494 217.301874 
L 215.288994 217.301874 
Q 214.088994 217.301874 214.088994 218.501874 
L 214.088994 226.244374 
Q 214.088994 227.444374 215.288994 227.444374 
z
" style="fill: #f4f4f4; stroke: #666666; stroke-linejoin: miter"/>
    </g>
    <!-- 1. floor plate -->
    <g transform="translate(215.288994 224.580624) scale(0.08 -0.08)">
     <defs>
      <path id="DejaVuSans-2e" d="M 684 794 
L 1344 794 
L 1344 0 
L 684 0 
L 684 794 
z
" transform="scale(0.015625)"/>
     </defs>
     <use xlink:href="#DejaVuSans-31"/>
     <use xlink:href="#DejaVuSans-2e" transform="translate(63.623047 0)"/>
     <use xlink:href="#DejaVuSans-20" transform="translate(95.410156 0)"/>
     <use xlink:href="#DejaVuSans-66" transform="translate(127.197266 0)"/>
     <use xlink:href="#DejaVuSans-6c" transform="translate(162.402344 0)"/>
     <use xlink:href="#DejaVuSans-6f" transform="translate(190.185547 0)"/>
     <use xlink:href="#DejaVuSans-6f" transform="translate(251.367188 0)"/>
     <use xlink:href="#DejaVuSans-72" transform="translate(312.548828 0)"/>
     <use xlink:href="#DejaVuSans-20" transform="translate(353.662109 0)"/>
     <use xlink:href="#DejaVuSans-70" transform="translate(385.449219 0)"/>
     <use xlink:href="#DejaVuSans-6c" transform="translate(448.925781 0)"/>
     <use xlink:href="#DejaVuSans-61" transform="translate(476.708984 0)"/>
     <use xlink:href="#DejaVuSans-74" transform="translate(537.988281 0)"/>
     <use xlink:href="#DejaVuSans-65" transform="translate(577.197266 0)"/>
    </g>
   </g>
   <g id="text_7">
    <g id="patch_10">
     <path d="M 215.288994 248.95759 
L 271.128994 248.95759 
Q 272.328994 248.95759 272.328994 247.75759 
L 272.328994 240.01509 
Q 272.328994 238.81509 271.128994 238.81509 
L 215.288994 238.81509 
Q 214.088994 238.81509 214.088994 240.01509 
L 214.088994 247.75759 
Q 214.088994 248.95759 215.288994 248.95759 
z
" style="fill: #f4f4f4; stroke: #666666; stroke-linejoin: miter"/>
    </g>
    <!-- 2. lift carriage -->
    <g transform="translate(215.288994 246.09384) scale(0.08 -0.08)">
     <defs>
      <path id="DejaVuSans-63" d="M 3122 3366 
L 3122 2828 
Q 2878 2963 2633 3030 
Q 2388 3097 2138 3097 
Q 1578 3097 1268 2742 
Q 959 2388 959 1747 
Q 959 1106 1268 751 
Q 1578 397 2138 397 
Q 2388 397 2633 464 
Q 2878 531 3122 666 
L 3122 134 
Q 2881 22 2623 -34 
Q 2366 -91 2075 -91 
Q 1284 -91 818 406 
Q 353 903 353 1747 
Q 353 2603 823 3093 
Q 1294 3584 2113 3584 
Q 2378 3584 2631 3529 
Q 2884 3475 3122 3366 
z
" transform="scale(0.015625)"/>
     </defs>
     <use xlink:href="#DejaVuSans-32"/>
     <use xlink:href="#DejaVuSans-2e" transform="translate(63.623047 0)"/>
     <use xlink:href="#DejaVuSans-20" transform="translate(95.410156 0)"/>
     <use xlink:href="#DejaVuSans-6c" transform="translate(127.197266 0)"/>
     <use xlink:href="#DejaVuSans-69" transform="translate(154.980469 0)"/>
     <use xlink:href="#DejaVuSans-66" transform="translate(182.763672 0)"/>
     <use xlink:href="#DejaVuSans-74" transform="translate(216.21875 0)"/>
     <use xlink:href="#DejaVuSans-20" transform="translate(255.427734 0)"/>
     <use xlink:href="#DejaVuSans-63" transform="translate(287.214844 0)"/>
     <use xlink:href="#DejaVuSans-61" transform="translate(342.195312 0)"/>
     <use xlink:href="#DejaVuSans-72" transform="translate(403.474609 0)"/>
     <use xlink:href="#DejaVuSans-72" transform="translate(442.837891 0)"/>
     <use xlink:href="#DejaVuSans-69" transform="translate(483.951172 0)"/>
     <use xlink:href="#DejaVuSans-61" transform="translate(511.734375 0)"/>
     <use xlink:href="#DejaVuSans-67" transform="translate(573.013672 0)"/>
     <use xlink:href="#DejaVuSans-65" transform="translate(636.490234 0)"/>
    </g>
   </g>
   <g id="text_8">
    <g id="patch_11">
     <path d="M 183.217218 377.734516 
L 616.097218 377.734516 
Q 617.537218 377.734516 617.537218 376.294516 
L 617.537218 368.489516 
Q 617.537218 367.049516 616.097218 367.049516 
L 183.217218 367.049516 
Q 181.777218 367.049516 181.777218 368.489516 
L 181.777218 376.294516 
Q 181.777218 377.734516 183.217218 377.734516 
z
" style="fill: #fff0f0; stroke: #b00020; stroke-linejoin: miter"/>
    </g>
    <!-- Note n1: Gravity-only transfer stays within the X-axis lane and uses no active drive mechanism. -->
    <g transform="translate(183.217218 374.568266) scale(0.08 -0.08)">
     <defs>
      <path id="DejaVuSans-Bold-4e" d="M 588 4666 
L 1931 4666 
L 3628 1466 
L 3628 4666 
L 4769 4666 
L 4769 0 
L 3425 0 
L 1728 3200 
L 1728 0 
L 588 0 
L 588 4666 
z
" transform="scale(0.015625)"/>
      <path id="DejaVuSans-Bold-6f" d="M 2203 2784 
Q 1831 2784 1636 2517 
Q 1441 2250 1441 1747 
Q 1441 1244 1636 976 
Q 1831 709 2203 709 
Q 2569 709 2762 976 
Q 2956 1244 2956 1747 
Q 2956 2250 2762 2517 
Q 2569 2784 2203 2784 
z
M 2203 3584 
Q 3106 3584 3614 3096 
Q 4122 2609 4122 1747 
Q 4122 884 3614 396 
Q 3106 -91 2203 -91 
Q 1297 -91 786 396 
Q 275 884 275 1747 
Q 275 2609 786 3096 
Q 1297 3584 2203 3584 
z
" transform="scale(0.015625)"/>
      <path id="DejaVuSans-Bold-74" d="M 1759 4494 
L 1759 3500 
L 2913 3500 
L 2913 2700 
L 1759 2700 
L 1759 1216 
Q 1759 972 1856 886 
Q 1953 800 2241 800 
L 2816 800 
L 2816 0 
L 1856 0 
Q 1194 0 917 276 
Q 641 553 641 1216 
L 641 2700 
L 84 2700 
L 84 3500 
L 641 3500 
L 641 4494 
L 1759 4494 
z
" transform="scale(0.015625)"/>
      <path id="DejaVuSans-Bold-6e" d="M 4056 2131 
L 4056 0 
L 2931 0 
L 2931 347 
L 2931 1631 
Q 2931 2084 2911 2256 
Q 2891 2428 2841 2509 
Q 2775 2619 2662 2680 
Q 2550 2741 2406 2741 
Q 2056 2741 1856 2470 
Q 1656 2200 1656 1722 
L 1656 0 
L 538 0 
L 538 3500 
L 1656 3500 
L 1656 2988 
Q 1909 3294 2193 3439 
Q 2478 3584 2822 3584 
Q 3428 3584 3742 3212 
Q 4056 2841 4056 2131 
z
" transform="scale(0.015625)"/>
      <path id="DejaVuSans-Bold-31" d="M 750 831 
L 1813 831 
L 1813 3847 
L 722 3622 
L 722 4441 
L 1806 4666 
L 2950 4666 
L 2950 831 
L 4013 831 
L 4013 0 
L 750 0 
L 750 831 
z
" transform="scale(0.015625)"/>
      <path id="DejaVuSans-Bold-3a" d="M 716 3500 
L 1844 3500 
L 1844 2291 
L 716 2291 
L 716 3500 
z
M 716 1209 
L 1844 1209 
L 1844 0 
L 716 0 
L 716 1209 
z
" transform="scale(0.015625)"/>
      <path id="DejaVuSans-Bold-47" d="M 4781 347 
Q 4331 128 3847 18 
Q 3363 -91 2847 -91 
Q 1681 -91 1000 561 
Q 319 1213 319 2328 
Q 319 3456 1012 4103 
Q 1706 4750 2913 4750 
Q 3378 4750 3804 4662 
Q 4231 4575 4609 4403 
L 4609 3438 
Q 4219 3659 3833 3768 
Q 3447 3878 3059 3878 
Q 2341 3878 1952 3476 
Q 1563 3075 1563 2328 
Q 1563 1588 1938 1184 
Q 2313 781 3003 781 
Q 3191 781 3352 804 
Q 3513 828 3641 878 
L 3641 1784 
L 2906 1784 
L 2906 2591 
L 4781 2591 
L 4781 347 
z
" transform="scale(0.015625)"/>
      <path id="DejaVuSans-Bold-72" d="M 3138 2547 
Q 2991 2616 2845 2648 
Q 2700 2681 2553 2681 
Q 2122 2681 1889 2404 
Q 1656 2128 1656 1613 
L 1656 0 
L 538 0 
L 538 3500 
L 1656 3500 
L 1656 2925 
Q 1872 3269 2151 3426 
Q 2431 3584 2822 3584 
Q 2878 3584 2943 3579 
Q 3009 3575 3134 3559 
L 3138 2547 
z
" transform="scale(0.015625)"/>
      <path id="DejaVuSans-Bold-61" d="M 2106 1575 
Q 1756 1575 1579 1456 
Q 1403 1338 1403 1106 
Q 1403 894 1545 773 
Q 1688 653 1941 653 
Q 2256 653 2472 879 
Q 2688 1106 2688 1447 
L 2688 1575 
L 2106 1575 
z
M 3816 1997 
L 3816 0 
L 2688 0 
L 2688 519 
Q 2463 200 2181 54 
Q 1900 -91 1497 -91 
Q 953 -91 614 226 
Q 275 544 275 1050 
Q 275 1666 698 1953 
Q 1122 2241 2028 2241 
L 2688 2241 
L 2688 2328 
Q 2688 2594 2478 2717 
Q 2269 2841 1825 2841 
Q 1466 2841 1156 2769 
Q 847 2697 581 2553 
L 581 3406 
Q 941 3494 1303 3539 
Q 1666 3584 2028 3584 
Q 2975 3584 3395 3211 
Q 3816 2838 3816 1997 
z
" transform="scale(0.015625)"/>
      <path id="DejaVuSans-Bold-76" d="M 97 3500 
L 1216 3500 
L 2088 1081 
L 2956 3500 
L 4078 3500 
L 2700 0 
L 1472 0 
L 97 3500 
z
" transform="scale(0.015625)"/>
      <path id="DejaVuSans-Bold-79" d="M 78 3500 
L 1197 3500 
L 2138 1125 
L 2938 3500 
L 4056 3500 
L 2584 -331 
Q 2363 -916 2067 -1148 
Q 1772 -1381 1288 -1381 
L 641 -1381 
L 641 -647 
L 991 -647 
Q 1275 -647 1404 -556 
Q 1534 -466 1606 -231 
L 1638 -134 
L 78 3500 
z
" transform="scale(0.015625)"/>
      <path id="DejaVuSans-Bold-2d" d="M 347 2297 
L 2309 2297 
L 2309 1388 
L 347 1388 
L 347 2297 
z
" transform="scale(0.015625)"/>
      <path id="DejaVuSans-Bold-6c" d="M 538 4863 
L 1656 4863 
L 1656 0 
L 538 0 
L 538 4863 
z
" transform="scale(0.015625)"/>
      <path id="DejaVuSans-Bold-66" d="M 2841 4863 
L 2841 4128 
L 2222 4128 
Q 1984 4128 1890 4042 
Q 1797 3956 1797 3744 
L 1797 3500 
L 2753 3500 
L 2753 2700 
L 1797 2700 
L 1797 0 
L 678 0 
L 678 2700 
L 122 2700 
L 122 3500 
L 678 3500 
L 678 3744 
Q 678 4316 997 4589 
Q 1316 4863 1984 4863 
L 2841 4863 
z
" transform="scale(0.015625)"/>
      <path id="DejaVuSans-Bold-68" d="M 4056 2131 
L 4056 0 
L 2931 0 
L 2931 347 
L 2931 1625 
Q 2931 2084 2911 2256 
Q 2891 2428 2841 2509 
Q 2775 2619 2662 2680 
Q 2550 2741 2406 2741 
Q 2056 2741 1856 2470 
Q 1656 2200 1656 1722 
L 1656 0 
L 538 0 
L 538 4863 
L 1656 4863 
L 1656 2988 
Q 1909 3294 2193 3439 
Q 2478 3584 2822 3584 
Q 3428 3584 3742 3212 
Q 4056 2841 4056 2131 
z
" transform="scale(0.015625)"/>
      <path id="DejaVuSans-Bold-58" d="M 3188 2381 
L 4806 0 
L 3553 0 
L 2463 1594 
L 1381 0 
L 122 0 
L 1741 2381 
L 184 4666 
L 1441 4666 
L 2463 3163 
L 3481 4666 
L 4744 4666 
L 3188 2381 
z
" transform="scale(0.015625)"/>
      <path id="DejaVuSans-Bold-78" d="M 1422 1791 
L 159 3500 
L 1344 3500 
L 2059 2463 
L 2784 3500 
L 3969 3500 
L 2706 1797 
L 4031 0 
L 2847 0 
L 2059 1106 
L 1281 0 
L 97 0 
L 1422 1791 
z
" transform="scale(0.015625)"/>
      <path id="DejaVuSans-Bold-75" d="M 500 1363 
L 500 3500 
L 1625 3500 
L 1625 3150 
Q 1625 2866 1622 2436 
Q 1619 2006 1619 1863 
Q 1619 1441 1641 1255 
Q 1663 1069 1716 984 
Q 1784 875 1895 815 
Q 2006 756 2150 756 
Q 2500 756 2700 1025 
Q 2900 1294 2900 1772 
L 2900 3500 
L 4019 3500 
L 4019 0 
L 2900 0 
L 2900 506 
Q 2647 200 2364 54 
Q 2081 -91 1741 -91 
Q 1134 -91 817 281 
Q 500 653 500 1363 
z
" transform="scale(0.015625)"/>
      <path id="DejaVuSans-Bold-63" d="M 3366 3391 
L 3366 2478 
Q 3138 2634 2908 2709 
Q 2678 2784 2431 2784 
Q 1963 2784 1702 2511 
Q 1441 2238 1441 1747 
Q 1441 1256 1702 982 
Q 1963 709 2431 709 
Q 2694 709 2930 787 
Q 3166 866 3366 1019 
L 3366 103 
Q 3103 6 2833 -42 
Q 2563 -91 2291 -91 
Q 1344 -91 809 395 
Q 275 881 275 1747 
Q 275 2613 809 3098 
Q 1344 3584 2291 3584 
Q 2566 3584 2833 3536 
Q 3100 3488 3366 3391 
z
" transform="scale(0.015625)"/>
      <path id="DejaVuSans-Bold-6d" d="M 3781 2919 
Q 3994 3244 4286 3414 
Q 4578 3584 4928 3584 
Q 5531 3584 5847 3212 
Q 6163 2841 6163 2131 
L 6163 0 
L 5038 0 
L 5038 1825 
Q 5041 1866 5042 1909 
Q 5044 1953 5044 2034 
Q 5044 2406 4934 2573 
Q 4825 2741 4581 2741 
Q 4263 2741 4089 2478 
Q 3916 2216 3909 1719 
L 3909 0 
L 2784 0 
L 2784 1825 
Q 2784 2406 2684 2573 
Q 2584 2741 2328 2741 
Q 2006 2741 1831 2477 
Q 1656 2213 1656 1722 
L 1656 0 
L 531 0 
L 531 3500 
L 1656 3500 
L 1656 2988 
Q 1863 3284 2130 3434 
Q 2397 3584 2719 3584 
Q 3081 3584 3359 3409 
Q 3638 3234 3781 2919 
z
" transform="scale(0.015625)"/>
      <path id="DejaVuSans-Bold-2e" d="M 653 1209 
L 1778 1209 
L 1778 0 
L 653 0 
L 653 1209 
z
" transform="scale(0.015625)"/>
     </defs>
     <use xlink:href="#DejaVuSans-Bold-4e"/>
     <use xlink:href="#DejaVuSans-Bold-6f" transform="translate(83.691406 0)"/>
     <use xlink:href="#DejaVuSans-Bold-74" transform="translate(152.392578 0)"/>
     <use xlink:href="#DejaVuSans-Bold-65" transform="translate(200.195312 0)"/>
     <use xlink:href="#DejaVuSans-Bold-20" transform="translate(268.017578 0)"/>
     <use xlink:href="#DejaVuSans-Bold-6e" transform="translate(302.832031 0)"/>
     <use xlink:href="#DejaVuSans-Bold-31" transform="translate(374.023438 0)"/>
     <use xlink:href="#DejaVuSans-Bold-3a" transform="translate(443.603516 0)"/>
     <use xlink:href="#DejaVuSans-Bold-20" transform="translate(483.59375 0)"/>
     <use xlink:href="#DejaVuSans-Bold-47" transform="translate(518.408203 0)"/>
     <use xlink:href="#DejaVuSans-Bold-72" transform="translate(600.488281 0)"/>
     <use xlink:href="#DejaVuSans-Bold-61" transform="translate(649.804688 0)"/>
     <use xlink:href="#DejaVuSans-Bold-76" transform="translate(717.285156 0)"/>
     <use xlink:href="#DejaVuSans-Bold-69" transform="translate(782.470703 0)"/>
     <use xlink:href="#DejaVuSans-Bold-74" transform="translate(816.748047 0)"/>
     <use xlink:href="#DejaVuSans-Bold-79" transform="translate(864.550781 0)"/>
     <use xlink:href="#DejaVuSans-Bold-2d" transform="translate(929.736328 0)"/>
     <use xlink:href="#DejaVuSans-Bold-6f" transform="translate(971.240234 0)"/>
     <use xlink:href="#DejaVuSans-Bold-6e" transform="translate(1039.941406 0)"/>
     <use xlink:href="#DejaVuSans-Bold-6c" transform="translate(1111.132812 0)"/>
     <use xlink:href="#DejaVuSans-Bold-79" transform="translate(1145.410156 0)"/>
     <use xlink:href="#DejaVuSans-Bold-20" transform="translate(1210.595703 0)"/>
     <use xlink:href="#DejaVuSans-Bold-74" transform="translate(1245.410156 0)"/>
     <use xlink:href="#DejaVuSans-Bold-72" transform="translate(1293.212891 0)"/>
     <use xlink:href="#DejaVuSans-Bold-61" transform="translate(1342.529297 0)"/>
     <use xlink:href="#DejaVuSans-Bold-6e" transform="translate(1410.009766 0)"/>
     <use xlink:href="#DejaVuSans-Bold-73" transform="translate(1481.201172 0)"/>
     <use xlink:href="#DejaVuSans-Bold-66" transform="translate(1540.722656 0)"/>
     <use xlink:href="#DejaVuSans-Bold-65" transform="translate(1584.228516 0)"/>
     <use xlink:href="#DejaVuSans-Bold-72" transform="translate(1652.050781 0)"/>
     <use xlink:href="#DejaVuSans-Bold-20" transform="translate(1701.367188 0)"/>
     <use xlink:href="#DejaVuSans-Bold-73" transform="translate(1736.181641 0)"/>
     <use xlink:href="#DejaVuSans-Bold-74" transform="translate(1795.703125 0)"/>
     <use xlink:href="#DejaVuSans-Bold-61" transform="translate(1843.505859 0)"/>
     <use xlink:href="#DejaVuSans-Bold-79" transform="translate(1907.861328 0)"/>
     <use xlink:href="#DejaVuSans-Bold-73" transform="translate(1973.046875 0)"/>
     <use xlink:href="#DejaVuSans-Bold-20" transform="translate(2032.568359 0)"/>
     <use xlink:href="#DejaVuSans-Bold-77" transform="translate(2067.382812 0)"/>
     <use xlink:href="#DejaVuSans-Bold-69" transform="translate(2159.765625 0)"/>
     <use xlink:href="#DejaVuSans-Bold-74" transform="translate(2194.042969 0)"/>
     <use xlink:href="#DejaVuSans-Bold-68" transform="translate(2241.845703 0)"/>
     <use xlink:href="#DejaVuSans-Bold-69" transform="translate(2313.037109 0)"/>
     <use xlink:href="#DejaVuSans-Bold-6e" transform="translate(2347.314453 0)"/>
     <use xlink:href="#DejaVuSans-Bold-20" transform="translate(2418.505859 0)"/>
     <use xlink:href="#DejaVuSans-Bold-74" transform="translate(2453.320312 0)"/>
     <use xlink:href="#DejaVuSans-Bold-68" transform="translate(2501.123047 0)"/>
     <use xlink:href="#DejaVuSans-Bold-65" transform="translate(2572.314453 0)"/>
     <use xlink:href="#DejaVuSans-Bold-20" transform="translate(2640.136719 0)"/>
     <use xlink:href="#DejaVuSans-Bold-58" transform="translate(2674.951172 0)"/>
     <use xlink:href="#DejaVuSans-Bold-2d" transform="translate(2743.925781 0)"/>
     <use xlink:href="#DejaVuSans-Bold-61" transform="translate(2785.429688 0)"/>
     <use xlink:href="#DejaVuSans-Bold-78" transform="translate(2852.910156 0)"/>
     <use xlink:href="#DejaVuSans-Bold-69" transform="translate(2917.412109 0)"/>
     <use xlink:href="#DejaVuSans-Bold-73" transform="translate(2951.689453 0)"/>
     <use xlink:href="#DejaVuSans-Bold-20" transform="translate(3011.210938 0)"/>
     <use xlink:href="#DejaVuSans-Bold-6c" transform="translate(3046.025391 0)"/>
     <use xlink:href="#DejaVuSans-Bold-61" transform="translate(3080.302734 0)"/>
     <use xlink:href="#DejaVuSans-Bold-6e" transform="translate(3147.783203 0)"/>
     <use xlink:href="#DejaVuSans-Bold-65" transform="translate(3218.974609 0)"/>
     <use xlink:href="#DejaVuSans-Bold-20" transform="translate(3286.796875 0)"/>
     <use xlink:href="#DejaVuSans-Bold-61" transform="translate(3321.611328 0)"/>
     <use xlink:href="#DejaVuSans-Bold-6e" transform="translate(3389.091797 0)"/>
     <use xlink:href="#DejaVuSans-Bold-64" transform="translate(3460.283203 0)"/>
     <use xlink:href="#DejaVuSans-Bold-20" transform="translate(3531.865234 0)"/>
     <use xlink:href="#DejaVuSans-Bold-75" transform="translate(3566.679688 0)"/>
     <use xlink:href="#DejaVuSans-Bold-73" transform="translate(3637.871094 0)"/>
     <use xlink:href="#DejaVuSans-Bold-65" transform="translate(3697.392578 0)"/>
     <use xlink:href="#DejaVuSans-Bold-73" transform="translate(3765.214844 0)"/>
     <use xlink:href="#DejaVuSans-Bold-20" transform="translate(3824.736328 0)"/>
     <use xlink:href="#DejaVuSans-Bold-6e" transform="translate(3859.550781 0)"/>
     <use xlink:href="#DejaVuSans-Bold-6f" transform="translate(3930.742188 0)"/>
     <use xlink:href="#DejaVuSans-Bold-20" transform="translate(3999.443359 0)"/>
     <use xlink:href="#DejaVuSans-Bold-61" transform="translate(4034.257812 0)"/>
     <use xlink:href="#DejaVuSans-Bold-63" transform="translate(4101.738281 0)"/>
     <use xlink:href="#DejaVuSans-Bold-74" transform="translate(4161.015625 0)"/>
     <use xlink:href="#DejaVuSans-Bold-69" transform="translate(4208.818359 0)"/>
     <use xlink:href="#DejaVuSans-Bold-76" transform="translate(4243.095703 0)"/>
     <use xlink:href="#DejaVuSans-Bold-65" transform="translate(4308.28125 0)"/>
     <use xlink:href="#DejaVuSans-Bold-20" transform="translate(4376.103516 0)"/>
     <use xlink:href="#DejaVuSans-Bold-64" transform="translate(4410.917969 0)"/>
     <use xlink:href="#DejaVuSans-Bold-72" transform="translate(4482.5 0)"/>
     <use xlink:href="#DejaVuSans-Bold-69" transform="translate(4531.816406 0)"/>
     <use xlink:href="#DejaVuSans-Bold-76" transform="translate(4566.09375 0)"/>
     <use xlink:href="#DejaVuSans-Bold-65" transform="translate(4631.279297 0)"/>
     <use xlink:href="#DejaVuSans-Bold-20" transform="translate(4699.101562 0)"/>
     <use xlink:href="#DejaVuSans-Bold-6d" transform="translate(4733.916016 0)"/>
     <use xlink:href="#DejaVuSans-Bold-65" transform="translate(4838.115234 0)"/>
     <use xlink:href="#DejaVuSans-Bold-63" transform="translate(4905.9375 0)"/>
     <use xlink:href="#DejaVuSans-Bold-68" transform="translate(4965.214844 0)"/>
     <use xlink:href="#DejaVuSans-Bold-61" transform="translate(5036.40625 0)"/>
     <use xlink:href="#DejaVuSans-Bold-6e" transform="translate(5103.886719 0)"/>
     <use xlink:href="#DejaVuSans-Bold-69" transform="translate(5175.078125 0)"/>
     <use xlink:href="#DejaVuSans-Bold-73" transform="translate(5209.355469 0)"/>
     <use xlink:href="#DejaVuSans-Bold-6d" transform="translate(5268.876953 0)"/>
     <use xlink:href="#DejaVuSans-Bold-2e" transform="translate(5373.076172 0)"/>
    </g>
   </g>
   <g id="text_9">
    <!-- Sideways Ball Drawing - side -->
    <g transform="translate(118.453026 14.798437) scale(0.1 -0.1)">
     <defs>
      <path id="DejaVuSans-53" d="M 3425 4513 
L 3425 3897 
Q 3066 4069 2747 4153 
Q 2428 4238 2131 4238 
Q 1616 4238 1336 4038 
Q 1056 3838 1056 3469 
Q 1056 3159 1242 3001 
Q 1428 2844 1947 2747 
L 2328 2669 
Q 3034 2534 3370 2195 
Q 3706 1856 3706 1288 
Q 3706 609 3251 259 
Q 2797 -91 1919 -91 
Q 1588 -91 1214 -16 
Q 841 59 441 206 
L 441 856 
Q 825 641 1194 531 
Q 1563 422 1919 422 
Q 2459 422 2753 634 
Q 3047 847 3047 1241 
Q 3047 1584 2836 1778 
Q 2625 1972 2144 2069 
L 1759 2144 
Q 1053 2284 737 2584 
Q 422 2884 422 3419 
Q 422 4038 858 4394 
Q 1294 4750 2059 4750 
Q 2388 4750 2728 4690 
Q 3069 4631 3425 4513 
z
" transform="scale(0.015625)"/>
      <path id="DejaVuSans-79" d="M 2059 -325 
Q 1816 -950 1584 -1140 
Q 1353 -1331 966 -1331 
L 506 -1331 
L 506 -850 
L 844 -850 
Q 1081 -850 1212 -737 
Q 1344 -625 1503 -206 
L 1606 56 
L 191 3500 
L 800 3500 
L 1894 763 
L 2988 3500 
L 3597 3500 
L 2059 -325 
z
" transform="scale(0.015625)"/>
      <path id="DejaVuSans-2d" d="M 313 2009 
L 1997 2009 
L 1997 1497 
L 313 1497 
L 313 2009 
z
" transform="scale(0.015625)"/>
     </defs>
     <use xlink:href="#DejaVuSans-53"/>
     <use xlink:href="#DejaVuSans-69" transform="translate(63.476562 0)"/>
     <use xlink:href="#DejaVuSans-64" transform="translate(91.259766 0)"/>
     <use xlink:href="#DejaVuSans-65" transform="translate(154.736328 0)"/>
     <use xlink:href="#DejaVuSans-77" transform="translate(216.259766 0)"/>
     <use xlink:href="#DejaVuSans-61" transform="translate(298.046875 0)"/>
     <use xlink:href="#DejaVuSans-79" transform="translate(359.326172 0)"/>
     <use xlink:href="#DejaVuSans-73" transform="translate(418.505859 0)"/>
     <use xlink:href="#DejaVuSans-20" transform="translate(470.605469 0)"/>
     <use xlink:href="#DejaVuSans-42" transform="translate(502.392578 0)"/>
     <use xlink:href="#DejaVuSans-61" transform="translate(570.996094 0)"/>
     <use xlink:href="#DejaVuSans-6c" transform="translate(632.275391 0)"/>
     <use xlink:href="#DejaVuSans-6c" transform="translate(660.058594 0)"/>
     <use xlink:href="#DejaVuSans-20" transform="translate(687.841797 0)"/>
     <use xlink:href="#DejaVuSans-44" transform="translate(719.628906 0)"/>
     <use xlink:href="#DejaVuSans-72" transform="translate(796.630859 0)"/>
     <use xlink:href="#DejaVuSans-61" transform="translate(837.744141 0)"/>
     <use xlink:href="#DejaVuSans-77" transform="translate(899.023438 0)"/>
     <use xlink:href="#DejaVuSans-69" transform="translate(980.810547 0)"/>
     <use xlink:href="#DejaVuSans-6e" transform="translate(1008.59375 0)"/>
     <use xlink:href="#DejaVuSans-67" transform="translate(1071.972656 0)"/>
     <use xlink:href="#DejaVuSans-20" transform="translate(1135.449219 0)"/>
     <use xlink:href="#DejaVuSans-2d" transform="translate(1167.236328 0)"/>
     <use xlink:href="#DejaVuSans-20" transform="translate(1203.320312 0)"/>
     <use xlink:href="#DejaVuSans-73" transform="translate(1235.107422 0)"/>
     <use xlink:href="#DejaVuSans-69" transform="translate(1287.207031 0)"/>
     <use xlink:href="#DejaVuSans-64" transform="translate(1314.990234 0)"/>
     <use xlink:href="#DejaVuSans-65" transform="translate(1378.466797 0)"/>
    </g>
   </g>
  </g>
 </g>
 <defs>
  <clipPath id="p825515e9c1">
   <rect x="7.2" y="26.798437" width="366.50449" height="425.7792"/>
  </clipPath>
 </defs>
</svg>
