<?xml version='1.0' encoding='utf-8'?>
<svg width="214.680317mm" height="301.492103mm" viewBox="-96.625669 -209.076774 214.680317 301.492103" version="1.1" xmlns="http://www.w3.org/2000/svg">
  <g transform="scale(1,-1)" stroke-linecap="round">
    <g fill="none" stroke="rgb(0,0,0)" stroke-width="0.09" id="visible">
      <line x1="99.163339" y1="58.045767" x2="97.115416" y2="72.165587" />
      <line x1="97.115416" y1="72.165587" x2="-94.57415" y2="76.696816" />
      <line x1="-96.580669" y1="62.586857" x2="-94.57415" y2="76.696816" />
      <line x1="99.163339" y1="58.045767" x2="-96.580669" y2="62.586857" />
      <line x1="75.855426" y1="-75.626447" x2="-84.621695" y2="-72.575359" />
      <line x1="99.163339" y1="58.045767" x2="75.855426" y2="-75.626447" />
      <line x1="-96.580669" y1="62.586857" x2="-84.621695" y2="-72.575359" />
      <line x1="45.951854" y1="73.37501" x2="45.07914" y2="86.06868" />
      <line x1="-50.68065" y1="75.659245" x2="-49.715284" y2="88.346904" />
      <line x1="27.015928" y1="-92.370329" x2="-44.881364" y2="-91.042948" />
      <line x1="28.725226" y1="-74.730379" x2="27.015928" y2="-92.370329" />
      <line x1="-45.31262" y1="-73.322727" x2="-44.881364" y2="-91.042948" />
      <line x1="69.621947" y1="194.622632" x2="68.232455" y2="205.541975" />
      <line x1="68.232455" y1="205.541975" x2="-57.406001" y2="209.031774" />
      <line x1="-58.579696" y1="198.140124" x2="-57.406001" y2="209.031774" />
      <line x1="69.621947" y1="194.622632" x2="-58.579696" y2="198.140124" />
      <line x1="57.244144" y1="85.776315" x2="-55.083866" y2="88.475929" />
      <line x1="69.621947" y1="194.622632" x2="57.244144" y2="85.776315" />
      <line x1="-58.579696" y1="198.140124" x2="-55.083866" y2="88.475929" />
      <line x1="118.009648" y1="156.26601" x2="112.957697" y2="181.330267" />
      <line x1="112.957697" y1="181.330267" x2="91.280735" y2="181.916828" />
      <line x1="95.366087" y1="156.861097" x2="91.280735" y2="181.916828" />
      <line x1="118.009648" y1="156.26601" x2="95.366087" y2="156.861097" />
      <line x1="89.837535" y1="119.854363" x2="86.151225" y2="145.372556" />
      <line x1="111.490297" y1="119.310419" x2="89.837535" y2="119.854363" />
      <line x1="118.009648" y1="156.26601" x2="111.490297" y2="119.310419" />
      <line x1="95.366087" y1="156.861097" x2="89.837535" y2="119.854363" />
      <line x1="91.280735" y1="181.916828" x2="86.151225" y2="145.372556" />
    </g>
    <g fill="none" stroke="rgb(0,0,0)" stroke-width="0.09" id="hidden" stroke-dasharray="0.5715 0.28575">
      <line x1="75.855426" y1="-75.626447" x2="74.565837" y2="-61.730592" />
      <line x1="74.565837" y1="-61.730592" x2="-83.175996" y2="-58.663259" />
      <line x1="-84.621695" y1="-72.575359" x2="-83.175996" y2="-58.663259" />
      <line x1="97.115416" y1="72.165587" x2="74.565837" y2="-61.730592" />
      <line x1="-94.57415" y1="76.696816" x2="-83.175996" y2="-58.663259" />
      <line x1="52.800837" y1="-26.243886" x2="45.951854" y2="73.37501" />
      <line x1="45.07914" y1="86.06868" x2="44.420187" y2="95.653206" />
      <line x1="44.420187" y1="95.653206" x2="-48.986445" y2="97.925929" />
      <line x1="-58.260596" y1="-23.962881" x2="-50.68065" y2="75.659245" />
      <line x1="-49.715284" y1="88.346904" x2="-48.986445" y2="97.925929" />
      <line x1="52.800837" y1="-26.243886" x2="-58.260596" y2="-23.962881" />
      <line x1="47.01266" y1="-72.069756" x2="39.992196" y2="49.458697" />
      <line x1="39.992196" y1="49.458697" x2="-47.885151" y2="51.470103" />
      <line x1="-56.318261" y1="-70.095479" x2="-47.885151" y2="51.470103" />
      <line x1="47.01266" y1="-72.069756" x2="-56.318261" y2="-70.095479" />
      <line x1="52.800837" y1="-26.243886" x2="47.01266" y2="-72.069756" />
      <line x1="44.420187" y1="95.653206" x2="39.992196" y2="49.458697" />
      <line x1="-58.260596" y1="-23.962881" x2="-56.318261" y2="-70.095479" />
      <line x1="-48.986445" y1="97.925929" x2="-47.885151" y2="51.470103" />
      <line x1="32.750001" y1="-33.194719" x2="32.133112" y2="-18.597665" />
      <line x1="32.133112" y1="-18.597665" x2="-45.453534" y2="-16.986718" />
      <line x1="-46.328297" y1="-31.588728" x2="-45.453534" y2="-16.986718" />
      <line x1="32.750001" y1="-33.194719" x2="-46.328297" y2="-31.588728" />
      <line x1="27.015928" y1="-92.370329" x2="26.552445" y2="-78.060277" />
      <line x1="26.552445" y1="-78.060277" x2="-44.109689" y2="-76.724225" />
      <line x1="-44.881364" y1="-91.042948" x2="-44.109689" y2="-76.724225" />
      <line x1="32.750001" y1="-33.194719" x2="28.725226" y2="-74.730379" />
      <line x1="32.133112" y1="-18.597665" x2="26.552445" y2="-78.060277" />
      <line x1="-46.328297" y1="-31.588728" x2="-45.31262" y2="-73.322727" />
      <line x1="-45.453534" y1="-16.986718" x2="-44.109689" y2="-76.724225" />
      <line x1="57.244144" y1="85.776315" x2="56.240554" y2="97.276641" />
      <line x1="56.240554" y1="97.276641" x2="-54.114827" y2="99.968326" />
      <line x1="-55.083866" y1="88.475929" x2="-54.114827" y2="99.968326" />
      <line x1="68.232455" y1="205.541975" x2="56.240554" y2="97.276641" />
      <line x1="-57.406001" y1="209.031774" x2="-54.114827" y2="99.968326" />
      <line x1="111.490297" y1="119.310419" x2="106.918471" y2="144.834382" />
      <line x1="106.918471" y1="144.834382" x2="86.151225" y2="145.372556" />
      <line x1="112.957697" y1="181.330267" x2="106.918471" y2="144.834382" />
    </g>
  </g>
</svg>