<?xml version="1.0" encoding="utf-8" standalone="no"?>
<!DOCTYPE svg PUBLIC "-//W3C//DTD SVG 1.1//EN"
  "http://www.w3.org/Graphics/SVG/1.1/DTD/svg11.dtd">
<svg xmlns:xlink="http://www.w3.org/1999/xlink" width="585.792pt" height="218.085631pt" viewBox="0 0 585.792 218.085631" xmlns="http://www.w3.org/2000/svg" version="1.1">
 <metadata>
  <rdf:RDF xmlns:dc="http://purl.org/dc/elements/1.1/" xmlns:cc="http://creativecommons.org/ns#" xmlns:rdf="http://www.w3.org/1999/02/22-rdf-syntax-ns#">
   <cc:Work>
    <dc:type rdf:resource="http://purl.org/dc/dcmitype/StillImage"/>
    <dc:date>2026-04-11T08:12:41.389008</dc:date>
    <dc:format>image/svg+xml</dc:format>
    <dc:creator>
     <cc:Agent>
      <dc:title>Matplotlib v3.10.8, https://matplotlib.org/</dc:title>
     </cc:Agent>
    </dc:creator>
   </cc:Work>
  </rdf:RDF>
 </metadata>
 <defs>
  <style type="text/css">*{stroke-linejoin: round; stroke-linecap: butt}</style>
 </defs>
 <g id="figure_1">
  <g id="patch_1">
   <path d="M 0 218.085631 
L 585.792 218.085631 
L 585.792 0 
L 0 0 
z
" style="fill: #ffffff"/>
  </g>
  <g id="axes_1">
   <g id="line2d_1">
    <path d="M 492.40438 178.572453 
L 492.40438 56.174053 
" clip-path="url(#p8e50893818)" style="fill: none; stroke: #111111; stroke-width: 1.4; stroke-linecap: square"/>
   </g>
   <g id="line2d_2">
    <path d="M 93.38762 172.740584 
L 93.38762 62.005923 
" clip-path="url(#p8e50893818)" style="fill: none; stroke: #111111; stroke-width: 1.4; stroke-linecap: square"/>
   </g>
   <g id="line2d_3">
    <path d="M 492.40438 178.572453 
L 93.38762 172.740584 
" clip-path="url(#p8e50893818)" style="fill: none; stroke: #111111; stroke-width: 1.4; stroke-linecap: square"/>
   </g>
   <g id="line2d_4">
    <path d="M 492.40438 56.174053 
L 93.38762 62.005923 
" clip-path="url(#p8e50893818)" style="fill: none; stroke: #111111; stroke-width: 1.4; stroke-linecap: square"/>
   </g>
   <g id="line2d_5">
    <path d="M 471.171689 164.731264 
L 471.171689 70.015242 
" clip-path="url(#p8e50893818)" style="fill: none; stroke: #111111; stroke-width: 1.4; stroke-linecap: square"/>
   </g>
   <g id="line2d_6">
    <path d="M 361.471645 163.484228 
L 361.471645 71.262278 
" clip-path="url(#p8e50893818)" style="fill: none; stroke: #111111; stroke-width: 1.4; stroke-linecap: square"/>
   </g>
   <g id="line2d_7">
    <path d="M 471.171689 164.731264 
L 361.471645 163.484228 
" clip-path="url(#p8e50893818)" style="fill: none; stroke: #111111; stroke-width: 1.4; stroke-linecap: square"/>
   </g>
   <g id="line2d_8">
    <path d="M 471.171689 70.015242 
L 361.471645 71.262278 
" clip-path="url(#p8e50893818)" style="fill: none; stroke: #111111; stroke-width: 1.4; stroke-linecap: square"/>
   </g>
   <g id="line2d_9">
    <path d="M 458.225434 165.479442 
L 457.925963 165.364724 
" clip-path="url(#p8e50893818)" style="fill: none; stroke-dasharray: 3.7,1.6; stroke-dashoffset: 0; stroke: #707070"/>
   </g>
   <g id="line2d_10">
    <path d="M 457.925963 165.364724 
L 457.925963 69.381783 
" clip-path="url(#p8e50893818)" style="fill: none; stroke-dasharray: 3.7,1.6; stroke-dashoffset: 0; stroke: #707070"/>
   </g>
   <g id="line2d_11">
    <path d="M 458.225434 69.267064 
L 457.925963 69.381783 
" clip-path="url(#p8e50893818)" style="fill: none; stroke-dasharray: 3.7,1.6; stroke-dashoffset: 0; stroke: #707070"/>
   </g>
   <g id="line2d_12">
    <path d="M 458.225434 165.479442 
L 458.225434 69.267064 
" clip-path="url(#p8e50893818)" style="fill: none; stroke-dasharray: 3.7,1.6; stroke-dashoffset: 0; stroke: #707070"/>
   </g>
   <g id="line2d_13">
    <path d="M 140.660653 161.801002 
L 141.083549 161.703139 
" clip-path="url(#p8e50893818)" style="fill: none; stroke-dasharray: 3.7,1.6; stroke-dashoffset: 0; stroke: #707070"/>
   </g>
   <g id="line2d_14">
    <path d="M 141.083549 161.703139 
L 141.083549 73.043368 
" clip-path="url(#p8e50893818)" style="fill: none; stroke-dasharray: 3.7,1.6; stroke-dashoffset: 0; stroke: #707070"/>
   </g>
   <g id="line2d_15">
    <path d="M 140.660653 72.945504 
L 141.083549 73.043368 
" clip-path="url(#p8e50893818)" style="fill: none; stroke-dasharray: 3.7,1.6; stroke-dashoffset: 0; stroke: #707070"/>
   </g>
   <g id="line2d_16">
    <path d="M 140.660653 161.801002 
L 140.660653 72.945504 
" clip-path="url(#p8e50893818)" style="fill: none; stroke-dasharray: 3.7,1.6; stroke-dashoffset: 0; stroke: #707070"/>
   </g>
   <g id="line2d_17">
    <path d="M 458.225434 165.479442 
L 140.660653 161.801002 
" clip-path="url(#p8e50893818)" style="fill: none; stroke-dasharray: 3.7,1.6; stroke-dashoffset: 0; stroke: #707070"/>
   </g>
   <g id="line2d_18">
    <path d="M 457.925963 165.364724 
L 141.083549 161.703139 
" clip-path="url(#p8e50893818)" style="fill: none; stroke-dasharray: 3.7,1.6; stroke-dashoffset: 0; stroke: #707070"/>
   </g>
   <g id="line2d_19">
    <path d="M 458.225434 69.267064 
L 140.660653 72.945504 
" clip-path="url(#p8e50893818)" style="fill: none; stroke-dasharray: 3.7,1.6; stroke-dashoffset: 0; stroke: #707070"/>
   </g>
   <g id="line2d_20">
    <path d="M 457.925963 69.381783 
L 141.083549 73.043368 
" clip-path="url(#p8e50893818)" style="fill: none; stroke-dasharray: 3.7,1.6; stroke-dashoffset: 0; stroke: #707070"/>
   </g>
   <g id="line2d_21">
    <path d="M 492.40438 178.572453 
L 489.541659 177.475824 
" clip-path="url(#p8e50893818)" style="fill: none; stroke-dasharray: 3.7,1.6; stroke-dashoffset: 0; stroke: #707070"/>
   </g>
   <g id="line2d_22">
    <path d="M 489.541659 177.475824 
L 489.541659 57.270683 
" clip-path="url(#p8e50893818)" style="fill: none; stroke-dasharray: 3.7,1.6; stroke-dashoffset: 0; stroke: #707070"/>
   </g>
   <g id="line2d_23">
    <path d="M 492.40438 56.174053 
L 489.541659 57.270683 
" clip-path="url(#p8e50893818)" style="fill: none; stroke-dasharray: 3.7,1.6; stroke-dashoffset: 0; stroke: #707070"/>
   </g>
   <g id="line2d_24">
    <path d="M 93.38762 172.740584 
L 97.272973 171.841464 
" clip-path="url(#p8e50893818)" style="fill: none; stroke-dasharray: 3.7,1.6; stroke-dashoffset: 0; stroke: #707070"/>
   </g>
   <g id="line2d_25">
    <path d="M 97.272973 171.841464 
L 97.272973 62.905043 
" clip-path="url(#p8e50893818)" style="fill: none; stroke-dasharray: 3.7,1.6; stroke-dashoffset: 0; stroke: #707070"/>
   </g>
   <g id="line2d_26">
    <path d="M 93.38762 62.005923 
L 97.272973 62.905043 
" clip-path="url(#p8e50893818)" style="fill: none; stroke-dasharray: 3.7,1.6; stroke-dashoffset: 0; stroke: #707070"/>
   </g>
   <g id="line2d_27">
    <path d="M 489.541659 177.475824 
L 97.272973 171.841464 
" clip-path="url(#p8e50893818)" style="fill: none; stroke-dasharray: 3.7,1.6; stroke-dashoffset: 0; stroke: #707070"/>
   </g>
   <g id="line2d_28">
    <path d="M 489.541659 57.270683 
L 97.272973 62.905043 
" clip-path="url(#p8e50893818)" style="fill: none; stroke-dasharray: 3.7,1.6; stroke-dashoffset: 0; stroke: #707070"/>
   </g>
   <g id="line2d_29">
    <path d="M 471.171689 164.731264 
L 463.267559 162.029075 
" clip-path="url(#p8e50893818)" style="fill: none; stroke-dasharray: 3.7,1.6; stroke-dashoffset: 0; stroke: #707070"/>
   </g>
   <g id="line2d_30">
    <path d="M 463.267559 162.029075 
L 463.267559 72.717432 
" clip-path="url(#p8e50893818)" style="fill: none; stroke-dasharray: 3.7,1.6; stroke-dashoffset: 0; stroke: #707070"/>
   </g>
   <g id="line2d_31">
    <path d="M 471.171689 70.015242 
L 463.267559 72.717432 
" clip-path="url(#p8e50893818)" style="fill: none; stroke-dasharray: 3.7,1.6; stroke-dashoffset: 0; stroke: #707070"/>
   </g>
   <g id="line2d_32">
    <path d="M 361.471645 163.484228 
L 359.867764 160.918619 
" clip-path="url(#p8e50893818)" style="fill: none; stroke-dasharray: 3.7,1.6; stroke-dashoffset: 0; stroke: #707070"/>
   </g>
   <g id="line2d_33">
    <path d="M 359.867764 160.918619 
L 359.867764 73.827887 
" clip-path="url(#p8e50893818)" style="fill: none; stroke-dasharray: 3.7,1.6; stroke-dashoffset: 0; stroke: #707070"/>
   </g>
   <g id="line2d_34">
    <path d="M 361.471645 71.262278 
L 359.867764 73.827887 
" clip-path="url(#p8e50893818)" style="fill: none; stroke-dasharray: 3.7,1.6; stroke-dashoffset: 0; stroke: #707070"/>
   </g>
   <g id="line2d_35">
    <path d="M 463.267559 162.029075 
L 359.867764 160.918619 
" clip-path="url(#p8e50893818)" style="fill: none; stroke-dasharray: 3.7,1.6; stroke-dashoffset: 0; stroke: #707070"/>
   </g>
   <g id="line2d_36">
    <path d="M 463.267559 72.717432 
L 359.867764 73.827887 
" clip-path="url(#p8e50893818)" style="fill: none; stroke-dasharray: 3.7,1.6; stroke-dashoffset: 0; stroke: #707070"/>
   </g>
   <g id="line2d_37">
    <path d="M 427.702621 172.766125 
L 423.692928 170.429546 
" clip-path="url(#p8e50893818)" style="fill: none; stroke-dasharray: 3.7,1.6; stroke-dashoffset: 0; stroke: #707070"/>
   </g>
   <g id="line2d_38">
    <path d="M 423.692928 170.429546 
L 423.692928 158.639259 
" clip-path="url(#p8e50893818)" style="fill: none; stroke-dasharray: 3.7,1.6; stroke-dashoffset: 0; stroke: #707070"/>
   </g>
   <g id="line2d_39">
    <path d="M 427.702621 160.456598 
L 423.692928 158.639259 
" clip-path="url(#p8e50893818)" style="fill: none; stroke-dasharray: 3.7,1.6; stroke-dashoffset: 0; stroke: #707070"/>
   </g>
   <g id="line2d_40">
    <path d="M 427.702621 172.766125 
L 427.702621 160.456598 
" clip-path="url(#p8e50893818)" style="fill: none; stroke-dasharray: 3.7,1.6; stroke-dashoffset: 0; stroke: #707070"/>
   </g>
   <g id="line2d_41">
    <path d="M 155.361747 169.106802 
L 162.365423 167.063045 
" clip-path="url(#p8e50893818)" style="fill: none; stroke-dasharray: 3.7,1.6; stroke-dashoffset: 0; stroke: #707070"/>
   </g>
   <g id="line2d_42">
    <path d="M 162.365423 167.063045 
L 162.365423 156.020869 
" clip-path="url(#p8e50893818)" style="fill: none; stroke-dasharray: 3.7,1.6; stroke-dashoffset: 0; stroke: #707070"/>
   </g>
   <g id="line2d_43">
    <path d="M 155.361747 157.610458 
L 162.365423 156.020869 
" clip-path="url(#p8e50893818)" style="fill: none; stroke-dasharray: 3.7,1.6; stroke-dashoffset: 0; stroke: #707070"/>
   </g>
   <g id="line2d_44">
    <path d="M 155.361747 169.106802 
L 155.361747 157.610458 
" clip-path="url(#p8e50893818)" style="fill: none; stroke-dasharray: 3.7,1.6; stroke-dashoffset: 0; stroke: #707070"/>
   </g>
   <g id="line2d_45">
    <path d="M 427.702621 172.766125 
L 155.361747 169.106802 
" clip-path="url(#p8e50893818)" style="fill: none; stroke-dasharray: 3.7,1.6; stroke-dashoffset: 0; stroke: #707070"/>
   </g>
   <g id="line2d_46">
    <path d="M 423.692928 170.429546 
L 162.365423 167.063045 
" clip-path="url(#p8e50893818)" style="fill: none; stroke-dasharray: 3.7,1.6; stroke-dashoffset: 0; stroke: #707070"/>
   </g>
   <g id="line2d_47">
    <path d="M 427.702621 160.456598 
L 155.361747 157.610458 
" clip-path="url(#p8e50893818)" style="fill: none; stroke-dasharray: 3.7,1.6; stroke-dashoffset: 0; stroke: #707070"/>
   </g>
   <g id="line2d_48">
    <path d="M 423.692928 158.639259 
L 162.365423 156.020869 
" clip-path="url(#p8e50893818)" style="fill: none; stroke-dasharray: 3.7,1.6; stroke-dashoffset: 0; stroke: #707070"/>
   </g>
   <g id="line2d_49">
    <path d="M 427.702621 74.289908 
L 423.692928 76.107248 
" clip-path="url(#p8e50893818)" style="fill: none; stroke-dasharray: 3.7,1.6; stroke-dashoffset: 0; stroke: #707070"/>
   </g>
   <g id="line2d_50">
    <path d="M 423.692928 76.107248 
L 423.692928 64.316961 
" clip-path="url(#p8e50893818)" style="fill: none; stroke-dasharray: 3.7,1.6; stroke-dashoffset: 0; stroke: #707070"/>
   </g>
   <g id="line2d_51">
    <path d="M 427.702621 61.980381 
L 423.692928 64.316961 
" clip-path="url(#p8e50893818)" style="fill: none; stroke-dasharray: 3.7,1.6; stroke-dashoffset: 0; stroke: #707070"/>
   </g>
   <g id="line2d_52">
    <path d="M 427.702621 74.289908 
L 427.702621 61.980381 
" clip-path="url(#p8e50893818)" style="fill: none; stroke-dasharray: 3.7,1.6; stroke-dashoffset: 0; stroke: #707070"/>
   </g>
   <g id="line2d_53">
    <path d="M 155.361747 77.136048 
L 162.365423 78.725637 
" clip-path="url(#p8e50893818)" style="fill: none; stroke-dasharray: 3.7,1.6; stroke-dashoffset: 0; stroke: #707070"/>
   </g>
   <g id="line2d_54">
    <path d="M 162.365423 78.725637 
L 162.365423 67.683461 
" clip-path="url(#p8e50893818)" style="fill: none; stroke-dasharray: 3.7,1.6; stroke-dashoffset: 0; stroke: #707070"/>
   </g>
   <g id="line2d_55">
    <path d="M 155.361747 65.639704 
L 162.365423 67.683461 
" clip-path="url(#p8e50893818)" style="fill: none; stroke-dasharray: 3.7,1.6; stroke-dashoffset: 0; stroke: #707070"/>
   </g>
   <g id="line2d_56">
    <path d="M 155.361747 77.136048 
L 155.361747 65.639704 
" clip-path="url(#p8e50893818)" style="fill: none; stroke-dasharray: 3.7,1.6; stroke-dashoffset: 0; stroke: #707070"/>
   </g>
   <g id="line2d_57">
    <path d="M 427.702621 74.289908 
L 155.361747 77.136048 
" clip-path="url(#p8e50893818)" style="fill: none; stroke-dasharray: 3.7,1.6; stroke-dashoffset: 0; stroke: #707070"/>
   </g>
   <g id="line2d_58">
    <path d="M 423.692928 76.107248 
L 162.365423 78.725637 
" clip-path="url(#p8e50893818)" style="fill: none; stroke-dasharray: 3.7,1.6; stroke-dashoffset: 0; stroke: #707070"/>
   </g>
   <g id="line2d_59">
    <path d="M 427.702621 61.980381 
L 155.361747 65.639704 
" clip-path="url(#p8e50893818)" style="fill: none; stroke-dasharray: 3.7,1.6; stroke-dashoffset: 0; stroke: #707070"/>
   </g>
   <g id="line2d_60">
    <path d="M 423.692928 64.316961 
L 162.365423 67.683461 
" clip-path="url(#p8e50893818)" style="fill: none; stroke-dasharray: 3.7,1.6; stroke-dashoffset: 0; stroke: #707070"/>
   </g>
   <g id="line2d_61">
    <path d="M 188.766837 146.882015 
L 194.564753 145.692893 
" clip-path="url(#p8e50893818)" style="fill: none; stroke-dasharray: 3.7,1.6; stroke-dashoffset: 0; stroke: #707070"/>
   </g>
   <g id="line2d_62">
    <path d="M 194.564753 145.692893 
L 194.564753 89.053613 
" clip-path="url(#p8e50893818)" style="fill: none; stroke-dasharray: 3.7,1.6; stroke-dashoffset: 0; stroke: #707070"/>
   </g>
   <g id="line2d_63">
    <path d="M 188.766837 87.864491 
L 194.564753 89.053613 
" clip-path="url(#p8e50893818)" style="fill: none; stroke-dasharray: 3.7,1.6; stroke-dashoffset: 0; stroke: #707070"/>
   </g>
   <g id="line2d_64">
    <path d="M 188.766837 146.882015 
L 188.766837 87.864491 
" clip-path="url(#p8e50893818)" style="fill: none; stroke-dasharray: 3.7,1.6; stroke-dashoffset: 0; stroke: #707070"/>
   </g>
   <g id="line2d_65">
    <path d="M 117.228769 146.33845 
L 125.7559 145.191882 
" clip-path="url(#p8e50893818)" style="fill: none; stroke-dasharray: 3.7,1.6; stroke-dashoffset: 0; stroke: #707070"/>
   </g>
   <g id="line2d_66">
    <path d="M 125.7559 145.191882 
L 125.7559 89.554625 
" clip-path="url(#p8e50893818)" style="fill: none; stroke-dasharray: 3.7,1.6; stroke-dashoffset: 0; stroke: #707070"/>
   </g>
   <g id="line2d_67">
    <path d="M 117.228769 88.408057 
L 125.7559 89.554625 
" clip-path="url(#p8e50893818)" style="fill: none; stroke-dasharray: 3.7,1.6; stroke-dashoffset: 0; stroke: #707070"/>
   </g>
   <g id="line2d_68">
    <path d="M 117.228769 146.33845 
L 117.228769 88.408057 
" clip-path="url(#p8e50893818)" style="fill: none; stroke-dasharray: 3.7,1.6; stroke-dashoffset: 0; stroke: #707070"/>
   </g>
   <g id="line2d_69">
    <path d="M 188.766837 146.882015 
L 117.228769 146.33845 
" clip-path="url(#p8e50893818)" style="fill: none; stroke-dasharray: 3.7,1.6; stroke-dashoffset: 0; stroke: #707070"/>
   </g>
   <g id="line2d_70">
    <path d="M 194.564753 145.692893 
L 125.7559 145.191882 
" clip-path="url(#p8e50893818)" style="fill: none; stroke-dasharray: 3.7,1.6; stroke-dashoffset: 0; stroke: #707070"/>
   </g>
   <g id="line2d_71">
    <path d="M 188.766837 87.864491 
L 117.228769 88.408057 
" clip-path="url(#p8e50893818)" style="fill: none; stroke-dasharray: 3.7,1.6; stroke-dashoffset: 0; stroke: #707070"/>
   </g>
   <g id="line2d_72">
    <path d="M 194.564753 89.053613 
L 125.7559 89.554625 
" clip-path="url(#p8e50893818)" style="fill: none; stroke-dasharray: 3.7,1.6; stroke-dashoffset: 0; stroke: #707070"/>
   </g>
   <g id="line2d_73">
    <path d="M 340.028015 139.128706 
L 339.869868 138.662663 
" clip-path="url(#p8e50893818)" style="fill: none; stroke-dasharray: 3.7,1.6; stroke-dashoffset: 0; stroke: #707070"/>
   </g>
   <g id="line2d_74">
    <path d="M 339.869868 138.662663 
L 339.869868 96.083844 
" clip-path="url(#p8e50893818)" style="fill: none; stroke-dasharray: 3.7,1.6; stroke-dashoffset: 0; stroke: #707070"/>
   </g>
   <g id="line2d_75">
    <path d="M 340.028015 95.6178 
L 339.869868 96.083844 
" clip-path="url(#p8e50893818)" style="fill: none; stroke-dasharray: 3.7,1.6; stroke-dashoffset: 0; stroke: #707070"/>
   </g>
   <g id="line2d_76">
    <path d="M 340.028015 139.128706 
L 340.028015 95.6178 
" clip-path="url(#p8e50893818)" style="fill: none; stroke-dasharray: 3.7,1.6; stroke-dashoffset: 0; stroke: #707070"/>
   </g>
   <g id="line2d_77">
    <path d="M 243.694932 138.609293 
L 245.555883 138.16501 
" clip-path="url(#p8e50893818)" style="fill: none; stroke-dasharray: 3.7,1.6; stroke-dashoffset: 0; stroke: #707070"/>
   </g>
   <g id="line2d_78">
    <path d="M 245.555883 138.16501 
L 245.555883 96.581497 
" clip-path="url(#p8e50893818)" style="fill: none; stroke-dasharray: 3.7,1.6; stroke-dashoffset: 0; stroke: #707070"/>
   </g>
   <g id="line2d_79">
    <path d="M 243.694932 96.137214 
L 245.555883 96.581497 
" clip-path="url(#p8e50893818)" style="fill: none; stroke-dasharray: 3.7,1.6; stroke-dashoffset: 0; stroke: #707070"/>
   </g>
   <g id="line2d_80">
    <path d="M 243.694932 138.609293 
L 243.694932 96.137214 
" clip-path="url(#p8e50893818)" style="fill: none; stroke-dasharray: 3.7,1.6; stroke-dashoffset: 0; stroke: #707070"/>
   </g>
   <g id="line2d_81">
    <path d="M 340.028015 139.128706 
L 243.694932 138.609293 
" clip-path="url(#p8e50893818)" style="fill: none; stroke-dasharray: 3.7,1.6; stroke-dashoffset: 0; stroke: #707070"/>
   </g>
   <g id="line2d_82">
    <path d="M 339.869868 138.662663 
L 245.555883 138.16501 
" clip-path="url(#p8e50893818)" style="fill: none; stroke-dasharray: 3.7,1.6; stroke-dashoffset: 0; stroke: #707070"/>
   </g>
   <g id="line2d_83">
    <path d="M 340.028015 95.6178 
L 243.694932 96.137214 
" clip-path="url(#p8e50893818)" style="fill: none; stroke-dasharray: 3.7,1.6; stroke-dashoffset: 0; stroke: #707070"/>
   </g>
   <g id="line2d_84">
    <path d="M 339.869868 96.083844 
L 245.555883 96.581497 
" clip-path="url(#p8e50893818)" style="fill: none; stroke-dasharray: 3.7,1.6; stroke-dashoffset: 0; stroke: #707070"/>
   </g>
   <g id="text_1">
    <g id="patch_2">
     <path d="M 217.471781 44.020636 
L 368.320219 44.020636 
Q 370.120219 44.020636 370.120219 42.220636 
L 370.120219 33.260011 
Q 370.120219 31.460011 368.320219 31.460011 
L 217.471781 31.460011 
Q 215.671781 31.460011 215.671781 33.260011 
L 215.671781 42.220636 
Q 215.671781 44.020636 217.471781 44.020636 
z
" style="fill: #f7f7f7; stroke: #333333; stroke-linejoin: miter"/>
    </g>
    <!-- View top_path_overview (top) -->
    <g transform="translate(217.471781 40.098605) scale(0.09 -0.09)">
     <defs>
      <path id="DejaVuSans-Bold-56" d="M 31 4666 
L 1241 4666 
L 2478 1222 
L 3713 4666 
L 4922 4666 
L 3194 0 
L 1759 0 
L 31 4666 
z
" transform="scale(0.015625)"/>
      <path id="DejaVuSans-Bold-69" d="M 538 3500 
L 1656 3500 
L 1656 0 
L 538 0 
L 538 3500 
z
M 538 4863 
L 1656 4863 
L 1656 3950 
L 538 3950 
L 538 4863 
z
" transform="scale(0.015625)"/>
      <path id="DejaVuSans-Bold-65" d="M 4031 1759 
L 4031 1441 
L 1416 1441 
Q 1456 1047 1700 850 
Q 1944 653 2381 653 
Q 2734 653 3104 758 
Q 3475 863 3866 1075 
L 3866 213 
Q 3469 63 3072 -14 
Q 2675 -91 2278 -91 
Q 1328 -91 801 392 
Q 275 875 275 1747 
Q 275 2603 792 3093 
Q 1309 3584 2216 3584 
Q 3041 3584 3536 3087 
Q 4031 2591 4031 1759 
z
M 2881 2131 
Q 2881 2450 2695 2645 
Q 2509 2841 2209 2841 
Q 1884 2841 1681 2658 
Q 1478 2475 1428 2131 
L 2881 2131 
z
" transform="scale(0.015625)"/>
      <path id="DejaVuSans-Bold-77" d="M 225 3500 
L 1313 3500 
L 1900 1088 
L 2491 3500 
L 3425 3500 
L 4013 1113 
L 4603 3500 
L 5691 3500 
L 4769 0 
L 3547 0 
L 2956 2406 
L 2369 0 
L 1147 0 
L 225 3500 
z
" transform="scale(0.015625)"/>
      <path id="DejaVuSans-Bold-20" transform="scale(0.015625)"/>
      <path id="DejaVuSans-Bold-74" d="M 1759 4494 
L 1759 3500 
L 2913 3500 
L 2913 2700 
L 1759 2700 
L 1759 1216 
Q 1759 972 1856 886 
Q 1953 800 2241 800 
L 2816 800 
L 2816 0 
L 1856 0 
Q 1194 0 917 276 
Q 641 553 641 1216 
L 641 2700 
L 84 2700 
L 84 3500 
L 641 3500 
L 641 4494 
L 1759 4494 
z
" transform="scale(0.015625)"/>
      <path id="DejaVuSans-Bold-6f" d="M 2203 2784 
Q 1831 2784 1636 2517 
Q 1441 2250 1441 1747 
Q 1441 1244 1636 976 
Q 1831 709 2203 709 
Q 2569 709 2762 976 
Q 2956 1244 2956 1747 
Q 2956 2250 2762 2517 
Q 2569 2784 2203 2784 
z
M 2203 3584 
Q 3106 3584 3614 3096 
Q 4122 2609 4122 1747 
Q 4122 884 3614 396 
Q 3106 -91 2203 -91 
Q 1297 -91 786 396 
Q 275 884 275 1747 
Q 275 2609 786 3096 
Q 1297 3584 2203 3584 
z
" transform="scale(0.015625)"/>
      <path id="DejaVuSans-Bold-70" d="M 1656 506 
L 1656 -1331 
L 538 -1331 
L 538 3500 
L 1656 3500 
L 1656 2988 
Q 1888 3294 2169 3439 
Q 2450 3584 2816 3584 
Q 3463 3584 3878 3070 
Q 4294 2556 4294 1747 
Q 4294 938 3878 423 
Q 3463 -91 2816 -91 
Q 2450 -91 2169 54 
Q 1888 200 1656 506 
z
M 2400 2772 
Q 2041 2772 1848 2508 
Q 1656 2244 1656 1747 
Q 1656 1250 1848 986 
Q 2041 722 2400 722 
Q 2759 722 2948 984 
Q 3138 1247 3138 1747 
Q 3138 2247 2948 2509 
Q 2759 2772 2400 2772 
z
" transform="scale(0.015625)"/>
      <path id="DejaVuSans-Bold-5f" d="M 3200 -916 
L 3200 -1509 
L 0 -1509 
L 0 -916 
L 3200 -916 
z
" transform="scale(0.015625)"/>
      <path id="DejaVuSans-Bold-61" d="M 2106 1575 
Q 1756 1575 1579 1456 
Q 1403 1338 1403 1106 
Q 1403 894 1545 773 
Q 1688 653 1941 653 
Q 2256 653 2472 879 
Q 2688 1106 2688 1447 
L 2688 1575 
L 2106 1575 
z
M 3816 1997 
L 3816 0 
L 2688 0 
L 2688 519 
Q 2463 200 2181 54 
Q 1900 -91 1497 -91 
Q 953 -91 614 226 
Q 275 544 275 1050 
Q 275 1666 698 1953 
Q 1122 2241 2028 2241 
L 2688 2241 
L 2688 2328 
Q 2688 2594 2478 2717 
Q 2269 2841 1825 2841 
Q 1466 2841 1156 2769 
Q 847 2697 581 2553 
L 581 3406 
Q 941 3494 1303 3539 
Q 1666 3584 2028 3584 
Q 2975 3584 3395 3211 
Q 3816 2838 3816 1997 
z
" transform="scale(0.015625)"/>
      <path id="DejaVuSans-Bold-68" d="M 4056 2131 
L 4056 0 
L 2931 0 
L 2931 347 
L 2931 1625 
Q 2931 2084 2911 2256 
Q 2891 2428 2841 2509 
Q 2775 2619 2662 2680 
Q 2550 2741 2406 2741 
Q 2056 2741 1856 2470 
Q 1656 2200 1656 1722 
L 1656 0 
L 538 0 
L 538 4863 
L 1656 4863 
L 1656 2988 
Q 1909 3294 2193 3439 
Q 2478 3584 2822 3584 
Q 3428 3584 3742 3212 
Q 4056 2841 4056 2131 
z
" transform="scale(0.015625)"/>
      <path id="DejaVuSans-Bold-76" d="M 97 3500 
L 1216 3500 
L 2088 1081 
L 2956 3500 
L 4078 3500 
L 2700 0 
L 1472 0 
L 97 3500 
z
" transform="scale(0.015625)"/>
      <path id="DejaVuSans-Bold-72" d="M 3138 2547 
Q 2991 2616 2845 2648 
Q 2700 2681 2553 2681 
Q 2122 2681 1889 2404 
Q 1656 2128 1656 1613 
L 1656 0 
L 538 0 
L 538 3500 
L 1656 3500 
L 1656 2925 
Q 1872 3269 2151 3426 
Q 2431 3584 2822 3584 
Q 2878 3584 2943 3579 
Q 3009 3575 3134 3559 
L 3138 2547 
z
" transform="scale(0.015625)"/>
      <path id="DejaVuSans-Bold-28" d="M 2413 -844 
L 1484 -844 
Q 1006 -72 778 623 
Q 550 1319 550 2003 
Q 550 2688 779 3389 
Q 1009 4091 1484 4856 
L 2413 4856 
Q 2013 4116 1813 3408 
Q 1613 2700 1613 2009 
Q 1613 1319 1811 609 
Q 2009 -100 2413 -844 
z
" transform="scale(0.015625)"/>
      <path id="DejaVuSans-Bold-29" d="M 513 -844 
Q 913 -100 1113 609 
Q 1313 1319 1313 2009 
Q 1313 2700 1113 3408 
Q 913 4116 513 4856 
L 1441 4856 
Q 1916 4091 2145 3389 
Q 2375 2688 2375 2003 
Q 2375 1319 2147 623 
Q 1919 -72 1441 -844 
L 513 -844 
z
" transform="scale(0.015625)"/>
     </defs>
     <use xlink:href="#DejaVuSans-Bold-56"/>
     <use xlink:href="#DejaVuSans-Bold-69" transform="translate(75.642578 0)"/>
     <use xlink:href="#DejaVuSans-Bold-65" transform="translate(109.919922 0)"/>
     <use xlink:href="#DejaVuSans-Bold-77" transform="translate(177.742188 0)"/>
     <use xlink:href="#DejaVuSans-Bold-20" transform="translate(270.125 0)"/>
     <use xlink:href="#DejaVuSans-Bold-74" transform="translate(304.939453 0)"/>
     <use xlink:href="#DejaVuSans-Bold-6f" transform="translate(352.742188 0)"/>
     <use xlink:href="#DejaVuSans-Bold-70" transform="translate(421.443359 0)"/>
     <use xlink:href="#DejaVuSans-Bold-5f" transform="translate(493.025391 0)"/>
     <use xlink:href="#DejaVuSans-Bold-70" transform="translate(543.025391 0)"/>
     <use xlink:href="#DejaVuSans-Bold-61" transform="translate(614.607422 0)"/>
     <use xlink:href="#DejaVuSans-Bold-74" transform="translate(682.087891 0)"/>
     <use xlink:href="#DejaVuSans-Bold-68" transform="translate(729.890625 0)"/>
     <use xlink:href="#DejaVuSans-Bold-5f" transform="translate(801.082031 0)"/>
     <use xlink:href="#DejaVuSans-Bold-6f" transform="translate(851.082031 0)"/>
     <use xlink:href="#DejaVuSans-Bold-76" transform="translate(919.783203 0)"/>
     <use xlink:href="#DejaVuSans-Bold-65" transform="translate(984.96875 0)"/>
     <use xlink:href="#DejaVuSans-Bold-72" transform="translate(1052.791016 0)"/>
     <use xlink:href="#DejaVuSans-Bold-76" transform="translate(1102.107422 0)"/>
     <use xlink:href="#DejaVuSans-Bold-69" transform="translate(1167.292969 0)"/>
     <use xlink:href="#DejaVuSans-Bold-65" transform="translate(1201.570312 0)"/>
     <use xlink:href="#DejaVuSans-Bold-77" transform="translate(1269.392578 0)"/>
     <use xlink:href="#DejaVuSans-Bold-20" transform="translate(1361.775391 0)"/>
     <use xlink:href="#DejaVuSans-Bold-28" transform="translate(1396.589844 0)"/>
     <use xlink:href="#DejaVuSans-Bold-74" transform="translate(1442.292969 0)"/>
     <use xlink:href="#DejaVuSans-Bold-6f" transform="translate(1490.095703 0)"/>
     <use xlink:href="#DejaVuSans-Bold-70" transform="translate(1558.796875 0)"/>
     <use xlink:href="#DejaVuSans-Bold-29" transform="translate(1630.378906 0)"/>
    </g>
   </g>
   <g id="text_2">
    <g id="patch_3">
     <path d="M 93.38762 48.855125 
L 128.46387 48.855125 
Q 129.66387 48.855125 129.66387 47.655125 
L 129.66387 39.912625 
Q 129.66387 38.712625 128.46387 38.712625 
L 93.38762 38.712625 
Q 92.18762 38.712625 92.18762 39.912625 
L 92.18762 47.655125 
Q 92.18762 48.855125 93.38762 48.855125 
z
" style="fill: #eef6ff; stroke: #4a6fa5; stroke-linejoin: miter"/>
    </g>
    <!-- Datum A -->
    <g transform="translate(93.38762 45.991375) scale(0.08 -0.08)">
     <defs>
      <path id="DejaVuSans-44" d="M 1259 4147 
L 1259 519 
L 2022 519 
Q 2988 519 3436 956 
Q 3884 1394 3884 2338 
Q 3884 3275 3436 3711 
Q 2988 4147 2022 4147 
L 1259 4147 
z
M 628 4666 
L 1925 4666 
Q 3281 4666 3915 4102 
Q 4550 3538 4550 2338 
Q 4550 1131 3912 565 
Q 3275 0 1925 0 
L 628 0 
L 628 4666 
z
" transform="scale(0.015625)"/>
      <path id="DejaVuSans-61" d="M 2194 1759 
Q 1497 1759 1228 1600 
Q 959 1441 959 1056 
Q 959 750 1161 570 
Q 1363 391 1709 391 
Q 2188 391 2477 730 
Q 2766 1069 2766 1631 
L 2766 1759 
L 2194 1759 
z
M 3341 1997 
L 3341 0 
L 2766 0 
L 2766 531 
Q 2569 213 2275 61 
Q 1981 -91 1556 -91 
Q 1019 -91 701 211 
Q 384 513 384 1019 
Q 384 1609 779 1909 
Q 1175 2209 1959 2209 
L 2766 2209 
L 2766 2266 
Q 2766 2663 2505 2880 
Q 2244 3097 1772 3097 
Q 1472 3097 1187 3025 
Q 903 2953 641 2809 
L 641 3341 
Q 956 3463 1253 3523 
Q 1550 3584 1831 3584 
Q 2591 3584 2966 3190 
Q 3341 2797 3341 1997 
z
" transform="scale(0.015625)"/>
      <path id="DejaVuSans-74" d="M 1172 4494 
L 1172 3500 
L 2356 3500 
L 2356 3053 
L 1172 3053 
L 1172 1153 
Q 1172 725 1289 603 
Q 1406 481 1766 481 
L 2356 481 
L 2356 0 
L 1766 0 
Q 1100 0 847 248 
Q 594 497 594 1153 
L 594 3053 
L 172 3053 
L 172 3500 
L 594 3500 
L 594 4494 
L 1172 4494 
z
" transform="scale(0.015625)"/>
      <path id="DejaVuSans-75" d="M 544 1381 
L 544 3500 
L 1119 3500 
L 1119 1403 
Q 1119 906 1312 657 
Q 1506 409 1894 409 
Q 2359 409 2629 706 
Q 2900 1003 2900 1516 
L 2900 3500 
L 3475 3500 
L 3475 0 
L 2900 0 
L 2900 538 
Q 2691 219 2414 64 
Q 2138 -91 1772 -91 
Q 1169 -91 856 284 
Q 544 659 544 1381 
z
M 1991 3584 
L 1991 3584 
z
" transform="scale(0.015625)"/>
      <path id="DejaVuSans-6d" d="M 3328 2828 
Q 3544 3216 3844 3400 
Q 4144 3584 4550 3584 
Q 5097 3584 5394 3201 
Q 5691 2819 5691 2113 
L 5691 0 
L 5113 0 
L 5113 2094 
Q 5113 2597 4934 2840 
Q 4756 3084 4391 3084 
Q 3944 3084 3684 2787 
Q 3425 2491 3425 1978 
L 3425 0 
L 2847 0 
L 2847 2094 
Q 2847 2600 2669 2842 
Q 2491 3084 2119 3084 
Q 1678 3084 1418 2786 
Q 1159 2488 1159 1978 
L 1159 0 
L 581 0 
L 581 3500 
L 1159 3500 
L 1159 2956 
Q 1356 3278 1631 3431 
Q 1906 3584 2284 3584 
Q 2666 3584 2933 3390 
Q 3200 3197 3328 2828 
z
" transform="scale(0.015625)"/>
      <path id="DejaVuSans-20" transform="scale(0.015625)"/>
      <path id="DejaVuSans-41" d="M 2188 4044 
L 1331 1722 
L 3047 1722 
L 2188 4044 
z
M 1831 4666 
L 2547 4666 
L 4325 0 
L 3669 0 
L 3244 1197 
L 1141 1197 
L 716 0 
L 50 0 
L 1831 4666 
z
" transform="scale(0.015625)"/>
     </defs>
     <use xlink:href="#DejaVuSans-44"/>
     <use xlink:href="#DejaVuSans-61" transform="translate(77.001953 0)"/>
     <use xlink:href="#DejaVuSans-74" transform="translate(138.28125 0)"/>
     <use xlink:href="#DejaVuSans-75" transform="translate(177.490234 0)"/>
     <use xlink:href="#DejaVuSans-6d" transform="translate(240.869141 0)"/>
     <use xlink:href="#DejaVuSans-20" transform="translate(338.28125 0)"/>
     <use xlink:href="#DejaVuSans-41" transform="translate(370.068359 0)"/>
    </g>
   </g>
   <g id="text_3">
    <g id="patch_4">
     <path d="M 93.38762 52.673955 
L 128.48012 52.673955 
Q 129.68012 52.673955 129.68012 51.473955 
L 129.68012 43.731455 
Q 129.68012 42.531455 128.48012 42.531455 
L 93.38762 42.531455 
Q 92.18762 42.531455 92.18762 43.731455 
L 92.18762 51.473955 
Q 92.18762 52.673955 93.38762 52.673955 
z
" style="fill: #eef6ff; stroke: #4a6fa5; stroke-linejoin: miter"/>
    </g>
    <!-- Datum B -->
    <g transform="translate(93.38762 49.810205) scale(0.08 -0.08)">
     <defs>
      <path id="DejaVuSans-42" d="M 1259 2228 
L 1259 519 
L 2272 519 
Q 2781 519 3026 730 
Q 3272 941 3272 1375 
Q 3272 1813 3026 2020 
Q 2781 2228 2272 2228 
L 1259 2228 
z
M 1259 4147 
L 1259 2741 
L 2194 2741 
Q 2656 2741 2882 2914 
Q 3109 3088 3109 3444 
Q 3109 3797 2882 3972 
Q 2656 4147 2194 4147 
L 1259 4147 
z
M 628 4666 
L 2241 4666 
Q 2963 4666 3353 4366 
Q 3744 4066 3744 3513 
Q 3744 3084 3544 2831 
Q 3344 2578 2956 2516 
Q 3422 2416 3680 2098 
Q 3938 1781 3938 1306 
Q 3938 681 3513 340 
Q 3088 0 2303 0 
L 628 0 
L 628 4666 
z
" transform="scale(0.015625)"/>
     </defs>
     <use xlink:href="#DejaVuSans-44"/>
     <use xlink:href="#DejaVuSans-61" transform="translate(77.001953 0)"/>
     <use xlink:href="#DejaVuSans-74" transform="translate(138.28125 0)"/>
     <use xlink:href="#DejaVuSans-75" transform="translate(177.490234 0)"/>
     <use xlink:href="#DejaVuSans-6d" transform="translate(240.869141 0)"/>
     <use xlink:href="#DejaVuSans-20" transform="translate(338.28125 0)"/>
     <use xlink:href="#DejaVuSans-42" transform="translate(370.068359 0)"/>
    </g>
   </g>
   <g id="patch_5">
    <path d="M 409.525087 191.05709 
Q 251.903567 191.05709 94.282047 191.05709 
" style="fill: none; stroke: #b26b00; stroke-width: 0.8; stroke-linecap: round"/>
    <path d="M 406.325087 189.45709 
L 409.525087 191.05709 
L 406.325087 192.65709 
" style="fill: none; stroke: #b26b00; stroke-width: 0.8; stroke-linecap: round"/>
    <path d="M 97.482047 192.65709 
L 94.282047 191.05709 
L 97.482047 189.45709 
" style="fill: none; stroke: #b26b00; stroke-width: 0.8; stroke-linecap: round"/>
   </g>
   <g id="text_4">
    <g id="patch_6">
     <path d="M 412.361255 196.47959 
L 572.447505 196.47959 
Q 573.887505 196.47959 573.887505 195.03959 
L 573.887505 187.07459 
Q 573.887505 185.63459 572.447505 185.63459 
L 412.361255 185.63459 
Q 410.921255 185.63459 410.921255 187.07459 
L 410.921255 195.03959 
Q 410.921255 196.47959 412.361255 196.47959 
z
" style="fill: #fff6e8; stroke: #b26b00; stroke-linejoin: miter"/>
    </g>
    <!-- d_base_length (linear) = 620 ± nominal -->
    <g transform="translate(412.361255 193.15334) scale(0.08 -0.08)">
     <defs>
      <path id="DejaVuSans-64" d="M 2906 2969 
L 2906 4863 
L 3481 4863 
L 3481 0 
L 2906 0 
L 2906 525 
Q 2725 213 2448 61 
Q 2172 -91 1784 -91 
Q 1150 -91 751 415 
Q 353 922 353 1747 
Q 353 2572 751 3078 
Q 1150 3584 1784 3584 
Q 2172 3584 2448 3432 
Q 2725 3281 2906 2969 
z
M 947 1747 
Q 947 1113 1208 752 
Q 1469 391 1925 391 
Q 2381 391 2643 752 
Q 2906 1113 2906 1747 
Q 2906 2381 2643 2742 
Q 2381 3103 1925 3103 
Q 1469 3103 1208 2742 
Q 947 2381 947 1747 
z
" transform="scale(0.015625)"/>
      <path id="DejaVuSans-5f" d="M 3263 -1063 
L 3263 -1509 
L -63 -1509 
L -63 -1063 
L 3263 -1063 
z
" transform="scale(0.015625)"/>
      <path id="DejaVuSans-62" d="M 3116 1747 
Q 3116 2381 2855 2742 
Q 2594 3103 2138 3103 
Q 1681 3103 1420 2742 
Q 1159 2381 1159 1747 
Q 1159 1113 1420 752 
Q 1681 391 2138 391 
Q 2594 391 2855 752 
Q 3116 1113 3116 1747 
z
M 1159 2969 
Q 1341 3281 1617 3432 
Q 1894 3584 2278 3584 
Q 2916 3584 3314 3078 
Q 3713 2572 3713 1747 
Q 3713 922 3314 415 
Q 2916 -91 2278 -91 
Q 1894 -91 1617 61 
Q 1341 213 1159 525 
L 1159 0 
L 581 0 
L 581 4863 
L 1159 4863 
L 1159 2969 
z
" transform="scale(0.015625)"/>
      <path id="DejaVuSans-73" d="M 2834 3397 
L 2834 2853 
Q 2591 2978 2328 3040 
Q 2066 3103 1784 3103 
Q 1356 3103 1142 2972 
Q 928 2841 928 2578 
Q 928 2378 1081 2264 
Q 1234 2150 1697 2047 
L 1894 2003 
Q 2506 1872 2764 1633 
Q 3022 1394 3022 966 
Q 3022 478 2636 193 
Q 2250 -91 1575 -91 
Q 1294 -91 989 -36 
Q 684 19 347 128 
L 347 722 
Q 666 556 975 473 
Q 1284 391 1588 391 
Q 1994 391 2212 530 
Q 2431 669 2431 922 
Q 2431 1156 2273 1281 
Q 2116 1406 1581 1522 
L 1381 1569 
Q 847 1681 609 1914 
Q 372 2147 372 2553 
Q 372 3047 722 3315 
Q 1072 3584 1716 3584 
Q 2034 3584 2315 3537 
Q 2597 3491 2834 3397 
z
" transform="scale(0.015625)"/>
      <path id="DejaVuSans-65" d="M 3597 1894 
L 3597 1613 
L 953 1613 
Q 991 1019 1311 708 
Q 1631 397 2203 397 
Q 2534 397 2845 478 
Q 3156 559 3463 722 
L 3463 178 
Q 3153 47 2828 -22 
Q 2503 -91 2169 -91 
Q 1331 -91 842 396 
Q 353 884 353 1716 
Q 353 2575 817 3079 
Q 1281 3584 2069 3584 
Q 2775 3584 3186 3129 
Q 3597 2675 3597 1894 
z
M 3022 2063 
Q 3016 2534 2758 2815 
Q 2500 3097 2075 3097 
Q 1594 3097 1305 2825 
Q 1016 2553 972 2059 
L 3022 2063 
z
" transform="scale(0.015625)"/>
      <path id="DejaVuSans-6c" d="M 603 4863 
L 1178 4863 
L 1178 0 
L 603 0 
L 603 4863 
z
" transform="scale(0.015625)"/>
      <path id="DejaVuSans-6e" d="M 3513 2113 
L 3513 0 
L 2938 0 
L 2938 2094 
Q 2938 2591 2744 2837 
Q 2550 3084 2163 3084 
Q 1697 3084 1428 2787 
Q 1159 2491 1159 1978 
L 1159 0 
L 581 0 
L 581 3500 
L 1159 3500 
L 1159 2956 
Q 1366 3272 1645 3428 
Q 1925 3584 2291 3584 
Q 2894 3584 3203 3211 
Q 3513 2838 3513 2113 
z
" transform="scale(0.015625)"/>
      <path id="DejaVuSans-67" d="M 2906 1791 
Q 2906 2416 2648 2759 
Q 2391 3103 1925 3103 
Q 1463 3103 1205 2759 
Q 947 2416 947 1791 
Q 947 1169 1205 825 
Q 1463 481 1925 481 
Q 2391 481 2648 825 
Q 2906 1169 2906 1791 
z
M 3481 434 
Q 3481 -459 3084 -895 
Q 2688 -1331 1869 -1331 
Q 1566 -1331 1297 -1286 
Q 1028 -1241 775 -1147 
L 775 -588 
Q 1028 -725 1275 -790 
Q 1522 -856 1778 -856 
Q 2344 -856 2625 -561 
Q 2906 -266 2906 331 
L 2906 616 
Q 2728 306 2450 153 
Q 2172 0 1784 0 
Q 1141 0 747 490 
Q 353 981 353 1791 
Q 353 2603 747 3093 
Q 1141 3584 1784 3584 
Q 2172 3584 2450 3431 
Q 2728 3278 2906 2969 
L 2906 3500 
L 3481 3500 
L 3481 434 
z
" transform="scale(0.015625)"/>
      <path id="DejaVuSans-68" d="M 3513 2113 
L 3513 0 
L 2938 0 
L 2938 2094 
Q 2938 2591 2744 2837 
Q 2550 3084 2163 3084 
Q 1697 3084 1428 2787 
Q 1159 2491 1159 1978 
L 1159 0 
L 581 0 
L 581 4863 
L 1159 4863 
L 1159 2956 
Q 1366 3272 1645 3428 
Q 1925 3584 2291 3584 
Q 2894 3584 3203 3211 
Q 3513 2838 3513 2113 
z
" transform="scale(0.015625)"/>
      <path id="DejaVuSans-28" d="M 1984 4856 
Q 1566 4138 1362 3434 
Q 1159 2731 1159 2009 
Q 1159 1288 1364 580 
Q 1569 -128 1984 -844 
L 1484 -844 
Q 1016 -109 783 600 
Q 550 1309 550 2009 
Q 550 2706 781 3412 
Q 1013 4119 1484 4856 
L 1984 4856 
z
" transform="scale(0.015625)"/>
      <path id="DejaVuSans-69" d="M 603 3500 
L 1178 3500 
L 1178 0 
L 603 0 
L 603 3500 
z
M 603 4863 
L 1178 4863 
L 1178 4134 
L 603 4134 
L 603 4863 
z
" transform="scale(0.015625)"/>
      <path id="DejaVuSans-72" d="M 2631 2963 
Q 2534 3019 2420 3045 
Q 2306 3072 2169 3072 
Q 1681 3072 1420 2755 
Q 1159 2438 1159 1844 
L 1159 0 
L 581 0 
L 581 3500 
L 1159 3500 
L 1159 2956 
Q 1341 3275 1631 3429 
Q 1922 3584 2338 3584 
Q 2397 3584 2469 3576 
Q 2541 3569 2628 3553 
L 2631 2963 
z
" transform="scale(0.015625)"/>
      <path id="DejaVuSans-29" d="M 513 4856 
L 1013 4856 
Q 1481 4119 1714 3412 
Q 1947 2706 1947 2009 
Q 1947 1309 1714 600 
Q 1481 -109 1013 -844 
L 513 -844 
Q 928 -128 1133 580 
Q 1338 1288 1338 2009 
Q 1338 2731 1133 3434 
Q 928 4138 513 4856 
z
" transform="scale(0.015625)"/>
      <path id="DejaVuSans-3d" d="M 678 2906 
L 4684 2906 
L 4684 2381 
L 678 2381 
L 678 2906 
z
M 678 1631 
L 4684 1631 
L 4684 1100 
L 678 1100 
L 678 1631 
z
" transform="scale(0.015625)"/>
      <path id="DejaVuSans-36" d="M 2113 2584 
Q 1688 2584 1439 2293 
Q 1191 2003 1191 1497 
Q 1191 994 1439 701 
Q 1688 409 2113 409 
Q 2538 409 2786 701 
Q 3034 994 3034 1497 
Q 3034 2003 2786 2293 
Q 2538 2584 2113 2584 
z
M 3366 4563 
L 3366 3988 
Q 3128 4100 2886 4159 
Q 2644 4219 2406 4219 
Q 1781 4219 1451 3797 
Q 1122 3375 1075 2522 
Q 1259 2794 1537 2939 
Q 1816 3084 2150 3084 
Q 2853 3084 3261 2657 
Q 3669 2231 3669 1497 
Q 3669 778 3244 343 
Q 2819 -91 2113 -91 
Q 1303 -91 875 529 
Q 447 1150 447 2328 
Q 447 3434 972 4092 
Q 1497 4750 2381 4750 
Q 2619 4750 2861 4703 
Q 3103 4656 3366 4563 
z
" transform="scale(0.015625)"/>
      <path id="DejaVuSans-32" d="M 1228 531 
L 3431 531 
L 3431 0 
L 469 0 
L 469 531 
Q 828 903 1448 1529 
Q 2069 2156 2228 2338 
Q 2531 2678 2651 2914 
Q 2772 3150 2772 3378 
Q 2772 3750 2511 3984 
Q 2250 4219 1831 4219 
Q 1534 4219 1204 4116 
Q 875 4013 500 3803 
L 500 4441 
Q 881 4594 1212 4672 
Q 1544 4750 1819 4750 
Q 2544 4750 2975 4387 
Q 3406 4025 3406 3419 
Q 3406 3131 3298 2873 
Q 3191 2616 2906 2266 
Q 2828 2175 2409 1742 
Q 1991 1309 1228 531 
z
" transform="scale(0.015625)"/>
      <path id="DejaVuSans-30" d="M 2034 4250 
Q 1547 4250 1301 3770 
Q 1056 3291 1056 2328 
Q 1056 1369 1301 889 
Q 1547 409 2034 409 
Q 2525 409 2770 889 
Q 3016 1369 3016 2328 
Q 3016 3291 2770 3770 
Q 2525 4250 2034 4250 
z
M 2034 4750 
Q 2819 4750 3233 4129 
Q 3647 3509 3647 2328 
Q 3647 1150 3233 529 
Q 2819 -91 2034 -91 
Q 1250 -91 836 529 
Q 422 1150 422 2328 
Q 422 3509 836 4129 
Q 1250 4750 2034 4750 
z
" transform="scale(0.015625)"/>
      <path id="DejaVuSans-b1" d="M 2944 4013 
L 2944 2803 
L 4684 2803 
L 4684 2272 
L 2944 2272 
L 2944 1063 
L 2419 1063 
L 2419 2272 
L 678 2272 
L 678 2803 
L 2419 2803 
L 2419 4013 
L 2944 4013 
z
M 678 531 
L 4684 531 
L 4684 0 
L 678 0 
L 678 531 
z
" transform="scale(0.015625)"/>
      <path id="DejaVuSans-6f" d="M 1959 3097 
Q 1497 3097 1228 2736 
Q 959 2375 959 1747 
Q 959 1119 1226 758 
Q 1494 397 1959 397 
Q 2419 397 2687 759 
Q 2956 1122 2956 1747 
Q 2956 2369 2687 2733 
Q 2419 3097 1959 3097 
z
M 1959 3584 
Q 2709 3584 3137 3096 
Q 3566 2609 3566 1747 
Q 3566 888 3137 398 
Q 2709 -91 1959 -91 
Q 1206 -91 779 398 
Q 353 888 353 1747 
Q 353 2609 779 3096 
Q 1206 3584 1959 3584 
z
" transform="scale(0.015625)"/>
     </defs>
     <use xlink:href="#DejaVuSans-64"/>
     <use xlink:href="#DejaVuSans-5f" transform="translate(63.476562 0)"/>
     <use xlink:href="#DejaVuSans-62" transform="translate(113.476562 0)"/>
     <use xlink:href="#DejaVuSans-61" transform="translate(176.953125 0)"/>
     <use xlink:href="#DejaVuSans-73" transform="translate(238.232422 0)"/>
     <use xlink:href="#DejaVuSans-65" transform="translate(290.332031 0)"/>
     <use xlink:href="#DejaVuSans-5f" transform="translate(351.855469 0)"/>
     <use xlink:href="#DejaVuSans-6c" transform="translate(401.855469 0)"/>
     <use xlink:href="#DejaVuSans-65" transform="translate(429.638672 0)"/>
     <use xlink:href="#DejaVuSans-6e" transform="translate(491.162109 0)"/>
     <use xlink:href="#DejaVuSans-67" transform="translate(554.541016 0)"/>
     <use xlink:href="#DejaVuSans-74" transform="translate(618.017578 0)"/>
     <use xlink:href="#DejaVuSans-68" transform="translate(657.226562 0)"/>
     <use xlink:href="#DejaVuSans-20" transform="translate(720.605469 0)"/>
     <use xlink:href="#DejaVuSans-28" transform="translate(752.392578 0)"/>
     <use xlink:href="#DejaVuSans-6c" transform="translate(791.40625 0)"/>
     <use xlink:href="#DejaVuSans-69" transform="translate(819.189453 0)"/>
     <use xlink:href="#DejaVuSans-6e" transform="translate(846.972656 0)"/>
     <use xlink:href="#DejaVuSans-65" transform="translate(910.351562 0)"/>
     <use xlink:href="#DejaVuSans-61" transform="translate(971.875 0)"/>
     <use xlink:href="#DejaVuSans-72" transform="translate(1033.154297 0)"/>
     <use xlink:href="#DejaVuSans-29" transform="translate(1074.267578 0)"/>
     <use xlink:href="#DejaVuSans-20" transform="translate(1113.28125 0)"/>
     <use xlink:href="#DejaVuSans-3d" transform="translate(1145.068359 0)"/>
     <use xlink:href="#DejaVuSans-20" transform="translate(1228.857422 0)"/>
     <use xlink:href="#DejaVuSans-36" transform="translate(1260.644531 0)"/>
     <use xlink:href="#DejaVuSans-32" transform="translate(1324.267578 0)"/>
     <use xlink:href="#DejaVuSans-30" transform="translate(1387.890625 0)"/>
     <use xlink:href="#DejaVuSans-20" transform="translate(1451.513672 0)"/>
     <use xlink:href="#DejaVuSans-b1" transform="translate(1483.300781 0)"/>
     <use xlink:href="#DejaVuSans-20" transform="translate(1567.089844 0)"/>
     <use xlink:href="#DejaVuSans-6e" transform="translate(1598.876953 0)"/>
     <use xlink:href="#DejaVuSans-6f" transform="translate(1662.255859 0)"/>
     <use xlink:href="#DejaVuSans-6d" transform="translate(1723.4375 0)"/>
     <use xlink:href="#DejaVuSans-69" transform="translate(1820.849609 0)"/>
     <use xlink:href="#DejaVuSans-6e" transform="translate(1848.632812 0)"/>
     <use xlink:href="#DejaVuSans-61" transform="translate(1912.011719 0)"/>
     <use xlink:href="#DejaVuSans-6c" transform="translate(1973.291016 0)"/>
    </g>
   </g>
   <g id="patch_7">
    <path d="M 411.254224 195.169676 
Q 252.768136 195.169676 94.282047 195.169676 
" style="fill: none; stroke: #b26b00; stroke-width: 0.8; stroke-linecap: round"/>
    <path d="M 408.054224 193.569676 
L 411.254224 195.169676 
L 408.054224 196.769676 
" style="fill: none; stroke: #b26b00; stroke-width: 0.8; stroke-linecap: round"/>
    <path d="M 97.482047 196.769676 
L 94.282047 195.169676 
L 97.482047 193.569676 
" style="fill: none; stroke: #b26b00; stroke-width: 0.8; stroke-linecap: round"/>
   </g>
   <g id="text_5">
    <g id="patch_8">
     <path d="M 414.086255 200.592176 
L 570.722505 200.592176 
Q 572.162505 200.592176 572.162505 199.152176 
L 572.162505 191.187176 
Q 572.162505 189.747176 570.722505 189.747176 
L 414.086255 189.747176 
Q 412.646255 189.747176 412.646255 191.187176 
L 412.646255 199.152176 
Q 412.646255 200.592176 414.086255 200.592176 
z
" style="fill: #fff6e8; stroke: #b26b00; stroke-linejoin: miter"/>
    </g>
    <!-- d_base_width (linear) = 180 ± nominal -->
    <g transform="translate(414.086255 197.265926) scale(0.08 -0.08)">
     <defs>
      <path id="DejaVuSans-77" d="M 269 3500 
L 844 3500 
L 1563 769 
L 2278 3500 
L 2956 3500 
L 3675 769 
L 4391 3500 
L 4966 3500 
L 4050 0 
L 3372 0 
L 2619 2869 
L 1863 0 
L 1184 0 
L 269 3500 
z
" transform="scale(0.015625)"/>
      <path id="DejaVuSans-31" d="M 794 531 
L 1825 531 
L 1825 4091 
L 703 3866 
L 703 4441 
L 1819 4666 
L 2450 4666 
L 2450 531 
L 3481 531 
L 3481 0 
L 794 0 
L 794 531 
z
" transform="scale(0.015625)"/>
      <path id="DejaVuSans-38" d="M 2034 2216 
Q 1584 2216 1326 1975 
Q 1069 1734 1069 1313 
Q 1069 891 1326 650 
Q 1584 409 2034 409 
Q 2484 409 2743 651 
Q 3003 894 3003 1313 
Q 3003 1734 2745 1975 
Q 2488 2216 2034 2216 
z
M 1403 2484 
Q 997 2584 770 2862 
Q 544 3141 544 3541 
Q 544 4100 942 4425 
Q 1341 4750 2034 4750 
Q 2731 4750 3128 4425 
Q 3525 4100 3525 3541 
Q 3525 3141 3298 2862 
Q 3072 2584 2669 2484 
Q 3125 2378 3379 2068 
Q 3634 1759 3634 1313 
Q 3634 634 3220 271 
Q 2806 -91 2034 -91 
Q 1263 -91 848 271 
Q 434 634 434 1313 
Q 434 1759 690 2068 
Q 947 2378 1403 2484 
z
M 1172 3481 
Q 1172 3119 1398 2916 
Q 1625 2713 2034 2713 
Q 2441 2713 2670 2916 
Q 2900 3119 2900 3481 
Q 2900 3844 2670 4047 
Q 2441 4250 2034 4250 
Q 1625 4250 1398 4047 
Q 1172 3844 1172 3481 
z
" transform="scale(0.015625)"/>
     </defs>
     <use xlink:href="#DejaVuSans-64"/>
     <use xlink:href="#DejaVuSans-5f" transform="translate(63.476562 0)"/>
     <use xlink:href="#DejaVuSans-62" transform="translate(113.476562 0)"/>
     <use xlink:href="#DejaVuSans-61" transform="translate(176.953125 0)"/>
     <use xlink:href="#DejaVuSans-73" transform="translate(238.232422 0)"/>
     <use xlink:href="#DejaVuSans-65" transform="translate(290.332031 0)"/>
     <use xlink:href="#DejaVuSans-5f" transform="translate(351.855469 0)"/>
     <use xlink:href="#DejaVuSans-77" transform="translate(401.855469 0)"/>
     <use xlink:href="#DejaVuSans-69" transform="translate(483.642578 0)"/>
     <use xlink:href="#DejaVuSans-64" transform="translate(511.425781 0)"/>
     <use xlink:href="#DejaVuSans-74" transform="translate(574.902344 0)"/>
     <use xlink:href="#DejaVuSans-68" transform="translate(614.111328 0)"/>
     <use xlink:href="#DejaVuSans-20" transform="translate(677.490234 0)"/>
     <use xlink:href="#DejaVuSans-28" transform="translate(709.277344 0)"/>
     <use xlink:href="#DejaVuSans-6c" transform="translate(748.291016 0)"/>
     <use xlink:href="#DejaVuSans-69" transform="translate(776.074219 0)"/>
     <use xlink:href="#DejaVuSans-6e" transform="translate(803.857422 0)"/>
     <use xlink:href="#DejaVuSans-65" transform="translate(867.236328 0)"/>
     <use xlink:href="#DejaVuSans-61" transform="translate(928.759766 0)"/>
     <use xlink:href="#DejaVuSans-72" transform="translate(990.039062 0)"/>
     <use xlink:href="#DejaVuSans-29" transform="translate(1031.152344 0)"/>
     <use xlink:href="#DejaVuSans-20" transform="translate(1070.166016 0)"/>
     <use xlink:href="#DejaVuSans-3d" transform="translate(1101.953125 0)"/>
     <use xlink:href="#DejaVuSans-20" transform="translate(1185.742188 0)"/>
     <use xlink:href="#DejaVuSans-31" transform="translate(1217.529297 0)"/>
     <use xlink:href="#DejaVuSans-38" transform="translate(1281.152344 0)"/>
     <use xlink:href="#DejaVuSans-30" transform="translate(1344.775391 0)"/>
     <use xlink:href="#DejaVuSans-20" transform="translate(1408.398438 0)"/>
     <use xlink:href="#DejaVuSans-b1" transform="translate(1440.185547 0)"/>
     <use xlink:href="#DejaVuSans-20" transform="translate(1523.974609 0)"/>
     <use xlink:href="#DejaVuSans-6e" transform="translate(1555.761719 0)"/>
     <use xlink:href="#DejaVuSans-6f" transform="translate(1619.140625 0)"/>
     <use xlink:href="#DejaVuSans-6d" transform="translate(1680.322266 0)"/>
     <use xlink:href="#DejaVuSans-69" transform="translate(1777.734375 0)"/>
     <use xlink:href="#DejaVuSans-6e" transform="translate(1805.517578 0)"/>
     <use xlink:href="#DejaVuSans-61" transform="translate(1868.896484 0)"/>
     <use xlink:href="#DejaVuSans-6c" transform="translate(1930.175781 0)"/>
    </g>
   </g>
   <g id="text_6">
    <!-- Freestanding no-drill transfer - top_path_overview -->
    <g transform="translate(167.928813 14.798437) scale(0.1 -0.1)">
     <defs>
      <path id="DejaVuSans-46" d="M 628 4666 
L 3309 4666 
L 3309 4134 
L 1259 4134 
L 1259 2759 
L 3109 2759 
L 3109 2228 
L 1259 2228 
L 1259 0 
L 628 0 
L 628 4666 
z
" transform="scale(0.015625)"/>
      <path id="DejaVuSans-2d" d="M 313 2009 
L 1997 2009 
L 1997 1497 
L 313 1497 
L 313 2009 
z
" transform="scale(0.015625)"/>
      <path id="DejaVuSans-66" d="M 2375 4863 
L 2375 4384 
L 1825 4384 
Q 1516 4384 1395 4259 
Q 1275 4134 1275 3809 
L 1275 3500 
L 2222 3500 
L 2222 3053 
L 1275 3053 
L 1275 0 
L 697 0 
L 697 3053 
L 147 3053 
L 147 3500 
L 697 3500 
L 697 3744 
Q 697 4328 969 4595 
Q 1241 4863 1831 4863 
L 2375 4863 
z
" transform="scale(0.015625)"/>
      <path id="DejaVuSans-70" d="M 1159 525 
L 1159 -1331 
L 581 -1331 
L 581 3500 
L 1159 3500 
L 1159 2969 
Q 1341 3281 1617 3432 
Q 1894 3584 2278 3584 
Q 2916 3584 3314 3078 
Q 3713 2572 3713 1747 
Q 3713 922 3314 415 
Q 2916 -91 2278 -91 
Q 1894 -91 1617 61 
Q 1341 213 1159 525 
z
M 3116 1747 
Q 3116 2381 2855 2742 
Q 2594 3103 2138 3103 
Q 1681 3103 1420 2742 
Q 1159 2381 1159 1747 
Q 1159 1113 1420 752 
Q 1681 391 2138 391 
Q 2594 391 2855 752 
Q 3116 1113 3116 1747 
z
" transform="scale(0.015625)"/>
      <path id="DejaVuSans-76" d="M 191 3500 
L 800 3500 
L 1894 563 
L 2988 3500 
L 3597 3500 
L 2284 0 
L 1503 0 
L 191 3500 
z
" transform="scale(0.015625)"/>
     </defs>
     <use xlink:href="#DejaVuSans-46"/>
     <use xlink:href="#DejaVuSans-72" transform="translate(50.269531 0)"/>
     <use xlink:href="#DejaVuSans-65" transform="translate(89.132812 0)"/>
     <use xlink:href="#DejaVuSans-65" transform="translate(150.65625 0)"/>
     <use xlink:href="#DejaVuSans-73" transform="translate(212.179688 0)"/>
     <use xlink:href="#DejaVuSans-74" transform="translate(264.279297 0)"/>
     <use xlink:href="#DejaVuSans-61" transform="translate(303.488281 0)"/>
     <use xlink:href="#DejaVuSans-6e" transform="translate(364.767578 0)"/>
     <use xlink:href="#DejaVuSans-64" transform="translate(428.146484 0)"/>
     <use xlink:href="#DejaVuSans-69" transform="translate(491.623047 0)"/>
     <use xlink:href="#DejaVuSans-6e" transform="translate(519.40625 0)"/>
     <use xlink:href="#DejaVuSans-67" transform="translate(582.785156 0)"/>
     <use xlink:href="#DejaVuSans-20" transform="translate(646.261719 0)"/>
     <use xlink:href="#DejaVuSans-6e" transform="translate(678.048828 0)"/>
     <use xlink:href="#DejaVuSans-6f" transform="translate(741.427734 0)"/>
     <use xlink:href="#DejaVuSans-2d" transform="translate(804.484375 0)"/>
     <use xlink:href="#DejaVuSans-64" transform="translate(840.568359 0)"/>
     <use xlink:href="#DejaVuSans-72" transform="translate(904.044922 0)"/>
     <use xlink:href="#DejaVuSans-69" transform="translate(945.158203 0)"/>
     <use xlink:href="#DejaVuSans-6c" transform="translate(972.941406 0)"/>
     <use xlink:href="#DejaVuSans-6c" transform="translate(1000.724609 0)"/>
     <use xlink:href="#DejaVuSans-20" transform="translate(1028.507812 0)"/>
     <use xlink:href="#DejaVuSans-74" transform="translate(1060.294922 0)"/>
     <use xlink:href="#DejaVuSans-72" transform="translate(1099.503906 0)"/>
     <use xlink:href="#DejaVuSans-61" transform="translate(1140.617188 0)"/>
     <use xlink:href="#DejaVuSans-6e" transform="translate(1201.896484 0)"/>
     <use xlink:href="#DejaVuSans-73" transform="translate(1265.275391 0)"/>
     <use xlink:href="#DejaVuSans-66" transform="translate(1317.375 0)"/>
     <use xlink:href="#DejaVuSans-65" transform="translate(1352.580078 0)"/>
     <use xlink:href="#DejaVuSans-72" transform="translate(1414.103516 0)"/>
     <use xlink:href="#DejaVuSans-20" transform="translate(1455.216797 0)"/>
     <use xlink:href="#DejaVuSans-2d" transform="translate(1487.003906 0)"/>
     <use xlink:href="#DejaVuSans-20" transform="translate(1523.087891 0)"/>
     <use xlink:href="#DejaVuSans-74" transform="translate(1554.875 0)"/>
     <use xlink:href="#DejaVuSans-6f" transform="translate(1594.083984 0)"/>
     <use xlink:href="#DejaVuSans-70" transform="translate(1655.265625 0)"/>
     <use xlink:href="#DejaVuSans-5f" transform="translate(1718.742188 0)"/>
     <use xlink:href="#DejaVuSans-70" transform="translate(1768.742188 0)"/>
     <use xlink:href="#DejaVuSans-61" transform="translate(1832.21875 0)"/>
     <use xlink:href="#DejaVuSans-74" transform="translate(1893.498047 0)"/>
     <use xlink:href="#DejaVuSans-68" transform="translate(1932.707031 0)"/>
     <use xlink:href="#DejaVuSans-5f" transform="translate(1996.085938 0)"/>
     <use xlink:href="#DejaVuSans-6f" transform="translate(2046.085938 0)"/>
     <use xlink:href="#DejaVuSans-76" transform="translate(2107.267578 0)"/>
     <use xlink:href="#DejaVuSans-65" transform="translate(2166.447266 0)"/>
     <use xlink:href="#DejaVuSans-72" transform="translate(2227.970703 0)"/>
     <use xlink:href="#DejaVuSans-76" transform="translate(2269.083984 0)"/>
     <use xlink:href="#DejaVuSans-69" transform="translate(2328.263672 0)"/>
     <use xlink:href="#DejaVuSans-65" transform="translate(2356.046875 0)"/>
     <use xlink:href="#DejaVuSans-77" transform="translate(2417.570312 0)"/>
    </g>
   </g>
  </g>
 </g>
 <defs>
  <clipPath id="p8e50893818">
   <rect x="7.2" y="26.798437" width="571.392" height="184.087193"/>
  </clipPath>
 </defs>
</svg>
