<?xml version="1.0" encoding="utf-8" standalone="no"?>
<!DOCTYPE svg PUBLIC "-//W3C//DTD SVG 1.1//EN"
  "http://www.w3.org/Graphics/SVG/1.1/DTD/svg11.dtd">
<svg xmlns:xlink="http://www.w3.org/1999/xlink" width="640.19183pt" height="459.777637pt" viewBox="0 0 640.19183 459.777637" xmlns="http://www.w3.org/2000/svg" version="1.1">
 <metadata>
  <rdf:RDF xmlns:dc="http://purl.org/dc/elements/1.1/" xmlns:cc="http://creativecommons.org/ns#" xmlns:rdf="http://www.w3.org/1999/02/22-rdf-syntax-ns#">
   <cc:Work>
    <dc:type rdf:resource="http://purl.org/dc/dcmitype/StillImage"/>
    <dc:date>2026-04-09T16:26:41.184569</dc:date>
    <dc:format>image/svg+xml</dc:format>
    <dc:creator>
     <cc:Agent>
      <dc:title>Matplotlib v3.10.8, https://matplotlib.org/</dc:title>
     </cc:Agent>
    </dc:creator>
   </cc:Work>
  </rdf:RDF>
 </metadata>
 <defs>
  <style type="text/css">*{stroke-linejoin: round; stroke-linecap: butt}</style>
 </defs>
 <g id="figure_1">
  <g id="patch_1">
   <path d="M 0 459.777637 
L 640.19183 459.777637 
L 640.19183 0 
L 0 0 
z
" style="fill: #ffffff"/>
  </g>
  <g id="axes_1">
   <g id="line2d_1">
    <path d="M 184.20933 236.2329 
L 184.20933 223.475471 
" clip-path="url(#pa2f5fc28e6)" style="fill: none; stroke: #111111; stroke-width: 1.4; stroke-linecap: square"/>
   </g>
   <g id="line2d_2">
    <path d="M 226.734094 236.2329 
L 226.734094 223.475471 
" clip-path="url(#pa2f5fc28e6)" style="fill: none; stroke: #111111; stroke-width: 1.4; stroke-linecap: square"/>
   </g>
   <g id="line2d_3">
    <path d="M 184.20933 236.2329 
L 226.734094 236.2329 
" clip-path="url(#pa2f5fc28e6)" style="fill: none; stroke: #111111; stroke-width: 1.4; stroke-linecap: square"/>
   </g>
   <g id="line2d_4">
    <path d="M 184.20933 223.475471 
L 226.734094 223.475471 
" clip-path="url(#pa2f5fc28e6)" style="fill: none; stroke: #111111; stroke-width: 1.4; stroke-linecap: square"/>
   </g>
   <g id="line2d_5">
    <path d="M 185.804009 235.754497 
L 184.20933 236.2329 
" clip-path="url(#pa2f5fc28e6)" style="fill: none; stroke-dasharray: 3.7,1.6; stroke-dashoffset: 0; stroke: #707070"/>
   </g>
   <g id="line2d_6">
    <path d="M 185.804009 223.953875 
L 184.20933 223.475471 
" clip-path="url(#pa2f5fc28e6)" style="fill: none; stroke-dasharray: 3.7,1.6; stroke-dashoffset: 0; stroke: #707070"/>
   </g>
   <g id="line2d_7">
    <path d="M 185.804009 235.754497 
L 185.804009 223.953875 
" clip-path="url(#pa2f5fc28e6)" style="fill: none; stroke-dasharray: 3.7,1.6; stroke-dashoffset: 0; stroke: #707070"/>
   </g>
   <g id="line2d_8">
    <path d="M 225.139416 235.754497 
L 226.734094 236.2329 
" clip-path="url(#pa2f5fc28e6)" style="fill: none; stroke-dasharray: 3.7,1.6; stroke-dashoffset: 0; stroke: #707070"/>
   </g>
   <g id="line2d_9">
    <path d="M 225.139416 223.953875 
L 226.734094 223.475471 
" clip-path="url(#pa2f5fc28e6)" style="fill: none; stroke-dasharray: 3.7,1.6; stroke-dashoffset: 0; stroke: #707070"/>
   </g>
   <g id="line2d_10">
    <path d="M 225.139416 235.754497 
L 225.139416 223.953875 
" clip-path="url(#pa2f5fc28e6)" style="fill: none; stroke-dasharray: 3.7,1.6; stroke-dashoffset: 0; stroke: #707070"/>
   </g>
   <g id="line2d_11">
    <path d="M 185.804009 235.754497 
L 225.139416 235.754497 
" clip-path="url(#pa2f5fc28e6)" style="fill: none; stroke-dasharray: 3.7,1.6; stroke-dashoffset: 0; stroke: #707070"/>
   </g>
   <g id="line2d_12">
    <path d="M 185.804009 223.953875 
L 225.139416 223.953875 
" clip-path="url(#pa2f5fc28e6)" style="fill: none; stroke-dasharray: 3.7,1.6; stroke-dashoffset: 0; stroke: #707070"/>
   </g>
   <g id="text_1">
    <g id="patch_2">
     <path d="M 169.141947 131.85388 
L 241.801478 131.85388 
Q 243.601478 131.85388 243.601478 130.05388 
L 243.601478 121.343568 
Q 243.601478 119.543568 241.801478 119.543568 
L 169.141947 119.543568 
Q 167.341947 119.543568 167.341947 121.343568 
L 167.341947 130.05388 
Q 167.341947 131.85388 169.141947 131.85388 
z
" style="fill: #f7f7f7; stroke: #333333; stroke-linejoin: miter"/>
    </g>
    <!-- View top (top) -->
    <g transform="translate(169.141947 128.182161) scale(0.09 -0.09)">
     <defs>
      <path id="DejaVuSans-Bold-56" d="M 31 4666 
L 1241 4666 
L 2478 1222 
L 3713 4666 
L 4922 4666 
L 3194 0 
L 1759 0 
L 31 4666 
z
" transform="scale(0.015625)"/>
      <path id="DejaVuSans-Bold-69" d="M 538 3500 
L 1656 3500 
L 1656 0 
L 538 0 
L 538 3500 
z
M 538 4863 
L 1656 4863 
L 1656 3950 
L 538 3950 
L 538 4863 
z
" transform="scale(0.015625)"/>
      <path id="DejaVuSans-Bold-65" d="M 4031 1759 
L 4031 1441 
L 1416 1441 
Q 1456 1047 1700 850 
Q 1944 653 2381 653 
Q 2734 653 3104 758 
Q 3475 863 3866 1075 
L 3866 213 
Q 3469 63 3072 -14 
Q 2675 -91 2278 -91 
Q 1328 -91 801 392 
Q 275 875 275 1747 
Q 275 2603 792 3093 
Q 1309 3584 2216 3584 
Q 3041 3584 3536 3087 
Q 4031 2591 4031 1759 
z
M 2881 2131 
Q 2881 2450 2695 2645 
Q 2509 2841 2209 2841 
Q 1884 2841 1681 2658 
Q 1478 2475 1428 2131 
L 2881 2131 
z
" transform="scale(0.015625)"/>
      <path id="DejaVuSans-Bold-77" d="M 225 3500 
L 1313 3500 
L 1900 1088 
L 2491 3500 
L 3425 3500 
L 4013 1113 
L 4603 3500 
L 5691 3500 
L 4769 0 
L 3547 0 
L 2956 2406 
L 2369 0 
L 1147 0 
L 225 3500 
z
" transform="scale(0.015625)"/>
      <path id="DejaVuSans-Bold-20" transform="scale(0.015625)"/>
      <path id="DejaVuSans-Bold-74" d="M 1759 4494 
L 1759 3500 
L 2913 3500 
L 2913 2700 
L 1759 2700 
L 1759 1216 
Q 1759 972 1856 886 
Q 1953 800 2241 800 
L 2816 800 
L 2816 0 
L 1856 0 
Q 1194 0 917 276 
Q 641 553 641 1216 
L 641 2700 
L 84 2700 
L 84 3500 
L 641 3500 
L 641 4494 
L 1759 4494 
z
" transform="scale(0.015625)"/>
      <path id="DejaVuSans-Bold-6f" d="M 2203 2784 
Q 1831 2784 1636 2517 
Q 1441 2250 1441 1747 
Q 1441 1244 1636 976 
Q 1831 709 2203 709 
Q 2569 709 2762 976 
Q 2956 1244 2956 1747 
Q 2956 2250 2762 2517 
Q 2569 2784 2203 2784 
z
M 2203 3584 
Q 3106 3584 3614 3096 
Q 4122 2609 4122 1747 
Q 4122 884 3614 396 
Q 3106 -91 2203 -91 
Q 1297 -91 786 396 
Q 275 884 275 1747 
Q 275 2609 786 3096 
Q 1297 3584 2203 3584 
z
" transform="scale(0.015625)"/>
      <path id="DejaVuSans-Bold-70" d="M 1656 506 
L 1656 -1331 
L 538 -1331 
L 538 3500 
L 1656 3500 
L 1656 2988 
Q 1888 3294 2169 3439 
Q 2450 3584 2816 3584 
Q 3463 3584 3878 3070 
Q 4294 2556 4294 1747 
Q 4294 938 3878 423 
Q 3463 -91 2816 -91 
Q 2450 -91 2169 54 
Q 1888 200 1656 506 
z
M 2400 2772 
Q 2041 2772 1848 2508 
Q 1656 2244 1656 1747 
Q 1656 1250 1848 986 
Q 2041 722 2400 722 
Q 2759 722 2948 984 
Q 3138 1247 3138 1747 
Q 3138 2247 2948 2509 
Q 2759 2772 2400 2772 
z
" transform="scale(0.015625)"/>
      <path id="DejaVuSans-Bold-28" d="M 2413 -844 
L 1484 -844 
Q 1006 -72 778 623 
Q 550 1319 550 2003 
Q 550 2688 779 3389 
Q 1009 4091 1484 4856 
L 2413 4856 
Q 2013 4116 1813 3408 
Q 1613 2700 1613 2009 
Q 1613 1319 1811 609 
Q 2009 -100 2413 -844 
z
" transform="scale(0.015625)"/>
      <path id="DejaVuSans-Bold-29" d="M 513 -844 
Q 913 -100 1113 609 
Q 1313 1319 1313 2009 
Q 1313 2700 1113 3408 
Q 913 4116 513 4856 
L 1441 4856 
Q 1916 4091 2145 3389 
Q 2375 2688 2375 2003 
Q 2375 1319 2147 623 
Q 1919 -72 1441 -844 
L 513 -844 
z
" transform="scale(0.015625)"/>
     </defs>
     <use xlink:href="#DejaVuSans-Bold-56"/>
     <use xlink:href="#DejaVuSans-Bold-69" transform="translate(75.642578 0)"/>
     <use xlink:href="#DejaVuSans-Bold-65" transform="translate(109.919922 0)"/>
     <use xlink:href="#DejaVuSans-Bold-77" transform="translate(177.742188 0)"/>
     <use xlink:href="#DejaVuSans-Bold-20" transform="translate(270.125 0)"/>
     <use xlink:href="#DejaVuSans-Bold-74" transform="translate(304.939453 0)"/>
     <use xlink:href="#DejaVuSans-Bold-6f" transform="translate(352.742188 0)"/>
     <use xlink:href="#DejaVuSans-Bold-70" transform="translate(421.443359 0)"/>
     <use xlink:href="#DejaVuSans-Bold-20" transform="translate(493.025391 0)"/>
     <use xlink:href="#DejaVuSans-Bold-28" transform="translate(527.839844 0)"/>
     <use xlink:href="#DejaVuSans-Bold-74" transform="translate(573.542969 0)"/>
     <use xlink:href="#DejaVuSans-Bold-6f" transform="translate(621.345703 0)"/>
     <use xlink:href="#DejaVuSans-Bold-70" transform="translate(690.046875 0)"/>
     <use xlink:href="#DejaVuSans-Bold-29" transform="translate(761.628906 0)"/>
    </g>
   </g>
   <g id="text_2">
    <g id="patch_3">
     <path d="M 184.20933 167.639131 
L 219.28558 167.639131 
Q 220.48558 167.639131 220.48558 166.439131 
L 220.48558 158.696631 
Q 220.48558 157.496631 219.28558 157.496631 
L 184.20933 157.496631 
Q 183.00933 157.496631 183.00933 158.696631 
L 183.00933 166.439131 
Q 183.00933 167.639131 184.20933 167.639131 
z
" style="fill: #eef6ff; stroke: #4a6fa5; stroke-linejoin: miter"/>
    </g>
    <!-- Datum A -->
    <g transform="translate(184.20933 164.775381) scale(0.08 -0.08)">
     <defs>
      <path id="DejaVuSans-44" d="M 1259 4147 
L 1259 519 
L 2022 519 
Q 2988 519 3436 956 
Q 3884 1394 3884 2338 
Q 3884 3275 3436 3711 
Q 2988 4147 2022 4147 
L 1259 4147 
z
M 628 4666 
L 1925 4666 
Q 3281 4666 3915 4102 
Q 4550 3538 4550 2338 
Q 4550 1131 3912 565 
Q 3275 0 1925 0 
L 628 0 
L 628 4666 
z
" transform="scale(0.015625)"/>
      <path id="DejaVuSans-61" d="M 2194 1759 
Q 1497 1759 1228 1600 
Q 959 1441 959 1056 
Q 959 750 1161 570 
Q 1363 391 1709 391 
Q 2188 391 2477 730 
Q 2766 1069 2766 1631 
L 2766 1759 
L 2194 1759 
z
M 3341 1997 
L 3341 0 
L 2766 0 
L 2766 531 
Q 2569 213 2275 61 
Q 1981 -91 1556 -91 
Q 1019 -91 701 211 
Q 384 513 384 1019 
Q 384 1609 779 1909 
Q 1175 2209 1959 2209 
L 2766 2209 
L 2766 2266 
Q 2766 2663 2505 2880 
Q 2244 3097 1772 3097 
Q 1472 3097 1187 3025 
Q 903 2953 641 2809 
L 641 3341 
Q 956 3463 1253 3523 
Q 1550 3584 1831 3584 
Q 2591 3584 2966 3190 
Q 3341 2797 3341 1997 
z
" transform="scale(0.015625)"/>
      <path id="DejaVuSans-74" d="M 1172 4494 
L 1172 3500 
L 2356 3500 
L 2356 3053 
L 1172 3053 
L 1172 1153 
Q 1172 725 1289 603 
Q 1406 481 1766 481 
L 2356 481 
L 2356 0 
L 1766 0 
Q 1100 0 847 248 
Q 594 497 594 1153 
L 594 3053 
L 172 3053 
L 172 3500 
L 594 3500 
L 594 4494 
L 1172 4494 
z
" transform="scale(0.015625)"/>
      <path id="DejaVuSans-75" d="M 544 1381 
L 544 3500 
L 1119 3500 
L 1119 1403 
Q 1119 906 1312 657 
Q 1506 409 1894 409 
Q 2359 409 2629 706 
Q 2900 1003 2900 1516 
L 2900 3500 
L 3475 3500 
L 3475 0 
L 2900 0 
L 2900 538 
Q 2691 219 2414 64 
Q 2138 -91 1772 -91 
Q 1169 -91 856 284 
Q 544 659 544 1381 
z
M 1991 3584 
L 1991 3584 
z
" transform="scale(0.015625)"/>
      <path id="DejaVuSans-6d" d="M 3328 2828 
Q 3544 3216 3844 3400 
Q 4144 3584 4550 3584 
Q 5097 3584 5394 3201 
Q 5691 2819 5691 2113 
L 5691 0 
L 5113 0 
L 5113 2094 
Q 5113 2597 4934 2840 
Q 4756 3084 4391 3084 
Q 3944 3084 3684 2787 
Q 3425 2491 3425 1978 
L 3425 0 
L 2847 0 
L 2847 2094 
Q 2847 2600 2669 2842 
Q 2491 3084 2119 3084 
Q 1678 3084 1418 2786 
Q 1159 2488 1159 1978 
L 1159 0 
L 581 0 
L 581 3500 
L 1159 3500 
L 1159 2956 
Q 1356 3278 1631 3431 
Q 1906 3584 2284 3584 
Q 2666 3584 2933 3390 
Q 3200 3197 3328 2828 
z
" transform="scale(0.015625)"/>
      <path id="DejaVuSans-20" transform="scale(0.015625)"/>
      <path id="DejaVuSans-41" d="M 2188 4044 
L 1331 1722 
L 3047 1722 
L 2188 4044 
z
M 1831 4666 
L 2547 4666 
L 4325 0 
L 3669 0 
L 3244 1197 
L 1141 1197 
L 716 0 
L 50 0 
L 1831 4666 
z
" transform="scale(0.015625)"/>
     </defs>
     <use xlink:href="#DejaVuSans-44"/>
     <use xlink:href="#DejaVuSans-61" transform="translate(77.001953 0)"/>
     <use xlink:href="#DejaVuSans-74" transform="translate(138.28125 0)"/>
     <use xlink:href="#DejaVuSans-75" transform="translate(177.490234 0)"/>
     <use xlink:href="#DejaVuSans-6d" transform="translate(240.869141 0)"/>
     <use xlink:href="#DejaVuSans-20" transform="translate(338.28125 0)"/>
     <use xlink:href="#DejaVuSans-41" transform="translate(370.068359 0)"/>
    </g>
   </g>
   <g id="text_3">
    <g id="patch_4">
     <path d="M 184.20933 193.207146 
L 219.30183 193.207146 
Q 220.50183 193.207146 220.50183 192.007146 
L 220.50183 184.264646 
Q 220.50183 183.064646 219.30183 183.064646 
L 184.20933 183.064646 
Q 183.00933 183.064646 183.00933 184.264646 
L 183.00933 192.007146 
Q 183.00933 193.207146 184.20933 193.207146 
z
" style="fill: #eef6ff; stroke: #4a6fa5; stroke-linejoin: miter"/>
    </g>
    <!-- Datum B -->
    <g transform="translate(184.20933 190.343396) scale(0.08 -0.08)">
     <defs>
      <path id="DejaVuSans-42" d="M 1259 2228 
L 1259 519 
L 2272 519 
Q 2781 519 3026 730 
Q 3272 941 3272 1375 
Q 3272 1813 3026 2020 
Q 2781 2228 2272 2228 
L 1259 2228 
z
M 1259 4147 
L 1259 2741 
L 2194 2741 
Q 2656 2741 2882 2914 
Q 3109 3088 3109 3444 
Q 3109 3797 2882 3972 
Q 2656 4147 2194 4147 
L 1259 4147 
z
M 628 4666 
L 2241 4666 
Q 2963 4666 3353 4366 
Q 3744 4066 3744 3513 
Q 3744 3084 3544 2831 
Q 3344 2578 2956 2516 
Q 3422 2416 3680 2098 
Q 3938 1781 3938 1306 
Q 3938 681 3513 340 
Q 3088 0 2303 0 
L 628 0 
L 628 4666 
z
" transform="scale(0.015625)"/>
     </defs>
     <use xlink:href="#DejaVuSans-44"/>
     <use xlink:href="#DejaVuSans-61" transform="translate(77.001953 0)"/>
     <use xlink:href="#DejaVuSans-74" transform="translate(138.28125 0)"/>
     <use xlink:href="#DejaVuSans-75" transform="translate(177.490234 0)"/>
     <use xlink:href="#DejaVuSans-6d" transform="translate(240.869141 0)"/>
     <use xlink:href="#DejaVuSans-20" transform="translate(338.28125 0)"/>
     <use xlink:href="#DejaVuSans-42" transform="translate(370.068359 0)"/>
    </g>
   </g>
   <g id="patch_5">
    <path d="M 225.839667 319.82064 
Q 205.471712 319.82064 185.103758 319.82064 
" style="fill: none; stroke: #b26b00; stroke-width: 0.8; stroke-linecap: round"/>
    <path d="M 222.639667 318.22064 
L 225.839667 319.82064 
L 222.639667 321.42064 
" style="fill: none; stroke: #b26b00; stroke-width: 0.8; stroke-linecap: round"/>
    <path d="M 188.303758 321.42064 
L 185.103758 319.82064 
L 188.303758 318.22064 
" style="fill: none; stroke: #b26b00; stroke-width: 0.8; stroke-linecap: round"/>
   </g>
   <g id="text_4">
    <g id="patch_6">
     <path d="M 138.697844 325.24314 
L 314.770344 325.24314 
Q 316.210344 325.24314 316.210344 323.80314 
L 316.210344 315.83814 
Q 316.210344 314.39814 314.770344 314.39814 
L 138.697844 314.39814 
Q 137.257844 314.39814 137.257844 315.83814 
L 137.257844 323.80314 
Q 137.257844 325.24314 138.697844 325.24314 
z
" style="fill: #fff6e8; stroke: #b26b00; stroke-linejoin: miter"/>
    </g>
    <!-- tunnel_clear_height (linear) = 80 ± nominal -->
    <g transform="translate(138.697844 321.91689) scale(0.08 -0.08)">
     <defs>
      <path id="DejaVuSans-6e" d="M 3513 2113 
L 3513 0 
L 2938 0 
L 2938 2094 
Q 2938 2591 2744 2837 
Q 2550 3084 2163 3084 
Q 1697 3084 1428 2787 
Q 1159 2491 1159 1978 
L 1159 0 
L 581 0 
L 581 3500 
L 1159 3500 
L 1159 2956 
Q 1366 3272 1645 3428 
Q 1925 3584 2291 3584 
Q 2894 3584 3203 3211 
Q 3513 2838 3513 2113 
z
" transform="scale(0.015625)"/>
      <path id="DejaVuSans-65" d="M 3597 1894 
L 3597 1613 
L 953 1613 
Q 991 1019 1311 708 
Q 1631 397 2203 397 
Q 2534 397 2845 478 
Q 3156 559 3463 722 
L 3463 178 
Q 3153 47 2828 -22 
Q 2503 -91 2169 -91 
Q 1331 -91 842 396 
Q 353 884 353 1716 
Q 353 2575 817 3079 
Q 1281 3584 2069 3584 
Q 2775 3584 3186 3129 
Q 3597 2675 3597 1894 
z
M 3022 2063 
Q 3016 2534 2758 2815 
Q 2500 3097 2075 3097 
Q 1594 3097 1305 2825 
Q 1016 2553 972 2059 
L 3022 2063 
z
" transform="scale(0.015625)"/>
      <path id="DejaVuSans-6c" d="M 603 4863 
L 1178 4863 
L 1178 0 
L 603 0 
L 603 4863 
z
" transform="scale(0.015625)"/>
      <path id="DejaVuSans-5f" d="M 3263 -1063 
L 3263 -1509 
L -63 -1509 
L -63 -1063 
L 3263 -1063 
z
" transform="scale(0.015625)"/>
      <path id="DejaVuSans-63" d="M 3122 3366 
L 3122 2828 
Q 2878 2963 2633 3030 
Q 2388 3097 2138 3097 
Q 1578 3097 1268 2742 
Q 959 2388 959 1747 
Q 959 1106 1268 751 
Q 1578 397 2138 397 
Q 2388 397 2633 464 
Q 2878 531 3122 666 
L 3122 134 
Q 2881 22 2623 -34 
Q 2366 -91 2075 -91 
Q 1284 -91 818 406 
Q 353 903 353 1747 
Q 353 2603 823 3093 
Q 1294 3584 2113 3584 
Q 2378 3584 2631 3529 
Q 2884 3475 3122 3366 
z
" transform="scale(0.015625)"/>
      <path id="DejaVuSans-72" d="M 2631 2963 
Q 2534 3019 2420 3045 
Q 2306 3072 2169 3072 
Q 1681 3072 1420 2755 
Q 1159 2438 1159 1844 
L 1159 0 
L 581 0 
L 581 3500 
L 1159 3500 
L 1159 2956 
Q 1341 3275 1631 3429 
Q 1922 3584 2338 3584 
Q 2397 3584 2469 3576 
Q 2541 3569 2628 3553 
L 2631 2963 
z
" transform="scale(0.015625)"/>
      <path id="DejaVuSans-68" d="M 3513 2113 
L 3513 0 
L 2938 0 
L 2938 2094 
Q 2938 2591 2744 2837 
Q 2550 3084 2163 3084 
Q 1697 3084 1428 2787 
Q 1159 2491 1159 1978 
L 1159 0 
L 581 0 
L 581 4863 
L 1159 4863 
L 1159 2956 
Q 1366 3272 1645 3428 
Q 1925 3584 2291 3584 
Q 2894 3584 3203 3211 
Q 3513 2838 3513 2113 
z
" transform="scale(0.015625)"/>
      <path id="DejaVuSans-69" d="M 603 3500 
L 1178 3500 
L 1178 0 
L 603 0 
L 603 3500 
z
M 603 4863 
L 1178 4863 
L 1178 4134 
L 603 4134 
L 603 4863 
z
" transform="scale(0.015625)"/>
      <path id="DejaVuSans-67" d="M 2906 1791 
Q 2906 2416 2648 2759 
Q 2391 3103 1925 3103 
Q 1463 3103 1205 2759 
Q 947 2416 947 1791 
Q 947 1169 1205 825 
Q 1463 481 1925 481 
Q 2391 481 2648 825 
Q 2906 1169 2906 1791 
z
M 3481 434 
Q 3481 -459 3084 -895 
Q 2688 -1331 1869 -1331 
Q 1566 -1331 1297 -1286 
Q 1028 -1241 775 -1147 
L 775 -588 
Q 1028 -725 1275 -790 
Q 1522 -856 1778 -856 
Q 2344 -856 2625 -561 
Q 2906 -266 2906 331 
L 2906 616 
Q 2728 306 2450 153 
Q 2172 0 1784 0 
Q 1141 0 747 490 
Q 353 981 353 1791 
Q 353 2603 747 3093 
Q 1141 3584 1784 3584 
Q 2172 3584 2450 3431 
Q 2728 3278 2906 2969 
L 2906 3500 
L 3481 3500 
L 3481 434 
z
" transform="scale(0.015625)"/>
      <path id="DejaVuSans-28" d="M 1984 4856 
Q 1566 4138 1362 3434 
Q 1159 2731 1159 2009 
Q 1159 1288 1364 580 
Q 1569 -128 1984 -844 
L 1484 -844 
Q 1016 -109 783 600 
Q 550 1309 550 2009 
Q 550 2706 781 3412 
Q 1013 4119 1484 4856 
L 1984 4856 
z
" transform="scale(0.015625)"/>
      <path id="DejaVuSans-29" d="M 513 4856 
L 1013 4856 
Q 1481 4119 1714 3412 
Q 1947 2706 1947 2009 
Q 1947 1309 1714 600 
Q 1481 -109 1013 -844 
L 513 -844 
Q 928 -128 1133 580 
Q 1338 1288 1338 2009 
Q 1338 2731 1133 3434 
Q 928 4138 513 4856 
z
" transform="scale(0.015625)"/>
      <path id="DejaVuSans-3d" d="M 678 2906 
L 4684 2906 
L 4684 2381 
L 678 2381 
L 678 2906 
z
M 678 1631 
L 4684 1631 
L 4684 1100 
L 678 1100 
L 678 1631 
z
" transform="scale(0.015625)"/>
      <path id="DejaVuSans-38" d="M 2034 2216 
Q 1584 2216 1326 1975 
Q 1069 1734 1069 1313 
Q 1069 891 1326 650 
Q 1584 409 2034 409 
Q 2484 409 2743 651 
Q 3003 894 3003 1313 
Q 3003 1734 2745 1975 
Q 2488 2216 2034 2216 
z
M 1403 2484 
Q 997 2584 770 2862 
Q 544 3141 544 3541 
Q 544 4100 942 4425 
Q 1341 4750 2034 4750 
Q 2731 4750 3128 4425 
Q 3525 4100 3525 3541 
Q 3525 3141 3298 2862 
Q 3072 2584 2669 2484 
Q 3125 2378 3379 2068 
Q 3634 1759 3634 1313 
Q 3634 634 3220 271 
Q 2806 -91 2034 -91 
Q 1263 -91 848 271 
Q 434 634 434 1313 
Q 434 1759 690 2068 
Q 947 2378 1403 2484 
z
M 1172 3481 
Q 1172 3119 1398 2916 
Q 1625 2713 2034 2713 
Q 2441 2713 2670 2916 
Q 2900 3119 2900 3481 
Q 2900 3844 2670 4047 
Q 2441 4250 2034 4250 
Q 1625 4250 1398 4047 
Q 1172 3844 1172 3481 
z
" transform="scale(0.015625)"/>
      <path id="DejaVuSans-30" d="M 2034 4250 
Q 1547 4250 1301 3770 
Q 1056 3291 1056 2328 
Q 1056 1369 1301 889 
Q 1547 409 2034 409 
Q 2525 409 2770 889 
Q 3016 1369 3016 2328 
Q 3016 3291 2770 3770 
Q 2525 4250 2034 4250 
z
M 2034 4750 
Q 2819 4750 3233 4129 
Q 3647 3509 3647 2328 
Q 3647 1150 3233 529 
Q 2819 -91 2034 -91 
Q 1250 -91 836 529 
Q 422 1150 422 2328 
Q 422 3509 836 4129 
Q 1250 4750 2034 4750 
z
" transform="scale(0.015625)"/>
      <path id="DejaVuSans-b1" d="M 2944 4013 
L 2944 2803 
L 4684 2803 
L 4684 2272 
L 2944 2272 
L 2944 1063 
L 2419 1063 
L 2419 2272 
L 678 2272 
L 678 2803 
L 2419 2803 
L 2419 4013 
L 2944 4013 
z
M 678 531 
L 4684 531 
L 4684 0 
L 678 0 
L 678 531 
z
" transform="scale(0.015625)"/>
      <path id="DejaVuSans-6f" d="M 1959 3097 
Q 1497 3097 1228 2736 
Q 959 2375 959 1747 
Q 959 1119 1226 758 
Q 1494 397 1959 397 
Q 2419 397 2687 759 
Q 2956 1122 2956 1747 
Q 2956 2369 2687 2733 
Q 2419 3097 1959 3097 
z
M 1959 3584 
Q 2709 3584 3137 3096 
Q 3566 2609 3566 1747 
Q 3566 888 3137 398 
Q 2709 -91 1959 -91 
Q 1206 -91 779 398 
Q 353 888 353 1747 
Q 353 2609 779 3096 
Q 1206 3584 1959 3584 
z
" transform="scale(0.015625)"/>
     </defs>
     <use xlink:href="#DejaVuSans-74"/>
     <use xlink:href="#DejaVuSans-75" transform="translate(39.208984 0)"/>
     <use xlink:href="#DejaVuSans-6e" transform="translate(102.587891 0)"/>
     <use xlink:href="#DejaVuSans-6e" transform="translate(165.966797 0)"/>
     <use xlink:href="#DejaVuSans-65" transform="translate(229.345703 0)"/>
     <use xlink:href="#DejaVuSans-6c" transform="translate(290.869141 0)"/>
     <use xlink:href="#DejaVuSans-5f" transform="translate(318.652344 0)"/>
     <use xlink:href="#DejaVuSans-63" transform="translate(368.652344 0)"/>
     <use xlink:href="#DejaVuSans-6c" transform="translate(423.632812 0)"/>
     <use xlink:href="#DejaVuSans-65" transform="translate(451.416016 0)"/>
     <use xlink:href="#DejaVuSans-61" transform="translate(512.939453 0)"/>
     <use xlink:href="#DejaVuSans-72" transform="translate(574.21875 0)"/>
     <use xlink:href="#DejaVuSans-5f" transform="translate(615.332031 0)"/>
     <use xlink:href="#DejaVuSans-68" transform="translate(665.332031 0)"/>
     <use xlink:href="#DejaVuSans-65" transform="translate(728.710938 0)"/>
     <use xlink:href="#DejaVuSans-69" transform="translate(790.234375 0)"/>
     <use xlink:href="#DejaVuSans-67" transform="translate(818.017578 0)"/>
     <use xlink:href="#DejaVuSans-68" transform="translate(881.494141 0)"/>
     <use xlink:href="#DejaVuSans-74" transform="translate(944.873047 0)"/>
     <use xlink:href="#DejaVuSans-20" transform="translate(984.082031 0)"/>
     <use xlink:href="#DejaVuSans-28" transform="translate(1015.869141 0)"/>
     <use xlink:href="#DejaVuSans-6c" transform="translate(1054.882812 0)"/>
     <use xlink:href="#DejaVuSans-69" transform="translate(1082.666016 0)"/>
     <use xlink:href="#DejaVuSans-6e" transform="translate(1110.449219 0)"/>
     <use xlink:href="#DejaVuSans-65" transform="translate(1173.828125 0)"/>
     <use xlink:href="#DejaVuSans-61" transform="translate(1235.351562 0)"/>
     <use xlink:href="#DejaVuSans-72" transform="translate(1296.630859 0)"/>
     <use xlink:href="#DejaVuSans-29" transform="translate(1337.744141 0)"/>
     <use xlink:href="#DejaVuSans-20" transform="translate(1376.757812 0)"/>
     <use xlink:href="#DejaVuSans-3d" transform="translate(1408.544922 0)"/>
     <use xlink:href="#DejaVuSans-20" transform="translate(1492.333984 0)"/>
     <use xlink:href="#DejaVuSans-38" transform="translate(1524.121094 0)"/>
     <use xlink:href="#DejaVuSans-30" transform="translate(1587.744141 0)"/>
     <use xlink:href="#DejaVuSans-20" transform="translate(1651.367188 0)"/>
     <use xlink:href="#DejaVuSans-b1" transform="translate(1683.154297 0)"/>
     <use xlink:href="#DejaVuSans-20" transform="translate(1766.943359 0)"/>
     <use xlink:href="#DejaVuSans-6e" transform="translate(1798.730469 0)"/>
     <use xlink:href="#DejaVuSans-6f" transform="translate(1862.109375 0)"/>
     <use xlink:href="#DejaVuSans-6d" transform="translate(1923.291016 0)"/>
     <use xlink:href="#DejaVuSans-69" transform="translate(2020.703125 0)"/>
     <use xlink:href="#DejaVuSans-6e" transform="translate(2048.486328 0)"/>
     <use xlink:href="#DejaVuSans-61" transform="translate(2111.865234 0)"/>
     <use xlink:href="#DejaVuSans-6c" transform="translate(2173.144531 0)"/>
    </g>
   </g>
   <g id="patch_7">
    <path d="M 225.839667 347.355424 
Q 205.471712 347.355424 185.103758 347.355424 
" style="fill: none; stroke: #b26b00; stroke-width: 0.8; stroke-linecap: round"/>
    <path d="M 222.639667 345.755424 
L 225.839667 347.355424 
L 222.639667 348.955424 
" style="fill: none; stroke: #b26b00; stroke-width: 0.8; stroke-linecap: round"/>
    <path d="M 188.303758 348.955424 
L 185.103758 347.355424 
L 188.303758 345.755424 
" style="fill: none; stroke: #b26b00; stroke-width: 0.8; stroke-linecap: round"/>
   </g>
   <g id="text_5">
    <g id="patch_8">
     <path d="M 145.475344 352.777924 
L 307.992844 352.777924 
Q 309.432844 352.777924 309.432844 351.337924 
L 309.432844 343.372924 
Q 309.432844 341.932924 307.992844 341.932924 
L 145.475344 341.932924 
Q 144.035344 341.932924 144.035344 343.372924 
L 144.035344 351.337924 
Q 144.035344 352.777924 145.475344 352.777924 
z
" style="fill: #fff6e8; stroke: #b26b00; stroke-linejoin: miter"/>
    </g>
    <!-- tunnel_length (linear) = 1020 ± nominal -->
    <g transform="translate(145.475344 349.451674) scale(0.08 -0.08)">
     <defs>
      <path id="DejaVuSans-31" d="M 794 531 
L 1825 531 
L 1825 4091 
L 703 3866 
L 703 4441 
L 1819 4666 
L 2450 4666 
L 2450 531 
L 3481 531 
L 3481 0 
L 794 0 
L 794 531 
z
" transform="scale(0.015625)"/>
      <path id="DejaVuSans-32" d="M 1228 531 
L 3431 531 
L 3431 0 
L 469 0 
L 469 531 
Q 828 903 1448 1529 
Q 2069 2156 2228 2338 
Q 2531 2678 2651 2914 
Q 2772 3150 2772 3378 
Q 2772 3750 2511 3984 
Q 2250 4219 1831 4219 
Q 1534 4219 1204 4116 
Q 875 4013 500 3803 
L 500 4441 
Q 881 4594 1212 4672 
Q 1544 4750 1819 4750 
Q 2544 4750 2975 4387 
Q 3406 4025 3406 3419 
Q 3406 3131 3298 2873 
Q 3191 2616 2906 2266 
Q 2828 2175 2409 1742 
Q 1991 1309 1228 531 
z
" transform="scale(0.015625)"/>
     </defs>
     <use xlink:href="#DejaVuSans-74"/>
     <use xlink:href="#DejaVuSans-75" transform="translate(39.208984 0)"/>
     <use xlink:href="#DejaVuSans-6e" transform="translate(102.587891 0)"/>
     <use xlink:href="#DejaVuSans-6e" transform="translate(165.966797 0)"/>
     <use xlink:href="#DejaVuSans-65" transform="translate(229.345703 0)"/>
     <use xlink:href="#DejaVuSans-6c" transform="translate(290.869141 0)"/>
     <use xlink:href="#DejaVuSans-5f" transform="translate(318.652344 0)"/>
     <use xlink:href="#DejaVuSans-6c" transform="translate(368.652344 0)"/>
     <use xlink:href="#DejaVuSans-65" transform="translate(396.435547 0)"/>
     <use xlink:href="#DejaVuSans-6e" transform="translate(457.958984 0)"/>
     <use xlink:href="#DejaVuSans-67" transform="translate(521.337891 0)"/>
     <use xlink:href="#DejaVuSans-74" transform="translate(584.814453 0)"/>
     <use xlink:href="#DejaVuSans-68" transform="translate(624.023438 0)"/>
     <use xlink:href="#DejaVuSans-20" transform="translate(687.402344 0)"/>
     <use xlink:href="#DejaVuSans-28" transform="translate(719.189453 0)"/>
     <use xlink:href="#DejaVuSans-6c" transform="translate(758.203125 0)"/>
     <use xlink:href="#DejaVuSans-69" transform="translate(785.986328 0)"/>
     <use xlink:href="#DejaVuSans-6e" transform="translate(813.769531 0)"/>
     <use xlink:href="#DejaVuSans-65" transform="translate(877.148438 0)"/>
     <use xlink:href="#DejaVuSans-61" transform="translate(938.671875 0)"/>
     <use xlink:href="#DejaVuSans-72" transform="translate(999.951172 0)"/>
     <use xlink:href="#DejaVuSans-29" transform="translate(1041.064453 0)"/>
     <use xlink:href="#DejaVuSans-20" transform="translate(1080.078125 0)"/>
     <use xlink:href="#DejaVuSans-3d" transform="translate(1111.865234 0)"/>
     <use xlink:href="#DejaVuSans-20" transform="translate(1195.654297 0)"/>
     <use xlink:href="#DejaVuSans-31" transform="translate(1227.441406 0)"/>
     <use xlink:href="#DejaVuSans-30" transform="translate(1291.064453 0)"/>
     <use xlink:href="#DejaVuSans-32" transform="translate(1354.6875 0)"/>
     <use xlink:href="#DejaVuSans-30" transform="translate(1418.310547 0)"/>
     <use xlink:href="#DejaVuSans-20" transform="translate(1481.933594 0)"/>
     <use xlink:href="#DejaVuSans-b1" transform="translate(1513.720703 0)"/>
     <use xlink:href="#DejaVuSans-20" transform="translate(1597.509766 0)"/>
     <use xlink:href="#DejaVuSans-6e" transform="translate(1629.296875 0)"/>
     <use xlink:href="#DejaVuSans-6f" transform="translate(1692.675781 0)"/>
     <use xlink:href="#DejaVuSans-6d" transform="translate(1753.857422 0)"/>
     <use xlink:href="#DejaVuSans-69" transform="translate(1851.269531 0)"/>
     <use xlink:href="#DejaVuSans-6e" transform="translate(1879.052734 0)"/>
     <use xlink:href="#DejaVuSans-61" transform="translate(1942.431641 0)"/>
     <use xlink:href="#DejaVuSans-6c" transform="translate(2003.710938 0)"/>
    </g>
   </g>
   <g id="text_6">
    <g id="patch_9">
     <path d="M 244.435027 228.546721 
L 334.108777 228.546721 
Q 335.308777 228.546721 335.308777 227.346721 
L 335.308777 219.604221 
Q 335.308777 218.404221 334.108777 218.404221 
L 244.435027 218.404221 
Q 243.235027 218.404221 243.235027 219.604221 
L 243.235027 227.346721 
Q 243.235027 228.546721 244.435027 228.546721 
z
" style="fill: #f4f4f4; stroke: #666666; stroke-linejoin: miter"/>
    </g>
    <!-- 1. environment fixture -->
    <g transform="translate(244.435027 225.682971) scale(0.08 -0.08)">
     <defs>
      <path id="DejaVuSans-2e" d="M 684 794 
L 1344 794 
L 1344 0 
L 684 0 
L 684 794 
z
" transform="scale(0.015625)"/>
      <path id="DejaVuSans-76" d="M 191 3500 
L 800 3500 
L 1894 563 
L 2988 3500 
L 3597 3500 
L 2284 0 
L 1503 0 
L 191 3500 
z
" transform="scale(0.015625)"/>
      <path id="DejaVuSans-66" d="M 2375 4863 
L 2375 4384 
L 1825 4384 
Q 1516 4384 1395 4259 
Q 1275 4134 1275 3809 
L 1275 3500 
L 2222 3500 
L 2222 3053 
L 1275 3053 
L 1275 0 
L 697 0 
L 697 3053 
L 147 3053 
L 147 3500 
L 697 3500 
L 697 3744 
Q 697 4328 969 4595 
Q 1241 4863 1831 4863 
L 2375 4863 
z
" transform="scale(0.015625)"/>
      <path id="DejaVuSans-78" d="M 3513 3500 
L 2247 1797 
L 3578 0 
L 2900 0 
L 1881 1375 
L 863 0 
L 184 0 
L 1544 1831 
L 300 3500 
L 978 3500 
L 1906 2253 
L 2834 3500 
L 3513 3500 
z
" transform="scale(0.015625)"/>
     </defs>
     <use xlink:href="#DejaVuSans-31"/>
     <use xlink:href="#DejaVuSans-2e" transform="translate(63.623047 0)"/>
     <use xlink:href="#DejaVuSans-20" transform="translate(95.410156 0)"/>
     <use xlink:href="#DejaVuSans-65" transform="translate(127.197266 0)"/>
     <use xlink:href="#DejaVuSans-6e" transform="translate(188.720703 0)"/>
     <use xlink:href="#DejaVuSans-76" transform="translate(252.099609 0)"/>
     <use xlink:href="#DejaVuSans-69" transform="translate(311.279297 0)"/>
     <use xlink:href="#DejaVuSans-72" transform="translate(339.0625 0)"/>
     <use xlink:href="#DejaVuSans-6f" transform="translate(377.925781 0)"/>
     <use xlink:href="#DejaVuSans-6e" transform="translate(439.107422 0)"/>
     <use xlink:href="#DejaVuSans-6d" transform="translate(502.486328 0)"/>
     <use xlink:href="#DejaVuSans-65" transform="translate(599.898438 0)"/>
     <use xlink:href="#DejaVuSans-6e" transform="translate(661.421875 0)"/>
     <use xlink:href="#DejaVuSans-74" transform="translate(724.800781 0)"/>
     <use xlink:href="#DejaVuSans-20" transform="translate(764.009766 0)"/>
     <use xlink:href="#DejaVuSans-66" transform="translate(795.796875 0)"/>
     <use xlink:href="#DejaVuSans-69" transform="translate(831.001953 0)"/>
     <use xlink:href="#DejaVuSans-78" transform="translate(858.785156 0)"/>
     <use xlink:href="#DejaVuSans-74" transform="translate(917.964844 0)"/>
     <use xlink:href="#DejaVuSans-75" transform="translate(957.173828 0)"/>
     <use xlink:href="#DejaVuSans-72" transform="translate(1020.552734 0)"/>
     <use xlink:href="#DejaVuSans-65" transform="translate(1059.416016 0)"/>
    </g>
   </g>
   <g id="text_7">
    <g id="patch_10">
     <path d="M 184.20933 377.282554 
L 632.99183 377.282554 
Q 634.43183 377.282554 634.43183 375.842554 
L 634.43183 368.037554 
Q 634.43183 366.597554 632.99183 366.597554 
L 184.20933 366.597554 
Q 182.76933 366.597554 182.76933 368.037554 
L 182.76933 375.842554 
Q 182.76933 377.282554 184.20933 377.282554 
z
" style="fill: #fff0f0; stroke: #b00020; stroke-linejoin: miter"/>
    </g>
    <!-- Note n1: The tunnel body stays fixed and contains the rolling sphere until it reaches the goal zone. -->
    <g transform="translate(184.20933 374.116304) scale(0.08 -0.08)">
     <defs>
      <path id="DejaVuSans-Bold-4e" d="M 588 4666 
L 1931 4666 
L 3628 1466 
L 3628 4666 
L 4769 4666 
L 4769 0 
L 3425 0 
L 1728 3200 
L 1728 0 
L 588 0 
L 588 4666 
z
" transform="scale(0.015625)"/>
      <path id="DejaVuSans-Bold-6e" d="M 4056 2131 
L 4056 0 
L 2931 0 
L 2931 347 
L 2931 1631 
Q 2931 2084 2911 2256 
Q 2891 2428 2841 2509 
Q 2775 2619 2662 2680 
Q 2550 2741 2406 2741 
Q 2056 2741 1856 2470 
Q 1656 2200 1656 1722 
L 1656 0 
L 538 0 
L 538 3500 
L 1656 3500 
L 1656 2988 
Q 1909 3294 2193 3439 
Q 2478 3584 2822 3584 
Q 3428 3584 3742 3212 
Q 4056 2841 4056 2131 
z
" transform="scale(0.015625)"/>
      <path id="DejaVuSans-Bold-31" d="M 750 831 
L 1813 831 
L 1813 3847 
L 722 3622 
L 722 4441 
L 1806 4666 
L 2950 4666 
L 2950 831 
L 4013 831 
L 4013 0 
L 750 0 
L 750 831 
z
" transform="scale(0.015625)"/>
      <path id="DejaVuSans-Bold-3a" d="M 716 3500 
L 1844 3500 
L 1844 2291 
L 716 2291 
L 716 3500 
z
M 716 1209 
L 1844 1209 
L 1844 0 
L 716 0 
L 716 1209 
z
" transform="scale(0.015625)"/>
      <path id="DejaVuSans-Bold-54" d="M 31 4666 
L 4331 4666 
L 4331 3756 
L 2784 3756 
L 2784 0 
L 1581 0 
L 1581 3756 
L 31 3756 
L 31 4666 
z
" transform="scale(0.015625)"/>
      <path id="DejaVuSans-Bold-68" d="M 4056 2131 
L 4056 0 
L 2931 0 
L 2931 347 
L 2931 1625 
Q 2931 2084 2911 2256 
Q 2891 2428 2841 2509 
Q 2775 2619 2662 2680 
Q 2550 2741 2406 2741 
Q 2056 2741 1856 2470 
Q 1656 2200 1656 1722 
L 1656 0 
L 538 0 
L 538 4863 
L 1656 4863 
L 1656 2988 
Q 1909 3294 2193 3439 
Q 2478 3584 2822 3584 
Q 3428 3584 3742 3212 
Q 4056 2841 4056 2131 
z
" transform="scale(0.015625)"/>
      <path id="DejaVuSans-Bold-75" d="M 500 1363 
L 500 3500 
L 1625 3500 
L 1625 3150 
Q 1625 2866 1622 2436 
Q 1619 2006 1619 1863 
Q 1619 1441 1641 1255 
Q 1663 1069 1716 984 
Q 1784 875 1895 815 
Q 2006 756 2150 756 
Q 2500 756 2700 1025 
Q 2900 1294 2900 1772 
L 2900 3500 
L 4019 3500 
L 4019 0 
L 2900 0 
L 2900 506 
Q 2647 200 2364 54 
Q 2081 -91 1741 -91 
Q 1134 -91 817 281 
Q 500 653 500 1363 
z
" transform="scale(0.015625)"/>
      <path id="DejaVuSans-Bold-6c" d="M 538 4863 
L 1656 4863 
L 1656 0 
L 538 0 
L 538 4863 
z
" transform="scale(0.015625)"/>
      <path id="DejaVuSans-Bold-62" d="M 2400 722 
Q 2759 722 2948 984 
Q 3138 1247 3138 1747 
Q 3138 2247 2948 2509 
Q 2759 2772 2400 2772 
Q 2041 2772 1848 2508 
Q 1656 2244 1656 1747 
Q 1656 1250 1848 986 
Q 2041 722 2400 722 
z
M 1656 2988 
Q 1888 3294 2169 3439 
Q 2450 3584 2816 3584 
Q 3463 3584 3878 3070 
Q 4294 2556 4294 1747 
Q 4294 938 3878 423 
Q 3463 -91 2816 -91 
Q 2450 -91 2169 54 
Q 1888 200 1656 506 
L 1656 0 
L 538 0 
L 538 4863 
L 1656 4863 
L 1656 2988 
z
" transform="scale(0.015625)"/>
      <path id="DejaVuSans-Bold-64" d="M 2919 2988 
L 2919 4863 
L 4044 4863 
L 4044 0 
L 2919 0 
L 2919 506 
Q 2688 197 2409 53 
Q 2131 -91 1766 -91 
Q 1119 -91 703 423 
Q 288 938 288 1747 
Q 288 2556 703 3070 
Q 1119 3584 1766 3584 
Q 2128 3584 2408 3439 
Q 2688 3294 2919 2988 
z
M 2181 722 
Q 2541 722 2730 984 
Q 2919 1247 2919 1747 
Q 2919 2247 2730 2509 
Q 2541 2772 2181 2772 
Q 1825 2772 1636 2509 
Q 1447 2247 1447 1747 
Q 1447 1247 1636 984 
Q 1825 722 2181 722 
z
" transform="scale(0.015625)"/>
      <path id="DejaVuSans-Bold-79" d="M 78 3500 
L 1197 3500 
L 2138 1125 
L 2938 3500 
L 4056 3500 
L 2584 -331 
Q 2363 -916 2067 -1148 
Q 1772 -1381 1288 -1381 
L 641 -1381 
L 641 -647 
L 991 -647 
Q 1275 -647 1404 -556 
Q 1534 -466 1606 -231 
L 1638 -134 
L 78 3500 
z
" transform="scale(0.015625)"/>
      <path id="DejaVuSans-Bold-73" d="M 3272 3391 
L 3272 2541 
Q 2913 2691 2578 2766 
Q 2244 2841 1947 2841 
Q 1628 2841 1473 2761 
Q 1319 2681 1319 2516 
Q 1319 2381 1436 2309 
Q 1553 2238 1856 2203 
L 2053 2175 
Q 2913 2066 3209 1816 
Q 3506 1566 3506 1031 
Q 3506 472 3093 190 
Q 2681 -91 1863 -91 
Q 1516 -91 1145 -36 
Q 775 19 384 128 
L 384 978 
Q 719 816 1070 734 
Q 1422 653 1784 653 
Q 2113 653 2278 743 
Q 2444 834 2444 1013 
Q 2444 1163 2330 1236 
Q 2216 1309 1875 1350 
L 1678 1375 
Q 931 1469 631 1722 
Q 331 1975 331 2491 
Q 331 3047 712 3315 
Q 1094 3584 1881 3584 
Q 2191 3584 2531 3537 
Q 2872 3491 3272 3391 
z
" transform="scale(0.015625)"/>
      <path id="DejaVuSans-Bold-61" d="M 2106 1575 
Q 1756 1575 1579 1456 
Q 1403 1338 1403 1106 
Q 1403 894 1545 773 
Q 1688 653 1941 653 
Q 2256 653 2472 879 
Q 2688 1106 2688 1447 
L 2688 1575 
L 2106 1575 
z
M 3816 1997 
L 3816 0 
L 2688 0 
L 2688 519 
Q 2463 200 2181 54 
Q 1900 -91 1497 -91 
Q 953 -91 614 226 
Q 275 544 275 1050 
Q 275 1666 698 1953 
Q 1122 2241 2028 2241 
L 2688 2241 
L 2688 2328 
Q 2688 2594 2478 2717 
Q 2269 2841 1825 2841 
Q 1466 2841 1156 2769 
Q 847 2697 581 2553 
L 581 3406 
Q 941 3494 1303 3539 
Q 1666 3584 2028 3584 
Q 2975 3584 3395 3211 
Q 3816 2838 3816 1997 
z
" transform="scale(0.015625)"/>
      <path id="DejaVuSans-Bold-66" d="M 2841 4863 
L 2841 4128 
L 2222 4128 
Q 1984 4128 1890 4042 
Q 1797 3956 1797 3744 
L 1797 3500 
L 2753 3500 
L 2753 2700 
L 1797 2700 
L 1797 0 
L 678 0 
L 678 2700 
L 122 2700 
L 122 3500 
L 678 3500 
L 678 3744 
Q 678 4316 997 4589 
Q 1316 4863 1984 4863 
L 2841 4863 
z
" transform="scale(0.015625)"/>
      <path id="DejaVuSans-Bold-78" d="M 1422 1791 
L 159 3500 
L 1344 3500 
L 2059 2463 
L 2784 3500 
L 3969 3500 
L 2706 1797 
L 4031 0 
L 2847 0 
L 2059 1106 
L 1281 0 
L 97 0 
L 1422 1791 
z
" transform="scale(0.015625)"/>
      <path id="DejaVuSans-Bold-63" d="M 3366 3391 
L 3366 2478 
Q 3138 2634 2908 2709 
Q 2678 2784 2431 2784 
Q 1963 2784 1702 2511 
Q 1441 2238 1441 1747 
Q 1441 1256 1702 982 
Q 1963 709 2431 709 
Q 2694 709 2930 787 
Q 3166 866 3366 1019 
L 3366 103 
Q 3103 6 2833 -42 
Q 2563 -91 2291 -91 
Q 1344 -91 809 395 
Q 275 881 275 1747 
Q 275 2613 809 3098 
Q 1344 3584 2291 3584 
Q 2566 3584 2833 3536 
Q 3100 3488 3366 3391 
z
" transform="scale(0.015625)"/>
      <path id="DejaVuSans-Bold-72" d="M 3138 2547 
Q 2991 2616 2845 2648 
Q 2700 2681 2553 2681 
Q 2122 2681 1889 2404 
Q 1656 2128 1656 1613 
L 1656 0 
L 538 0 
L 538 3500 
L 1656 3500 
L 1656 2925 
Q 1872 3269 2151 3426 
Q 2431 3584 2822 3584 
Q 2878 3584 2943 3579 
Q 3009 3575 3134 3559 
L 3138 2547 
z
" transform="scale(0.015625)"/>
      <path id="DejaVuSans-Bold-67" d="M 2919 594 
Q 2688 288 2409 144 
Q 2131 0 1766 0 
Q 1125 0 706 504 
Q 288 1009 288 1791 
Q 288 2575 706 3076 
Q 1125 3578 1766 3578 
Q 2131 3578 2409 3434 
Q 2688 3291 2919 2981 
L 2919 3500 
L 4044 3500 
L 4044 353 
Q 4044 -491 3511 -936 
Q 2978 -1381 1966 -1381 
Q 1638 -1381 1331 -1331 
Q 1025 -1281 716 -1178 
L 716 -306 
Q 1009 -475 1290 -558 
Q 1572 -641 1856 -641 
Q 2406 -641 2662 -400 
Q 2919 -159 2919 353 
L 2919 594 
z
M 2181 2772 
Q 1834 2772 1640 2515 
Q 1447 2259 1447 1791 
Q 1447 1309 1634 1061 
Q 1822 813 2181 813 
Q 2531 813 2725 1069 
Q 2919 1325 2919 1791 
Q 2919 2259 2725 2515 
Q 2531 2772 2181 2772 
z
" transform="scale(0.015625)"/>
      <path id="DejaVuSans-Bold-7a" d="M 366 3500 
L 3419 3500 
L 3419 2719 
L 1575 800 
L 3419 800 
L 3419 0 
L 288 0 
L 288 781 
L 2131 2700 
L 366 2700 
L 366 3500 
z
" transform="scale(0.015625)"/>
      <path id="DejaVuSans-Bold-2e" d="M 653 1209 
L 1778 1209 
L 1778 0 
L 653 0 
L 653 1209 
z
" transform="scale(0.015625)"/>
     </defs>
     <use xlink:href="#DejaVuSans-Bold-4e"/>
     <use xlink:href="#DejaVuSans-Bold-6f" transform="translate(83.691406 0)"/>
     <use xlink:href="#DejaVuSans-Bold-74" transform="translate(152.392578 0)"/>
     <use xlink:href="#DejaVuSans-Bold-65" transform="translate(200.195312 0)"/>
     <use xlink:href="#DejaVuSans-Bold-20" transform="translate(268.017578 0)"/>
     <use xlink:href="#DejaVuSans-Bold-6e" transform="translate(302.832031 0)"/>
     <use xlink:href="#DejaVuSans-Bold-31" transform="translate(374.023438 0)"/>
     <use xlink:href="#DejaVuSans-Bold-3a" transform="translate(443.603516 0)"/>
     <use xlink:href="#DejaVuSans-Bold-20" transform="translate(483.59375 0)"/>
     <use xlink:href="#DejaVuSans-Bold-54" transform="translate(518.408203 0)"/>
     <use xlink:href="#DejaVuSans-Bold-68" transform="translate(586.621094 0)"/>
     <use xlink:href="#DejaVuSans-Bold-65" transform="translate(657.8125 0)"/>
     <use xlink:href="#DejaVuSans-Bold-20" transform="translate(725.634766 0)"/>
     <use xlink:href="#DejaVuSans-Bold-74" transform="translate(760.449219 0)"/>
     <use xlink:href="#DejaVuSans-Bold-75" transform="translate(808.251953 0)"/>
     <use xlink:href="#DejaVuSans-Bold-6e" transform="translate(879.443359 0)"/>
     <use xlink:href="#DejaVuSans-Bold-6e" transform="translate(950.634766 0)"/>
     <use xlink:href="#DejaVuSans-Bold-65" transform="translate(1021.826172 0)"/>
     <use xlink:href="#DejaVuSans-Bold-6c" transform="translate(1089.648438 0)"/>
     <use xlink:href="#DejaVuSans-Bold-20" transform="translate(1123.925781 0)"/>
     <use xlink:href="#DejaVuSans-Bold-62" transform="translate(1158.740234 0)"/>
     <use xlink:href="#DejaVuSans-Bold-6f" transform="translate(1230.322266 0)"/>
     <use xlink:href="#DejaVuSans-Bold-64" transform="translate(1299.023438 0)"/>
     <use xlink:href="#DejaVuSans-Bold-79" transform="translate(1370.605469 0)"/>
     <use xlink:href="#DejaVuSans-Bold-20" transform="translate(1435.791016 0)"/>
     <use xlink:href="#DejaVuSans-Bold-73" transform="translate(1470.605469 0)"/>
     <use xlink:href="#DejaVuSans-Bold-74" transform="translate(1530.126953 0)"/>
     <use xlink:href="#DejaVuSans-Bold-61" transform="translate(1577.929688 0)"/>
     <use xlink:href="#DejaVuSans-Bold-79" transform="translate(1642.285156 0)"/>
     <use xlink:href="#DejaVuSans-Bold-73" transform="translate(1707.470703 0)"/>
     <use xlink:href="#DejaVuSans-Bold-20" transform="translate(1766.992188 0)"/>
     <use xlink:href="#DejaVuSans-Bold-66" transform="translate(1801.806641 0)"/>
     <use xlink:href="#DejaVuSans-Bold-69" transform="translate(1845.3125 0)"/>
     <use xlink:href="#DejaVuSans-Bold-78" transform="translate(1879.589844 0)"/>
     <use xlink:href="#DejaVuSans-Bold-65" transform="translate(1944.091797 0)"/>
     <use xlink:href="#DejaVuSans-Bold-64" transform="translate(2011.914062 0)"/>
     <use xlink:href="#DejaVuSans-Bold-20" transform="translate(2083.496094 0)"/>
     <use xlink:href="#DejaVuSans-Bold-61" transform="translate(2118.310547 0)"/>
     <use xlink:href="#DejaVuSans-Bold-6e" transform="translate(2185.791016 0)"/>
     <use xlink:href="#DejaVuSans-Bold-64" transform="translate(2256.982422 0)"/>
     <use xlink:href="#DejaVuSans-Bold-20" transform="translate(2328.564453 0)"/>
     <use xlink:href="#DejaVuSans-Bold-63" transform="translate(2363.378906 0)"/>
     <use xlink:href="#DejaVuSans-Bold-6f" transform="translate(2422.65625 0)"/>
     <use xlink:href="#DejaVuSans-Bold-6e" transform="translate(2491.357422 0)"/>
     <use xlink:href="#DejaVuSans-Bold-74" transform="translate(2562.548828 0)"/>
     <use xlink:href="#DejaVuSans-Bold-61" transform="translate(2610.351562 0)"/>
     <use xlink:href="#DejaVuSans-Bold-69" transform="translate(2677.832031 0)"/>
     <use xlink:href="#DejaVuSans-Bold-6e" transform="translate(2712.109375 0)"/>
     <use xlink:href="#DejaVuSans-Bold-73" transform="translate(2783.300781 0)"/>
     <use xlink:href="#DejaVuSans-Bold-20" transform="translate(2842.822266 0)"/>
     <use xlink:href="#DejaVuSans-Bold-74" transform="translate(2877.636719 0)"/>
     <use xlink:href="#DejaVuSans-Bold-68" transform="translate(2925.439453 0)"/>
     <use xlink:href="#DejaVuSans-Bold-65" transform="translate(2996.630859 0)"/>
     <use xlink:href="#DejaVuSans-Bold-20" transform="translate(3064.453125 0)"/>
     <use xlink:href="#DejaVuSans-Bold-72" transform="translate(3099.267578 0)"/>
     <use xlink:href="#DejaVuSans-Bold-6f" transform="translate(3148.583984 0)"/>
     <use xlink:href="#DejaVuSans-Bold-6c" transform="translate(3217.285156 0)"/>
     <use xlink:href="#DejaVuSans-Bold-6c" transform="translate(3251.5625 0)"/>
     <use xlink:href="#DejaVuSans-Bold-69" transform="translate(3285.839844 0)"/>
     <use xlink:href="#DejaVuSans-Bold-6e" transform="translate(3320.117188 0)"/>
     <use xlink:href="#DejaVuSans-Bold-67" transform="translate(3391.308594 0)"/>
     <use xlink:href="#DejaVuSans-Bold-20" transform="translate(3462.890625 0)"/>
     <use xlink:href="#DejaVuSans-Bold-73" transform="translate(3497.705078 0)"/>
     <use xlink:href="#DejaVuSans-Bold-70" transform="translate(3557.226562 0)"/>
     <use xlink:href="#DejaVuSans-Bold-68" transform="translate(3628.808594 0)"/>
     <use xlink:href="#DejaVuSans-Bold-65" transform="translate(3700 0)"/>
     <use xlink:href="#DejaVuSans-Bold-72" transform="translate(3767.822266 0)"/>
     <use xlink:href="#DejaVuSans-Bold-65" transform="translate(3817.138672 0)"/>
     <use xlink:href="#DejaVuSans-Bold-20" transform="translate(3884.960938 0)"/>
     <use xlink:href="#DejaVuSans-Bold-75" transform="translate(3919.775391 0)"/>
     <use xlink:href="#DejaVuSans-Bold-6e" transform="translate(3990.966797 0)"/>
     <use xlink:href="#DejaVuSans-Bold-74" transform="translate(4062.158203 0)"/>
     <use xlink:href="#DejaVuSans-Bold-69" transform="translate(4109.960938 0)"/>
     <use xlink:href="#DejaVuSans-Bold-6c" transform="translate(4144.238281 0)"/>
     <use xlink:href="#DejaVuSans-Bold-20" transform="translate(4178.515625 0)"/>
     <use xlink:href="#DejaVuSans-Bold-69" transform="translate(4213.330078 0)"/>
     <use xlink:href="#DejaVuSans-Bold-74" transform="translate(4247.607422 0)"/>
     <use xlink:href="#DejaVuSans-Bold-20" transform="translate(4295.410156 0)"/>
     <use xlink:href="#DejaVuSans-Bold-72" transform="translate(4330.224609 0)"/>
     <use xlink:href="#DejaVuSans-Bold-65" transform="translate(4379.541016 0)"/>
     <use xlink:href="#DejaVuSans-Bold-61" transform="translate(4447.363281 0)"/>
     <use xlink:href="#DejaVuSans-Bold-63" transform="translate(4514.84375 0)"/>
     <use xlink:href="#DejaVuSans-Bold-68" transform="translate(4574.121094 0)"/>
     <use xlink:href="#DejaVuSans-Bold-65" transform="translate(4645.3125 0)"/>
     <use xlink:href="#DejaVuSans-Bold-73" transform="translate(4713.134766 0)"/>
     <use xlink:href="#DejaVuSans-Bold-20" transform="translate(4772.65625 0)"/>
     <use xlink:href="#DejaVuSans-Bold-74" transform="translate(4807.470703 0)"/>
     <use xlink:href="#DejaVuSans-Bold-68" transform="translate(4855.273438 0)"/>
     <use xlink:href="#DejaVuSans-Bold-65" transform="translate(4926.464844 0)"/>
     <use xlink:href="#DejaVuSans-Bold-20" transform="translate(4994.287109 0)"/>
     <use xlink:href="#DejaVuSans-Bold-67" transform="translate(5029.101562 0)"/>
     <use xlink:href="#DejaVuSans-Bold-6f" transform="translate(5100.683594 0)"/>
     <use xlink:href="#DejaVuSans-Bold-61" transform="translate(5169.384766 0)"/>
     <use xlink:href="#DejaVuSans-Bold-6c" transform="translate(5236.865234 0)"/>
     <use xlink:href="#DejaVuSans-Bold-20" transform="translate(5271.142578 0)"/>
     <use xlink:href="#DejaVuSans-Bold-7a" transform="translate(5305.957031 0)"/>
     <use xlink:href="#DejaVuSans-Bold-6f" transform="translate(5364.160156 0)"/>
     <use xlink:href="#DejaVuSans-Bold-6e" transform="translate(5432.861328 0)"/>
     <use xlink:href="#DejaVuSans-Bold-65" transform="translate(5504.052734 0)"/>
     <use xlink:href="#DejaVuSans-Bold-2e" transform="translate(5571.875 0)"/>
    </g>
   </g>
   <g id="text_8">
    <!-- Tunnel Guide Drawing - top -->
    <g transform="translate(137.374837 14.798437) scale(0.1 -0.1)">
     <defs>
      <path id="DejaVuSans-54" d="M -19 4666 
L 3928 4666 
L 3928 4134 
L 2272 4134 
L 2272 0 
L 1638 0 
L 1638 4134 
L -19 4134 
L -19 4666 
z
" transform="scale(0.015625)"/>
      <path id="DejaVuSans-47" d="M 3809 666 
L 3809 1919 
L 2778 1919 
L 2778 2438 
L 4434 2438 
L 4434 434 
Q 4069 175 3628 42 
Q 3188 -91 2688 -91 
Q 1594 -91 976 548 
Q 359 1188 359 2328 
Q 359 3472 976 4111 
Q 1594 4750 2688 4750 
Q 3144 4750 3555 4637 
Q 3966 4525 4313 4306 
L 4313 3634 
Q 3963 3931 3569 4081 
Q 3175 4231 2741 4231 
Q 1884 4231 1454 3753 
Q 1025 3275 1025 2328 
Q 1025 1384 1454 906 
Q 1884 428 2741 428 
Q 3075 428 3337 486 
Q 3600 544 3809 666 
z
" transform="scale(0.015625)"/>
      <path id="DejaVuSans-64" d="M 2906 2969 
L 2906 4863 
L 3481 4863 
L 3481 0 
L 2906 0 
L 2906 525 
Q 2725 213 2448 61 
Q 2172 -91 1784 -91 
Q 1150 -91 751 415 
Q 353 922 353 1747 
Q 353 2572 751 3078 
Q 1150 3584 1784 3584 
Q 2172 3584 2448 3432 
Q 2725 3281 2906 2969 
z
M 947 1747 
Q 947 1113 1208 752 
Q 1469 391 1925 391 
Q 2381 391 2643 752 
Q 2906 1113 2906 1747 
Q 2906 2381 2643 2742 
Q 2381 3103 1925 3103 
Q 1469 3103 1208 2742 
Q 947 2381 947 1747 
z
" transform="scale(0.015625)"/>
      <path id="DejaVuSans-77" d="M 269 3500 
L 844 3500 
L 1563 769 
L 2278 3500 
L 2956 3500 
L 3675 769 
L 4391 3500 
L 4966 3500 
L 4050 0 
L 3372 0 
L 2619 2869 
L 1863 0 
L 1184 0 
L 269 3500 
z
" transform="scale(0.015625)"/>
      <path id="DejaVuSans-2d" d="M 313 2009 
L 1997 2009 
L 1997 1497 
L 313 1497 
L 313 2009 
z
" transform="scale(0.015625)"/>
      <path id="DejaVuSans-70" d="M 1159 525 
L 1159 -1331 
L 581 -1331 
L 581 3500 
L 1159 3500 
L 1159 2969 
Q 1341 3281 1617 3432 
Q 1894 3584 2278 3584 
Q 2916 3584 3314 3078 
Q 3713 2572 3713 1747 
Q 3713 922 3314 415 
Q 2916 -91 2278 -91 
Q 1894 -91 1617 61 
Q 1341 213 1159 525 
z
M 3116 1747 
Q 3116 2381 2855 2742 
Q 2594 3103 2138 3103 
Q 1681 3103 1420 2742 
Q 1159 2381 1159 1747 
Q 1159 1113 1420 752 
Q 1681 391 2138 391 
Q 2594 391 2855 752 
Q 3116 1113 3116 1747 
z
" transform="scale(0.015625)"/>
     </defs>
     <use xlink:href="#DejaVuSans-54"/>
     <use xlink:href="#DejaVuSans-75" transform="translate(45.958984 0)"/>
     <use xlink:href="#DejaVuSans-6e" transform="translate(109.337891 0)"/>
     <use xlink:href="#DejaVuSans-6e" transform="translate(172.716797 0)"/>
     <use xlink:href="#DejaVuSans-65" transform="translate(236.095703 0)"/>
     <use xlink:href="#DejaVuSans-6c" transform="translate(297.619141 0)"/>
     <use xlink:href="#DejaVuSans-20" transform="translate(325.402344 0)"/>
     <use xlink:href="#DejaVuSans-47" transform="translate(357.189453 0)"/>
     <use xlink:href="#DejaVuSans-75" transform="translate(434.679688 0)"/>
     <use xlink:href="#DejaVuSans-69" transform="translate(498.058594 0)"/>
     <use xlink:href="#DejaVuSans-64" transform="translate(525.841797 0)"/>
     <use xlink:href="#DejaVuSans-65" transform="translate(589.318359 0)"/>
     <use xlink:href="#DejaVuSans-20" transform="translate(650.841797 0)"/>
     <use xlink:href="#DejaVuSans-44" transform="translate(682.628906 0)"/>
     <use xlink:href="#DejaVuSans-72" transform="translate(759.630859 0)"/>
     <use xlink:href="#DejaVuSans-61" transform="translate(800.744141 0)"/>
     <use xlink:href="#DejaVuSans-77" transform="translate(862.023438 0)"/>
     <use xlink:href="#DejaVuSans-69" transform="translate(943.810547 0)"/>
     <use xlink:href="#DejaVuSans-6e" transform="translate(971.59375 0)"/>
     <use xlink:href="#DejaVuSans-67" transform="translate(1034.972656 0)"/>
     <use xlink:href="#DejaVuSans-20" transform="translate(1098.449219 0)"/>
     <use xlink:href="#DejaVuSans-2d" transform="translate(1130.236328 0)"/>
     <use xlink:href="#DejaVuSans-20" transform="translate(1166.320312 0)"/>
     <use xlink:href="#DejaVuSans-74" transform="translate(1198.107422 0)"/>
     <use xlink:href="#DejaVuSans-6f" transform="translate(1237.316406 0)"/>
     <use xlink:href="#DejaVuSans-70" transform="translate(1298.498047 0)"/>
    </g>
   </g>
  </g>
 </g>
 <defs>
  <clipPath id="pa2f5fc28e6">
   <rect x="7.2" y="26.798437" width="396.543425" height="425.7792"/>
  </clipPath>
 </defs>
</svg>
