<?xml version='1.0' encoding='utf-8'?>
<svg width="620.854228mm" height="670.8923mm" viewBox="-338.122078 -375.247757 620.854228 670.8923" version="1.1" xmlns="http://www.w3.org/2000/svg">
  <g transform="scale(1,-1)" stroke-linecap="round">
    <g fill="none" stroke="rgb(0,0,0)" stroke-width="0.09" id="visible">
      <line x1="-217.529078" y1="375.202757" x2="-214.729906" y2="374.984323" />
      <line x1="-217.529078" y1="375.202757" x2="-338.077078" y2="257.782826" />
      <line x1="266.988492" y1="-203.164045" x2="264.391959" y2="-197.704361" />
      <line x1="266.988492" y1="-203.164045" x2="156.530288" y2="-270.640997" />
      <line x1="-217.529078" y1="375.202757" x2="266.988492" y2="-203.164045" />
      <line x1="-214.729906" y1="374.984323" x2="264.391959" y2="-197.704361" />
      <line x1="-338.077078" y1="257.782826" x2="156.530288" y2="-270.640997" />
      <line x1="-137.708448" y1="282.921488" x2="-136.789127" y2="283.424222" />
      <line x1="-19.466429" y1="141.588204" x2="-19.344576" y2="142.944293" />
      <line x1="-136.789127" y1="283.424222" x2="-19.344576" y2="142.944293" />
      <line x1="-154.388634" y1="58.264978" x2="-153.302527" y2="60.375183" />
      <line x1="-155.422214" y1="62.639793" x2="-162.619214" y2="56.716699" />
      <line x1="-167.65984" y1="47.370911" x2="-162.619214" y2="56.716699" />
      <line x1="-154.388634" y1="58.264978" x2="-167.65984" y2="47.370911" />
      <line x1="170.335262" y1="-288.101843" x2="166.044389" y2="-271.820316" />
      <line x1="170.335262" y1="-288.101843" x2="157.872726" y2="-295.599543" />
      <line x1="-154.388634" y1="58.264978" x2="170.335262" y2="-288.101843" />
      <line x1="161.895084" y1="-267.363739" x2="166.044389" y2="-271.820316" />
      <line x1="-167.65984" y1="47.370911" x2="157.872726" y2="-295.599543" />
      <line x1="-13.342757" y1="174.046713" x2="-12.917225" y2="179.920678" />
      <line x1="-12.917225" y1="179.920678" x2="-27.274504" y2="168.10471" />
      <line x1="-28.167907" y1="161.877045" x2="-27.274504" y2="168.10471" />
      <line x1="-13.342757" y1="174.046713" x2="-28.167907" y2="161.877045" />
      <line x1="282.68715" y1="-186.483542" x2="275.147247" y2="-171.954863" />
      <line x1="282.68715" y1="-186.483542" x2="268.944139" y2="-194.912414" />
      <line x1="-13.342757" y1="174.046713" x2="282.68715" y2="-186.483542" />
      <line x1="-12.917225" y1="179.920678" x2="275.147247" y2="-171.954863" />
      <line x1="-28.167907" y1="161.877045" x2="268.944139" y2="-194.912414" />
      <line x1="46.598568" y1="-182.297835" x2="46.225623" y2="-177.97181" />
      <line x1="48.881735" y1="-180.770203" x2="46.598568" y2="-182.297835" />
      <line x1="126.11366" y1="-262.139231" x2="123.8713" y2="-263.531123" />
      <line x1="46.598568" y1="-182.297835" x2="123.8713" y2="-263.531123" />
    </g>
    <g fill="none" stroke="rgb(0,0,0)" stroke-width="0.09" id="hidden" stroke-dasharray="0.5715 0.28575">
      <line x1="-214.729906" y1="374.984323" x2="-333.941851" y2="259.01143" />
      <line x1="-338.077078" y1="257.782826" x2="-333.941851" y2="259.01143" />
      <line x1="264.391959" y1="-197.704361" x2="155.065587" y2="-264.756484" />
      <line x1="156.530288" y1="-270.640997" x2="155.065587" y2="-264.756484" />
      <line x1="-333.941851" y1="259.01143" x2="155.065587" y2="-264.756484" />
      <line x1="-142.700802" y1="280.191403" x2="-137.708448" y2="282.921488" />
      <line x1="-136.789127" y1="283.424222" x2="-243.186598" y2="187.074792" />
      <line x1="-253.228548" y1="180.007339" x2="-243.186598" y2="187.074792" />
      <line x1="-142.700802" y1="280.191403" x2="-253.228548" y2="180.007339" />
      <line x1="-20.126371" y1="134.243783" x2="-19.466429" y2="141.588204" />
      <line x1="-19.344576" y1="142.944293" x2="-124.096804" y2="58.007563" />
      <line x1="-128.902653" y1="46.381051" x2="-124.096804" y2="58.007563" />
      <line x1="-20.126371" y1="134.243783" x2="-128.902653" y2="46.381051" />
      <line x1="-142.700802" y1="280.191403" x2="-20.126371" y2="134.243783" />
      <line x1="-253.228548" y1="180.007339" x2="-128.902653" y2="46.381051" />
      <line x1="-243.186598" y1="187.074792" x2="-124.096804" y2="58.007563" />
      <line x1="-153.302527" y1="60.375183" x2="-149.722692" y2="67.330471" />
      <line x1="-149.722692" y1="67.330471" x2="-155.422214" y2="62.639793" />
      <line x1="166.044389" y1="-271.820316" x2="153.913079" y2="-279.20073" />
      <line x1="157.872726" y1="-295.599543" x2="153.913079" y2="-279.20073" />
      <line x1="-149.722692" y1="67.330471" x2="161.895084" y2="-267.363739" />
      <line x1="-162.619214" y1="56.716699" x2="153.913079" y2="-279.20073" />
      <line x1="275.147247" y1="-171.954863" x2="261.803796" y2="-180.226797" />
      <line x1="268.944139" y1="-194.912414" x2="261.803796" y2="-180.226797" />
      <line x1="-27.274504" y1="168.10471" x2="261.803796" y2="-180.226797" />
      <line x1="109.937866" y1="-106.711385" x2="103.583274" y2="-79.837122" />
      <line x1="103.583274" y1="-79.837122" x2="89.484413" y2="-89.602859" />
      <line x1="94.943978" y1="-116.925613" x2="89.484413" y2="-89.602859" />
      <line x1="109.937866" y1="-106.711385" x2="94.943978" y2="-116.925613" />
      <line x1="218.394236" y1="-230.145442" x2="206.561677" y2="-198.26749" />
      <line x1="206.561677" y1="-198.26749" x2="192.843069" y2="-206.850504" />
      <line x1="203.83321" y1="-239.05436" x2="192.843069" y2="-206.850504" />
      <line x1="218.394236" y1="-230.145442" x2="203.83321" y2="-239.05436" />
      <line x1="109.937866" y1="-106.711385" x2="218.394236" y2="-230.145442" />
      <line x1="103.583274" y1="-79.837122" x2="206.561677" y2="-198.26749" />
      <line x1="94.943978" y1="-116.925613" x2="203.83321" y2="-239.05436" />
      <line x1="89.484413" y1="-89.602859" x2="192.843069" y2="-206.850504" />
      <line x1="126.753155" y1="-128.667632" x2="122.767945" y2="-113.359291" />
      <line x1="122.767945" y1="-113.359291" x2="45.174846" y2="-165.783207" />
      <line x1="46.225623" y1="-177.97181" x2="45.174846" y2="-165.783207" />
      <line x1="126.753155" y1="-128.667632" x2="48.881735" y2="-180.770203" />
      <line x1="202.489179" y1="-214.730947" x2="196.411425" y2="-197.533474" />
      <line x1="196.411425" y1="-197.533474" x2="120.253634" y2="-245.372633" />
      <line x1="123.8713" y1="-263.531123" x2="120.253634" y2="-245.372633" />
      <line x1="202.489179" y1="-214.730947" x2="126.11366" y2="-262.139231" />
      <line x1="126.753155" y1="-128.667632" x2="202.489179" y2="-214.730947" />
      <line x1="122.767945" y1="-113.359291" x2="196.411425" y2="-197.533474" />
      <line x1="45.174846" y1="-165.783207" x2="120.253634" y2="-245.372633" />
    </g>
  </g>
</svg>